<svg width="340" height="345" viewBox="0 0 340 345" fill="none" xmlns="http://www.w3.org/2000/svg">
<path d="M15.0391 205.288H35.7803V196.158H15.0391V205.288Z" fill="#EBEBEB"/>
<path d="M26.6158 184.647L36.8924 184.418L42.109 184.328C43.8557 184.288 45.6103 184.328 47.357 184.288H47.7016V184.655L47.7486 193.784V194.192H47.3726L37.002 194.143C33.5478 194.143 30.0857 194.045 26.6314 194.005H26.4121V193.784C26.4121 192.234 26.4748 190.692 26.5139 189.175L26.6158 184.647ZM26.6158 184.647L26.7254 189.256C26.7254 190.782 26.8116 192.283 26.8272 193.776L26.6158 193.556C30.07 193.515 33.5321 193.425 36.9864 193.417L47.3726 193.368L46.981 193.776V184.647L47.3726 185.046C45.6651 185.046 43.9575 185.046 42.2422 184.997L37.0882 184.908L26.6158 184.647Z" fill="#EBEBEB"/>
<path d="M3.50911 184.647L13.7857 184.418L19.0024 184.328C20.7491 184.288 22.4958 184.328 24.2503 184.288H24.595V184.655L24.642 193.784V194.192H24.2503L13.8797 194.143C10.4176 194.143 6.96337 194.045 3.50911 194.005H3.28979V193.784C3.28979 192.234 3.36029 190.692 3.39162 189.175L3.50911 184.647ZM3.50911 184.647L3.61877 189.256C3.61877 190.782 3.70493 192.283 3.7206 193.776L3.50911 193.556C6.96337 193.515 10.4176 193.425 13.8797 193.417L24.2503 193.368L23.8587 193.776V184.647L24.2112 185.014C22.4958 185.014 20.7961 185.014 19.0807 184.965L13.9267 184.875L3.50911 184.647Z" fill="#EBEBEB"/>
<path d="M322.515 15.2982L312.238 15.5266L307.021 15.6163C305.275 15.6571 303.52 15.6163 301.773 15.6653H301.429V15.2982L301.382 6.16867V5.76074H301.773L312.144 5.81785C315.606 5.81785 319.06 5.9076 322.515 5.94839H322.734V6.16867C322.734 7.71881 322.664 9.26079 322.632 10.7864L322.515 15.2982ZM322.515 15.2982L322.405 10.6885C322.405 9.17104 322.319 7.66986 322.303 6.16867L322.515 6.39711C319.06 6.39711 315.606 6.52765 312.144 6.52765L301.773 6.5766L302.165 6.16867L302.126 15.2982L301.773 14.9392C303.481 14.9392 305.189 14.9392 306.904 14.9392L312.058 15.0371L322.515 15.2982Z" fill="#EBEBEB"/>
<path d="M334.084 17.6804H313.343V26.8099H334.084V17.6804Z" fill="#EBEBEB"/>
<path d="M24.2189 15.3473L13.9345 15.5676L8.71785 15.6655C6.97114 15.6655 5.22443 15.6655 3.47772 15.6655H3.12524V15.3473V6.21785V5.80176H3.50905L13.8797 5.85071C17.3339 5.85071 20.7882 5.94046 24.2503 5.98125H24.4617V6.20153C24.4617 7.74351 24.3913 9.28548 24.3599 10.8111L24.2189 15.3473ZM24.2189 15.3473L24.1014 10.7296C24.1014 9.21206 24.0153 7.71087 23.9996 6.21785L24.2189 6.43813C20.7568 6.47892 17.3026 6.56867 13.8483 6.56867L3.50905 6.59314L3.89286 6.18521L3.82236 15.3473L3.50905 14.9476C5.2166 14.9476 6.91631 14.9476 8.63169 14.9965L13.7857 15.0863L24.2189 15.3473Z" fill="#EBEBEB"/>
<path d="M149.253 72.9062H169.995V63.7768H149.253V72.9062Z" fill="#EBEBEB"/>
<path d="M313.342 188.057L323.627 187.828L328.844 187.739C330.59 187.698 332.337 187.739 334.084 187.69H334.436V188.057L334.475 197.186V197.594H334.052L323.682 197.545C320.227 197.545 316.773 197.447 313.311 197.407H313.1V197.186C313.1 195.636 313.17 194.094 313.201 192.577L313.342 188.057ZM313.342 188.057L313.46 192.666C313.46 194.192 313.546 195.693 313.562 197.186L313.342 196.966C316.805 196.925 320.259 196.836 323.713 196.827L334.084 196.778L333.7 197.186L333.739 188.057L334.084 188.424C332.376 188.424 330.676 188.424 328.961 188.375L323.807 188.285L313.342 188.057Z" fill="#EBEBEB"/>
<path d="M177.726 273.037H198.467V263.907H177.726V273.037Z" fill="#EBEBEB"/>
<path d="M160.815 52.2651L171.13 52.0612L176.347 51.9714C178.094 51.9714 179.841 51.9714 181.595 51.9714H181.94V52.3386L181.979 61.4681V61.876H181.587L171.217 61.827C167.755 61.827 164.3 61.7373 160.846 61.6883H160.627V61.4681C160.627 59.9179 160.697 58.3759 160.729 56.8584L160.815 52.2651ZM160.815 52.2651L160.932 56.8829C160.932 58.4004 161.018 59.9016 161.034 61.3946L160.823 61.1743C164.277 61.1743 167.731 61.0438 171.193 61.0438L181.564 60.9867L181.172 61.3946L181.211 52.2651L181.564 52.6323C179.848 52.6323 178.149 52.6323 176.433 52.5833L171.279 52.4936L160.815 52.2651Z" fill="#EBEBEB"/>
<path d="M57.1793 264.185H30.8925L15.8535 186.066L39.9158 174.546L57.1793 264.185Z" fill="#DBDBDB"/>
<path d="M132.421 264.185H57.1792L39.9158 174.546H115.157L132.421 264.185Z" fill="#EBEBEB"/>
<path d="M43.6834 222.274H3.39941V308.372H43.6834V222.274Z" fill="#DBDBDB"/>
<path d="M151.752 308.372H140.747L124.345 222.274H151.752V308.372Z" fill="#DBDBDB"/>
<path d="M65.819 222.274H43.6836V308.372H65.819V222.274Z" fill="#EBEBEB"/>
<path d="M173.888 222.274H151.752V308.372H173.888V222.274Z" fill="#EBEBEB"/>
<path d="M151.752 264.185H65.8188V308.364H151.752V264.185Z" fill="#EBEBEB"/>
<path d="M151.752 245.085H65.8188V264.364H151.752V245.085Z" fill="#EBEBEB"/>
<path d="M49.1116 222.274L57.4691 222.119L65.8189 222.005H66.0695V222.274L66.1714 232.366V242.442C66.1714 249.157 66.2184 255.871 66.1714 262.594C66.1244 269.317 66.1714 276.023 66.0617 282.746C65.9521 289.468 65.9207 296.175 65.7797 302.898C65.644 296.175 65.5526 289.458 65.5056 282.746C65.4194 276.023 65.4116 269.309 65.3881 262.594C65.3646 255.879 65.3881 249.157 65.3881 242.442V232.366L65.4821 222.29L65.7327 222.552L57.383 222.445L49.1116 222.274Z" fill="#DBDBDB"/>
<path d="M151.752 222.274C151.925 229.013 152.003 235.752 152.073 242.499L152.167 262.724L152.073 282.95L151.956 293.066L151.752 303.175L151.549 293.066L151.431 282.95L151.337 262.724L151.431 242.499C151.502 235.752 151.549 229.013 151.752 222.274Z" fill="#DBDBDB"/>
<path d="M151.752 264.185C144.593 264.364 137.434 264.446 130.267 264.519L108.789 264.617L87.3198 264.519L76.5811 264.397L65.8188 264.185L76.5654 263.972L87.3042 263.85L108.789 263.752L130.267 263.85C137.45 263.924 144.593 264.005 151.752 264.185Z" fill="#DBDBDB"/>
<path d="M151.752 245.085C144.593 245.265 137.434 245.347 130.267 245.42L108.789 245.518L87.3198 245.42L76.581 245.298L65.8345 245.085L76.581 244.873L87.3198 244.751L108.805 244.653L130.283 244.751C137.45 244.824 144.593 244.906 151.752 245.085Z" fill="#DBDBDB"/>
<path d="M18.7125 308.364L18.1642 315.339L16.8953 331.461H11.0599L9.79097 315.339L9.24268 308.364H18.7125Z" fill="#C7C7C7"/>
<path d="M9.24268 308.364H18.7125L18.1642 315.339H9.79097L9.24268 308.364Z" fill="#A6A6A6"/>
<path d="M59.4901 308.364L58.9418 315.339L57.6729 331.461H51.8375L50.5686 315.339L50.0203 308.364H59.4901Z" fill="#C7C7C7"/>
<path d="M50.0203 308.364H59.4901L58.9418 315.339H50.5686L50.0203 308.364Z" fill="#A6A6A6"/>
<path d="M127.118 308.364L126.578 315.339L125.309 331.461H119.473L118.204 315.339L117.656 308.364H127.118Z" fill="#C7C7C7"/>
<path d="M117.656 308.364H127.118L126.578 315.339H118.204L117.656 308.364Z" fill="#A6A6A6"/>
<path d="M167.911 308.364L167.363 315.339L166.094 331.461H160.259L158.99 315.339L158.441 308.364H167.911Z" fill="#C7C7C7"/>
<path d="M167.911 308.364L167.363 315.339H158.99L158.441 308.364H167.911Z" fill="#A6A6A6"/>
<path d="M153.836 56.9236H19.3862V62.9365H153.836V56.9236Z" fill="#EBEBEB"/>
<path d="M38.9367 86.6044H33.6966L31.5974 62.9363H38.9367V86.6044Z" fill="#EBEBEB"/>
<path d="M134.285 86.6044H139.525L141.624 62.9363H134.285V86.6044Z" fill="#EBEBEB"/>
<path d="M31.5974 62.9363H38.9289V71.0867H32.318L31.5974 62.9363Z" fill="#DBDBDB"/>
<path d="M141.624 62.9363L140.904 71.0867H134.285V62.9363H141.624Z" fill="#DBDBDB"/>
<path d="M68.0745 20.8544C62.106 29.2659 55.8867 39.0073 54.375 49.6135C54.3745 49.6464 54.3853 49.6783 54.4053 49.7037C54.4253 49.7291 54.4533 49.7462 54.4843 49.7521C54.5154 49.758 54.5474 49.7522 54.5747 49.7358C54.602 49.7194 54.6228 49.6934 54.6335 49.6625C55.3216 46.7866 56.2036 43.9648 57.2731 41.2183C61.1895 40.0924 65.0433 39.1705 67.1033 35.1157C69.1633 31.0608 68.9362 25.513 68.5367 20.9686C68.521 20.6994 68.192 20.6912 68.0745 20.8544Z" fill="#EBEBEB"/>
<path d="M57.3358 41.1119C59.9596 34.696 63.4952 28.7279 67.8239 23.4077L67.8709 23.4567C65.1324 27.1268 62.7279 31.0544 60.6882 35.1888C62.6621 33.1001 64.8239 31.2237 66.696 29.0127C66.696 29.0127 66.79 29.0127 66.7586 29.078C64.9023 31.395 62.8422 33.916 60.4924 35.6048C59.8449 36.8558 59.1869 38.1068 58.5185 39.3578C58.683 39.2599 58.8554 39.1783 59.0198 39.0886V39.1375L58.4637 39.4231C58.1504 40.0105 57.8371 40.6061 57.5159 41.1935C57.4533 41.3567 57.2731 41.2424 57.3358 41.1119Z" fill="#A6A6A6"/>
<path d="M59.3255 38.9255C60.9289 37.9888 62.4608 36.9251 63.9076 35.7437C63.9076 35.7437 64.0016 35.7437 63.9625 35.8008C62.5608 37.0649 61.0263 38.1597 59.3881 39.0642C59.3794 39.0685 59.3699 39.0709 59.3603 39.0714C59.3506 39.0719 59.341 39.0704 59.3319 39.067C59.3228 39.0636 59.3144 39.0583 59.3073 39.0515C59.3001 39.0448 59.2943 39.0366 59.2902 39.0275C59.2861 39.0184 59.2837 39.0085 59.2833 38.9985C59.2828 38.9884 59.2843 38.9784 59.2876 38.9689C59.2908 38.9594 59.2959 38.9507 59.3024 38.9433C59.3089 38.9358 59.3167 38.9298 59.3255 38.9255Z" fill="#A6A6A6"/>
<path d="M53.7172 49.491C53.7172 49.6215 53.9365 49.6134 53.9365 49.491C53.9365 46.0154 53.9365 42.5236 53.9914 39.0317C54.8451 37.2368 56.678 36.2414 57.9547 34.7973C58.8638 33.7458 59.6524 32.5876 60.3046 31.3463C61.8394 28.3791 62.7776 25.1173 63.0617 21.7599C63.4142 18.0396 62.0591 5.77717 60.5552 6.20142C59.772 6.4217 57.2498 12.4999 56.584 14.5069C55.5053 17.8194 54.7188 21.2275 54.2342 24.6888C53.0201 32.8638 53.1219 41.259 53.7172 49.491Z" fill="#EBEBEB"/>
<path d="M53.6937 34.4954C54.0109 30.0757 54.6895 25.6922 55.7224 21.3927C56.678 16.7912 57.798 12.4672 60.0696 8.3389C60.0696 8.25732 60.2184 8.33891 60.1792 8.40417C58.6665 11.5921 57.4949 14.9437 56.6858 18.3985C56.8424 18.1537 57.0226 17.9171 57.1793 17.6805C57.2419 17.5908 57.3907 17.6805 57.3281 17.7703C57.1276 18.1423 56.8914 18.4922 56.6231 18.8146C55.8399 22.078 55.2759 25.4557 54.7981 28.8089L54.9078 28.6783C54.9078 28.6783 54.9704 28.6783 54.9547 28.6783L54.7668 29.0128C54.5239 30.7098 54.2968 32.4068 54.0696 34.0875C57.0537 31.5968 59.3889 28.3649 60.8607 24.6888C59.6183 28.609 57.2129 32.0172 53.9913 34.422C53.9365 34.8789 53.8738 35.3276 53.8112 35.7845C53.8112 35.8742 53.6545 35.8497 53.6545 35.7845C53.6545 35.3847 53.6545 34.9686 53.6545 34.577C53.6534 34.561 53.6565 34.545 53.6634 34.5306C53.6703 34.5163 53.6807 34.5041 53.6937 34.4954Z" fill="#A6A6A6"/>
<path d="M55.0641 28.1235C57.3353 24.7776 59.317 21.2282 60.9857 17.5173C60.9857 17.5173 61.0797 17.5173 61.064 17.5173C59.7458 21.4212 57.7609 25.0448 55.2051 28.2133C55.1995 28.2229 55.192 28.2313 55.1833 28.238C55.1745 28.2446 55.1645 28.2494 55.154 28.252C55.1435 28.2547 55.1325 28.2552 55.1218 28.2534C55.1111 28.2517 55.1008 28.2477 55.0915 28.2418C55.0823 28.2359 55.0742 28.2282 55.0678 28.2191C55.0615 28.2099 55.0569 28.1996 55.0543 28.1886C55.0518 28.1776 55.0513 28.1662 55.053 28.155C55.0547 28.1439 55.0585 28.1332 55.0641 28.1235Z" fill="#A6A6A6"/>
<path d="M58.0173 16.6445C58.9416 14.9475 59.905 13.2994 60.7745 11.5698C60.7745 11.5209 60.8606 11.5698 60.8449 11.6106C60.1338 13.4165 59.2327 15.1349 58.1583 16.7342C58.1445 16.7472 58.1271 16.7552 58.1086 16.757C58.0901 16.7588 58.0715 16.7543 58.0556 16.7442C58.0398 16.7341 58.0275 16.7189 58.0206 16.7009C58.0137 16.683 58.0125 16.6632 58.0173 16.6445Z" fill="#A6A6A6"/>
<path d="M52.0723 40.5817C52.0281 42.8874 51.7657 45.1829 51.289 47.4349C51.289 47.6797 51.3595 47.9244 51.3908 48.1855C52.0723 45.6974 52.4693 43.1342 52.5736 40.5491C52.5909 40.5122 52.5999 40.4718 52.5999 40.4308C52.5999 40.3898 52.5909 40.3493 52.5736 40.3125C52.6686 36.8496 52.4219 33.3858 51.8373 29.9755C50.8034 23.5873 48.5475 17.452 44.2708 12.6711C44.235 12.6399 44.1929 12.6175 44.1477 12.6054C44.1025 12.5934 44.0553 12.592 44.0095 12.6014C43.9637 12.6107 43.9205 12.6307 43.8831 12.6597C43.8456 12.6887 43.8148 12.726 43.793 12.769C42.0698 17.3378 42.6729 22.7959 44.1455 27.3566C44.9423 29.8269 46.0851 32.161 47.5371 34.2832C49.0253 36.4208 50.8974 38.2402 52.0723 40.5817Z" fill="#EBEBEB"/>
<path d="M44.7958 14.8005C48.8531 21.6537 51.673 29.7715 52.0176 37.8649C52.0176 38.0117 51.7904 38.0525 51.7669 37.9057C51.673 37.1796 51.5711 36.4534 51.4536 35.7355C49.6945 34.1099 48.1486 32.2501 46.8558 30.204C46.8558 30.204 46.8558 30.1224 46.9185 30.204C48.3116 31.9785 49.8023 33.6675 51.3831 35.2623C51.0907 33.4783 50.7435 31.716 50.3414 29.9755C50.2317 29.8531 50.1299 29.7144 50.0202 29.5839C49.9106 29.4534 50.0672 29.3718 50.1377 29.4615L50.2396 29.5757C49.6697 27.1968 48.9608 24.8564 48.1169 22.5675C46.9908 21.3723 46.0024 20.0444 45.1717 18.6106C45.1717 18.6106 45.1717 18.5371 45.2266 18.6106C45.8103 19.5056 46.4378 20.3688 47.1064 21.1968C47.3728 21.5232 47.6782 21.8332 47.9602 22.1514C47.0243 19.6685 45.9142 17.2606 44.6391 14.9474C44.6204 14.9257 44.6107 14.8972 44.6122 14.8682C44.6137 14.8391 44.6262 14.8118 44.6469 14.7923C44.6677 14.7729 44.6951 14.7628 44.723 14.7643C44.7509 14.7658 44.7771 14.7789 44.7958 14.8005Z" fill="#A6A6A6"/>
<path d="M45.6181 23.2528C46.9262 25.0884 48.4222 26.8425 49.6363 28.7353C49.6363 28.7925 49.6363 28.8496 49.5502 28.8088C48.0006 27.1503 46.6512 25.3009 45.5319 23.3017C45.4928 23.2446 45.5789 23.1956 45.6181 23.2528Z" fill="#A6A6A6"/>
<path d="M49.8246 29.16L49.8796 29.2255C49.8796 29.2255 49.8796 29.3238 49.8167 29.2828L49.7617 29.2173C49.7224 29.2173 49.7853 29.1272 49.8246 29.16Z" fill="#A6A6A6"/>
<path d="M37.8242 26.2392C38.2973 30.067 39.7774 33.684 42.1009 36.6903C43.0534 37.8723 44.2327 38.8339 45.563 39.5132C47.0669 40.2883 48.6413 41.1449 50.1922 41.8139C50.9311 43.7731 51.4821 45.8036 51.8371 47.8758C51.8841 47.6963 51.9311 47.5168 51.9859 47.3373C50.9833 38.4118 45.4455 30.7835 38.349 25.8883C38.2936 25.8522 38.2295 25.8331 38.1641 25.8335C38.0987 25.8339 38.0348 25.8536 37.9798 25.8904C37.9248 25.9271 37.8809 25.9795 37.8534 26.0412C37.8258 26.103 37.8157 26.1716 37.8242 26.2392Z" fill="#EBEBEB"/>
<path d="M40.4249 31.9583C40.5202 32.021 40.6121 32.0894 40.7 32.163C40.7 32.163 40.7 32.2203 40.7 32.2121C40.6014 32.1628 40.5068 32.1052 40.417 32.0401C40.4109 32.035 40.4061 32.0284 40.4031 32.0208C40.4 32.0133 40.3989 32.0051 40.3996 31.997C40.4004 31.9888 40.4031 31.9811 40.4075 31.9743C40.412 31.9675 40.4179 31.962 40.4249 31.9583Z" fill="#A6A6A6"/>
<path d="M60.7041 56.9236H46.0959L46.8166 46.9538L47.0907 43.6985H59.5762L59.8581 46.9538L60.7041 56.9236Z" fill="#DBDBDB"/>
<path d="M59.8582 46.9538H46.8167L47.0908 43.6985H59.5763L59.8582 46.9538Z" fill="#C7C7C7"/>
<path d="M60.5709 41.0305H46.0959V44.3674H60.5709V41.0305Z" fill="#DBDBDB"/>
<path d="M96.1863 56.9071V20.6992H87.4292V56.9071H96.1863Z" fill="#C7C7C7"/>
<path d="M96.1943 22.7392V18.7578H87.4373V22.7392H96.1943Z" fill="#DBDBDB"/>
<path d="M96.1868 29.3068V27.8301H87.4297V29.3068H96.1868Z" fill="#DBDBDB"/>
<path d="M96.1868 52.1506V48.1692H87.4297V52.1506H96.1868Z" fill="#DBDBDB"/>
<path d="M102.304 56.907V14.6699H96.1866V56.907H102.304Z" fill="#DBDBDB"/>
<path d="M101.059 34.8788V18.635H97.385V34.8788H101.059Z" fill="#EBEBEB"/>
<path d="M145.869 52.3318L117.031 22.6382L112.73 27.1697L141.568 56.8633L145.869 52.3318Z" fill="#C7C7C7"/>
<path d="M138.26 46.2559L127.169 34.8362L124.586 37.5574L135.677 48.9771L138.26 46.2559Z" fill="#DBDBDB"/>
<path d="M112.698 56.9073V24.8276H102.312V56.9073H112.698Z" fill="#A6A6A6"/>
<path d="M112.69 53.5049V50.5188H102.304V53.5049H112.69Z" fill="#C7C7C7"/>
<path d="M112.698 48.5526V47.394H102.312V48.5526H112.698Z" fill="#C7C7C7"/>
<path d="M76.5343 57.3801L87.8218 29.6458L81.2209 26.7312L69.9335 54.4655L76.5343 57.3801Z" fill="#A6A6A6"/>
<path d="M77.2849 53.9924L78.3477 51.4133L71.7545 48.4657L70.6917 51.0447L77.2849 53.9924Z" fill="#C7C7C7"/>
<path d="M84.0783 37.5204L85.1411 34.9414L78.548 31.9938L77.4852 34.5728L84.0783 37.5204Z" fill="#C7C7C7"/>
<path d="M82.939 40.2917L83.353 39.2871L76.7599 36.3395L76.3459 37.3441L82.939 40.2917Z" fill="#C7C7C7"/>
<path d="M305.15 232.848H228.553V331.461H305.15V232.848Z" fill="#EBEBEB"/>
<path d="M308.854 228.752H224.84V232.848H308.854V228.752Z" fill="#DBDBDB"/>
<path d="M335.282 228.752H308.862V232.848H335.282V228.752Z" fill="#EBEBEB"/>
<path d="M331.1 232.848H305.15V331.461H331.1V232.848Z" fill="#DBDBDB"/>
<path d="M296.901 278.634H236.801V243.242H296.901V278.634ZM236.996 278.43H296.706V243.446H236.996V278.43Z" fill="#C7C7C7"/>
<path d="M270.168 253.587H258.466V260.595H270.168V253.587Z" fill="#C7C7C7"/>
<path d="M273.74 260.163H261.826V254.011H273.74V260.163ZM261.991 259.959H273.497V254.248H261.991V259.959Z" fill="#C7C7C7"/>
<path d="M296.901 323.082H236.801V287.69H296.901V323.082ZM236.996 322.878H296.706V287.894H236.996V322.878Z" fill="#C7C7C7"/>
<path d="M270.168 298.035H258.466V305.043H270.168V298.035Z" fill="#C7C7C7"/>
<path d="M273.74 304.611H261.826V298.451H273.74V304.611ZM261.991 304.407H273.497V298.696H261.991V304.407Z" fill="#C7C7C7"/>
<path d="M335.666 331.461L293.714 331.656L251.753 331.73L167.833 331.869L83.9126 331.73L41.9602 331.656L0 331.461L41.9602 331.257L83.9126 331.191L167.833 331.053L251.753 331.191L293.714 331.257L335.666 331.461Z" fill="#263238"/>
<path d="M315.951 331.46H320.439L289.006 158.449H277.829L315.951 331.46Z" fill="#455A64"/>
<path d="M277.829 158.449L283.469 184.034H293.651L289.014 158.473L289.006 158.449H277.829Z" fill="#37474F"/>
<path d="M270.098 331.46H274.586L273.584 158.449H262.414L270.098 331.46Z" fill="#455A64"/>
<path d="M262.414 158.449L263.55 184.034H273.732L273.584 158.473V158.449H262.414Z" fill="#37474F"/>
<path d="M228.733 331.46H224.253L248.997 158.449H260.174L228.733 331.46Z" fill="#455A64"/>
<path d="M245.339 184.034H255.521L260.174 158.449H248.997L248.989 158.473L245.339 184.034Z" fill="#37474F"/>
<path d="M237.937 260.717H303.16V257.34H237.937V260.717Z" fill="#455A64"/>
<path d="M335.309 94.3726C337.599 46.1016 312.774 5.59623 279.859 3.90147C246.945 2.20671 218.405 39.9643 216.114 88.2354C213.823 136.506 238.648 177.012 271.563 178.707C304.478 180.401 333.018 142.644 335.309 94.3726Z" fill="#E5A639"/>
<path d="M266.839 3.03589L280.844 3.94149L270.176 178.625L256.163 177.72L266.839 3.03589Z" fill="#E5A639"/>
<g opacity="0.1">
<path d="M266.839 3.03589L280.844 3.94149L270.176 178.625L256.163 177.72L266.839 3.03589Z" fill="black"/>
</g>
<path d="M322.415 93.5399C324.706 45.2688 299.88 4.76349 266.965 3.06874C234.051 1.37398 205.511 39.1316 203.22 87.4027C200.929 135.674 225.755 176.179 258.669 177.874C291.584 179.569 320.124 141.811 322.415 93.5399Z" fill="#E5A639"/>
<path d="M309.311 92.8648C311.098 55.2101 291.731 23.6132 266.053 22.2911C240.375 20.9689 218.111 50.4223 216.324 88.077C214.537 125.732 233.904 157.329 259.582 158.651C285.259 159.973 307.524 130.52 309.311 92.8648Z" fill="white"/>
<path d="M296.333 92.1967C297.621 65.0459 283.661 42.2632 265.151 41.3102C246.641 40.3571 230.592 61.5946 229.303 88.7454C228.015 115.896 241.975 138.679 260.485 139.632C278.994 140.585 295.044 119.347 296.333 92.1967Z" fill="#E5A639"/>
<path d="M283.22 91.5214C284.005 74.9915 275.506 61.121 264.238 60.5408C252.97 59.9606 243.199 72.8904 242.414 89.4203C241.63 105.95 250.129 119.821 261.397 120.401C272.665 120.981 282.436 108.051 283.22 91.5214Z" fill="white"/>
<path d="M271.876 88.7745C272.362 96.1172 268.696 102.767 263.683 103.721C258.67 104.676 254.229 99.5439 253.751 92.2419C253.273 84.9399 256.931 78.2499 261.936 77.2872C266.941 76.3244 271.39 81.4317 271.876 88.7745Z" fill="#E5A639"/>
<path opacity="0.4" d="M322.415 93.5399C324.706 45.2688 299.88 4.76349 266.965 3.06874C234.051 1.37398 205.511 39.1316 203.22 87.4027C200.929 135.674 225.755 176.179 258.669 177.874C291.584 179.569 320.124 141.811 322.415 93.5399Z" fill="white"/>
<path d="M206.566 282.95C206.836 275.822 206.742 268.684 206.284 261.566C205.275 246.886 203.124 232.316 199.853 217.999C198.059 209.938 195.851 202.008 193.548 194.094C193.477 193.85 193.117 193.923 193.18 194.168C200.292 222.078 206.135 250.886 205.712 279.898C205.602 288.057 204.702 295.995 203.958 304.064C203.958 304.285 204.279 304.366 204.326 304.146C205.814 297.276 206.292 290.04 206.566 282.95Z" fill="#E5A639"/>
<path d="M193.18 194.2C193.18 194.2 182.394 222.706 184.806 229.405C187.219 236.103 192.201 237.563 192.201 237.563C192.201 237.563 185.605 247.354 190.211 256.573C194.817 265.792 205.093 265.343 205.743 275.77C205.743 275.737 206.315 232.121 193.18 194.2Z" fill="#E5A639"/>
<path d="M204.577 257.731C204.592 257.681 204.592 257.627 204.577 257.576C203.159 238.116 199.651 218.884 194.12 200.238C194.12 200.189 194.018 200.238 194.034 200.238C196.164 208.576 198.052 216.957 199.697 225.382C198.249 223.954 196.479 222.927 194.551 222.396C194.512 222.396 194.496 222.437 194.551 222.453C196.578 223.228 198.399 224.495 199.861 226.149C200.182 227.781 200.488 229.413 200.778 231.11C198.373 228.303 195.028 226.916 191.684 225.595C191.637 225.595 191.613 225.652 191.684 225.668C195.169 227.145 198.632 229.046 200.997 232.195C201.817 236.927 202.538 241.672 203.159 246.432C201.416 244.533 199.183 243.201 196.728 242.597C196.658 242.597 196.611 242.695 196.689 242.719C199.221 243.479 201.485 244.99 203.206 247.068H203.253C203.464 248.741 203.668 250.421 203.856 252.094C202.508 250.908 200.988 249.952 199.352 249.263C199.313 249.263 199.29 249.32 199.352 249.336C201.021 250.09 202.548 251.145 203.864 252.453C203.884 252.46 203.906 252.46 203.927 252.453C204.099 254.084 204.279 255.651 204.436 257.25C202.008 254.194 198.857 251.849 195.295 250.446C195.28 250.44 195.264 250.441 195.25 250.448C195.236 250.455 195.226 250.467 195.22 250.482C195.215 250.498 195.216 250.514 195.223 250.529C195.229 250.543 195.241 250.554 195.256 250.56C198.773 252.179 201.864 254.658 204.263 257.788C204.29 257.823 204.326 257.848 204.366 257.862C204.407 257.875 204.45 257.875 204.49 257.862C204.725 260.309 204.937 262.757 205.109 265.205C205.109 265.205 205.164 265.245 205.164 265.205C204.937 262.765 204.812 260.244 204.577 257.731Z" fill="#263238"/>
<path d="M195.913 219.59C193.961 218.326 191.732 217.601 189.436 217.485C189.425 217.485 189.415 217.489 189.408 217.497C189.401 217.505 189.396 217.515 189.396 217.526C189.396 217.537 189.401 217.547 189.408 217.555C189.415 217.562 189.425 217.567 189.436 217.567C191.653 218 193.807 218.733 195.843 219.745C195.921 219.786 195.992 219.647 195.913 219.59Z" fill="#263238"/>
<path d="M197.221 249.769C195.721 248.872 194.07 248.283 192.357 248.031C192.295 248.031 192.295 248.121 192.357 248.129C194.031 248.477 195.65 249.067 197.167 249.883C197.229 249.915 197.284 249.801 197.221 249.769Z" fill="#263238"/>
<path d="M234.905 229.87C230.348 233.153 226.162 236.963 222.427 241.226C218.579 245.743 215.608 250.993 213.678 256.687C209.582 268.559 207.381 281.049 207.161 293.662C207.019 300.645 207.663 307.622 209.08 314.45C209.09 314.502 209.118 314.548 209.16 314.578C209.202 314.607 209.254 314.619 209.303 314.609C209.353 314.599 209.397 314.569 209.426 314.526C209.455 314.482 209.465 314.428 209.456 314.376C207.692 302.328 207.758 290.065 209.652 278.038C211.5 266.241 214.414 253.415 221.605 243.829C225.521 238.616 230.409 234.512 235.242 230.269C235.492 230.041 235.171 229.674 234.905 229.87Z" fill="#E5A639"/>
<path d="M208.728 285.169C211.324 280.796 214.377 276.736 217.829 273.061C223.218 267.44 227.761 263.451 228.466 259.738C229.171 256.026 223.062 253.285 223.062 253.285C223.062 253.285 230.526 254.68 232.563 251.417C234.599 248.153 235.594 229.258 235.594 229.258C235.594 229.258 222.044 239.358 215.707 253.513C209.37 267.669 208.728 285.169 208.728 285.169Z" fill="#E5A639"/>
<path d="M230.762 246.986C229.867 246.852 228.961 246.819 228.059 246.888C228.038 246.895 228.019 246.908 228.006 246.927C227.993 246.945 227.985 246.967 227.985 246.99C227.985 247.013 227.993 247.036 228.006 247.054C228.019 247.073 228.038 247.086 228.059 247.092C228.952 247.092 229.853 247.043 230.746 247.092C230.757 247.09 230.767 247.084 230.775 247.076C230.783 247.067 230.788 247.057 230.789 247.045C230.791 247.034 230.789 247.022 230.784 247.011C230.779 247.001 230.771 246.992 230.762 246.986Z" fill="#263238"/>
<path d="M220.986 265.319C219.554 265.355 218.139 265.65 216.804 266.192C216.804 266.192 216.804 266.265 216.804 266.257C218.19 265.914 219.584 265.776 220.986 265.531C221.013 265.531 221.039 265.52 221.058 265.5C221.078 265.48 221.088 265.453 221.088 265.425C221.088 265.397 221.078 265.37 221.058 265.35C221.039 265.33 221.013 265.319 220.986 265.319Z" fill="#263238"/>
<path d="M218.057 258.988C217.46 258.981 216.865 259.036 216.279 259.151C216.224 259.151 216.224 259.265 216.279 259.265C216.873 259.297 217.468 259.267 218.057 259.175C218.166 259.159 218.166 258.988 218.057 258.988Z" fill="#263238"/>
<path d="M168.945 249.924C173.363 251.483 177.597 253.56 181.564 256.116C185.681 258.842 189.251 262.374 192.075 266.518C198.037 275.137 202.604 284.714 205.595 294.869C207.254 300.489 208.282 306.291 208.657 312.158C208.649 312.196 208.629 312.23 208.6 312.254C208.57 312.278 208.534 312.292 208.497 312.292C208.459 312.292 208.423 312.278 208.394 312.254C208.365 312.23 208.344 312.196 208.336 312.158C207.084 301.98 204.309 292.069 200.112 282.787C195.992 273.69 190.798 264.022 182.88 257.984C178.548 254.721 173.684 252.559 168.835 250.291C168.506 250.201 168.687 249.834 168.945 249.924Z" fill="#E5A639"/>
<path d="M202.391 288.375C199.32 285.463 195.95 282.913 192.342 280.772C186.726 277.508 182.159 275.387 180.773 272.548C179.386 269.708 183.718 266.021 183.718 266.021C183.718 266.021 177.984 268.942 175.611 266.796C173.238 264.65 168.24 249.589 168.24 249.589C168.24 249.589 181.47 254.485 189.733 264.43C197.997 274.375 202.391 288.375 202.391 288.375Z" fill="#E5A639"/>
<path d="M179.864 258.776C179.272 258.733 178.677 258.769 178.094 258.882C178.079 258.882 178.065 258.888 178.055 258.899C178.045 258.909 178.039 258.924 178.039 258.939C178.039 258.954 178.045 258.969 178.055 258.979C178.065 258.99 178.079 258.996 178.094 258.996C178.674 258.931 179.245 258.955 179.833 258.939C179.854 258.943 179.875 258.939 179.893 258.927C179.91 258.914 179.923 258.895 179.927 258.874C179.931 258.852 179.927 258.83 179.915 258.811C179.903 258.793 179.885 258.78 179.864 258.776Z" fill="#263238"/>
<path d="M219.451 331.15H189.593L193.846 298.663L194.934 290.341H214.101L215.19 298.663L219.451 331.15Z" fill="#455A64"/>
<path d="M215.19 298.663H193.846L194.934 290.341H214.101L215.19 298.663Z" fill="#263238"/>
<path d="M216.842 287.445H192.193V294.503H216.842V287.445Z" fill="#455A64"/>
<path d="M217.305 73.251L9.56177 85.9551L11.7603 124.96L219.504 112.255L217.305 73.251Z" fill="#E5A639"/>
<path d="M216.702 62.5854L220.101 122.91L262.187 90.0718L216.702 62.5854Z" fill="#E5A639"/>
<g opacity="0.5">
<path d="M262.187 90.0718L220.101 122.902L219.498 112.255L11.7569 124.958L9.55591 85.9517L217.297 73.2488L216.694 62.5854L262.187 90.0718Z" fill="white"/>
<path d="M9.91644 127.12L7.48828 84.0426L215.221 71.3397L214.532 58.9304L265.735 89.8597L218.355 126.818L217.657 114.417L9.91644 127.12ZM11.624 87.8772L13.5979 122.812L221.339 110.093L221.84 118.994L258.654 90.284L218.864 66.2569L219.365 75.1661L11.624 87.8772Z" fill="#E5A639"/>
</g>
<path d="M115.385 289.851C115.385 289.851 114.602 322.168 114.602 322.192C114.602 328.164 114.743 333.402 115.048 336.062V336.111C115.058 336.751 115.205 337.381 115.479 337.955C117.194 339.154 163.032 340.402 164.645 339.88C166.259 339.358 164.966 334.528 163.227 333.002C161.489 331.477 144.155 322.926 144.155 322.926L144.656 290.626L115.385 289.851Z" fill="#EB9481"/>
<path d="M114.547 315.78C114.547 315.78 114.601 322.168 114.594 322.192C114.594 328.164 114.735 333.402 115.04 336.062V336.111C115.118 336.74 115.262 337.359 115.471 337.955C117.186 339.154 163.024 340.402 164.637 339.88C166.251 339.358 164.958 334.528 163.22 333.002C161.481 331.477 144.155 322.926 144.155 322.926V316.4L114.547 315.78Z" fill="white"/>
<path d="M146.959 322.927C143.912 322.404 140.199 322.976 137.92 325.284C137.834 325.374 137.959 325.497 138.053 325.464C140.94 324.423 143.925 323.706 146.959 323.326C147.003 323.317 147.043 323.292 147.071 323.256C147.1 323.219 147.116 323.174 147.116 323.127C147.116 323.079 147.1 323.034 147.071 322.997C147.043 322.961 147.003 322.936 146.959 322.927Z" fill="#263238"/>
<path d="M149.199 324.248C146.144 323.726 142.439 324.297 140.16 326.598C140.074 326.687 140.199 326.818 140.293 326.785C143.18 325.744 146.166 325.028 149.199 324.648C149.243 324.638 149.283 324.613 149.312 324.577C149.34 324.541 149.356 324.495 149.356 324.448C149.356 324.401 149.34 324.355 149.312 324.319C149.283 324.282 149.243 324.257 149.199 324.248Z" fill="#263238"/>
<path d="M151.408 325.578C148.353 325.056 144.648 325.619 142.369 327.928C142.282 328.018 142.369 328.148 142.502 328.115C145.386 327.073 148.369 326.357 151.4 325.978C151.444 325.969 151.485 325.945 151.514 325.909C151.543 325.874 151.56 325.828 151.561 325.781C151.562 325.734 151.547 325.688 151.519 325.651C151.491 325.614 151.452 325.588 151.408 325.578Z" fill="#263238"/>
<path d="M164.669 339.953C163.055 340.467 117.218 339.227 115.502 338.028C114.844 337.587 114.625 330.62 114.602 322.192V321.923L144.178 322.38V322.902C144.178 322.902 161.52 331.55 163.274 333.084C165.029 334.618 166.282 339.439 164.669 339.953Z" fill="#37474F"/>
<path d="M114.594 321.923V322.192C114.633 330.62 114.844 337.587 115.502 338.028C116.285 338.575 126.217 339.129 136.948 339.529C149.802 340.002 163.791 340.239 164.668 339.953C166.282 339.439 164.982 334.601 163.251 333.076C161.52 331.55 144.154 322.926 144.154 322.926V322.412L134.316 322.233L114.594 321.923Z" fill="#E5A639"/>
<path d="M164.191 338.085C156.475 337.677 125.293 336.796 117.633 337.008C117.57 337.008 117.57 337.057 117.633 337.057C125.277 337.637 156.46 338.257 164.191 338.216C164.355 338.216 164.355 338.093 164.191 338.085Z" fill="#263238"/>
<path opacity="0.1" d="M134.317 322.233C135.037 327.389 136.142 334.993 136.948 339.529C149.802 340.002 163.791 340.239 164.669 339.953C166.282 339.439 164.982 334.601 163.251 333.076C161.52 331.55 144.155 322.926 144.155 322.926V322.412L134.317 322.233Z" fill="black"/>
<path d="M111.93 322.363L145.102 322.698C145.102 322.698 146.982 266.403 147.123 247.688C147.288 226.255 146.121 162.022 146.121 162.022H121.322C121.322 162.022 114.672 176.194 118.471 192.127L119.52 249.474L111.93 322.363Z" fill="#263238"/>
<path d="M114.39 316.318C115.265 316.195 116.147 316.122 117.03 316.098C118.009 316.024 118.988 315.951 119.967 315.91C121.855 315.82 123.742 315.788 125.63 315.78C129.445 315.78 133.251 315.78 137.058 315.918C139.228 315.992 141.39 316.081 143.551 316.212C143.638 316.212 143.63 316.351 143.551 316.351C139.776 316.498 135.993 316.555 132.217 316.636C128.442 316.718 124.667 316.783 120.899 316.71C119.81 316.71 118.729 316.71 117.648 316.612C116.567 316.514 115.463 316.612 114.406 316.449C114.343 316.44 114.312 316.334 114.39 316.318Z" fill="#37474F"/>
<path d="M142.713 285.266C143.097 275.966 143.387 266.657 143.63 257.356C144.115 238.738 144.243 220.117 144.014 201.494C143.888 191.051 143.622 180.608 143.324 170.165C143.324 170.042 143.489 170.05 143.497 170.165C144.444 188.856 144.813 207.588 144.828 226.304C144.844 245.02 144.499 263.556 143.591 282.133C143.097 292.568 142.486 303.02 141.546 313.422C141.546 313.511 141.405 313.511 141.405 313.422C141.813 304.047 142.322 294.665 142.713 285.266Z" fill="#37474F"/>
<path d="M150.867 294.983C150.867 294.983 151.118 326.223 151.118 326.247C151.118 332.219 151.251 337.457 151.556 340.158C151.552 340.171 151.552 340.185 151.556 340.198C151.557 340.84 151.705 341.472 151.987 342.042C151.984 342.056 151.984 342.07 151.987 342.083C153.695 343.282 199.532 344.531 201.146 344C202.759 343.47 201.475 338.656 199.728 337.131C197.981 335.605 180.632 326.957 180.632 326.957L180.099 295.734L150.867 294.983Z" fill="#EB9481"/>
<path d="M151.063 319.826C151.063 319.826 151.118 326.223 151.118 326.247C151.118 332.219 151.251 337.457 151.557 340.158C151.552 340.171 151.552 340.185 151.557 340.198C151.629 340.829 151.774 341.448 151.987 342.042C151.984 342.056 151.984 342.07 151.987 342.083C153.695 343.282 199.532 344.531 201.146 344C202.76 343.47 201.475 338.656 199.728 337.131C197.982 335.605 180.632 326.957 180.632 326.957L180.671 320.43L151.063 319.826Z" fill="white"/>
<path d="M183.483 327.006C180.428 326.484 176.723 327.047 174.444 329.355C174.358 329.445 174.444 329.576 174.577 329.543C177.461 328.501 180.444 327.784 183.475 327.406C183.52 327.397 183.56 327.373 183.589 327.337C183.619 327.301 183.635 327.256 183.636 327.209C183.637 327.162 183.622 327.116 183.594 327.079C183.567 327.042 183.527 327.016 183.483 327.006Z" fill="#263238"/>
<path d="M185.707 328.303C182.653 327.781 178.948 328.344 176.668 330.653C176.582 330.743 176.668 330.873 176.802 330.841C179.686 329.798 182.669 329.082 185.7 328.703C185.744 328.695 185.784 328.67 185.814 328.635C185.843 328.599 185.86 328.553 185.861 328.506C185.861 328.459 185.847 328.413 185.819 328.376C185.791 328.339 185.752 328.313 185.707 328.303Z" fill="#263238"/>
<path d="M187.932 329.633C184.877 329.111 181.164 329.633 178.893 331.982C178.799 332.072 178.893 332.203 179.026 332.17C181.91 331.128 184.893 330.411 187.924 330.033C187.969 330.024 188.009 330 188.038 329.964C188.068 329.928 188.084 329.883 188.085 329.836C188.086 329.789 188.071 329.743 188.043 329.706C188.015 329.669 187.976 329.643 187.932 329.633Z" fill="#263238"/>
<path d="M201.185 344C199.572 344.522 153.742 343.282 152.027 342.083C151.369 341.634 151.149 334.666 151.118 326.247C151.118 326.157 151.118 326.067 151.118 325.978L180.695 326.434V326.957C180.695 326.957 198.028 335.605 199.783 337.13C201.538 338.656 202.806 343.494 201.185 344Z" fill="#E5A639"/>
<path d="M200.715 342.14C192.992 341.732 161.818 340.851 154.15 341.063C154.095 341.063 154.087 341.063 154.15 341.112C161.794 341.691 192.984 342.303 200.715 342.27C200.896 342.27 200.896 342.148 200.715 342.14Z" fill="#263238"/>
<path d="M135.711 195.049C135.711 195.049 149.316 239.725 149.567 247.933C149.771 254.933 148.917 326.761 148.917 326.761L183.381 326.973C183.381 326.973 180.475 253.725 179.935 246.431C178.932 232.79 167.457 195.342 159.256 161.982H122.097C122.097 161.982 122.419 179.457 130.048 192.087C130.048 192.087 133.533 193.751 135.711 195.049Z" fill="#263238"/>
<path d="M150.766 320.145C154.745 320.022 158.872 319.9 162.851 320.006C166.831 320.112 170.763 320.169 174.702 320.414C176.935 320.553 179.167 320.634 181.4 320.863C181.47 320.863 181.47 320.985 181.4 320.985C177.42 321.23 173.426 321.181 169.447 321.14C165.468 321.099 161.543 321.058 157.596 320.871C155.356 320.765 153.131 320.651 150.899 320.487C150.632 320.479 150.507 320.153 150.766 320.145Z" fill="#37474F"/>
<path d="M155.16 169.479C156.39 173.746 171.609 232.3 173.175 240.802C174.742 249.303 176.864 305.124 176.716 314.074C176.716 315.184 176.676 316.293 176.637 317.403C176.637 317.425 176.629 317.445 176.614 317.461C176.6 317.476 176.58 317.485 176.559 317.485C176.538 317.485 176.518 317.476 176.504 317.461C176.489 317.445 176.481 317.425 176.481 317.403C176.246 308.51 173.966 249.931 172.502 241.21C171.131 232.643 155.967 174.44 154.909 169.544C154.909 169.514 154.919 169.483 154.937 169.459C154.956 169.435 154.981 169.417 155.01 169.41C155.039 169.402 155.069 169.405 155.096 169.418C155.124 169.43 155.146 169.452 155.16 169.479Z" fill="#37474F"/>
<path d="M144.233 195.913C142.518 195.9 140.807 195.739 139.118 195.432C137.443 195.052 135.788 194.581 134.16 194.021C132.557 193.642 130.932 193.37 129.296 193.205C127.648 192.955 126.044 192.457 124.533 191.728C124.463 191.728 124.408 191.801 124.479 191.834C125.941 192.657 127.469 193.347 129.045 193.898C130.674 194.437 132.382 194.51 134.042 194.934C135.716 195.453 137.419 195.861 139.142 196.158C140.84 196.374 142.559 196.342 144.249 196.06C144.319 196.019 144.296 195.913 144.233 195.913Z" fill="#37474F"/>
<path d="M146.403 231.452C146.074 230.122 145.768 228.801 145.424 227.479C144.726 224.811 144.022 222.143 143.246 219.5C141.68 214.246 140.254 208.959 138.633 203.737C137.708 200.768 136.878 197.773 135.797 194.861C135.792 194.846 135.781 194.833 135.767 194.826C135.753 194.82 135.737 194.819 135.723 194.824C135.708 194.829 135.696 194.841 135.69 194.855C135.683 194.87 135.682 194.886 135.687 194.902C136.236 197.61 137.003 200.262 137.693 202.93C138.382 205.598 139.118 208.257 139.862 210.917C141.327 216.187 142.768 221.474 144.374 226.712C144.818 228.181 145.283 229.644 145.768 231.101C146.262 232.586 146.653 234.12 147.249 235.564C147.288 235.646 147.39 235.613 147.374 235.564C147.147 234.153 146.74 232.807 146.403 231.452Z" fill="#37474F"/>
<path d="M150.476 118.708C147.985 119.051 143.693 114.36 142.353 111.039C142.595 109.288 142.922 107.551 143.332 105.834C143.654 104.202 143.967 102.301 144.116 100.58L154.228 104.316C153.424 106.414 152.869 108.606 152.575 110.843C152.559 111.08 152.559 111.317 152.575 111.553C152.575 111.553 152.575 111.627 152.575 111.676C152.685 113.022 152.888 118.382 150.476 118.708Z" fill="#EB9481"/>
<path d="M142.455 110.183C147.766 112.043 151.612 108.926 153.366 107.017C153.797 105.467 154.251 104.316 154.251 104.316L144.139 100.58C143.967 102.301 143.653 104.17 143.356 105.834C142.98 107.662 142.62 109.252 142.455 110.183Z" fill="#263238"/>
<path d="M157.384 87.885C158.646 91.6869 157.087 102.881 154.541 105.459C150.86 109.203 144.633 109.783 141.531 105.124C138.531 100.604 140.81 86.0575 143.669 83.6915C147.876 80.2078 155.52 82.2474 157.384 87.885Z" fill="#EB9481"/>
<path d="M146.802 95.0076C146.802 95.0076 146.857 95.0484 146.849 95.081C146.732 95.8316 146.724 96.7127 147.35 97.0554C146.551 96.8759 146.575 95.7011 146.802 95.0076Z" fill="#263238"/>
<path d="M147.546 94.3059C148.729 94.363 148.517 96.8188 147.429 96.7535C146.34 96.6882 146.559 94.2488 147.546 94.3059Z" fill="#263238"/>
<path d="M142.713 94.6243C142.713 94.6243 142.651 94.6243 142.651 94.6814C142.651 95.4483 142.439 96.3131 141.758 96.5008V96.5497C142.572 96.5007 142.791 95.3504 142.713 94.6243Z" fill="#263238"/>
<path d="M142.149 93.7675C140.982 93.5717 140.692 96.0111 141.766 96.2151C142.839 96.4191 143.105 93.9389 142.149 93.7675Z" fill="#263238"/>
<path d="M148.572 93.2697C148.259 93.1555 147.985 92.9923 147.687 92.8536C147.39 92.7149 147.061 92.5925 146.904 92.2417C146.858 92.1375 146.845 92.0203 146.87 91.9082C146.894 91.7961 146.952 91.6954 147.037 91.6217C147.228 91.5071 147.444 91.4468 147.664 91.4468C147.884 91.4468 148.1 91.5071 148.29 91.6217C148.712 91.7894 149.059 92.1153 149.262 92.5354C149.304 92.6365 149.316 92.7483 149.296 92.8566C149.277 92.9649 149.227 93.0648 149.154 93.1436C149.08 93.2223 148.985 93.2764 148.881 93.2988C148.778 93.3213 148.67 93.3112 148.572 93.2697Z" fill="#263238"/>
<path d="M141.319 92.4538C141.648 92.4538 141.953 92.3477 142.275 92.2906C142.62 92.2755 142.952 92.147 143.222 91.9235C143.288 91.8317 143.324 91.72 143.324 91.6053C143.324 91.4906 143.288 91.3789 143.222 91.2871C143.069 91.1222 142.877 91.0027 142.665 90.941C142.453 90.8794 142.229 90.8777 142.016 90.9363C141.564 90.9842 141.146 91.2052 140.841 91.5564C140.775 91.6423 140.735 91.7466 140.726 91.8562C140.718 91.9658 140.74 92.0756 140.791 92.1718C140.843 92.268 140.92 92.3461 141.014 92.3963C141.108 92.4466 141.214 92.4665 141.319 92.4538Z" fill="#263238"/>
<path d="M146.998 101.975C146.81 102.138 146.614 102.367 146.348 102.367C146.071 102.341 145.804 102.251 145.564 102.105C145.656 102.265 145.787 102.396 145.944 102.484C146.102 102.572 146.279 102.613 146.457 102.603C146.609 102.575 146.749 102.502 146.86 102.391C146.972 102.281 147.049 102.139 147.084 101.983C147.084 101.983 147.021 101.95 146.998 101.975Z" fill="#263238"/>
<path d="M146.418 99.6336C146.21 99.9171 145.947 100.152 145.646 100.324C145.345 100.495 145.013 100.599 144.672 100.629C144.373 100.674 144.07 100.674 143.771 100.629L143.606 100.588L143.442 100.547C143.405 100.535 143.374 100.511 143.351 100.479C143.329 100.447 143.316 100.408 143.317 100.368C143.313 100.344 143.313 100.319 143.317 100.294V100.196C143.356 99.6091 143.481 98.7279 143.481 98.7279C143.27 98.8177 142.181 99.2093 142.22 98.9074C142.511 96.2793 143.054 93.6883 143.841 91.1731C143.846 91.1587 143.855 91.1462 143.867 91.1374C143.879 91.1285 143.893 91.1238 143.908 91.1238C143.923 91.1238 143.937 91.1285 143.949 91.1374C143.961 91.1462 143.97 91.1587 143.975 91.1731C143.724 93.6207 143.066 95.9703 142.776 98.4098C143.161 98.26 143.565 98.1693 143.975 98.1405C144.053 98.1405 143.7 99.8457 143.7 100.107C144.156 100.196 144.625 100.19 145.078 100.087C145.532 99.9852 145.961 99.7892 146.34 99.5112C146.418 99.5193 146.465 99.5764 146.418 99.6336Z" fill="#263238"/>
<path d="M144.131 100.327C144.404 100.771 144.782 101.136 145.228 101.387C145.471 101.511 145.744 101.554 146.011 101.51C146.606 101.404 146.669 100.849 146.598 100.368C146.56 100.108 146.494 99.8537 146.403 99.6089C145.737 100.091 144.942 100.342 144.131 100.327Z" fill="#263238"/>
<path d="M145.228 101.388C145.47 101.511 145.744 101.554 146.011 101.51C146.606 101.404 146.669 100.849 146.598 100.368C146.293 100.353 145.992 100.446 145.744 100.631C145.495 100.816 145.313 101.082 145.228 101.388Z" fill="#FF98B9"/>
<path d="M154.58 95.3014C153.993 92.9762 155.496 89.264 154.47 88.1708C152.261 85.7966 147.155 89.6801 143.841 89.468C140.528 89.2559 139.698 87.0204 140.457 84.3525C141.217 81.6847 143.551 80.0203 147.194 79.7184C150.364 79.5658 153.485 80.5763 156.013 82.574C156.013 82.574 155.293 81.1625 155.63 80.7627C155.966 80.363 157.447 81.7826 157.885 82.3945C158.205 82.8911 158.436 83.4439 158.567 84.0262C159.053 83.9359 159.549 83.9194 160.039 83.9772C160.751 84.0827 161.405 84.4433 161.888 84.9971C161.935 85.2092 160.752 85.2745 159.93 85.2581C159.93 85.2581 161.316 87.4854 161.167 89.2885C161.019 91.0915 157.744 99.4868 157.094 99.5357C156.248 99.5683 154.823 96.2152 154.58 95.3014Z" fill="#263238"/>
<path d="M159.632 84.9971C159.632 84.9971 159.562 84.9971 159.585 84.9971C160.338 85.7217 160.881 86.6516 161.152 87.6813C161.404 88.9213 161.331 90.2092 160.94 91.4097C160.155 93.691 159.139 95.879 157.909 97.9366C157.905 97.9436 157.903 97.9512 157.902 97.9591C157.902 97.967 157.902 97.9749 157.905 97.9825C157.907 97.9901 157.91 97.9971 157.915 98.0033C157.92 98.0094 157.926 98.0145 157.933 98.0182C157.939 98.022 157.947 98.0243 157.954 98.0251C157.962 98.0259 157.969 98.0251 157.977 98.0229C157.984 98.0206 157.991 98.0169 157.996 98.0119C158.002 98.0069 158.007 98.0007 158.011 97.9937C159.449 95.8423 160.553 93.4692 161.285 90.961C161.802 88.8724 161.489 86.3269 159.632 84.9971Z" fill="#263238"/>
<path d="M154.682 87.265C153.714 87.0773 152.72 87.0773 151.752 87.265C150.853 87.5235 149.987 87.8962 149.175 88.3746C147.315 89.3834 145.219 89.8246 143.128 89.6474V89.6881C145.032 89.9993 146.981 89.7154 148.729 88.8723C149.596 88.4007 150.491 87.9865 151.408 87.6322C152.476 87.3984 153.573 87.3433 154.658 87.469C154.671 87.4706 154.684 87.4696 154.697 87.4659C154.709 87.4623 154.721 87.4561 154.731 87.4478C154.741 87.4395 154.75 87.4291 154.756 87.4174C154.762 87.4056 154.766 87.3926 154.768 87.3793C154.769 87.3659 154.768 87.3523 154.765 87.3393C154.761 87.3263 154.756 87.3142 154.748 87.3036C154.74 87.293 154.73 87.2841 154.718 87.2775C154.707 87.2709 154.695 87.2666 154.682 87.265Z" fill="#263238"/>
<path d="M154.102 81.4315C152.847 80.66 151.491 80.0829 150.076 79.7182C148.731 79.317 147.328 79.1651 145.933 79.2695C143.528 79.4979 141.233 80.9012 140.512 83.4304C140.119 84.7117 140.2 86.0997 140.739 87.322C140.749 87.335 140.763 87.3443 140.778 87.3483C140.793 87.3524 140.809 87.351 140.824 87.3445C140.838 87.3379 140.85 87.3265 140.857 87.3121C140.865 87.2977 140.867 87.2811 140.865 87.2649C140.431 86.1442 140.357 84.9072 140.655 83.7392C140.953 82.5713 141.607 81.5355 142.517 80.787C144.585 79.1553 147.327 79.2205 149.739 79.7998C151.241 80.1848 152.701 80.7317 154.094 81.4315C154.094 81.4315 154.11 81.4315 154.102 81.4315Z" fill="#263238"/>
<path d="M155.293 97.0309C155.293 97.0309 157.643 93.3922 159.209 94.2651C160.776 95.1381 159.06 100.376 157.227 101.127C156.999 101.239 156.752 101.301 156.5 101.311C156.248 101.321 155.997 101.278 155.761 101.184C155.526 101.091 155.311 100.948 155.129 100.766C154.948 100.584 154.804 100.365 154.705 100.123L155.293 97.0309Z" fill="#EB9481"/>
<path d="M115.588 170.858C115.69 170.997 163.368 175.492 163.854 175.019C164.52 174.358 161.676 124.664 153.162 114.515C151.071 112.01 143.669 109.008 141.233 110.566C134.912 114.645 131.011 123.791 128.512 129.119C126.656 133.067 124.275 139.864 122.066 146.847C118.424 158.359 115.236 170.36 115.588 170.858Z" fill="#E5A639"/>
<path d="M144.35 125.178C144.479 126.025 144.721 126.849 145.071 127.626C145.408 128.407 145.845 129.137 146.371 129.796C146.247 128.948 146.004 128.123 145.651 127.348C145.314 126.567 144.877 125.837 144.35 125.178ZM152.371 157.723C152.501 158.571 152.746 159.395 153.1 160.171C153.429 160.959 153.867 161.693 154.4 162.349C154.125 160.651 153.425 159.058 152.371 157.731V157.723ZM132.57 156.165C132.699 157.013 132.944 157.837 133.298 158.612C133.626 159.401 134.067 160.133 134.606 160.782C134.477 159.933 134.229 159.109 133.87 158.335C133.538 157.551 133.1 156.82 132.57 156.165ZM119.003 166.428C120.63 166.133 122.156 165.402 123.429 164.307C121.8 164.597 120.274 165.328 119.003 166.428ZM151.298 140.68C152.111 140.546 152.902 140.293 153.648 139.929C154.402 139.582 155.104 139.123 155.731 138.567C154.917 138.702 154.126 138.957 153.381 139.325C152.627 139.668 151.925 140.125 151.298 140.68ZM138.499 115.51C139.312 115.377 140.104 115.124 140.849 114.76C141.605 114.412 142.31 113.954 142.94 113.397C141.314 113.696 139.787 114.423 138.507 115.51H138.499ZM152.12 119.214C152.602 118.521 152.987 117.76 153.264 116.954C153.46 116.397 153.612 115.824 153.718 115.241L153.499 114.931C153.165 115.496 152.886 116.094 152.669 116.718C152.37 117.518 152.185 118.359 152.12 119.214ZM133.11 139.611C133.592 138.914 133.977 138.151 134.254 137.343C134.55 136.545 134.734 135.707 134.802 134.854C134.322 135.549 133.937 136.309 133.659 137.114C133.362 137.92 133.177 138.767 133.11 139.627V139.611ZM130.142 172.245L130.588 172.286C130.653 171.966 130.695 171.642 130.713 171.315C130.496 171.626 130.304 171.957 130.142 172.302V172.245ZM159.609 174.163C160.09 173.469 160.475 172.708 160.752 171.903C161.051 171.103 161.236 170.262 161.3 169.406C160.351 170.812 159.768 172.451 159.609 174.163ZM121.549 148.487C121.737 148.58 121.925 148.661 122.113 148.732C122.882 149.04 123.689 149.232 124.51 149.303C123.843 148.801 123.109 148.403 122.332 148.12L121.737 147.908L121.549 148.487ZM141.648 168.215C142.996 169.207 144.571 169.815 146.215 169.977C145.548 169.478 144.818 169.08 144.045 168.794C143.277 168.481 142.47 168.286 141.648 168.215ZM140.081 148.634C140.749 149.137 141.482 149.538 142.259 149.825C143.012 150.132 143.803 150.325 144.609 150.397C143.26 149.404 141.686 148.797 140.042 148.634H140.081ZM157.149 126.892C157.548 127.211 157.978 127.485 158.434 127.707C158.387 127.495 158.332 127.291 158.285 127.079C157.904 126.987 157.516 126.93 157.126 126.908L157.149 126.892ZM131.489 122.918C132.171 123.179 132.886 123.339 133.612 123.392C133.051 122.959 132.437 122.608 131.787 122.347L131.489 122.918Z" fill="white"/>
<path d="M148.979 122.331C161.206 125.358 180.24 128.352 186.506 124.224C189.71 122.111 197.151 103.607 199.227 93.221C199.767 90.5205 178.501 86.7349 177.828 89.5904C176.919 93.4413 174.788 105.581 173.739 107.49C173.136 108.584 159.64 110.215 148.768 112.01C136.016 114.132 139.055 119.875 148.979 122.331Z" fill="#EB9481"/>
<path d="M181.313 66.167C181.828 66.2203 182.322 66.4054 182.751 66.7057C183.18 67.0061 183.531 67.4124 183.773 67.8885C184.405 67.0552 185.297 66.4781 186.295 66.2567C188.073 65.9386 189.326 68.7043 189.326 68.7043C190.156 67.9758 191.176 67.5239 192.256 67.4071C193.987 67.2847 195.639 69.8547 195.639 69.8547C196.187 69.676 196.767 69.6323 197.334 69.7272C197.901 69.8221 198.439 70.0528 198.906 70.4013C202.203 73.2813 201.169 89.003 198.522 95.2769L178.384 92.1114C178.384 92.1114 175.681 80.2651 176.128 76.61C176.488 73.5995 178.18 65.857 181.313 66.167Z" fill="#EB9481"/>
<path d="M183.663 67.9372C182.633 71.1387 181.983 74.4595 181.729 77.8255C181.729 77.8989 181.83 77.9152 181.838 77.8255C182.167 74.562 183.358 71.2333 183.812 67.9617C183.851 67.8883 183.718 67.8556 183.663 67.9372Z" fill="#263238"/>
<path d="M189.068 68.7613C188.87 69.5025 188.77 70.2683 188.77 71.0375C188.715 71.8534 188.684 72.6693 188.653 73.4851C188.606 75.1168 188.593 76.7486 188.613 78.3803C188.613 78.4537 188.723 78.47 188.731 78.3803C188.778 76.7486 188.856 75.1168 188.982 73.4851C189.036 72.6693 189.107 71.8534 189.177 71.0375C189.293 70.2797 189.327 69.5107 189.279 68.745C189.271 68.7211 189.256 68.7007 189.236 68.6868C189.216 68.6729 189.192 68.6664 189.167 68.6683C189.143 68.6701 189.12 68.6803 189.102 68.6971C189.084 68.7139 189.072 68.7365 189.068 68.7613Z" fill="#263238"/>
<path d="M195.616 69.9443C195.451 70.6152 195.395 71.3102 195.452 72.0003C195.452 72.7427 195.452 73.4852 195.452 74.2276C195.412 75.7125 195.381 77.1973 195.295 78.674C195.295 78.7556 195.405 78.7638 195.405 78.674C195.499 77.1729 195.608 75.6635 195.687 74.1623C195.726 73.4199 195.765 72.6775 195.796 71.9432C195.884 71.2692 195.858 70.5843 195.718 69.9199C195.718 69.9199 195.632 69.9117 195.616 69.9443Z" fill="#263238"/>
<path d="M166.079 128.254L165.296 108.306C165.296 108.306 151.933 109.204 144.359 112.1C136.784 114.996 139.361 119.296 146.708 122.282C154.056 125.268 166.079 128.254 166.079 128.254Z" fill="#E5A639"/>
<path d="M162.938 109.342C162.17 109.031 161.362 108.838 160.541 108.771C161.209 109.274 161.942 109.675 162.718 109.962C163.484 110.273 164.288 110.465 165.107 110.533C164.444 110.027 163.713 109.626 162.938 109.342ZM152.669 116.685C152.373 117.486 152.189 118.326 152.121 119.181C152.602 118.485 152.987 117.721 153.264 116.913C153.556 116.128 153.741 115.304 153.812 114.466C153.333 115.16 152.948 115.921 152.669 116.726V116.685ZM165.765 120.519C165.095 120.666 164.443 120.893 163.823 121.197C163.067 121.541 162.362 121.997 161.731 122.551C162.545 122.417 163.336 122.164 164.081 121.8C164.682 121.521 165.252 121.173 165.781 120.764L165.765 120.519ZM140.943 113.993C140.594 114.295 140.3 114.659 140.074 115.069C140.332 114.972 140.591 114.865 140.857 114.751C141.613 114.404 142.318 113.945 142.948 113.389C142.257 113.499 141.582 113.704 140.943 114.001V113.993Z" fill="white"/>
<path d="M161.856 109.481C161.767 115.14 162.047 120.799 162.695 126.418H162.82C162.859 121.784 162.264 112.548 162.037 109.481C162.044 109.424 161.856 109.424 161.856 109.481Z" fill="#263238"/>
<path d="M165.977 125.749C166.102 126.565 166.173 127.381 166.274 128.246V128.507L166 128.45C164.324 128.083 162.648 127.732 160.987 127.308C159.327 126.883 157.666 126.443 156.021 125.953C154.376 125.464 152.731 124.958 151.118 124.37C149.504 123.783 147.883 123.196 146.309 122.469L151.275 123.824C152.927 124.273 154.58 124.721 156.225 125.186L161.167 126.59C162.812 127.046 164.449 127.577 166.094 128.058L165.859 128.262C165.922 127.422 165.922 126.59 165.977 125.749Z" fill="#263238"/>
<path d="M150.663 124.02C150.054 124.174 149.423 124.216 148.799 124.142C148.174 124.083 147.567 123.894 147.013 123.587C147.327 123.587 147.632 123.628 147.938 123.652L148.838 123.734C149.451 123.794 150.061 123.89 150.663 124.02Z" fill="#263238"/>
<path d="M34.1982 322.201C31.5037 320.683 27.8536 319.973 25.0103 321.385C24.9007 321.434 25.0103 321.597 25.073 321.597C28.0928 321.585 31.105 321.914 34.0572 322.576C34.1028 322.586 34.1504 322.58 34.1916 322.557C34.2328 322.534 34.2648 322.496 34.2818 322.451C34.2988 322.406 34.2997 322.356 34.2844 322.31C34.269 322.264 34.2385 322.225 34.1982 322.201Z" fill="#263238"/>
<path d="M35.8666 324.191C33.1721 322.674 29.5221 321.964 26.6788 323.376C26.5691 323.424 26.6788 323.588 26.7414 323.588C29.7662 323.572 32.7837 323.898 35.7413 324.559C35.7831 324.56 35.8243 324.548 35.859 324.524C35.8936 324.499 35.9198 324.464 35.9339 324.423C35.9479 324.382 35.9489 324.337 35.9368 324.296C35.9247 324.254 35.9001 324.217 35.8666 324.191Z" fill="#263238"/>
<path d="M37.5349 326.19C34.8404 324.673 31.1903 323.963 28.347 325.374C28.2373 325.423 28.347 325.586 28.4175 325.586C31.4405 325.579 34.4554 325.913 37.4095 326.582C37.4594 326.599 37.5138 326.595 37.5608 326.571C37.6078 326.546 37.6436 326.503 37.6602 326.451C37.6768 326.399 37.6729 326.343 37.6494 326.294C37.6259 326.245 37.5847 326.207 37.5349 326.19Z" fill="#263238"/>
<path d="M39.2111 328.173C36.5088 326.655 32.8666 325.946 30.0155 327.357C29.9058 327.406 30.0155 327.569 30.086 327.569C33.109 327.562 36.1239 327.896 39.078 328.564C39.1278 328.583 39.1827 328.58 39.2304 328.556C39.2782 328.532 39.3149 328.49 39.3326 328.438C39.3502 328.386 39.3473 328.329 39.3246 328.279C39.3018 328.23 39.261 328.191 39.2111 328.173Z" fill="#263238"/>
<path d="M41.6235 317.061C40.9969 315.07 38.6706 315.094 37.151 315.739C34.5628 316.903 32.3131 318.754 30.6263 321.107C30.6166 321.115 30.6087 321.125 30.6032 321.136C30.5978 321.147 30.595 321.16 30.595 321.173C30.595 321.185 30.5978 321.198 30.6032 321.209C30.6087 321.22 30.6166 321.23 30.6263 321.238C30.5636 321.466 30.6811 321.776 30.9553 321.76C33.6106 321.638 36.4382 321.85 38.9917 320.887C40.5034 320.324 42.2188 318.945 41.6235 317.061ZM34.9735 320.724C33.6733 320.814 32.3808 320.838 31.0571 320.985C32.3338 319.941 33.5558 318.847 34.9735 317.934C35.6274 317.485 36.3105 317.084 37.0178 316.734C38.1223 316.212 42.0308 315.617 40.5113 318.725C39.6653 320.479 36.5244 320.61 34.9735 320.724Z" fill="#263238"/>
<path d="M23.5769 317.893C25.6212 319.729 28.3549 320.585 30.7909 321.679C30.8465 321.698 30.9059 321.704 30.9639 321.694C31.022 321.685 31.0771 321.661 31.1246 321.626C31.1722 321.59 31.2107 321.542 31.2372 321.488C31.2636 321.433 31.2771 321.373 31.2765 321.311C31.2891 321.312 31.3017 321.31 31.3131 321.304C31.3245 321.298 31.3345 321.29 31.3422 321.28C31.3499 321.269 31.3551 321.257 31.3573 321.244C31.3595 321.231 31.3586 321.218 31.3548 321.205C30.5818 318.383 29.1096 315.823 27.086 313.781C25.8875 312.606 23.7257 311.725 22.4568 313.357C21.1879 314.989 22.3863 316.816 23.5769 317.893ZM22.9424 315.331C22.5821 311.864 26.0755 313.863 26.8588 314.76C27.3958 315.354 27.8981 315.98 28.3627 316.637C29.334 317.999 30.1094 319.476 30.9475 320.92C29.7804 320.308 28.5977 319.802 27.3914 319.239C26.0129 318.562 23.1382 317.216 22.9424 315.331Z" fill="#263238"/>
<path d="M3.979 317.925C3.80668 319.01 3.63436 320.071 3.47771 321.099C2.44378 327.699 1.83282 332.79 2.31062 333.255C3.76752 334.699 47.4979 343.862 49.135 343.633C50.772 343.405 50.2942 338.558 48.8687 336.796C47.9992 335.727 42.0228 331.126 37.472 327.691C34.5425 325.488 32.2083 323.751 32.2083 323.751L40.9811 294.216L11.5768 288.171C11.5768 288.171 4.29232 316.179 3.979 317.925Z" fill="#FFC4C0"/>
<path d="M49.135 343.634C47.4979 343.837 3.76752 334.7 2.31062 333.256C1.83282 332.783 2.44378 327.7 3.47771 321.099C3.63436 320.08 3.79885 319.011 3.979 317.926C4.08083 317.314 5.04427 313.496 6.24268 308.788C10.5037 309.669 27.6027 313.251 34.8558 314.768L32.1927 323.743C32.1927 323.743 34.5425 325.472 37.4563 327.683C42.0072 331.118 47.9836 335.711 48.8452 336.788C50.2864 338.559 50.7642 343.413 49.135 343.634Z" fill="#EBEBEB"/>
<path d="M49.4955 343.927C48.4146 344.058 29.4514 340.133 15.7049 336.919C12.5248 336.177 9.62668 335.467 7.29251 334.863C4.07324 334.047 1.92705 333.378 1.62158 333.076C1.08895 332.538 4.44138 313.863 5.02883 311.701L34.1041 317.967L32.3966 323.563C32.3966 323.563 47.7958 335.116 49.2606 336.927C50.7253 338.738 51.1639 343.707 49.4955 343.927Z" fill="#E5A639"/>
<path d="M48.814 341.838C41.3494 340.06 11.107 333.533 3.6032 332.342C3.54054 332.342 3.5327 332.342 3.6032 332.391C10.9503 334.349 41.2476 340.598 48.7827 341.969C48.9393 341.993 48.9393 341.879 48.814 341.838Z" fill="#263238"/>
<path d="M40.942 310.803C41.2553 310.648 49.7774 272.547 53.6625 257.013C59.2707 234.593 64.7067 198.051 66.3359 190.439C69.6992 181.675 71.9836 172.502 73.1348 163.14H37.7776C37.7776 163.14 28.5114 181.603 33.2737 194.657C33.7124 195.856 27.1015 241.977 23.6786 249.475C20.7256 255.936 7.22974 303.256 7.22974 303.256L40.942 310.803Z" fill="#37474F"/>
<path d="M40.7541 302.995C39.8925 302.669 38.9682 302.506 38.0753 302.261C37.1823 302.016 36.1876 301.763 35.2398 301.543C33.3443 301.094 31.4487 300.67 29.5532 300.238C25.7543 299.381 21.9476 298.606 18.1408 297.79C17.0965 297.567 16.0521 297.355 15.0077 297.154C13.9794 296.893 12.931 296.726 11.8746 296.656C11.8648 296.662 11.8567 296.67 11.851 296.68C11.8453 296.69 11.8423 296.701 11.8423 296.713C11.8423 296.725 11.8453 296.736 11.851 296.746C11.8567 296.756 11.8648 296.765 11.8746 296.77C12.7371 297.106 13.6254 297.366 14.5299 297.545C15.4699 297.79 16.4176 298.018 17.3654 298.239C19.2296 298.679 21.0938 299.128 22.9658 299.552C26.7256 300.368 30.4931 301.274 34.2685 302.073C35.3416 302.294 36.4069 302.522 37.4878 302.71C38.5687 302.897 39.634 303.191 40.7149 303.273C40.8089 303.264 40.9107 303.052 40.7541 302.995Z" fill="#263238"/>
<path d="M57.0855 188.75C56.4041 192.585 55.8401 196.444 55.2292 200.287C54.9237 202.253 54.5085 204.195 54.1952 206.153C53.8819 208.111 53.5921 210.003 53.2945 211.929C52.0934 219.68 50.9055 227.428 49.7306 235.173C49.1457 239.024 48.553 242.869 47.9525 246.709C47.4007 250.498 46.6556 254.253 45.7202 257.96C44.7489 261.664 43.6053 265.303 42.5166 268.982L39.1876 280.257C36.9866 287.731 37.2999 289.003 35.3261 296.574C35.0833 297.513 34.8326 298.451 34.5428 299.389C34.542 299.41 34.5482 299.43 34.5602 299.447C34.5723 299.464 34.5895 299.475 34.6089 299.48C34.6284 299.485 34.6488 299.483 34.6667 299.473C34.6847 299.464 34.699 299.449 34.7073 299.43C37.1433 292.022 36.8065 290.749 39.0701 283.276C41.3338 275.803 43.6523 268.395 45.8063 260.921C46.8502 257.283 47.6846 253.584 48.305 249.842C48.9316 245.991 49.4799 242.132 50.0752 238.273C51.2449 230.528 52.4329 222.78 53.6391 215.029C54.2187 211.227 54.861 207.417 55.3153 203.607C55.7853 199.642 56.4432 195.701 57.0072 191.753C57.1482 190.782 57.2814 189.819 57.4067 188.848C57.4067 188.628 57.1247 188.538 57.0855 188.75Z" fill="#263238"/>
<path d="M87.492 324.738C84.4764 324.134 80.795 324.591 78.4765 326.81C78.3903 326.9 78.4765 327.031 78.6096 326.998C81.4925 326.048 84.4652 325.424 87.4764 325.138C87.5211 325.131 87.5621 325.107 87.5922 325.072C87.6224 325.037 87.6399 324.992 87.6417 324.945C87.6436 324.898 87.6296 324.851 87.6023 324.814C87.5751 324.776 87.5361 324.749 87.492 324.738Z" fill="#263238"/>
<path d="M89.6697 326.117C86.6619 325.513 82.9726 325.97 80.662 328.189C80.568 328.279 80.662 328.409 80.7873 328.377C83.6754 327.426 86.6533 326.803 89.6697 326.517C89.7139 326.507 89.7537 326.482 89.7823 326.446C89.8109 326.409 89.8265 326.364 89.8265 326.317C89.8265 326.27 89.8109 326.224 89.7823 326.188C89.7537 326.151 89.7139 326.126 89.6697 326.117Z" fill="#263238"/>
<path d="M91.816 327.496C88.8082 326.892 85.1268 327.349 82.8083 329.568C82.7221 329.658 82.8083 329.789 82.9414 329.756C85.8243 328.806 88.797 328.182 91.8081 327.896C91.8526 327.887 91.893 327.863 91.9223 327.827C91.9516 327.792 91.9681 327.746 91.9691 327.699C91.97 327.652 91.9553 327.606 91.9273 327.569C91.8994 327.532 91.8601 327.506 91.816 327.496Z" fill="#263238"/>
<path d="M93.9856 328.875C90.9778 328.271 87.2886 328.728 84.9779 330.947C84.8839 331.037 84.9779 331.167 85.1032 331.135C87.9862 330.185 90.9589 329.562 93.9699 329.274C94.0147 329.267 94.0556 329.244 94.0858 329.209C94.1159 329.173 94.1334 329.128 94.1353 329.081C94.1371 329.034 94.1232 328.988 94.0959 328.95C94.0686 328.912 94.0296 328.886 93.9856 328.875Z" fill="#263238"/>
<path d="M93.0925 317.526C91.9176 315.821 89.7087 316.563 88.4476 317.656C86.3048 319.57 84.6839 322.038 83.748 324.811C83.743 324.823 83.7407 324.836 83.7413 324.849C83.7419 324.862 83.7454 324.874 83.7515 324.885C83.7576 324.896 83.7662 324.906 83.7764 324.913C83.7867 324.92 83.7984 324.924 83.8106 324.926C83.8106 325.162 84.0221 325.423 84.2806 325.325C86.7793 324.379 89.5521 323.694 91.6904 321.98C92.9672 320.985 94.2047 319.133 93.0925 317.526ZM87.8054 323.09C86.5913 323.58 85.3615 324.012 84.1631 324.55C85.0796 323.163 85.9333 321.736 86.9829 320.471C87.4771 319.837 88.0137 319.24 88.5886 318.684C89.4894 317.868 93.0533 316.057 92.505 319.5C92.1917 321.36 89.2544 322.494 87.8054 323.09Z" fill="#263238"/>
<path d="M76.1191 323.947C78.5943 325.064 81.4454 325.024 84.0851 325.309C84.1437 325.31 84.2017 325.297 84.2545 325.27C84.3073 325.244 84.3534 325.205 84.3891 325.157C84.4249 325.108 84.4493 325.052 84.4604 324.992C84.4716 324.932 84.4691 324.87 84.4532 324.811C84.4617 324.803 84.4685 324.793 84.4732 324.782C84.4778 324.77 84.4802 324.758 84.4802 324.746C84.4802 324.734 84.4778 324.722 84.4732 324.711C84.4685 324.699 84.4617 324.689 84.4532 324.681C82.9015 322.229 80.7599 320.243 78.2418 318.921C76.7614 318.187 74.4429 318.015 73.7066 319.965C72.9704 321.915 74.6701 323.294 76.1191 323.947ZM74.7876 321.703C73.4482 318.505 77.3176 319.337 78.3906 319.924C79.0772 320.317 79.7367 320.758 80.3645 321.246C81.6882 322.241 82.8475 323.408 84.0616 324.51C82.777 324.289 81.4846 324.183 80.1843 324.012C78.6256 323.824 75.5082 323.465 74.7876 321.703Z" fill="#263238"/>
<path d="M57.3204 321.124C57.3204 322.984 58.1037 341.594 58.6441 341.953C60.3438 343.079 104.952 343.209 106.51 342.679C108.069 342.149 106.706 337.465 104.944 336.03C103.894 335.148 97.1814 331.844 92.0744 329.397C88.7925 327.822 86.1763 326.598 86.1763 326.598L86.3173 321.14L86.7246 296.313H57.2734C57.2734 296.313 57.1246 309.057 57.3204 321.124Z" fill="#FFC4C0"/>
<path d="M106.518 342.679C104.952 343.209 60.3439 343.071 58.652 341.953C58.0959 341.586 57.3439 322.984 57.3204 321.132C57.3204 319.9 57.3204 318.685 57.2734 317.428H86.4036L86.3409 321.132L86.1921 326.574L92.0901 329.381C97.1893 331.828 103.902 335.149 104.959 336.022C106.706 337.466 108.069 342.141 106.518 342.679Z" fill="#EBEBEB"/>
<path d="M107.568 343.054C106.534 343.413 87.2024 343.413 73.1034 343.054C69.845 342.973 66.8372 342.867 64.4873 342.752C61.1741 342.581 58.9496 342.385 58.5893 342.14C57.9626 341.724 57.0775 322.723 57.2499 320.488L86.7168 320.643L86.8264 326.492C86.8264 326.492 104.254 334.757 106.032 336.234C107.81 337.71 109.166 342.508 107.568 343.054Z" fill="#E5A639"/>
<path d="M106.503 341.153C98.85 340.908 67.9654 340.672 60.3832 341.031C60.3284 341.031 60.3206 341.08 60.3832 341.08C67.9654 341.496 98.85 341.471 106.503 341.284C106.667 341.276 106.667 341.153 106.503 341.153Z" fill="#263238"/>
<path d="M52.0723 196.085C52.0723 196.085 57.1088 247.566 57.1871 248.773C57.1871 249.255 55.0252 312.166 55.0252 312.166H88.3381C88.3381 312.166 87.1475 253.211 86.6384 245.942C86.5835 245.126 84.4295 192.764 74.7325 163.14H37.7305C37.7305 163.14 38.0516 180.543 45.6494 193.131C47.8409 193.992 49.9851 194.978 52.0723 196.085Z" fill="#37474F"/>
<path d="M86.2314 305.663C85.315 305.525 84.3829 305.557 83.4586 305.508C82.5344 305.459 81.5239 305.41 80.5527 305.386C78.6101 305.345 76.6363 305.329 74.7251 305.304C70.8087 305.255 66.955 305.304 63.0699 305.304H59.8898C58.8192 305.263 57.7472 305.32 56.6862 305.476C56.6314 305.476 56.6392 305.582 56.6862 305.598C57.593 305.746 58.5098 305.817 59.4277 305.81C60.3989 305.851 61.3702 305.875 62.3415 305.892C64.2527 305.932 66.1639 305.981 68.0829 306.006C71.9288 306.055 75.7825 306.128 79.6362 306.112C80.7328 306.112 81.8216 306.112 82.9182 306.071C84.0148 306.03 85.1114 306.071 86.1923 305.941C86.3333 305.916 86.3959 305.688 86.2314 305.663Z" fill="#263238"/>
<path d="M78.7038 251.653C77.8265 233.109 75.9545 214.646 73.5968 196.256C72.3122 186.18 70.8005 176.121 68.1844 166.314C68.1844 166.314 68.1139 166.314 68.1217 166.314C70.1617 175.286 71.6995 184.374 72.7274 193.531C73.824 202.587 74.8736 211.66 75.7587 220.748C77.5524 239.187 78.3513 257.691 78.461 276.227C78.5236 286.654 78.2573 291.565 77.9753 301.984C77.9753 302.082 78.1163 302.074 78.1242 301.984C79.5732 283.447 79.5497 270.222 78.7038 251.653Z" fill="#263238"/>
<path d="M76.8947 170.312C76.8947 170.297 76.8889 170.283 76.8786 170.272C76.8683 170.261 76.8544 170.255 76.8398 170.255C76.8253 170.255 76.8114 170.261 76.8011 170.272C76.7908 170.283 76.785 170.297 76.785 170.312C76.926 172.507 77.2863 174.897 76.3464 176.97C75.5239 178.789 73.9496 179.817 72.5005 181.049C72.5005 181.09 72.5005 181.163 72.5632 181.147C74.4822 180.543 76.4012 179.434 77.161 177.378C78.0069 175.101 77.5448 172.597 76.8947 170.312Z" fill="#263238"/>
<path d="M60.8529 194.951C59.3081 194.904 57.762 194.958 56.2238 195.114C54.7173 195.197 53.2071 195.17 51.7042 195.033C50.9504 194.951 50.2022 194.821 49.4641 194.641C48.6808 194.454 47.9758 194.16 47.2161 193.94C46.5261 193.783 45.8092 193.811 45.1325 194.021C44.3493 194.209 43.566 194.339 42.7122 194.454C40.8577 194.735 38.9775 194.784 37.1118 194.6C37.0413 194.6 37.01 194.706 37.1118 194.723C38.6806 195.065 40.2791 195.237 41.8819 195.237C42.7031 195.218 43.5222 195.141 44.3336 195.008C45.0785 194.781 45.8528 194.677 46.6286 194.698C47.3895 194.91 48.1376 195.169 48.8688 195.473C49.6138 195.691 50.3729 195.852 51.1403 195.955C52.6772 196.167 54.2308 196.216 55.7773 196.102C57.5217 196.061 59.2539 195.787 60.9313 195.286C60.9739 195.275 61.0106 195.247 61.0333 195.208C61.0561 195.169 61.0631 195.122 61.0527 195.078C61.0423 195.033 61.0154 194.995 60.9779 194.971C60.9405 194.948 60.8955 194.94 60.8529 194.951Z" fill="#263238"/>
<path d="M57.2659 245.942C57.2585 245.938 57.2505 245.937 57.2423 245.937C57.2341 245.937 57.2261 245.938 57.2187 245.942C57.2146 245.95 57.2124 245.958 57.2124 245.967C57.2124 245.975 57.2146 245.984 57.2187 245.991V246.114C57.2339 246.12 57.2508 246.12 57.2659 246.114V245.991C57.2694 245.984 57.2712 245.975 57.2712 245.967C57.2712 245.958 57.2694 245.95 57.2659 245.942Z" fill="#263238"/>
<path d="M56.3803 237.074C56.0879 233.74 55.7746 230.406 55.4404 227.072C54.7667 220.398 54.1323 213.724 53.4743 207.05C53.0984 203.265 52.832 199.447 52.2368 195.694C52.2368 195.596 52.0723 195.596 52.0801 195.694C52.1271 199.039 52.4717 202.384 52.7459 205.72C53.02 209.057 53.302 212.394 53.5997 215.731C54.2028 222.405 54.7746 229.087 55.5265 235.752C55.7406 237.64 55.9652 239.543 56.2001 241.463C56.443 243.356 56.7641 245.241 56.9834 247.134C56.9834 247.151 56.99 247.167 57.0018 247.18C57.0135 247.192 57.0295 247.199 57.0461 247.199C57.0627 247.199 57.0786 247.192 57.0904 247.18C57.1021 247.167 57.1087 247.151 57.1087 247.134C56.8268 243.789 56.6779 240.411 56.3803 237.074Z" fill="#263238"/>
<path d="M56.6389 121.295C56.8896 122.013 60.8451 126.369 64.0644 125.79C65.114 125.603 64.3777 119.59 64.3777 119.59L64.4169 119.133L65.02 112.745L57.4457 108.959L56.357 108.469C56.357 108.469 56.3021 110.232 56.263 112.418C56.263 112.524 56.263 112.622 56.263 112.736C56.263 112.851 56.263 112.973 56.263 113.087V114.083C56.263 114.344 56.263 114.588 56.263 114.85C56.263 115.111 56.263 115.38 56.263 115.665C56.2608 117.549 56.3865 119.43 56.6389 121.295Z" fill="#FFC4C0"/>
<path d="M56.2629 112.435C57.0716 114.104 58.2201 115.57 59.6283 116.73C61.0366 117.889 62.6708 118.715 64.4169 119.149L65.02 112.761L57.4457 108.976L56.3569 108.486C56.3569 108.486 56.3021 110.232 56.2629 112.435Z" fill="#263238"/>
<path d="M74.435 153.081L74.7326 163.141H37.7776C37.7776 163.141 42.1326 133.321 51.8766 122.348C56.7486 116.832 61.9261 117.869 65.5761 121.719C66.4926 122.698 76.589 136.405 77.7483 142.197C78.7587 147.256 74.435 153.081 74.435 153.081Z" fill="#E5A639"/>
<path opacity="0.1" d="M74.6935 161.941H37.9734C38.0204 161.631 38.0831 161.272 38.1535 160.864H74.67L74.6935 161.941ZM74.576 157.862H38.694C38.6235 158.237 38.553 158.596 38.4904 158.939H74.6073L74.576 157.862ZM74.4898 154.851H39.2971C39.2188 155.218 39.1483 155.577 39.0778 155.928H74.5212L74.4898 154.851ZM39.9551 151.833C39.8768 152.2 39.7906 152.559 39.7123 152.91H74.5603C74.7091 152.706 74.9598 152.33 75.2574 151.833H39.9551ZM40.6679 148.822L40.4094 149.899H76.2992C76.4715 149.556 76.6282 149.197 76.7848 148.822H40.6679ZM41.4511 145.812L41.1692 146.889H77.4506C77.5446 146.538 77.6308 146.179 77.7013 145.812H41.4511ZM77.8579 142.801H42.2971C42.1874 143.16 42.0856 143.519 41.9838 143.878H77.9206C77.9169 143.515 77.8934 143.153 77.8501 142.793L77.8579 142.801ZM76.9963 139.791H43.2214C43.1039 140.15 42.9942 140.509 42.8767 140.867H77.388C77.2783 140.517 77.1373 140.174 76.9885 139.782L76.9963 139.791ZM75.5551 136.772H44.2396C44.1065 137.131 43.9811 137.49 43.8558 137.857H76.0955C75.931 137.49 75.7431 137.131 75.5707 136.764L75.5551 136.772ZM73.8554 133.761H45.391C45.2448 134.12 45.1038 134.479 44.9681 134.838H74.482C74.2783 134.474 74.0668 134.112 73.8475 133.753L73.8554 133.761ZM71.9912 130.751H46.6834C46.519 131.11 46.3545 131.469 46.1978 131.828H72.6648L71.9912 130.751ZM70.0016 127.74H48.1952C47.9994 128.091 47.8035 128.45 47.6234 128.817H70.7066C70.4716 128.442 70.2288 128.083 69.9938 127.732L70.0016 127.74ZM67.8946 124.73H50.0124C49.7696 125.081 49.5424 125.44 49.3153 125.807H68.6466L67.8946 124.73ZM65.6153 121.719H52.417C52.2395 121.904 52.0593 122.1 51.8766 122.307C51.6938 122.513 51.5528 122.677 51.4536 122.796H66.4612C66.0539 122.225 65.7563 121.874 65.6074 121.711L65.6153 121.719ZM60.8216 118.701H57.2812C56.4049 118.923 55.5672 119.286 54.7982 119.777H63.2889C62.5204 119.289 61.6861 118.924 60.8138 118.692L60.8216 118.701Z" fill="#030402"/>
<path d="M62.3569 130.131C68.9756 132.774 93.641 138.657 98.8342 134.161C106.988 127.104 113.364 114.458 116.654 104.088C117.789 100.482 96.0535 97.3739 94.8629 101.445C93.2964 106.748 89.38 116.4 88.3382 118.056C87.2965 119.712 72.5473 119.99 62.5997 120.96C54.297 121.768 53.9602 126.786 62.3569 130.131Z" fill="#FFC4C0"/>
<path d="M97.4476 77.3527C98.0418 77.1442 98.6831 77.1301 99.2853 77.3124C99.8874 77.4947 100.421 77.8647 100.816 78.3726C101.461 77.4931 102.381 76.8757 103.416 76.6266C105.265 76.284 106.596 79.1476 106.596 79.1476C107.447 78.3783 108.501 77.8948 109.62 77.7607C111.421 77.6138 113.16 80.3061 113.16 80.3061C114.317 80.0489 115.524 80.2343 116.56 80.8283C119.262 82.5416 119.325 87.5673 119.403 90.7655C119.481 93.9637 116.81 103.101 116.473 104.896L97.5808 106.797C97.5808 106.797 91.7845 98.3122 92.9595 87.5591C93.3119 84.361 95.2075 78.2257 97.4476 77.3527Z" fill="#FFC4C0"/>
<path d="M100.503 78.5109C99.3434 81.7744 99.1789 85.2499 98.8264 88.6929C98.8309 88.7054 98.8389 88.7161 98.8494 88.7237C98.8599 88.7313 98.8724 88.7354 98.8852 88.7354C98.898 88.7354 98.9104 88.7313 98.9209 88.7237C98.9314 88.7161 98.9395 88.7054 98.9439 88.6929C99.2572 85.2581 100.213 81.9375 100.659 78.5272C100.675 78.4538 100.534 78.4212 100.503 78.5109Z" fill="#263238"/>
<path d="M106.338 79.2049C106.142 79.9767 106.047 80.7726 106.056 81.5709C106.009 82.3867 105.978 83.2597 105.954 84.1001C105.954 85.7889 105.954 87.4859 105.954 89.1747C105.954 89.2481 106.064 89.2645 106.064 89.1747C106.106 87.4886 106.176 85.8025 106.275 84.1164C106.327 83.2733 106.39 82.433 106.463 81.5954C106.575 80.8068 106.601 80.0077 106.542 79.213C106.532 79.194 106.518 79.1779 106.5 79.1664C106.483 79.1549 106.463 79.1484 106.442 79.1476C106.421 79.1467 106.401 79.1516 106.383 79.1617C106.364 79.1717 106.349 79.1866 106.338 79.2049Z" fill="#263238"/>
<path d="M113.168 80.3551C113.005 81.0569 112.955 81.782 113.02 82.5009C113.02 83.2759 113.02 84.0428 113.02 84.8179C113.02 86.3599 112.98 87.8937 112.91 89.4357C112.91 89.5173 113.02 89.5254 113.02 89.4357C113.106 87.8692 113.208 86.3028 113.27 84.7445C113.27 83.9286 113.333 83.2025 113.356 82.4356C113.443 81.7363 113.411 81.0266 113.262 80.3388C113.26 80.3259 113.253 80.3143 113.243 80.3066C113.233 80.299 113.22 80.2959 113.208 80.298C113.195 80.3002 113.184 80.3074 113.177 80.3181C113.169 80.3289 113.166 80.3422 113.168 80.3551Z" fill="#263238"/>
<path d="M90.2962 112.435L107.881 127.341C107.881 127.341 101.192 135.214 97.5571 136.022C93.9227 136.829 74.2546 135.654 63.0929 130.955C51.9312 126.256 54.7823 121.695 62.9362 120.7C71.0902 119.704 86.1996 117.836 86.6931 117.526C87.1865 117.216 90.2962 112.435 90.2962 112.435Z" fill="#E5A639"/>
<path opacity="0.1" d="M64.7303 131.599C64.1768 131.398 63.6363 131.186 63.1089 130.963C62.5371 130.718 61.9967 130.482 61.4954 130.245L55.8323 125.423C55.7128 124.979 55.7376 124.506 55.9028 124.077L64.7303 131.599ZM58.0489 122.029C57.7168 122.192 57.3996 122.386 57.1012 122.609L69.3595 133.043C70.1427 133.247 70.926 133.443 71.6623 133.615L58.0489 122.029ZM61.37 120.961C60.9157 121.05 60.4928 121.148 60.0855 121.262L75.5709 134.463C76.2602 134.594 76.9494 134.716 77.6387 134.83L61.37 120.961ZM65.2864 120.422L63.853 120.593L81.14 135.279C81.7823 135.369 82.4246 135.45 83.0512 135.515L65.2864 120.422ZM69.2733 119.933L67.8556 120.112L86.3958 135.891L88.1895 136.038L69.2733 119.933ZM73.2602 119.435L71.8425 119.614L91.3383 136.209L93.0223 136.258L73.2602 119.435ZM77.2314 118.921L75.8137 119.109L95.9048 136.242C96.3931 136.223 96.8798 136.171 97.3617 136.087L77.2314 118.921ZM81.1478 118.399L79.7379 118.595L99.3199 135.246C99.6253 135.067 99.9308 134.863 100.244 134.643L81.1478 118.399ZM85.0642 117.844L83.67 118.048L101.748 133.443C102.022 133.223 102.296 132.986 102.531 132.75L85.0642 117.844ZM87.7038 116.212C87.4689 116.547 87.2574 116.84 87.0772 117.028L103.965 131.412L104.748 130.661L87.7038 116.212ZM89.3879 113.765L88.7926 114.646L106.025 129.331L106.737 128.515L89.3879 113.765Z" fill="#030402"/>
<path d="M103.87 129.185C99.1708 124.869 94.4085 120.561 89.3172 116.743C89.3068 116.735 89.2939 116.732 89.2814 116.734C89.269 116.737 89.2579 116.744 89.2506 116.755C89.2433 116.766 89.2405 116.779 89.2427 116.792C89.2449 116.805 89.2519 116.817 89.2623 116.824C93.8367 121.287 98.8183 125.301 103.784 129.274C103.847 129.323 103.925 129.233 103.87 129.185Z" fill="#263238"/>
<path d="M53.6938 94.9019C53.3768 95.1519 52.9965 95.2998 52.5999 95.3273C52.2032 95.3549 51.8074 95.2609 51.4614 95.0569C50.4745 94.649 49.2134 93.5884 48.1403 94.3308C46.9341 95.1467 47.357 96.9661 47.9288 98.043C48.4823 98.9499 48.9743 99.8958 49.4014 100.874C49.7402 101.819 49.9153 102.819 49.9184 103.827C49.9184 105.859 48.8531 107.735 48.9784 109.759C49.1429 112.206 51.3283 113.969 53.1925 115.078C55.0567 116.188 57.3282 116.636 59.4587 117.412C61.2471 118.125 62.8345 119.295 64.0747 120.815C65.3148 122.335 66.1678 124.155 66.5552 126.109C66.7672 127.068 66.8905 128.046 66.9233 129.029C66.9233 130.082 66.8528 131.142 66.9233 132.195C66.9545 132.791 67.1222 133.371 67.4124 133.887C67.7027 134.402 68.107 134.837 68.5917 135.157C69.5172 135.663 70.5228 135.992 71.5603 136.127C71.5932 136.137 71.6228 136.156 71.6457 136.182C71.6686 136.209 71.6837 136.242 71.6895 136.277C71.6952 136.312 71.6913 136.348 71.6781 136.38C71.665 136.413 71.6431 136.442 71.6152 136.462C71.0501 136.869 70.4586 137.234 69.845 137.555C69.3156 137.874 68.7304 138.079 68.1237 138.159C67.5171 138.239 66.9013 138.192 66.3124 138.02C64.9808 137.531 64.1819 136.233 63.4534 135.059C62.6532 133.652 61.5276 132.477 60.1793 131.64C58.7871 130.873 57.2801 130.357 55.7225 130.114C52.7068 129.576 49.6207 129.739 46.6208 129.078C45.1662 128.81 43.7788 128.237 42.5419 127.396C41.3049 126.555 40.2439 125.462 39.4224 124.183C38.616 122.884 38.0822 121.421 37.8559 119.892C37.6883 118.221 37.7729 116.534 38.1065 114.891C38.735 111.368 38.9585 107.78 38.7723 104.203C38.6551 102.517 38.4511 100.84 38.1614 99.177C37.8567 97.6254 37.707 96.0451 37.7149 94.4614C37.7466 93.0885 38.1253 91.7486 38.8129 90.5768C39.5005 89.4051 40.4727 88.443 41.6313 87.7876C42.7711 87.0918 44.0635 86.7129 45.3843 86.6872C46.7052 86.6615 48.0103 86.9898 49.1743 87.6408C52.9497 89.8844 54.1872 94.3961 53.6938 94.9019Z" fill="#263238"/>
<path d="M49.4875 111.545C49.9185 112.631 50.5575 113.613 51.3656 114.433C52.1737 115.252 53.1338 115.891 54.1872 116.31C56.3412 117.126 58.7067 117.175 60.8999 117.942C62.9387 118.568 64.7557 119.805 66.1244 121.499C67.2826 123.192 67.8868 125.229 67.8476 127.308C67.9259 129.658 67.6988 131.999 67.9416 134.341C67.9416 134.381 67.8789 134.398 67.8711 134.341C67.0878 130.261 68.5995 125.692 66.1479 122.046C64.6525 120.023 62.5335 118.6 60.148 118.015C58.0723 117.403 55.8321 117.346 53.8347 116.457C52.8322 115.982 51.9311 115.302 51.1845 114.459C50.438 113.615 49.861 112.625 49.4875 111.545Z" fill="#263238"/>
<path d="M37.4724 122.829C37.2709 121.459 37.3134 120.062 37.5977 118.709C37.8875 117.077 38.2556 115.445 38.5924 113.813C38.3183 115.209 38.0911 116.62 37.8562 118.031C37.5906 119.359 37.5036 120.718 37.5977 122.07C37.7742 123.404 38.237 124.68 38.9516 125.803C39.6662 126.926 40.6143 127.867 41.7256 128.556C43.9814 130 46.5505 130.278 49.1354 130.286C51.4327 130.243 53.7302 130.361 56.0125 130.637C58.5707 130.929 61.0416 131.776 63.2657 133.125C63.2657 133.125 63.2657 133.206 63.2657 133.182C58.7854 130.449 53.647 130.588 48.6341 130.596C46.1542 130.719 43.6922 130.102 41.5376 128.817C40.4999 128.165 39.603 127.297 38.9034 126.266C38.2038 125.235 37.7165 124.065 37.4724 122.829Z" fill="#263238"/>
<path d="M52.1275 97.521C52.2684 97.521 54.1796 95.4324 54.3833 95.2284C54.587 95.0244 56.6078 93.0745 56.6391 92.9358C55.9842 92.2518 55.2142 91.6987 54.3676 91.3041C53.8585 91.1899 52.3389 92.5116 52.0883 92.7563C51.8376 93.0011 50.5217 94.5675 50.6471 95.106C50.997 95.9972 51.4985 96.8153 52.1275 97.521Z" fill="#E5A639"/>
<path d="M72.9938 101.69C75.8293 112.565 69.9469 115.665 67.6362 116.196C65.5683 116.677 58.558 118.456 54.6651 107.939C50.7722 97.4227 54.7278 92.6173 59.3648 91.0427C64.0018 89.4681 70.1662 90.8061 72.9938 101.69Z" fill="#FFC4C0"/>
<path d="M71.8659 99.4872C71.6152 99.4872 71.3803 99.4872 71.0826 99.4872C70.8113 99.5271 70.5351 99.4695 70.2993 99.324C70.2362 99.2667 70.1929 99.1894 70.1759 99.1039C70.159 99.0185 70.1693 98.9296 70.2053 98.8508C70.3039 98.7052 70.4377 98.5893 70.5931 98.5148C70.7486 98.4403 70.9201 98.4098 71.0904 98.4266C71.4378 98.4108 71.7783 98.5301 72.046 98.7611C72.0983 98.8143 72.1361 98.8809 72.1557 98.9542C72.1753 99.0274 72.176 99.1048 72.1578 99.1785C72.1395 99.2521 72.1029 99.3195 72.0516 99.3737C72.0004 99.4279 71.9363 99.467 71.8659 99.4872Z" fill="#263238"/>
<path d="M65.0904 101.282C65.3228 101.195 65.5503 101.094 65.7718 100.98C66.0311 100.907 66.2597 100.746 66.4219 100.523C66.4593 100.445 66.4704 100.355 66.4534 100.27C66.4363 100.184 66.3922 100.107 66.3279 100.05C66.1823 99.9594 66.0158 99.9116 65.8462 99.9116C65.6766 99.9116 65.5102 99.9594 65.3645 100.05C65.0275 100.163 64.7463 100.409 64.5812 100.735C64.5556 100.81 64.5505 100.891 64.5666 100.968C64.5827 101.046 64.6193 101.117 64.6723 101.174C64.7254 101.231 64.7926 101.271 64.8665 101.29C64.9404 101.309 65.018 101.306 65.0904 101.282Z" fill="#263238"/>
<path d="M67.1661 103.68C67.1661 103.68 67.1191 103.729 67.1661 103.762C67.3463 104.504 67.4324 105.394 66.8372 105.785C66.8372 105.785 66.8372 105.834 66.8372 105.826C67.5813 105.532 67.4559 104.358 67.1661 103.68Z" fill="#263238"/>
<path d="M66.3595 103.052C65.1846 103.224 65.5762 105.663 66.6963 105.5C67.8164 105.337 67.3464 102.897 66.3595 103.052Z" fill="#263238"/>
<path d="M65.9208 103.264C65.7406 103.444 65.584 103.721 65.3411 103.795C65.0983 103.868 64.8007 103.664 64.5579 103.452C64.6362 103.925 64.8868 104.366 65.3411 104.349C65.7954 104.333 66.0383 103.86 66.0696 103.362C66.0853 103.305 65.9913 103.191 65.9208 103.264Z" fill="#263238"/>
<path d="M70.9889 102.53C70.9889 102.53 71.0515 102.53 71.0593 102.587C71.1612 103.346 71.404 104.219 72.1011 104.333V104.374C71.2787 104.398 70.9732 103.264 70.9889 102.53Z" fill="#263238"/>
<path d="M71.5054 101.625C72.6647 101.314 73.1582 103.738 72.0929 104.023C71.0276 104.309 70.542 101.877 71.5054 101.625Z" fill="#263238"/>
<path d="M72.0301 101.673C72.2337 101.763 72.4687 101.951 72.688 101.918C72.9074 101.886 73.0797 101.576 73.1893 101.29C73.1893 101.29 73.1893 101.29 73.2363 101.29C73.3382 101.755 73.2912 102.269 72.8839 102.449C72.4766 102.628 72.1397 102.285 71.9439 101.845C71.9048 101.78 71.9439 101.641 72.0301 101.673Z" fill="#263238"/>
<path d="M70.691 106.185C70.691 106.185 71.0434 107.279 71.1453 107.817C71.1453 107.866 71.0356 107.915 70.8633 107.964C70.4411 108.135 69.9819 108.182 69.5358 108.1C69.0897 108.018 68.6738 107.81 68.3333 107.499C68.3254 107.489 68.3208 107.477 68.3204 107.464C68.3199 107.451 68.3236 107.439 68.3308 107.428C68.338 107.418 68.3484 107.41 68.3602 107.407C68.372 107.404 68.3846 107.404 68.396 107.409C69.1367 107.742 69.9611 107.817 70.7458 107.621C70.7458 107.466 70.0722 105.769 70.1505 105.745C70.5525 105.702 70.9582 105.716 71.3568 105.786C70.6753 103.485 69.6492 101.306 69.0069 99.0057C69.0009 98.9888 69.0012 98.9701 69.0076 98.9534C69.0139 98.9366 69.0261 98.9228 69.0416 98.9147C69.0571 98.9067 69.0749 98.9048 69.0916 98.9096C69.1084 98.9143 69.1228 98.9253 69.1322 98.9405C70.3062 101.235 71.2586 103.646 71.9756 106.136C72.0304 106.422 70.9103 106.234 70.691 106.185Z" fill="#263238"/>
<path d="M70.7457 107.539C70.5668 108.044 70.2676 108.493 69.8762 108.845C69.6521 109.03 69.3785 109.138 69.093 109.155C68.482 109.155 68.3097 108.649 68.2627 108.151C68.2311 107.88 68.2311 107.606 68.2627 107.335C69.047 107.683 69.9188 107.755 70.7457 107.539Z" fill="#263238"/>
<path d="M69.8765 108.861C69.6524 109.046 69.3788 109.154 69.0932 109.171C68.4823 109.171 68.3099 108.665 68.2629 108.168C68.5676 108.076 68.8929 108.095 69.186 108.221C69.479 108.347 69.7224 108.573 69.8765 108.861Z" fill="#FF98B9"/>
<path d="M56.2158 111.431C57.1323 111.26 56.2158 105.255 56.2158 105.255C56.2158 105.255 59.8032 103.256 59.9677 97.5777C60.1624 99.2301 59.8902 100.906 59.1844 102.399C59.1844 102.399 65.4507 100.368 67.0721 94.2409C67.0721 94.2409 66.5394 97.3004 65.7248 98.516C67.2483 97.6661 68.4496 96.3026 69.1321 94.6488C69.1321 94.6488 70.8631 97.6349 71.897 98.3447C71.897 98.3447 70.7143 87.0205 59.2863 90.1289C57.2331 90.6483 55.3565 91.7457 53.8617 93.3012C52.367 94.8566 51.3117 96.8103 50.8112 98.9484C49.9888 102.595 51.1558 106.928 52.5971 109.359C53.4978 110.803 56.2158 111.431 56.2158 111.431Z" fill="#263238"/>
<path d="M59.1219 106.161C59.1219 106.161 56.4666 102.897 55.0097 103.892C53.5528 104.888 55.793 109.824 57.6258 110.346C57.8586 110.429 58.1051 110.463 58.3507 110.445C58.5963 110.427 58.8359 110.358 59.0552 110.241C59.2745 110.125 59.4691 109.964 59.6272 109.767C59.7853 109.571 59.9039 109.343 59.9757 109.098L59.1219 106.161Z" fill="#FFC4C0"/>
</svg>
