<?xml version="1.0" encoding="UTF-8"?>
<svg id="Layer_1" data-name="Layer 1" xmlns="http://www.w3.org/2000/svg" viewBox="0 0 437.42 420">
  <defs>
    <style>
      .cls-1 {
        fill: #60c19c;
      }

      .cls-2 {
        fill: #ef5296;
      }

      .cls-3 {
        fill: #febe1d;
      }

      .cls-4 {
        fill: #58c8e4;
      }
    </style>
  </defs>
  <g>
    <path class="cls-1" d="M290.79,221.88c-7.51,0-12.51,6.09-12.51,18s5,18.31,12.51,18.31,12.52-6.4,12.52-18.31-5-18-12.52-18ZM290.79,251.92c-2.73,0-4.85-2.5-4.85-12.04s2.12-11.73,4.85-11.73,4.85,2.18,4.85,11.73-2.13,12.04-4.85,12.04Z"/>
    <path class="cls-1" d="M344.93,250.99v6.54h-22.3v-6.54h7.64v-20.24h-6.55v-5.03c3.75-.71,6.23-1.67,8.68-3.18h5.97v28.45h6.56Z"/>
    <path class="cls-1" d="M212.55,308.77v6.54h-22.3v-6.54h7.65v-20.24h-6.56v-5.03c3.75-.71,6.23-1.67,8.68-3.18h5.97v28.45h6.55Z"/>
    <path class="cls-1" d="M235.27,279.67c-7.52,0-12.51,6.09-12.51,18s4.99,18.31,12.51,18.31,12.52-6.4,12.52-18.31-5-18-12.52-18ZM235.27,309.71c-2.73,0-4.85-2.5-4.85-12.04s2.13-11.73,4.85-11.73,4.85,2.18,4.85,11.73-2.13,12.04-4.85,12.04Z"/>
    <path class="cls-1" d="M270.52,279.67c-7.52,0-12.52,6.09-12.52,18s5,18.31,12.52,18.31,12.52-6.4,12.52-18.31-5-18-12.52-18ZM270.52,309.71c-2.73,0-4.85-2.5-4.85-12.04s2.13-11.73,4.85-11.73,4.85,2.18,4.85,11.73-2.13,12.04-4.85,12.04Z"/>
    <path class="cls-1" d="M305.76,279.67c-7.52,0-12.52,6.09-12.52,18s5,18.31,12.52,18.31,12.51-6.4,12.51-18.31-4.99-18-12.51-18ZM305.76,309.71c-2.73,0-4.85-2.5-4.85-12.04s2.13-11.73,4.85-11.73,4.85,2.18,4.85,11.73-2.12,12.04-4.85,12.04Z"/>
    <path class="cls-1" d="M237.63,337.45c-7.52,0-12.51,6.09-12.51,18s4.99,18.31,12.51,18.31,12.52-6.4,12.52-18.31-5-18-12.52-18ZM237.63,367.5c-2.73,0-4.85-2.5-4.85-12.04s2.13-11.73,4.85-11.73,4.85,2.18,4.85,11.73-2.13,12.04-4.85,12.04Z"/>
    <path class="cls-1" d="M286.56,366.56v6.54h-22.3v-6.54h7.65v-20.24h-6.56v-5.03c3.75-.71,6.23-1.67,8.68-3.18h5.97v28.45h6.55Z"/>
  </g>
  <g>
    <path class="cls-3" d="M59.28,105.62c-7.52,0-12.52,6.09-12.52,18s5,18.31,12.52,18.31,12.52-6.4,12.52-18.31-5-18-12.52-18ZM59.28,135.66c-2.73,0-4.85-2.5-4.85-12.04s2.13-11.73,4.85-11.73,4.85,2.18,4.85,11.73-2.13,12.04-4.85,12.04Z"/>
    <path class="cls-3" d="M101.63,105.62c-7.51,0-12.51,6.09-12.51,18s5,18.31,12.51,18.31,12.52-6.4,12.52-18.31-5-18-12.52-18ZM101.63,135.66c-2.73,0-4.85-2.5-4.85-12.04s2.12-11.73,4.85-11.73,4.85,2.18,4.85,11.73-2.13,12.04-4.85,12.04Z"/>
    <path class="cls-3" d="M95.18,46.24c-7.71,0-12.83,6.24-12.83,18.45s5.12,18.76,12.83,18.76,12.83-6.56,12.83-18.76-5.12-18.45-12.83-18.45ZM95.18,77.03c-2.8,0-4.97-2.56-4.97-12.35s2.18-12.03,4.97-12.03,4.97,2.24,4.97,12.03-2.18,12.35-4.97,12.35Z"/>
    <path class="cls-3" d="M142.51,76.08v6.7h-22.86v-6.7h7.84v-20.75h-6.71v-5.15c3.84-.73,6.38-1.71,8.89-3.26h6.12v29.16h6.72Z"/>
    <path class="cls-3" d="M153.27,64.68c0-12.2,5.12-18.45,12.83-18.45s12.83,6.29,12.83,18.45-5.12,18.77-12.83,18.77-12.83-6.56-12.83-18.77ZM171.07,64.68c0-9.78-2.18-12.03-4.97-12.03s-4.97,2.24-4.97,12.03,2.18,12.35,4.97,12.35,4.97-2.56,4.97-12.35Z"/>
    <path class="cls-3" d="M201.56,46.24c-7.71,0-12.83,6.24-12.83,18.45s5.12,18.76,12.83,18.76,12.83-6.56,12.83-18.76-5.12-18.45-12.83-18.45ZM201.56,77.03c-2.8,0-4.98-2.56-4.98-12.35s2.18-12.03,4.98-12.03,4.97,2.24,4.97,12.03-2.18,12.35-4.97,12.35Z"/>
    <path class="cls-3" d="M237.02,46.24c-7.71,0-12.83,6.24-12.83,18.45s5.12,18.76,12.83,18.76,12.83-6.56,12.83-18.76-5.12-18.45-12.83-18.45ZM237.02,77.03c-2.8,0-4.97-2.56-4.97-12.35s2.18-12.03,4.97-12.03,4.98,2.24,4.98,12.03-2.18,12.35-4.98,12.35Z"/>
    <path class="cls-3" d="M284.35,76.08v6.7h-22.86v-6.7h7.84v-20.75h-6.71v-5.15c3.85-.73,6.38-1.71,8.9-3.26h6.12v29.16h6.71Z"/>
  </g>
  <g>
    <path class="cls-2" d="M143.98,105.62c-7.52,0-12.52,6.09-12.52,18s5,18.31,12.52,18.31,12.52-6.4,12.52-18.31-5-18-12.52-18ZM143.98,135.66c-2.73,0-4.85-2.5-4.85-12.04s2.13-11.73,4.85-11.73,4.85,2.18,4.85,11.73-2.13,12.04-4.85,12.04Z"/>
    <path class="cls-2" d="M196.12,134.72v6.54h-22.3v-6.54h7.65v-20.24h-6.56v-5.03c3.75-.71,6.23-1.67,8.68-3.18h5.97v28.45h6.56Z"/>
    <path class="cls-2" d="M235.74,134.72v6.54h-22.3v-6.54h7.64v-20.24h-6.55v-5.03c3.75-.71,6.23-1.67,8.68-3.18h5.98v28.45h6.55Z"/>
    <path class="cls-2" d="M265.56,105.62c-7.51,0-12.51,6.09-12.51,18s5,18.31,12.51,18.31,12.52-6.4,12.52-18.31-5-18-12.52-18ZM265.56,135.66c-2.73,0-4.85-2.5-4.85-12.04s2.12-11.73,4.85-11.73,4.85,2.18,4.85,11.73-2.13,12.04-4.85,12.04Z"/>
    <path class="cls-2" d="M307.92,105.62c-7.52,0-12.52,6.09-12.52,18s5,18.31,12.52,18.31,12.52-6.4,12.52-18.31-5-18-12.52-18ZM307.92,135.66c-2.73,0-4.85-2.5-4.85-12.04s2.13-11.73,4.85-11.73,4.85,2.18,4.85,11.73-2.13,12.04-4.85,12.04Z"/>
    <path class="cls-2" d="M68.16,164.09c-7.52,0-12.51,6.09-12.51,18s4.99,18.31,12.51,18.31,12.52-6.4,12.52-18.31-5-18-12.52-18ZM68.16,194.14c-2.73,0-4.85-2.5-4.85-12.04s2.13-11.73,4.85-11.73,4.85,2.18,4.85,11.73-2.13,12.04-4.85,12.04Z"/>
    <path class="cls-2" d="M108.82,164.09c-7.52,0-12.52,6.09-12.52,18s5,18.31,12.52,18.31,12.51-6.4,12.51-18.31-5-18-12.51-18ZM108.82,194.14c-2.73,0-4.85-2.5-4.85-12.04s2.13-11.73,4.85-11.73,4.85,2.18,4.85,11.73-2.12,12.04-4.85,12.04Z"/>
    <path class="cls-2" d="M159.24,193.2v6.54h-22.3v-6.54h7.65v-20.24h-6.56v-5.03c3.75-.71,6.23-1.67,8.68-3.18h5.97v28.45h6.55Z"/>
  </g>
  <g>
    <path class="cls-4" d="M202.09,221.88c-7.52,0-12.52,6.09-12.52,18s5,18.31,12.52,18.31,12.51-6.4,12.51-18.31-4.99-18-12.51-18ZM202.09,251.92c-2.73,0-4.85-2.5-4.85-12.04s2.13-11.73,4.85-11.73,4.85,2.18,4.85,11.73-2.13,12.04-4.85,12.04Z"/>
    <path class="cls-4" d="M246.44,221.88c-7.52,0-12.52,6.09-12.52,18s5,18.31,12.52,18.31,12.52-6.4,12.52-18.31-5-18-12.52-18ZM246.44,251.92c-2.73,0-4.85-2.5-4.85-12.04s2.13-11.73,4.85-11.73,4.85,2.18,4.85,11.73-2.13,12.04-4.85,12.04Z"/>
    <path class="cls-4" d="M187.37,164.09c-7.52,0-12.52,6.09-12.52,18s5,18.31,12.52,18.31,12.51-6.4,12.51-18.31-5-18-12.51-18ZM187.37,194.14c-2.73,0-4.85-2.5-4.85-12.04s2.13-11.73,4.85-11.73,4.85,2.18,4.85,11.73-2.12,12.04-4.85,12.04Z"/>
    <path class="cls-4" d="M237.79,193.2v6.54h-22.3v-6.54h7.65v-20.24h-6.56v-5.03c3.75-.71,6.23-1.67,8.68-3.18h5.97v28.45h6.55Z"/>
    <path class="cls-4" d="M275.7,193.2v6.54h-22.3v-6.54h7.64v-20.24h-6.55v-5.03c3.75-.71,6.23-1.67,8.68-3.18h5.97v28.45h6.56Z"/>
    <path class="cls-4" d="M313.61,193.2v6.54h-22.3v-6.54h7.65v-20.24h-6.56v-5.03c3.75-.71,6.23-1.67,8.68-3.18h5.97v28.45h6.55Z"/>
    <path class="cls-4" d="M341.74,164.09c-7.52,0-12.52,6.09-12.52,18s5,18.31,12.52,18.31,12.51-6.4,12.51-18.31-5-18-12.51-18ZM341.74,194.14c-2.73,0-4.85-2.5-4.85-12.04s2.13-11.73,4.85-11.73,4.85,2.18,4.85,11.73-2.12,12.04-4.85,12.04Z"/>
    <path class="cls-4" d="M390.66,193.47v6.7h-22.86v-6.7h7.84v-20.75h-6.71v-5.15c3.84-.73,6.38-1.71,8.89-3.26h6.12v29.16h6.72Z"/>
  </g>
</svg>