<svg width="435" height="440" viewBox="0 0 435 440" fill="none" xmlns="http://www.w3.org/2000/svg">
<path d="M19.2293 262.481H45.749V250.808H19.2293V262.481Z" fill="#EBEBEB"/>
<path d="M34.0314 236.089L47.1711 235.797L53.8411 235.683C56.0744 235.63 58.3178 235.683 60.5511 235.63H60.9918V236.1L61.0519 247.773V248.294H60.5712L47.3113 248.232C42.8947 248.232 38.468 248.107 34.0514 248.055H33.771V247.773C33.771 245.791 33.8511 243.819 33.9012 241.879L34.0314 236.089ZM34.0314 236.089L34.1716 241.983C34.1716 243.934 34.2818 245.853 34.3018 247.762L34.0314 247.481C38.448 247.429 42.8746 247.314 47.2913 247.303L60.5712 247.241L60.0704 247.762V236.089L60.5712 236.601C58.3879 236.601 56.2046 236.601 54.0113 236.538L47.4215 236.423L34.0314 236.089Z" fill="#EBEBEB"/>
<path d="M4.48647 236.089L17.6262 235.797L24.2962 235.683C26.5295 235.63 28.7629 235.683 31.0062 235.63H31.4469V236.1L31.507 247.773V248.294H31.0062L17.7463 248.232C13.3197 248.232 8.90309 248.107 4.48647 248.055H4.20605V247.773C4.20605 245.791 4.29619 243.819 4.33625 241.879L4.48647 236.089ZM4.48647 236.089L4.62668 241.983C4.62668 243.934 4.73685 245.853 4.75688 247.762L4.48647 247.481C8.90309 247.429 13.3197 247.314 17.7463 247.303L31.0062 247.241L30.5055 247.762V236.089L30.9561 236.559C28.7629 236.559 26.5896 236.559 24.3963 236.496L17.8064 236.382L4.48647 236.089Z" fill="#EBEBEB"/>
<path d="M412.368 19.5601L399.228 19.8522L392.558 19.967C390.325 20.0191 388.082 19.967 385.848 20.0296H385.408V19.5601L385.348 7.88717V7.36559H385.848L399.108 7.43861C403.535 7.43861 407.952 7.55336 412.368 7.60551H412.649V7.88717C412.649 9.86918 412.558 11.8408 412.518 13.7915L412.368 19.5601ZM412.368 19.5601L412.228 13.6663C412.228 11.726 412.118 9.80659 412.098 7.88717L412.368 8.17925C407.952 8.17925 403.535 8.34616 399.108 8.34616L385.848 8.40875L386.349 7.88717L386.299 19.5601L385.848 19.1012C388.032 19.1012 390.215 19.1012 392.408 19.1012L398.998 19.2263L412.368 19.5601Z" fill="#EBEBEB"/>
<path d="M427.159 22.606H400.64V34.279H427.159V22.606Z" fill="#EBEBEB"/>
<path d="M30.9665 19.6229L17.8168 19.9045L11.1468 20.0297C8.91347 20.0297 6.68012 20.0297 4.44677 20.0297H3.99609V19.6229V7.94989V7.41787H4.48683L17.7467 7.48046C22.1633 7.48046 26.5799 7.59521 31.0066 7.64737H31.277V7.92902C31.277 9.9006 31.1868 11.8722 31.1468 13.8229L30.9665 19.6229ZM30.9665 19.6229L30.8163 13.7186C30.8163 11.7783 30.7061 9.85887 30.6861 7.94989L30.9665 8.23154C26.5399 8.2837 22.1233 8.39845 17.7066 8.39845L4.48683 8.42974L4.97757 7.90816L4.88743 19.6229L4.48683 19.1117C6.6701 19.1117 8.84336 19.1117 11.0366 19.1743L17.6265 19.2891L30.9665 19.6229Z" fill="#EBEBEB"/>
<path d="M190.836 93.2178H217.355V81.5448H190.836V93.2178Z" fill="#EBEBEB"/>
<path d="M400.641 240.45L413.79 240.158L420.46 240.043C422.694 239.991 424.927 240.043 427.16 239.98H427.611V240.45L427.661 252.123V252.644H427.12L413.86 252.582C409.444 252.582 405.027 252.456 400.6 252.404H400.33V252.123C400.33 250.141 400.42 248.169 400.46 246.229L400.641 240.45ZM400.641 240.45L400.791 246.344C400.791 248.294 400.901 250.214 400.921 252.123L400.641 251.841C405.067 251.789 409.484 251.674 413.9 251.664L427.16 251.601L426.67 252.123L426.72 240.45L427.16 240.919C424.977 240.919 422.804 240.919 420.61 240.856L414.021 240.742L400.641 240.45Z" fill="#EBEBEB"/>
<path d="M227.241 349.105H253.761V337.432H227.241V349.105Z" fill="#EBEBEB"/>
<path d="M205.618 66.8261L218.808 66.5653L225.478 66.4506C227.711 66.4506 229.945 66.4506 232.188 66.4506H232.629V66.92L232.679 78.593V79.1146H232.178L218.918 79.052C214.492 79.052 210.075 78.9372 205.658 78.8746H205.378V78.593C205.378 76.611 205.468 74.6394 205.508 72.6991L205.618 66.8261ZM205.618 66.8261L205.769 72.7304C205.769 74.6707 205.879 76.5901 205.899 78.4991L205.628 78.2174C210.045 78.2174 214.462 78.0505 218.888 78.0505L232.148 77.9775L231.647 78.4991L231.697 66.8261L232.148 67.2955C229.955 67.2955 227.781 67.2955 225.588 67.2329L218.998 67.1182L205.618 66.8261Z" fill="#EBEBEB"/>
<path d="M73.1102 337.787H39.4998L20.271 237.904L51.0371 223.175L73.1102 337.787Z" fill="#DBDBDB"/>
<path d="M169.314 337.787H73.1102L51.0371 223.175H147.241L169.314 337.787Z" fill="#EBEBEB"/>
<path d="M55.8544 284.2H4.34717V394.285H55.8544V284.2Z" fill="#DBDBDB"/>
<path d="M194.032 394.285H179.961L158.989 284.2H194.032V394.285Z" fill="#DBDBDB"/>
<path d="M84.1569 284.2H55.8545V394.285H84.1569V284.2Z" fill="#EBEBEB"/>
<path d="M222.334 284.2H194.031V394.285H222.334V284.2Z" fill="#EBEBEB"/>
<path d="M194.031 337.787H84.1562V394.274H194.031V337.787Z" fill="#EBEBEB"/>
<path d="M194.031 313.367H84.1562V338.017H194.031V313.367Z" fill="#EBEBEB"/>
<path d="M62.7944 284.2L73.4804 284.002L84.1565 283.856H84.4769V284.2L84.6071 297.104V309.987C84.6071 318.572 84.6672 327.157 84.6071 335.753C84.547 344.349 84.6071 352.923 84.4669 361.519C84.3267 370.115 84.2866 378.689 84.1064 387.285C83.9328 378.689 83.8159 370.101 83.7559 361.519C83.6457 352.923 83.6357 344.338 83.6056 335.753C83.5756 327.168 83.6056 318.572 83.6056 309.987V297.104L83.7258 284.221L84.0463 284.555L73.3703 284.419L62.7944 284.2Z" fill="#DBDBDB"/>
<path d="M194.031 284.2C194.251 292.816 194.351 301.433 194.441 310.06L194.562 335.92L194.441 361.78L194.291 374.715L194.031 387.64L193.77 374.715L193.62 361.78L193.5 335.92L193.62 310.06C193.71 301.433 193.77 292.816 194.031 284.2Z" fill="#DBDBDB"/>
<path d="M194.031 337.787C184.877 338.016 175.723 338.121 166.56 338.215L139.099 338.34L111.647 338.215L97.9169 338.058L84.1562 337.787L97.8968 337.516L111.627 337.359L139.099 337.234L166.56 337.359C175.744 337.453 184.877 337.557 194.031 337.787Z" fill="#DBDBDB"/>
<path d="M194.03 313.367C184.877 313.596 175.723 313.7 166.559 313.794L139.098 313.919L111.647 313.794L97.9164 313.638L84.1758 313.367L97.9164 313.095L111.647 312.939L139.118 312.814L166.579 312.939C175.743 313.033 184.877 313.137 194.03 313.367Z" fill="#DBDBDB"/>
<path d="M23.9255 394.274L23.2245 403.193L21.602 423.806H14.1409L12.5184 403.193L11.8174 394.274H23.9255Z" fill="#C7C7C7"/>
<path d="M11.8174 394.274H23.9255L23.2245 403.193H12.5184L11.8174 394.274Z" fill="#A6A6A6"/>
<path d="M76.0637 394.274L75.3627 403.193L73.7402 423.806H66.279L64.6566 403.193L63.9556 394.274H76.0637Z" fill="#C7C7C7"/>
<path d="M63.9556 394.274H76.0637L75.3627 403.193H64.6566L63.9556 394.274Z" fill="#A6A6A6"/>
<path d="M162.534 394.274L161.843 403.193L160.22 423.806H152.759L151.137 403.193L150.436 394.274H162.534Z" fill="#C7C7C7"/>
<path d="M150.436 394.274H162.534L161.843 403.193H151.137L150.436 394.274Z" fill="#A6A6A6"/>
<path d="M214.692 394.274L213.991 403.193L212.369 423.806H204.907L203.285 403.193L202.584 394.274H214.692Z" fill="#C7C7C7"/>
<path d="M214.692 394.274L213.991 403.193H203.285L202.584 394.274H214.692Z" fill="#A6A6A6"/>
<path d="M196.695 72.7824H24.7871V80.4705H196.695V72.7824Z" fill="#EBEBEB"/>
<path d="M49.784 110.732H43.0839L40.3999 80.4703H49.784V110.732Z" fill="#EBEBEB"/>
<path d="M171.697 110.732H178.397L181.081 80.4703H171.697V110.732Z" fill="#EBEBEB"/>
<path d="M40.3999 80.4703H49.774V90.8915H41.3213L40.3999 80.4703Z" fill="#DBDBDB"/>
<path d="M181.081 80.4703L180.16 90.8915H171.697V80.4703H181.081Z" fill="#DBDBDB"/>
<path d="M87.0407 26.6643C79.4092 37.4193 71.4573 49.8746 69.5244 63.4357C69.5238 63.4777 69.5375 63.5186 69.5631 63.551C69.5887 63.5835 69.6245 63.6054 69.6642 63.6129C69.7039 63.6204 69.7448 63.613 69.7798 63.5921C69.8147 63.5711 69.8413 63.5378 69.8549 63.4983C70.7347 59.8212 71.8625 56.2133 73.23 52.7016C78.2375 51.262 83.1649 50.0833 85.7988 44.8988C88.4328 39.7142 88.1423 32.6207 87.6316 26.8103C87.6115 26.4661 87.1909 26.4556 87.0407 26.6643Z" fill="#EBEBEB"/>
<path d="M73.3096 52.5657C76.6645 44.3623 81.1851 36.7314 86.7197 29.9291L86.7798 29.9917C83.2785 34.6843 80.2039 39.7062 77.5961 44.9923C80.1198 42.3218 82.884 39.9226 85.2776 37.0956C85.2776 37.0956 85.3978 37.0956 85.3577 37.179C82.9841 40.1416 80.3502 43.365 77.3457 45.5243C76.5178 47.1238 75.6765 48.7234 74.8219 50.3229C75.0322 50.1977 75.2526 50.0934 75.4629 49.9786V50.0412L74.7518 50.4063C74.3512 51.1574 73.9506 51.9189 73.54 52.67C73.4599 52.8786 73.2295 52.7326 73.3096 52.5657Z" fill="#A6A6A6"/>
<path d="M75.8538 49.7701C77.904 48.5725 79.8627 47.2123 81.7126 45.7018C81.7126 45.7018 81.8328 45.7018 81.7827 45.7748C79.9906 47.3911 78.0285 48.7909 75.9339 49.9474C75.9228 49.9529 75.9107 49.9561 75.8983 49.9567C75.886 49.9573 75.8736 49.9553 75.862 49.951C75.8504 49.9466 75.8397 49.9399 75.8306 49.9313C75.8214 49.9226 75.814 49.9121 75.8088 49.9005C75.8035 49.8889 75.8005 49.8762 75.7999 49.8634C75.7993 49.8505 75.8012 49.8377 75.8054 49.8256C75.8095 49.8135 75.816 49.8023 75.8243 49.7928C75.8326 49.7833 75.8427 49.7756 75.8538 49.7701Z" fill="#A6A6A6"/>
<path d="M68.6834 63.2791C68.6834 63.446 68.9639 63.4355 68.9639 63.2791C68.9639 58.8352 68.9639 54.3705 69.034 49.9057C70.1256 47.6108 72.4691 46.3381 74.1016 44.4917C75.2639 43.1472 76.2722 41.6664 77.1061 40.0792C79.0685 36.2854 80.268 32.1148 80.6314 27.822C81.082 23.0652 79.3494 7.38647 77.4266 7.92892C76.425 8.21057 73.2002 15.9821 72.3489 18.5483C70.9697 22.7837 69.964 27.1413 69.3444 31.567C67.7921 42.0194 67.9223 52.7536 68.6834 63.2791Z" fill="#EBEBEB"/>
<path d="M68.6529 44.1059C69.0584 38.4548 69.9262 32.8501 71.2468 27.3527C72.4686 21.4693 73.9007 15.9405 76.8051 10.6621C76.8051 10.5578 76.9954 10.6621 76.9453 10.7456C75.0111 14.8217 73.5132 19.107 72.4786 23.5243C72.6789 23.2114 72.9093 22.9089 73.1096 22.6063C73.1897 22.4916 73.38 22.6063 73.2998 22.7211C73.0435 23.1967 72.7415 23.6441 72.3985 24.0563C71.397 28.229 70.6759 32.5477 70.065 36.8351L70.2052 36.6682C70.2052 36.6682 70.2853 36.6682 70.2653 36.6682L70.0249 37.0959C69.7145 39.2656 69.424 41.4354 69.1336 43.5843C72.949 40.3997 75.9348 36.2674 77.8166 31.5671C76.2281 36.5796 73.1526 40.9373 69.0335 44.012C68.9633 44.5962 68.8832 45.1699 68.8031 45.7541C68.8031 45.8688 68.6028 45.8375 68.6028 45.7541C68.6028 45.2429 68.6028 44.7109 68.6028 44.2102C68.6014 44.1897 68.6054 44.1693 68.6142 44.1509C68.623 44.1326 68.6363 44.117 68.6529 44.1059Z" fill="#A6A6A6"/>
<path d="M70.4051 35.9587C73.3091 31.6806 75.8428 27.1424 77.9765 22.3976C77.9765 22.3976 78.0967 22.3976 78.0766 22.3976C76.3911 27.3892 73.8532 32.0223 70.5854 36.0735C70.5782 36.0858 70.5687 36.0965 70.5575 36.105C70.5463 36.1135 70.5335 36.1197 70.5201 36.123C70.5066 36.1264 70.4926 36.127 70.4789 36.1248C70.4652 36.1225 70.452 36.1175 70.4402 36.11C70.4284 36.1024 70.4181 36.0926 70.4099 36.0809C70.4017 36.0692 70.3959 36.056 70.3926 36.0419C70.3893 36.0279 70.3888 36.0133 70.3909 35.999C70.3931 35.9847 70.3979 35.9711 70.4051 35.9587Z" fill="#A6A6A6"/>
<path d="M74.1815 21.2815C75.3632 19.1118 76.5951 17.0046 77.7067 14.7931C77.7067 14.7305 77.8169 14.7931 77.7969 14.8452C76.8876 17.1543 75.7355 19.3514 74.3617 21.3963C74.3441 21.4129 74.3218 21.4231 74.2981 21.4254C74.2745 21.4277 74.2507 21.4219 74.2305 21.409C74.2102 21.3961 74.1945 21.3767 74.1856 21.3538C74.1768 21.3308 74.1753 21.3054 74.1815 21.2815Z" fill="#A6A6A6"/>
<path d="M66.5797 51.8877C66.5231 54.8358 66.1877 57.7708 65.5782 60.6503C65.5782 60.9632 65.6683 61.2762 65.7084 61.61C66.5797 58.4287 67.0873 55.1513 67.2206 51.846C67.2427 51.7989 67.2542 51.7472 67.2542 51.6948C67.2542 51.6423 67.2427 51.5906 67.2206 51.5435C67.3422 47.1159 67.0267 42.6871 66.2792 38.3266C64.9572 30.1587 62.0729 22.3141 56.6047 16.2012C56.5589 16.1613 56.5051 16.1327 56.4473 16.1172C56.3895 16.1018 56.3291 16.1 56.2706 16.112C56.212 16.124 56.1568 16.1495 56.1089 16.1866C56.061 16.2237 56.0217 16.2714 55.9938 16.3264C53.7905 22.1681 54.5616 29.1468 56.4445 34.9781C57.4632 38.1366 58.9245 41.121 60.781 43.8345C62.6838 46.5676 65.0774 48.8939 66.5797 51.8877Z" fill="#EBEBEB"/>
<path d="M57.2754 18.9238C62.4632 27.6864 66.0686 38.0658 66.5093 48.414C66.5093 48.6018 66.2188 48.6539 66.1888 48.4662C66.0686 47.5377 65.9384 46.6093 65.7882 45.6913C63.5389 43.6129 61.5623 41.2349 59.9094 38.6187C59.9094 38.6187 59.9094 38.5144 59.9895 38.6187C61.7707 40.8877 63.6768 43.0472 65.698 45.0863C65.3242 42.8053 64.8802 40.552 64.366 38.3266C64.2258 38.1701 64.0956 37.9928 63.9554 37.8259C63.8152 37.659 64.0155 37.5547 64.1057 37.6694L64.2359 37.8155C63.5072 34.7738 62.6008 31.7813 61.5218 28.8547C60.0819 27.3265 58.8182 25.6286 57.7561 23.7954C57.7561 23.7954 57.7561 23.7015 57.8262 23.7954C58.5726 24.9397 59.3749 26.0435 60.2299 27.1022C60.5704 27.5195 60.9609 27.9159 61.3215 28.3227C60.1248 25.148 58.7055 22.0694 57.0751 19.1116C57.0512 19.0839 57.0388 19.0475 57.0407 19.0103C57.0426 18.9732 57.0586 18.9383 57.0851 18.9134C57.1117 18.8885 57.1467 18.8756 57.1824 18.8775C57.218 18.8795 57.2515 18.8962 57.2754 18.9238Z" fill="#A6A6A6"/>
<path d="M58.327 29.731C59.9995 32.0781 61.9124 34.3209 63.4647 36.7411C63.4647 36.8141 63.4647 36.8871 63.3546 36.8349C61.3732 34.7144 59.6479 32.3497 58.2169 29.7936C58.1668 29.7206 58.2769 29.658 58.327 29.731Z" fill="#A6A6A6"/>
<path d="M63.7062 37.2838L63.7765 37.3676C63.7765 37.3676 63.7765 37.4932 63.6961 37.4409L63.6258 37.3571C63.5755 37.3571 63.6559 37.2419 63.7062 37.2838Z" fill="#A6A6A6"/>
<path d="M48.3626 33.5493C48.9675 38.4436 50.8599 43.0683 53.8308 46.9122C55.0487 48.4235 56.5565 49.6529 58.2575 50.5215C60.1803 51.5126 62.1934 52.6079 64.1763 53.4633C65.1212 55.9682 65.8256 58.5644 66.2795 61.214C66.3396 60.9845 66.3997 60.755 66.4698 60.5255C65.1878 49.1133 58.1072 39.3597 49.0336 33.1007C48.9628 33.0545 48.8808 33.0302 48.7972 33.0306C48.7136 33.0311 48.6319 33.0563 48.5615 33.1033C48.4912 33.1504 48.4351 33.2173 48.3999 33.2962C48.3647 33.3752 48.3518 33.463 48.3626 33.5493Z" fill="#EBEBEB"/>
<path d="M51.6878 40.8619C51.8097 40.9421 51.9272 41.0295 52.0396 41.1236C52.0396 41.1236 52.0396 41.1969 52.0396 41.1864C51.9135 41.1234 51.7925 41.0498 51.6778 40.9666C51.67 40.96 51.6638 40.9516 51.66 40.9419C51.6561 40.9323 51.6546 40.9218 51.6556 40.9114C51.6566 40.901 51.66 40.891 51.6657 40.8824C51.6713 40.8738 51.6789 40.8667 51.6878 40.8619Z" fill="#A6A6A6"/>
<path d="M77.6165 72.7825H58.9385L59.8599 60.0351L60.2104 55.8729H76.1743L76.5349 60.0351L77.6165 72.7825Z" fill="#DBDBDB"/>
<path d="M76.5349 60.0351H59.8599L60.2104 55.8729H76.1743L76.5349 60.0351Z" fill="#C7C7C7"/>
<path d="M77.4462 52.4617H58.9385V56.7282H77.4462V52.4617Z" fill="#DBDBDB"/>
<path d="M122.984 72.7615V26.466H111.788V72.7615H122.984Z" fill="#C7C7C7"/>
<path d="M122.995 29.0742V23.9836H111.798V29.0742H122.995Z" fill="#DBDBDB"/>
<path d="M122.984 37.4715V35.5834H111.788V37.4715H122.984Z" fill="#DBDBDB"/>
<path d="M122.984 66.6798V61.5892H111.788V66.6798H122.984Z" fill="#DBDBDB"/>
<path d="M130.807 72.7614V18.757H122.985V72.7614H130.807Z" fill="#DBDBDB"/>
<path d="M129.214 44.596V23.8267H124.517V44.596H129.214Z" fill="#EBEBEB"/>
<path d="M186.508 66.9113L149.636 28.945L144.137 34.7389L181.009 72.7053L186.508 66.9113Z" fill="#C7C7C7"/>
<path d="M176.779 59.143L162.599 44.5416L159.297 48.021L173.477 62.6223L176.779 59.143Z" fill="#DBDBDB"/>
<path d="M144.097 72.7616V31.7445H130.817V72.7616H144.097Z" fill="#A6A6A6"/>
<path d="M144.087 68.4114V64.5934H130.807V68.4114H144.087Z" fill="#C7C7C7"/>
<path d="M144.097 62.0793V60.598H130.817V62.0793H144.097Z" fill="#C7C7C7"/>
<path d="M97.8569 73.3664L112.289 37.9051L103.849 34.1785L89.4171 69.6398L97.8569 73.3664Z" fill="#A6A6A6"/>
<path d="M98.8169 69.0345L100.176 65.737L91.7458 61.9681L90.3869 65.2657L98.8169 69.0345Z" fill="#C7C7C7"/>
<path d="M107.502 47.9735L108.861 44.6759L100.431 40.9071L99.0724 44.2046L107.502 47.9735Z" fill="#C7C7C7"/>
<path d="M106.046 51.517L106.575 50.2324L98.1452 46.4636L97.6158 47.7481L106.046 51.517Z" fill="#C7C7C7"/>
<path d="M390.165 297.719H292.229V423.806H390.165V297.719Z" fill="#EBEBEB"/>
<path d="M394.902 292.483H287.481V297.72H394.902V292.483Z" fill="#DBDBDB"/>
<path d="M428.693 292.483H394.912V297.72H428.693V292.483Z" fill="#EBEBEB"/>
<path d="M423.345 297.719H390.165V423.806H423.345V297.719Z" fill="#DBDBDB"/>
<path d="M379.62 356.262H302.774V311.009H379.62V356.262ZM303.025 356.001H379.369V311.27H303.025V356.001Z" fill="#C7C7C7"/>
<path d="M345.438 324.236H330.476V333.197H345.438V324.236Z" fill="#C7C7C7"/>
<path d="M350.004 332.644H334.771V324.779H350.004V332.644ZM334.982 332.383H349.694V325.081H334.982V332.383Z" fill="#C7C7C7"/>
<path d="M379.62 413.093H302.774V367.841H379.62V413.093ZM303.025 412.832H379.369V368.101H303.025V412.832Z" fill="#C7C7C7"/>
<path d="M345.438 381.068H330.476V390.029H345.438V381.068Z" fill="#C7C7C7"/>
<path d="M350.004 389.476H334.771V381.6H350.004V389.476ZM334.982 389.215H349.694V381.913H334.982V389.215Z" fill="#C7C7C7"/>
<path d="M429.183 423.806L375.543 424.057L321.892 424.151L214.592 424.328L107.291 424.151L53.6504 424.057L0 423.806L53.6504 423.546L107.291 423.462L214.592 423.285L321.892 423.462L375.543 423.546L429.183 423.806Z" fill="#263238"/>
<path d="M403.975 423.806H409.714L369.524 202.593H355.232L403.975 423.806Z" fill="#455A64"/>
<path d="M355.232 202.593L362.443 235.307H375.463L369.534 202.625L369.524 202.593H355.232Z" fill="#37474F"/>
<path d="M345.348 423.806H351.087L349.805 202.593H335.523L345.348 423.806Z" fill="#455A64"/>
<path d="M335.523 202.593L336.976 235.307H349.995L349.805 202.625V202.593H335.523Z" fill="#37474F"/>
<path d="M292.459 423.806H286.73L318.368 202.593H332.659L292.459 423.806Z" fill="#455A64"/>
<path d="M313.69 235.307H326.71L332.659 202.593H318.367L318.357 202.625L313.69 235.307Z" fill="#37474F"/>
<path d="M304.227 333.354H387.622V329.035H304.227V333.354Z" fill="#455A64"/>
<path d="M428.726 120.665C431.655 58.9457 399.913 7.15547 357.828 4.98855C315.743 2.82163 279.252 51.0986 276.323 112.818C273.394 174.538 305.136 226.328 347.221 228.495C389.306 230.662 425.797 182.385 428.726 120.665Z" fill="#26A37E"/>
<path d="M341.183 3.88165L359.09 5.03956L345.449 228.391L327.532 227.233L341.183 3.88165Z" fill="#26A37E"/>
<g opacity="0.1">
<path d="M341.183 3.88165L359.09 5.03956L345.449 228.391L327.532 227.233L341.183 3.88165Z" fill="black"/>
</g>
<path d="M412.24 119.6C415.17 57.8807 383.428 6.09054 341.343 3.92362C299.258 1.7567 262.767 50.0336 259.838 111.753C256.909 173.473 288.651 225.263 330.735 227.43C372.82 229.597 409.311 181.32 412.24 119.6Z" fill="#26A37E"/>
<path d="M395.487 118.737C397.771 70.592 373.009 30.1921 340.177 28.5016C307.346 26.8111 278.878 64.4703 276.593 112.616C274.308 160.761 299.071 201.161 331.903 202.851C364.734 204.542 393.202 166.883 395.487 118.737Z" fill="white"/>
<path d="M378.891 117.883C380.539 83.1678 362.689 54.0378 339.022 52.8193C315.356 51.6007 294.835 78.755 293.187 113.47C291.54 148.185 309.39 177.315 333.056 178.534C356.723 179.752 377.244 152.598 378.891 117.883Z" fill="#26A37E"/>
<path d="M362.127 117.02C363.13 95.8844 352.263 78.1496 337.855 77.4077C323.448 76.6659 310.955 93.198 309.952 114.333C308.949 135.468 319.815 153.203 334.223 153.945C348.631 154.687 361.123 138.155 362.127 117.02Z" fill="white"/>
<path d="M347.621 113.507C348.242 122.896 343.555 131.398 337.145 132.618C330.736 133.839 325.057 127.277 324.446 117.941C323.835 108.605 328.512 100.051 334.912 98.8197C341.311 97.5888 347 104.119 347.621 113.507Z" fill="#26A37E"/>
<path opacity="0.4" d="M412.24 119.6C415.17 57.8807 383.428 6.09054 341.343 3.92362C299.258 1.7567 262.767 50.0336 259.838 111.753C256.909 173.473 288.651 225.263 330.735 227.43C372.82 229.597 409.311 181.32 412.24 119.6Z" fill="white"/>
<path d="M264.116 361.78C264.462 352.666 264.341 343.539 263.756 334.439C262.465 315.669 259.716 297.04 255.533 278.734C253.24 268.427 250.416 258.288 247.471 248.169C247.381 247.856 246.92 247.95 247.001 248.263C256.094 283.95 263.565 320.784 263.025 357.879C262.884 368.31 261.733 378.46 260.781 388.777C260.781 389.059 261.192 389.163 261.252 388.881C263.155 380.098 263.766 370.845 264.116 361.78Z" fill="#26A37E"/>
<path d="M247.001 248.305C247.001 248.305 233.21 284.753 236.295 293.317C239.379 301.881 245.749 303.749 245.749 303.749C245.749 303.749 237.316 316.267 243.205 328.054C249.094 339.842 262.233 339.268 263.065 352.6C263.065 352.558 263.796 296.791 247.001 248.305Z" fill="#26A37E"/>
<path d="M261.573 329.536C261.592 329.471 261.592 329.402 261.573 329.338C259.76 304.456 255.275 279.865 248.203 256.024C248.203 255.962 248.073 256.024 248.093 256.024C250.817 266.685 253.23 277.402 255.334 288.174C253.482 286.348 251.219 285.035 248.754 284.356C248.704 284.356 248.684 284.409 248.754 284.43C251.346 285.419 253.674 287.039 255.544 289.155C255.954 291.241 256.345 293.328 256.716 295.497C253.641 291.909 249.365 290.136 245.088 288.446C245.028 288.446 244.998 288.519 245.088 288.54C249.545 290.428 253.971 292.858 256.996 296.885C258.044 302.935 258.966 309.003 259.76 315.088C257.532 312.66 254.676 310.957 251.538 310.185C251.448 310.185 251.388 310.31 251.488 310.342C254.725 311.312 257.62 313.244 259.82 315.902H259.88C260.151 318.04 260.411 320.189 260.651 322.328C258.928 320.812 256.984 319.59 254.893 318.708C254.843 318.708 254.813 318.781 254.893 318.802C257.026 319.765 258.979 321.114 260.661 322.787C260.687 322.796 260.716 322.796 260.742 322.787C260.962 324.873 261.192 326.876 261.393 328.92C258.288 325.013 254.26 322.014 249.705 320.22C249.686 320.213 249.666 320.215 249.648 320.223C249.63 320.232 249.617 320.248 249.61 320.267C249.603 320.287 249.604 320.308 249.613 320.327C249.621 320.345 249.636 320.36 249.655 320.366C254.153 322.436 258.104 325.607 261.172 329.609C261.206 329.653 261.252 329.686 261.304 329.702C261.355 329.719 261.411 329.719 261.463 329.703C261.763 332.832 262.034 335.962 262.254 339.091C262.254 339.091 262.324 339.143 262.324 339.091C262.034 335.972 261.873 332.749 261.573 329.536Z" fill="#263238"/>
<path d="M250.496 280.768C248 279.152 245.149 278.226 242.213 278.077C242.2 278.077 242.187 278.082 242.178 278.092C242.168 278.102 242.163 278.115 242.163 278.129C242.163 278.143 242.168 278.156 242.178 278.166C242.187 278.176 242.2 278.181 242.213 278.181C245.048 278.736 247.802 279.672 250.405 280.966C250.506 281.019 250.596 280.841 250.496 280.768Z" fill="#263238"/>
<path d="M252.168 319.355C250.249 318.209 248.139 317.455 245.949 317.133C245.869 317.133 245.869 317.247 245.949 317.258C248.089 317.703 250.159 318.458 252.098 319.501C252.178 319.542 252.248 319.396 252.168 319.355Z" fill="#263238"/>
<path d="M300.349 293.912C294.523 298.11 289.171 302.981 284.395 308.432C279.476 314.207 275.677 320.92 273.209 328.2C267.972 343.379 265.157 359.35 264.876 375.476C264.694 384.406 265.518 393.326 267.33 402.056C267.342 402.122 267.379 402.181 267.432 402.219C267.486 402.258 267.552 402.272 267.615 402.26C267.679 402.247 267.735 402.209 267.772 402.153C267.809 402.097 267.823 402.029 267.811 401.962C265.555 386.557 265.64 370.878 268.061 355.5C270.425 340.416 274.15 324.017 283.344 311.76C288.351 305.094 294.601 299.847 300.78 294.423C301.101 294.131 300.69 293.661 300.349 293.912Z" fill="#26A37E"/>
<path d="M266.88 364.617C270.2 359.027 274.103 353.835 278.517 349.137C285.408 341.95 291.216 336.848 292.118 332.102C293.019 327.356 285.207 323.851 285.207 323.851C285.207 323.851 294.752 325.634 297.356 321.462C299.959 317.289 301.231 293.13 301.231 293.13C301.231 293.13 283.905 306.044 275.803 324.143C267.701 342.242 266.88 364.617 266.88 364.617Z" fill="#26A37E"/>
<path d="M295.053 315.797C293.909 315.625 292.75 315.583 291.597 315.672C291.57 315.68 291.546 315.697 291.529 315.721C291.512 315.744 291.503 315.773 291.503 315.802C291.503 315.832 291.512 315.861 291.529 315.884C291.546 315.908 291.57 315.925 291.597 315.933C292.739 315.933 293.891 315.87 295.033 315.933C295.047 315.93 295.06 315.923 295.069 315.912C295.079 315.901 295.086 315.887 295.088 315.872C295.09 315.858 295.088 315.842 295.082 315.829C295.075 315.816 295.065 315.804 295.053 315.797Z" fill="#263238"/>
<path d="M282.554 339.237C280.723 339.283 278.913 339.661 277.206 340.353C277.206 340.353 277.206 340.447 277.206 340.437C278.979 339.999 280.761 339.821 282.554 339.508C282.589 339.508 282.622 339.494 282.646 339.469C282.671 339.443 282.684 339.409 282.684 339.373C282.684 339.337 282.671 339.302 282.646 339.277C282.622 339.251 282.589 339.237 282.554 339.237Z" fill="#263238"/>
<path d="M278.807 331.142C278.045 331.134 277.283 331.203 276.534 331.351C276.464 331.351 276.464 331.497 276.534 331.497C277.294 331.537 278.055 331.499 278.807 331.382C278.948 331.361 278.948 331.142 278.807 331.142Z" fill="#263238"/>
<path d="M216.014 319.553C221.662 321.546 227.075 324.202 232.148 327.47C237.413 330.955 241.977 335.472 245.588 340.771C253.211 351.79 259.05 364.036 262.874 377.021C264.996 384.206 266.31 391.624 266.79 399.125C266.779 399.174 266.753 399.217 266.716 399.249C266.679 399.28 266.632 399.297 266.584 399.297C266.536 399.297 266.49 399.28 266.453 399.249C266.415 399.217 266.389 399.174 266.379 399.125C264.778 386.112 261.23 373.44 255.863 361.571C250.595 349.94 243.955 337.579 233.83 329.859C228.292 325.687 222.073 322.922 215.873 320.022C215.453 319.908 215.683 319.438 216.014 319.553Z" fill="#26A37E"/>
<path d="M258.778 368.717C254.851 364.994 250.542 361.733 245.928 358.995C238.748 354.822 232.909 352.11 231.136 348.48C229.364 344.85 234.902 340.135 234.902 340.135C234.902 340.135 227.571 343.869 224.536 341.126C221.502 338.382 215.112 319.125 215.112 319.125C215.112 319.125 232.028 325.384 242.593 338.1C253.159 350.817 258.778 368.717 258.778 368.717Z" fill="#26A37E"/>
<path d="M229.974 330.871C229.217 330.817 228.457 330.863 227.711 331.007C227.692 331.007 227.674 331.015 227.661 331.028C227.648 331.042 227.641 331.061 227.641 331.08C227.641 331.099 227.648 331.118 227.661 331.132C227.674 331.145 227.692 331.153 227.711 331.153C228.452 331.07 229.183 331.101 229.934 331.08C229.961 331.085 229.988 331.08 230.011 331.064C230.033 331.048 230.049 331.024 230.054 330.996C230.06 330.969 230.054 330.94 230.039 330.917C230.024 330.893 230.001 330.877 229.974 330.871Z" fill="#263238"/>
<path d="M280.591 423.41H242.414L247.852 381.871L249.244 371.231H273.751L275.143 381.871L280.591 423.41Z" fill="#455A64"/>
<path d="M275.142 381.871H247.852L249.244 371.231H273.75L275.142 381.871Z" fill="#263238"/>
<path d="M277.255 367.528H245.737V376.551H277.255V367.528Z" fill="#455A64"/>
<path d="M277.847 93.6589L12.2261 109.902L15.0371 159.773L280.659 143.53L277.847 93.6589Z" fill="#26A37E"/>
<path d="M277.075 80.0218L281.422 157.153L335.232 115.166L277.075 80.0218Z" fill="#26A37E"/>
<g opacity="0.5">
<path d="M335.232 115.166L281.422 157.143L280.651 143.529L15.0325 159.772L12.2183 109.898L277.836 93.6559L277.065 80.0218L335.232 115.166Z" fill="white"/>
<path d="M12.6798 162.536L9.5752 107.457L275.183 91.2151L274.302 75.3486L339.77 114.895L279.189 162.15L278.298 146.294L12.6798 162.536ZM14.8631 112.36L17.3869 157.028L283.005 140.765L283.646 152.146L330.716 115.437L279.84 84.7162L280.481 96.1075L14.8631 112.36Z" fill="#26A37E"/>
</g>
<path d="M147.532 370.605C147.532 370.605 146.53 411.924 146.53 411.956C146.53 419.592 146.711 426.289 147.101 429.689V429.752C147.114 430.571 147.302 431.376 147.652 432.109C149.845 433.643 208.453 435.239 210.516 434.571C212.579 433.904 210.927 427.728 208.703 425.777C206.48 423.827 184.317 412.894 184.317 412.894L184.958 371.596L147.532 370.605Z" fill="#AA6550"/>
<path d="M146.46 403.756C146.46 403.756 146.53 411.924 146.52 411.956C146.52 419.592 146.7 426.289 147.091 429.689V429.752C147.19 430.557 147.375 431.347 147.642 432.11C149.835 433.643 208.443 435.239 210.506 434.571C212.569 433.904 210.917 427.728 208.693 425.778C206.47 423.827 184.317 412.894 184.317 412.894V404.549L146.46 403.756Z" fill="white"/>
<path d="M187.903 412.895C184.007 412.227 179.26 412.957 176.345 415.909C176.235 416.024 176.396 416.181 176.516 416.139C180.207 414.808 184.024 413.891 187.903 413.406C187.959 413.394 188.01 413.362 188.047 413.315C188.083 413.269 188.103 413.21 188.103 413.15C188.103 413.09 188.083 413.032 188.047 412.985C188.01 412.939 187.959 412.907 187.903 412.895Z" fill="#263238"/>
<path d="M190.766 414.584C186.86 413.917 182.123 414.647 179.209 417.588C179.099 417.703 179.259 417.87 179.379 417.828C183.07 416.497 186.888 415.581 190.766 415.095C190.823 415.083 190.874 415.051 190.91 415.005C190.947 414.958 190.967 414.9 190.967 414.84C190.967 414.78 190.947 414.721 190.91 414.675C190.874 414.628 190.823 414.596 190.766 414.584Z" fill="#263238"/>
<path d="M193.591 416.285C189.685 415.617 184.948 416.337 182.033 419.289C181.923 419.404 182.033 419.571 182.204 419.529C185.891 418.197 189.705 417.281 193.581 416.796C193.638 416.785 193.689 416.755 193.727 416.709C193.764 416.663 193.785 416.605 193.787 416.545C193.788 416.485 193.769 416.426 193.733 416.379C193.698 416.331 193.647 416.298 193.591 416.285Z" fill="#263238"/>
<path d="M210.546 434.665C208.483 435.322 149.875 433.737 147.682 432.203C146.841 431.64 146.56 422.731 146.53 411.956V411.611L184.347 412.195V412.863C184.347 412.863 206.52 423.921 208.764 425.882C211.007 427.843 212.609 434.008 210.546 434.665Z" fill="#37474F"/>
<path d="M146.521 411.611V411.956C146.571 422.731 146.841 431.64 147.682 432.203C148.684 432.902 161.383 433.612 175.103 434.123C191.538 434.728 209.425 435.03 210.546 434.665C212.61 434.008 210.947 427.822 208.734 425.871C206.52 423.921 184.317 412.894 184.317 412.894V412.237L171.738 412.008L146.521 411.611Z" fill="#26A37E"/>
<path d="M209.935 432.276C200.07 431.755 160.2 430.628 150.406 430.899C150.326 430.899 150.326 430.962 150.406 430.962C160.18 431.703 200.05 432.496 209.935 432.443C210.145 432.443 210.145 432.287 209.935 432.276Z" fill="#263238"/>
<path opacity="0.1" d="M171.737 412.008C172.659 418.601 174.071 428.323 175.102 434.123C191.537 434.728 209.424 435.03 210.545 434.665C212.609 434.008 210.946 427.822 208.733 425.871C206.519 423.921 184.316 412.894 184.316 412.894V412.237L171.737 412.008Z" fill="black"/>
<path d="M143.115 412.175L185.529 412.602C185.529 412.602 187.932 340.624 188.113 316.694C188.323 289.29 186.831 207.162 186.831 207.162H155.123C155.123 207.162 146.62 225.282 151.478 245.655L152.82 318.979L143.115 412.175Z" fill="#263238"/>
<path d="M146.26 404.445C147.379 404.288 148.506 404.194 149.635 404.163C150.887 404.069 152.138 403.975 153.39 403.923C155.804 403.809 158.218 403.767 160.631 403.756C165.508 403.756 170.376 403.756 175.243 403.934C178.017 404.028 180.781 404.142 183.545 404.309C183.656 404.309 183.646 404.487 183.545 404.487C178.718 404.674 173.881 404.747 169.054 404.852C164.227 404.956 159.399 405.039 154.582 404.946C153.19 404.946 151.808 404.946 150.426 404.82C149.044 404.695 147.632 404.82 146.28 404.612C146.2 404.601 146.159 404.466 146.26 404.445Z" fill="#37474F"/>
<path d="M182.474 364.742C182.965 352.85 183.336 340.948 183.646 329.056C184.267 305.251 184.431 281.442 184.137 257.63C183.977 244.278 183.636 230.926 183.255 217.573C183.255 217.417 183.466 217.427 183.476 217.573C184.688 241.472 185.158 265.423 185.178 289.353C185.198 313.283 184.758 336.984 183.596 360.737C182.965 374.079 182.184 387.442 180.982 400.742C180.982 400.857 180.802 400.857 180.802 400.742C181.323 388.756 181.974 376.76 182.474 364.742Z" fill="#37474F"/>
<path d="M192.899 377.166C192.899 377.166 193.22 417.109 193.22 417.14C193.22 424.776 193.39 431.473 193.781 434.926C193.775 434.943 193.775 434.961 193.781 434.978C193.782 435.799 193.97 436.607 194.332 437.336C194.327 437.353 194.327 437.371 194.332 437.388C196.515 438.921 255.123 440.517 257.186 439.839C259.249 439.161 257.606 433.007 255.373 431.056C253.14 429.105 230.956 418.048 230.956 418.048L230.275 378.126L192.899 377.166Z" fill="#AA6550"/>
<path d="M193.15 408.931C193.15 408.931 193.22 417.109 193.22 417.14C193.22 424.776 193.391 431.473 193.781 434.926C193.775 434.943 193.775 434.962 193.781 434.978C193.874 435.784 194.059 436.576 194.332 437.336C194.328 437.353 194.328 437.371 194.332 437.388C196.515 438.921 255.123 440.518 257.186 439.839C259.249 439.161 257.607 433.007 255.374 431.056C253.14 429.105 230.957 418.048 230.957 418.048L231.007 409.703L193.15 408.931Z" fill="white"/>
<path d="M234.602 418.11C230.696 417.443 225.959 418.162 223.044 421.115C222.934 421.229 223.044 421.396 223.214 421.354C226.902 420.022 230.716 419.106 234.592 418.621C234.648 418.611 234.7 418.58 234.737 418.534C234.775 418.488 234.796 418.43 234.797 418.37C234.798 418.31 234.78 418.251 234.744 418.204C234.708 418.156 234.658 418.123 234.602 418.11Z" fill="#263238"/>
<path d="M237.446 419.769C233.54 419.102 228.803 419.821 225.889 422.773C225.779 422.888 225.889 423.055 226.059 423.013C229.747 421.681 233.561 420.765 237.436 420.28C237.493 420.27 237.545 420.239 237.582 420.193C237.62 420.147 237.641 420.089 237.642 420.029C237.643 419.969 237.624 419.91 237.589 419.863C237.553 419.815 237.503 419.782 237.446 419.769Z" fill="#263238"/>
<path d="M240.291 421.469C236.386 420.802 231.638 421.469 228.734 424.474C228.614 424.588 228.734 424.755 228.904 424.714C232.592 423.381 236.406 422.465 240.281 421.98C240.338 421.97 240.39 421.939 240.427 421.893C240.465 421.847 240.486 421.789 240.487 421.729C240.488 421.669 240.47 421.61 240.434 421.563C240.398 421.516 240.348 421.482 240.291 421.469Z" fill="#263238"/>
<path d="M257.237 439.839C255.174 440.507 196.576 438.921 194.382 437.388C193.541 436.814 193.261 427.905 193.221 417.14C193.221 417.025 193.221 416.91 193.221 416.796L231.037 417.38V418.048C231.037 418.048 253.201 429.105 255.444 431.056C257.687 433.006 259.31 439.192 257.237 439.839Z" fill="#26A37E"/>
<path d="M256.636 437.461C246.761 436.939 206.901 435.813 197.096 436.084C197.026 436.084 197.016 436.084 197.096 436.147C206.871 436.887 246.751 437.67 256.636 437.628C256.866 437.628 256.866 437.471 256.636 437.461Z" fill="#263238"/>
<path d="M173.521 249.39C173.521 249.39 190.917 306.513 191.238 317.007C191.498 325.958 190.407 417.798 190.407 417.798L234.473 418.069C234.473 418.069 230.757 324.414 230.066 315.088C228.784 297.646 214.112 249.765 203.626 207.11H156.115C156.115 207.11 156.526 229.455 166.28 245.603C166.28 245.603 170.737 247.731 173.521 249.39Z" fill="#263238"/>
<path d="M192.77 409.338C197.858 409.181 203.136 409.025 208.223 409.16C213.311 409.296 218.338 409.369 223.376 409.682C226.23 409.859 229.085 409.963 231.939 410.256C232.029 410.256 232.029 410.412 231.939 410.412C226.851 410.725 221.744 410.662 216.656 410.61C211.568 410.558 206.551 410.506 201.503 410.266C198.639 410.13 195.795 409.984 192.94 409.776C192.6 409.765 192.44 409.348 192.77 409.338Z" fill="#37474F"/>
<path d="M198.388 216.697C199.96 222.152 219.419 297.02 221.422 307.89C223.425 318.759 226.139 390.133 225.949 401.576C225.949 402.995 225.899 404.413 225.849 405.832C225.849 405.86 225.838 405.886 225.82 405.906C225.801 405.925 225.775 405.936 225.749 405.936C225.722 405.936 225.697 405.925 225.678 405.906C225.659 405.886 225.649 405.86 225.649 405.832C225.348 394.462 222.434 319.563 220.561 308.411C218.808 297.458 199.419 223.039 198.067 216.78C198.067 216.74 198.08 216.702 198.103 216.671C198.127 216.64 198.16 216.618 198.196 216.608C198.233 216.598 198.272 216.602 198.307 216.618C198.341 216.634 198.37 216.662 198.388 216.697Z" fill="#37474F"/>
<path d="M184.418 250.495C182.225 250.479 180.038 250.273 177.878 249.88C175.736 249.395 173.62 248.792 171.539 248.075C169.489 247.592 167.411 247.243 165.319 247.032C163.213 246.712 161.162 246.076 159.23 245.144C159.14 245.144 159.07 245.238 159.16 245.28C161.031 246.331 162.984 247.214 164.999 247.919C167.082 248.607 169.265 248.701 171.388 249.244C173.528 249.906 175.706 250.429 177.908 250.808C180.08 251.085 182.278 251.043 184.438 250.683C184.528 250.631 184.498 250.495 184.418 250.495Z" fill="#37474F"/>
<path d="M187.192 295.935C186.772 294.235 186.381 292.545 185.94 290.855C185.049 287.444 184.148 284.033 183.156 280.653C181.153 273.935 179.33 267.175 177.257 260.499C176.076 256.702 175.014 252.874 173.632 249.149C173.625 249.13 173.611 249.114 173.594 249.105C173.576 249.097 173.555 249.096 173.537 249.102C173.518 249.109 173.503 249.124 173.494 249.142C173.486 249.161 173.485 249.182 173.492 249.202C174.193 252.665 175.174 256.055 176.055 259.466C176.937 262.877 177.878 266.278 178.83 269.679C180.702 276.418 182.545 283.177 184.598 289.874C185.166 291.752 185.76 293.623 186.381 295.487C187.012 297.385 187.513 299.346 188.274 301.193C188.324 301.297 188.454 301.255 188.434 301.193C188.144 299.388 187.623 297.667 187.192 295.935Z" fill="#37474F"/>
<path d="M192.399 151.781C189.214 152.219 183.726 146.221 182.014 141.975C182.323 139.736 182.741 137.515 183.266 135.32C183.676 133.233 184.077 130.803 184.267 128.602L197.196 133.379C196.169 136.061 195.46 138.864 195.083 141.725C195.063 142.027 195.063 142.33 195.083 142.632C195.083 142.632 195.083 142.726 195.083 142.789C195.223 144.51 195.484 151.363 192.399 151.781Z" fill="#AA6550"/>
<path d="M182.144 140.88C188.934 143.258 193.851 139.273 196.094 136.832C196.645 134.85 197.226 133.379 197.226 133.379L184.297 128.602C184.076 130.803 183.676 133.192 183.295 135.32C182.815 137.656 182.354 139.69 182.144 140.88Z" fill="#263238"/>
<path d="M201.233 112.37C202.845 117.231 200.852 131.543 197.597 134.84C192.89 139.628 184.929 140.369 180.963 134.412C177.127 128.633 180.041 110.033 183.697 107.008C189.075 102.554 198.849 105.162 201.233 112.37Z" fill="#AA6550"/>
<path d="M187.702 121.477C187.702 121.477 187.772 121.529 187.762 121.571C187.612 122.53 187.602 123.657 188.403 124.095C187.381 123.866 187.411 122.364 187.702 121.477Z" fill="#263238"/>
<path d="M188.653 120.58C190.165 120.653 189.895 123.793 188.503 123.709C187.111 123.626 187.391 120.507 188.653 120.58Z" fill="#263238"/>
<path d="M182.474 120.987C182.474 120.987 182.394 120.987 182.394 121.06C182.394 122.04 182.123 123.146 181.252 123.386V123.449C182.294 123.386 182.574 121.915 182.474 120.987Z" fill="#263238"/>
<path d="M181.753 119.891C180.26 119.641 179.89 122.76 181.262 123.021C182.634 123.282 182.975 120.11 181.753 119.891Z" fill="#263238"/>
<path d="M189.965 119.255C189.564 119.109 189.214 118.9 188.833 118.723C188.453 118.545 188.032 118.389 187.832 117.94C187.773 117.807 187.757 117.657 187.788 117.514C187.819 117.371 187.894 117.242 188.002 117.148C188.246 117.001 188.522 116.924 188.803 116.924C189.085 116.924 189.361 117.001 189.605 117.148C190.144 117.362 190.587 117.779 190.846 118.316C190.9 118.445 190.916 118.588 190.891 118.727C190.866 118.865 190.803 118.993 190.708 119.094C190.614 119.194 190.493 119.263 190.36 119.292C190.228 119.321 190.09 119.308 189.965 119.255Z" fill="#263238"/>
<path d="M180.692 118.212C181.112 118.212 181.503 118.076 181.913 118.003C182.355 117.984 182.779 117.819 183.125 117.534C183.21 117.416 183.255 117.274 183.255 117.127C183.255 116.98 183.21 116.837 183.125 116.72C182.93 116.509 182.684 116.356 182.413 116.278C182.142 116.199 181.855 116.197 181.583 116.271C181.005 116.333 180.47 116.615 180.081 117.064C179.996 117.174 179.945 117.308 179.934 117.448C179.923 117.588 179.952 117.728 180.017 117.851C180.083 117.974 180.182 118.074 180.302 118.138C180.422 118.202 180.558 118.228 180.692 118.212Z" fill="#263238"/>
<path d="M187.952 130.385C187.712 130.594 187.461 130.886 187.121 130.886C186.767 130.853 186.425 130.739 186.119 130.552C186.236 130.757 186.404 130.924 186.605 131.036C186.806 131.148 187.033 131.201 187.261 131.189C187.454 131.153 187.633 131.059 187.776 130.918C187.918 130.777 188.018 130.595 188.062 130.396C188.062 130.396 187.982 130.354 187.952 130.385Z" fill="#263238"/>
<path d="M187.212 127.392C186.946 127.754 186.609 128.055 186.225 128.274C185.84 128.493 185.416 128.626 184.979 128.664C184.597 128.722 184.209 128.722 183.827 128.664L183.617 128.612L183.406 128.56C183.36 128.544 183.319 128.514 183.29 128.473C183.261 128.431 183.246 128.381 183.246 128.33C183.241 128.299 183.241 128.268 183.246 128.237V128.111C183.296 127.36 183.457 126.234 183.457 126.234C183.186 126.348 181.794 126.849 181.844 126.463C182.216 123.103 182.911 119.79 183.917 116.574C183.923 116.556 183.935 116.54 183.95 116.528C183.965 116.517 183.984 116.511 184.002 116.511C184.021 116.511 184.039 116.517 184.055 116.528C184.07 116.54 184.081 116.556 184.087 116.574C183.767 119.704 182.926 122.708 182.555 125.827C183.047 125.635 183.563 125.519 184.087 125.483C184.188 125.483 183.737 127.663 183.737 127.997C184.32 128.111 184.919 128.103 185.499 127.972C186.078 127.841 186.627 127.591 187.112 127.235C187.212 127.246 187.272 127.319 187.212 127.392Z" fill="#263238"/>
<path d="M184.286 128.278C184.636 128.847 185.118 129.313 185.688 129.634C185.999 129.792 186.348 129.847 186.69 129.791C187.451 129.655 187.531 128.946 187.441 128.33C187.391 127.999 187.307 127.673 187.19 127.36C186.339 127.976 185.323 128.298 184.286 128.278Z" fill="#263238"/>
<path d="M185.688 129.634C185.999 129.792 186.349 129.847 186.69 129.791C187.451 129.655 187.531 128.946 187.441 128.33C187.051 128.312 186.666 128.43 186.348 128.667C186.03 128.903 185.798 129.244 185.688 129.634Z" fill="#FF98B9"/>
<path d="M197.647 121.853C196.896 118.88 198.819 114.133 197.507 112.735C194.682 109.7 188.153 114.665 183.916 114.394C179.68 114.123 178.618 111.264 179.59 107.853C180.561 104.442 183.546 102.314 188.203 101.928C192.256 101.733 196.247 103.025 199.48 105.579C199.48 105.579 198.558 103.775 198.989 103.263C199.42 102.752 201.312 104.567 201.873 105.35C202.282 105.985 202.577 106.692 202.745 107.436C203.366 107.321 204 107.3 204.627 107.373C205.537 107.508 206.373 107.969 206.991 108.677C207.051 108.949 205.539 109.032 204.487 109.011C204.487 109.011 206.26 111.859 206.07 114.164C205.879 116.47 201.693 127.204 200.862 127.267C199.78 127.308 197.957 123.021 197.647 121.853Z" fill="#263238"/>
<path d="M204.107 108.677C204.107 108.677 204.017 108.677 204.047 108.677C205.009 109.604 205.703 110.793 206.05 112.109C206.372 113.695 206.278 115.342 205.779 116.877C204.775 119.794 203.475 122.591 201.903 125.222C201.899 125.231 201.896 125.241 201.895 125.251C201.894 125.261 201.895 125.271 201.898 125.281C201.9 125.29 201.905 125.299 201.911 125.307C201.917 125.315 201.925 125.322 201.933 125.326C201.942 125.331 201.951 125.334 201.961 125.335C201.971 125.336 201.98 125.335 201.99 125.332C201.999 125.329 202.008 125.325 202.015 125.318C202.023 125.312 202.029 125.304 202.034 125.295C203.872 122.544 205.284 119.51 206.22 116.303C206.881 113.632 206.48 110.378 204.107 108.677Z" fill="#263238"/>
<path d="M197.778 111.577C196.54 111.337 195.27 111.337 194.032 111.577C192.882 111.908 191.776 112.384 190.737 112.996C188.359 114.286 185.679 114.85 183.006 114.623V114.675C185.439 115.073 187.931 114.71 190.167 113.632C191.275 113.029 192.419 112.5 193.592 112.047C194.958 111.748 196.361 111.677 197.748 111.838C197.764 111.84 197.781 111.839 197.797 111.834C197.813 111.829 197.828 111.822 197.841 111.811C197.854 111.8 197.865 111.787 197.873 111.772C197.881 111.757 197.886 111.74 197.888 111.723C197.89 111.706 197.889 111.689 197.884 111.672C197.88 111.656 197.872 111.64 197.862 111.626C197.852 111.613 197.839 111.602 197.825 111.593C197.81 111.585 197.794 111.579 197.778 111.577Z" fill="#263238"/>
<path d="M197.037 104.119C195.432 103.132 193.698 102.394 191.889 101.928C190.169 101.415 188.375 101.221 186.591 101.354C183.516 101.646 180.582 103.441 179.66 106.674C179.158 108.313 179.262 110.087 179.951 111.65C179.963 111.667 179.98 111.679 180 111.684C180.019 111.689 180.04 111.687 180.058 111.679C180.077 111.671 180.092 111.656 180.102 111.638C180.111 111.619 180.115 111.598 180.111 111.577C179.556 110.144 179.462 108.563 179.843 107.069C180.224 105.576 181.06 104.252 182.224 103.295C184.868 101.208 188.374 101.292 191.458 102.032C193.379 102.525 195.245 103.224 197.027 104.119C197.027 104.119 197.047 104.119 197.037 104.119Z" fill="#263238"/>
<path d="M198.558 124.064C198.558 124.064 201.562 119.411 203.565 120.528C205.568 121.644 203.375 128.341 201.031 129.301C200.74 129.444 200.423 129.524 200.101 129.537C199.779 129.55 199.458 129.494 199.157 129.375C198.856 129.255 198.581 129.073 198.349 128.84C198.117 128.606 197.932 128.327 197.807 128.018L198.558 124.064Z" fill="#AA6550"/>
<path d="M147.792 218.46C147.922 218.637 208.884 224.385 209.504 223.78C210.356 222.935 206.72 159.396 195.834 146.419C193.16 143.216 183.696 139.378 180.581 141.37C172.499 146.586 167.512 158.28 164.317 165.091C161.943 170.14 158.899 178.83 156.074 187.759C151.417 202.478 147.341 217.823 147.792 218.46Z" fill="#26A37E"/>
<path d="M184.568 160.053C184.732 161.136 185.042 162.19 185.489 163.183C185.92 164.182 186.479 165.115 187.152 165.957C186.993 164.873 186.682 163.819 186.23 162.828C185.8 161.828 185.241 160.895 184.568 160.053ZM194.823 201.665C194.989 202.749 195.303 203.802 195.755 204.794C196.175 205.802 196.735 206.74 197.417 207.58C197.066 205.408 196.171 203.371 194.823 201.675V201.665ZM169.505 199.672C169.67 200.757 169.984 201.81 170.437 202.802C170.855 203.81 171.419 204.746 172.109 205.577C171.944 204.491 171.627 203.437 171.168 202.447C170.743 201.445 170.183 200.51 169.505 199.672ZM152.159 212.795C154.239 212.418 156.19 211.484 157.818 210.083C155.735 210.454 153.784 211.389 152.159 212.795ZM193.451 179.873C194.491 179.702 195.502 179.379 196.456 178.913C197.42 178.47 198.317 177.883 199.12 177.171C198.079 177.345 197.067 177.671 196.115 178.142C195.151 178.58 194.253 179.163 193.451 179.873ZM177.087 147.692C178.126 147.521 179.138 147.197 180.091 146.732C181.058 146.288 181.959 145.701 182.765 144.99C180.685 145.372 178.734 146.302 177.097 147.692H177.087ZM194.503 152.428C195.118 151.541 195.61 150.568 195.965 149.538C196.216 148.826 196.41 148.093 196.546 147.347L196.265 146.951C195.838 147.673 195.482 148.438 195.204 149.236C194.821 150.258 194.585 151.334 194.503 152.428ZM170.196 178.507C170.812 177.616 171.304 176.64 171.658 175.607C172.036 174.586 172.273 173.515 172.359 172.425C171.746 173.313 171.254 174.285 170.897 175.315C170.518 176.345 170.282 177.427 170.196 178.527V178.507ZM166.401 220.233L166.971 220.285C167.055 219.876 167.108 219.461 167.132 219.044C166.853 219.442 166.609 219.864 166.401 220.306V220.233ZM204.077 222.685C204.692 221.798 205.185 220.825 205.539 219.795C205.922 218.772 206.158 217.697 206.24 216.603C205.026 218.401 204.281 220.497 204.077 222.685ZM155.414 189.856C155.654 189.974 155.895 190.079 156.135 190.169C157.118 190.563 158.15 190.808 159.2 190.899C158.347 190.258 157.409 189.748 156.416 189.387L155.654 189.116L155.414 189.856ZM181.113 215.08C182.837 216.349 184.85 217.126 186.951 217.333C186.1 216.695 185.166 216.186 184.177 215.821C183.196 215.42 182.163 215.17 181.113 215.08ZM179.11 190.044C179.963 190.687 180.901 191.2 181.894 191.567C182.856 191.959 183.868 192.205 184.898 192.297C183.174 191.028 181.161 190.252 179.059 190.044H179.11ZM200.932 162.244C201.442 162.652 201.993 163.002 202.575 163.287C202.515 163.016 202.445 162.755 202.384 162.484C201.897 162.366 201.401 162.293 200.902 162.265L200.932 162.244ZM168.123 157.164C168.996 157.497 169.91 157.701 170.837 157.769C170.121 157.216 169.336 156.767 168.504 156.433L168.123 157.164Z" fill="white"/>
<path d="M190.486 156.413C206.119 160.283 230.456 164.111 238.468 158.833C242.564 156.131 252.078 132.472 254.732 119.193C255.423 115.74 228.233 110.899 227.371 114.551C226.209 119.474 223.485 134.996 222.143 137.437C221.372 138.835 204.116 140.922 190.216 143.217C173.911 145.929 177.797 153.273 190.486 156.413Z" fill="#AA6550"/>
<path d="M231.828 84.6013C232.486 84.6694 233.118 84.9061 233.666 85.2901C234.215 85.6742 234.664 86.1937 234.973 86.8024C235.782 85.737 236.922 84.9991 238.198 84.7161C240.471 84.3092 242.074 87.8455 242.074 87.8455C243.134 86.9141 244.439 86.3362 245.819 86.1869C248.033 86.0304 250.146 89.3164 250.146 89.3164C250.846 89.0879 251.588 89.0321 252.313 89.1534C253.038 89.2747 253.726 89.5697 254.322 90.0153C258.538 93.6977 257.216 113.799 253.831 121.821L228.083 117.774C228.083 117.774 224.628 102.627 225.198 97.9538C225.659 94.1045 227.822 84.2049 231.828 84.6013Z" fill="#AA6550"/>
<path d="M234.833 86.8647C233.516 90.958 232.685 95.204 232.359 99.5078C232.359 99.6017 232.49 99.6225 232.5 99.5078C232.92 95.3351 234.443 91.079 235.023 86.896C235.073 86.8021 234.903 86.7604 234.833 86.8647Z" fill="#263238"/>
<path d="M241.744 87.9182C241.491 88.866 241.363 89.845 241.363 90.8286C241.293 91.8718 241.253 92.915 241.213 93.9581C241.153 96.0445 241.136 98.1308 241.163 100.217C241.163 100.311 241.303 100.332 241.313 100.217C241.373 98.1308 241.473 96.0445 241.633 93.9581C241.704 92.915 241.794 91.8718 241.884 90.8286C242.032 89.8597 242.076 88.8765 242.014 87.8974C242.004 87.8669 241.984 87.8407 241.959 87.823C241.933 87.8052 241.902 87.7969 241.871 87.7993C241.84 87.8017 241.811 87.8146 241.788 87.8362C241.765 87.8577 241.749 87.8865 241.744 87.9182Z" fill="#263238"/>
<path d="M250.116 89.4309C249.905 90.2887 249.834 91.1773 249.905 92.0596C249.905 93.0089 249.905 93.9582 249.905 94.9075C249.855 96.806 249.815 98.7046 249.705 100.593C249.705 100.697 249.845 100.707 249.845 100.593C249.965 98.6733 250.106 96.7434 250.206 94.824C250.256 93.8747 250.306 92.9254 250.346 91.9866C250.458 91.1248 250.424 90.2492 250.246 89.3996C250.246 89.3996 250.136 89.3891 250.116 89.4309Z" fill="#263238"/>
<path d="M212.349 163.986L211.347 138.48C211.347 138.48 194.261 139.628 184.577 143.331C174.892 147.034 178.187 152.532 187.581 156.35C196.975 160.168 212.349 163.986 212.349 163.986Z" fill="#26A37E"/>
<path d="M208.333 139.805C207.352 139.407 206.319 139.161 205.269 139.075C206.123 139.718 207.06 140.231 208.053 140.598C209.032 140.995 210.061 141.241 211.108 141.328C210.26 140.681 209.325 140.168 208.333 139.805ZM195.204 149.194C194.826 150.218 194.59 151.292 194.503 152.386C195.118 151.495 195.61 150.519 195.965 149.486C196.338 148.482 196.574 147.428 196.666 146.356C196.052 147.244 195.56 148.217 195.204 149.246V149.194ZM211.949 154.096C211.092 154.284 210.258 154.574 209.465 154.962C208.498 155.402 207.598 155.985 206.791 156.694C207.831 156.523 208.842 156.2 209.796 155.734C210.564 155.376 211.293 154.932 211.969 154.409L211.949 154.096ZM180.211 145.751C179.765 146.138 179.389 146.604 179.1 147.128C179.43 147.003 179.761 146.867 180.101 146.721C181.068 146.277 181.969 145.69 182.775 144.979C181.891 145.119 181.029 145.383 180.211 145.761V145.751Z" fill="white"/>
<path d="M206.951 139.982C206.837 147.218 207.195 154.453 208.023 161.638H208.183C208.233 155.713 207.472 143.905 207.182 139.982C207.192 139.909 206.951 139.909 206.951 139.982Z" fill="#263238"/>
<path d="M212.219 160.783C212.379 161.826 212.469 162.869 212.6 163.975V164.309L212.249 164.236C210.106 163.767 207.963 163.318 205.839 162.776C203.716 162.233 201.593 161.67 199.49 161.044C197.387 160.418 195.284 159.771 193.221 159.02C191.157 158.269 189.084 157.518 187.071 156.59L193.421 158.321C195.534 158.895 197.647 159.469 199.75 160.063L206.07 161.858C208.173 162.442 210.266 163.12 212.369 163.735L212.069 163.996C212.149 162.922 212.149 161.858 212.219 160.783Z" fill="#263238"/>
<path d="M192.64 158.572C191.86 158.769 191.053 158.822 190.256 158.728C189.457 158.653 188.681 158.412 187.973 158.019C188.373 158.019 188.764 158.071 189.154 158.102L190.306 158.206C191.09 158.284 191.869 158.406 192.64 158.572Z" fill="#263238"/>
<path d="M43.7263 411.966C40.2811 410.026 35.6141 409.119 31.9786 410.923C31.8384 410.986 31.9786 411.195 32.0588 411.195C35.9199 411.18 39.7714 411.599 43.546 412.446C43.6043 412.46 43.6652 412.451 43.7179 412.422C43.7705 412.392 43.8114 412.345 43.8332 412.287C43.8549 412.229 43.8561 412.165 43.8365 412.106C43.8169 412.047 43.7778 411.998 43.7263 411.966Z" fill="#263238"/>
<path d="M45.8591 414.512C42.4139 412.571 37.7469 411.664 34.1115 413.468C33.9712 413.531 34.1115 413.74 34.1916 413.74C38.0591 413.72 41.9173 414.136 45.6988 414.981C45.7522 414.983 45.805 414.968 45.8493 414.937C45.8936 414.905 45.9271 414.86 45.945 414.808C45.9629 414.755 45.9643 414.698 45.9488 414.645C45.9333 414.592 45.9019 414.545 45.8591 414.512Z" fill="#263238"/>
<path d="M47.9926 417.067C44.5474 415.127 39.8804 414.22 36.245 416.024C36.1047 416.087 36.245 416.295 36.3351 416.295C40.2004 416.286 44.0552 416.713 47.8323 417.568C47.8961 417.59 47.9657 417.585 48.0258 417.554C48.0859 417.522 48.1316 417.468 48.1528 417.401C48.1741 417.335 48.1691 417.262 48.1391 417.2C48.109 417.137 48.0563 417.09 47.9926 417.067Z" fill="#263238"/>
<path d="M50.1354 419.602C46.6802 417.662 42.0232 416.755 38.3778 418.559C38.2376 418.622 38.3778 418.831 38.4679 418.831C42.3332 418.822 46.188 419.248 49.9651 420.103C50.0289 420.127 50.099 420.123 50.16 420.093C50.2211 420.062 50.2681 420.008 50.2906 419.942C50.3132 419.875 50.3095 419.802 50.2804 419.738C50.2513 419.675 50.1991 419.626 50.1354 419.602Z" fill="#263238"/>
<path d="M53.2198 405.394C52.4186 402.849 49.4441 402.88 47.5012 403.705C44.192 405.193 41.3154 407.56 39.1587 410.568C39.1463 410.578 39.1362 410.591 39.1292 410.605C39.1223 410.62 39.1187 410.636 39.1187 410.652C39.1187 410.668 39.1223 410.684 39.1292 410.699C39.1362 410.713 39.1463 410.726 39.1587 410.735C39.0786 411.027 39.2288 411.424 39.5793 411.403C42.9744 411.247 46.5899 411.518 49.8547 410.287C51.7876 409.567 53.9809 407.804 53.2198 405.394ZM44.717 410.078C43.0545 410.193 41.4021 410.224 39.7095 410.412C41.342 409.077 42.9043 407.679 44.717 406.511C45.5532 405.937 46.4266 405.425 47.331 404.977C48.7431 404.31 53.7406 403.548 51.7977 407.522C50.716 409.765 46.7 409.932 44.717 410.078Z" fill="#263238"/>
<path d="M30.1456 406.459C32.7595 408.806 36.2548 409.901 39.3694 411.299C39.4406 411.324 39.5165 411.331 39.5907 411.319C39.6649 411.307 39.7354 411.277 39.7962 411.231C39.8569 411.185 39.9063 411.125 39.9401 411.055C39.9739 410.985 39.9911 410.908 39.9904 410.829C40.0065 410.83 40.0225 410.827 40.0372 410.82C40.0518 410.813 40.0646 410.802 40.0744 410.789C40.0842 410.776 40.0908 410.76 40.0936 410.743C40.0964 410.727 40.0954 410.71 40.0905 410.694C39.1022 407.086 37.2198 403.812 34.6323 401.201C33.1 399.699 30.3359 398.572 28.7135 400.659C27.091 402.745 28.6233 405.082 30.1456 406.459ZM29.3344 403.183C28.8737 398.75 33.3404 401.305 34.3419 402.453C35.0285 403.212 35.6707 404.013 36.2648 404.852C37.5066 406.594 38.4981 408.482 39.5697 410.329C38.0775 409.546 36.5652 408.9 35.0229 408.18C33.2603 407.314 29.5848 405.593 29.3344 403.183Z" fill="#263238"/>
<path d="M5.08797 406.5C4.86763 407.887 4.64731 409.244 4.447 410.558C3.12502 418.997 2.34385 425.506 2.95477 426.101C4.81756 427.947 60.7314 439.662 62.8245 439.37C64.9176 439.078 64.3067 432.882 62.484 430.628C61.3723 429.262 53.7309 423.378 47.9122 418.987C44.1665 416.17 41.1821 413.948 41.1821 413.948L52.3989 376.186L14.8025 368.456C14.8025 368.456 5.48857 404.268 5.08797 406.5Z" fill="#D3766A"/>
<path d="M62.8245 439.37C60.7314 439.631 4.81756 427.948 2.95477 426.101C2.34385 425.496 3.12502 418.997 4.447 410.558C4.6473 409.254 4.85762 407.888 5.08796 406.5C5.21816 405.718 6.45001 400.836 7.98231 394.817C13.4305 395.944 35.2932 400.523 44.5671 402.463L41.162 413.938C41.162 413.938 44.1665 416.15 47.8921 418.977C53.7108 423.368 61.3523 429.241 62.4539 430.618C64.2967 432.882 64.9076 439.089 62.8245 439.37Z" fill="#EBEBEB"/>
<path d="M63.2853 439.746C61.9032 439.913 37.6569 434.895 20.0805 430.785C16.0144 429.836 12.3089 428.928 9.32439 428.156C5.20822 427.113 2.46411 426.258 2.07353 425.872C1.3925 425.183 5.67893 401.305 6.43005 398.541L43.6058 406.553L41.4225 413.709C41.4225 413.709 61.112 428.48 62.9848 430.796C64.8576 433.111 65.4185 439.464 63.2853 439.746Z" fill="#26A37E"/>
<path d="M62.4145 437.075C52.8702 434.801 14.2022 426.456 4.60785 424.933C4.52773 424.933 4.51771 424.933 4.60785 424.995C14.0019 427.499 52.74 435.49 62.3744 437.242C62.5747 437.273 62.5747 437.127 62.4145 437.075Z" fill="#263238"/>
<path d="M52.3483 397.394C52.7489 397.195 63.6452 348.48 68.6126 328.618C75.7834 299.952 82.7338 253.229 84.8169 243.496C89.1172 232.29 92.0381 220.562 93.5099 208.592H48.3022C48.3022 208.592 36.4544 232.198 42.5436 248.889C43.1044 250.422 34.6517 309.392 30.2752 318.979C26.4995 327.241 9.24365 387.744 9.24365 387.744L52.3483 397.394Z" fill="#37474F"/>
<path d="M52.1093 387.41C51.0076 386.993 49.8258 386.784 48.6841 386.471C47.5424 386.158 46.2705 385.835 45.0587 385.553C42.6351 384.98 40.2114 384.437 37.7878 383.884C32.9305 382.789 28.0632 381.798 23.1959 380.755C21.8606 380.47 20.5253 380.199 19.1899 379.941C17.8751 379.607 16.5346 379.394 15.1839 379.305C15.1714 379.312 15.1609 379.323 15.1537 379.336C15.1464 379.348 15.1426 379.363 15.1426 379.378C15.1426 379.393 15.1464 379.407 15.1537 379.42C15.1609 379.433 15.1714 379.444 15.1839 379.451C16.2867 379.881 17.4224 380.212 18.579 380.442C19.7808 380.755 20.9926 381.047 22.2044 381.329C24.588 381.892 26.9716 382.466 29.3652 383.008C34.1724 384.051 38.9896 385.209 43.8168 386.232C45.1889 386.513 46.5509 386.805 47.933 387.045C49.3151 387.285 50.6771 387.661 52.0592 387.765C52.1794 387.755 52.3096 387.483 52.1093 387.41Z" fill="#263238"/>
<path d="M72.9903 241.336C72.119 246.239 71.3979 251.173 70.6167 256.087C70.2261 258.601 69.6953 261.083 69.2947 263.587C68.8941 266.091 68.5236 268.511 68.143 270.973C66.6074 280.883 65.0884 290.789 63.5862 300.692C62.8384 305.616 62.0806 310.533 61.3128 315.443C60.6073 320.287 59.6545 325.089 58.4585 329.828C57.2166 334.564 55.7544 339.216 54.3624 343.921L50.106 358.337C47.2918 367.893 47.6924 369.52 45.1686 379.201C44.8581 380.4 44.5376 381.6 44.1671 382.8C44.1661 382.826 44.1739 382.852 44.1894 382.873C44.2048 382.895 44.2268 382.91 44.2516 382.916C44.2765 382.922 44.3026 382.919 44.3255 382.907C44.3485 382.896 44.3668 382.876 44.3774 382.852C47.4921 373.38 47.0614 371.752 49.9558 362.197C52.8501 352.642 55.8145 343.17 58.5687 333.615C59.9034 328.963 60.9702 324.232 61.7635 319.448C62.5647 314.525 63.2657 309.59 64.0268 304.656C65.5224 294.753 67.0414 284.847 68.5837 274.937C69.3248 270.076 70.146 265.204 70.7269 260.332C71.3278 255.263 72.169 250.224 72.8901 245.175C73.0704 243.934 73.2406 242.703 73.4009 241.462C73.4009 241.18 73.0403 241.065 72.9903 241.336Z" fill="#263238"/>
<path d="M111.868 415.211C108.013 414.439 103.306 415.023 100.341 417.861C100.231 417.975 100.341 418.142 100.511 418.1C104.197 416.886 107.998 416.088 111.848 415.722C111.906 415.713 111.958 415.683 111.996 415.638C112.035 415.593 112.057 415.535 112.06 415.475C112.062 415.415 112.044 415.355 112.009 415.307C111.975 415.259 111.925 415.225 111.868 415.211Z" fill="#263238"/>
<path d="M114.652 416.974C110.806 416.202 106.089 416.786 103.135 419.623C103.015 419.738 103.135 419.905 103.295 419.863C106.988 418.648 110.795 417.851 114.652 417.485C114.709 417.473 114.759 417.441 114.796 417.394C114.833 417.348 114.853 417.289 114.853 417.229C114.853 417.169 114.833 417.111 114.796 417.064C114.759 417.018 114.709 416.986 114.652 416.974Z" fill="#263238"/>
<path d="M117.395 418.737C113.55 417.965 108.843 418.549 105.878 421.386C105.768 421.501 105.878 421.668 106.048 421.626C109.734 420.412 113.535 419.614 117.385 419.248C117.442 419.237 117.494 419.206 117.531 419.161C117.569 419.115 117.59 419.057 117.591 418.997C117.592 418.936 117.574 418.878 117.538 418.83C117.502 418.783 117.452 418.75 117.395 418.737Z" fill="#263238"/>
<path d="M120.17 420.5C116.324 419.728 111.607 420.312 108.652 423.149C108.532 423.264 108.652 423.431 108.813 423.389C112.499 422.175 116.3 421.378 120.15 421.011C120.207 421.001 120.259 420.972 120.298 420.927C120.336 420.882 120.359 420.824 120.361 420.764C120.363 420.703 120.346 420.644 120.311 420.596C120.276 420.548 120.226 420.514 120.17 420.5Z" fill="#263238"/>
<path d="M119.029 405.989C117.527 403.809 114.702 404.758 113.09 406.156C110.35 408.603 108.278 411.758 107.081 415.305C107.075 415.32 107.072 415.336 107.072 415.352C107.073 415.369 107.078 415.385 107.085 415.399C107.093 415.413 107.104 415.425 107.117 415.434C107.13 415.443 107.145 415.449 107.161 415.451C107.161 415.753 107.431 416.087 107.762 415.962C110.957 414.752 114.502 413.876 117.236 411.685C118.869 410.412 120.451 408.044 119.029 405.989ZM112.269 413.104C110.716 413.73 109.144 414.282 107.612 414.971C108.783 413.197 109.875 411.372 111.217 409.755C111.849 408.944 112.535 408.181 113.27 407.471C114.422 406.427 118.979 404.112 118.278 408.514C117.877 410.892 114.121 412.342 112.269 413.104Z" fill="#263238"/>
<path d="M97.3263 414.199C100.491 415.628 104.137 415.576 107.512 415.941C107.587 415.942 107.661 415.925 107.728 415.891C107.796 415.857 107.855 415.808 107.9 415.746C107.946 415.684 107.977 415.612 107.992 415.535C108.006 415.459 108.003 415.38 107.982 415.305C107.993 415.294 108.002 415.281 108.008 415.266C108.014 415.252 108.017 415.237 108.017 415.221C108.017 415.205 108.014 415.19 108.008 415.176C108.002 415.161 107.993 415.148 107.982 415.138C105.998 412.002 103.26 409.463 100.04 407.773C98.1476 406.834 95.1831 406.615 94.2417 409.108C93.3003 411.601 95.4736 413.364 97.3263 414.199ZM95.6238 411.33C93.9112 407.241 98.8586 408.305 100.231 409.056C101.109 409.558 101.952 410.122 102.754 410.746C104.447 412.019 105.929 413.51 107.482 414.919C105.839 414.637 104.187 414.501 102.524 414.282C100.531 414.042 96.5452 413.583 95.6238 411.33Z" fill="#263238"/>
<path d="M73.2895 410.59C73.2895 412.968 74.291 436.762 74.982 437.221C77.1553 438.661 134.191 438.828 136.184 438.15C138.177 437.472 136.434 431.484 134.181 429.648C132.839 428.521 124.256 424.297 117.726 421.167C113.53 419.154 110.185 417.589 110.185 417.589L110.365 410.61L110.886 378.867H73.2294C73.2294 378.867 73.0391 395.161 73.2895 410.59Z" fill="#D3766A"/>
<path d="M136.195 438.15C134.192 438.828 77.1564 438.651 74.9931 437.222C74.282 436.752 73.3206 412.968 73.2906 410.6C73.2906 409.025 73.2906 407.471 73.2305 405.864H110.476L110.396 410.6L110.206 417.558L117.747 421.146C124.267 424.276 132.85 428.522 134.202 429.638C136.435 431.484 138.178 437.461 136.195 438.15Z" fill="#EBEBEB"/>
<path d="M137.536 438.63C136.214 439.089 111.497 439.089 93.4702 438.63C89.3039 438.526 85.4582 438.39 82.4537 438.244C78.2173 438.025 75.373 437.774 74.9124 437.461C74.1112 436.929 72.9795 412.634 73.1998 409.776L110.876 409.974L111.016 417.454C111.016 417.454 133.3 428.021 135.573 429.909C137.847 431.797 139.579 437.931 137.536 438.63Z" fill="#26A37E"/>
<path d="M136.174 436.199C126.39 435.886 86.9003 435.584 77.2058 436.043C77.1357 436.043 77.1257 436.105 77.2058 436.105C86.9003 436.637 126.39 436.606 136.174 436.366C136.385 436.356 136.385 436.199 136.174 436.199Z" fill="#263238"/>
<path d="M66.5797 250.715C66.5797 250.715 73.0193 316.538 73.1195 318.082C73.1195 318.697 70.3553 399.136 70.3553 399.136H112.949C112.949 399.136 111.427 323.757 110.776 314.462C110.706 313.419 107.952 246.469 95.5531 208.592H48.2422C48.2422 208.592 48.6528 230.842 58.3674 246.938C61.1694 248.039 63.911 249.299 66.5797 250.715Z" fill="#37474F"/>
<path d="M110.255 390.822C109.083 390.644 107.892 390.686 106.71 390.623C105.528 390.561 104.236 390.498 102.994 390.467C100.511 390.415 97.9868 390.394 95.5431 390.363C90.5356 390.3 85.6083 390.363 80.6408 390.363H76.5747C75.2058 390.31 73.8351 390.383 72.4786 390.582C72.4085 390.582 72.4185 390.717 72.4786 390.738C73.638 390.928 74.8103 391.018 75.9838 391.009C77.2257 391.062 78.4676 391.093 79.7094 391.114C82.1531 391.166 84.5967 391.228 87.0504 391.26C91.9678 391.322 96.8952 391.416 101.823 391.395C103.225 391.395 104.617 391.395 106.019 391.343C107.421 391.291 108.823 391.343 110.205 391.176C110.385 391.145 110.466 390.853 110.255 390.822Z" fill="#263238"/>
<path d="M100.631 321.764C99.509 298.053 97.1154 274.446 94.1009 250.934C92.4584 238.05 90.5255 225.188 87.1805 212.65C87.1805 212.65 87.0904 212.65 87.1004 212.65C89.7087 224.121 91.675 235.74 92.9892 247.449C94.3913 259.028 95.7333 270.628 96.865 282.249C99.1585 305.825 100.18 329.484 100.32 353.184C100.4 366.516 100.06 372.796 99.6993 386.117C99.6993 386.242 99.8795 386.232 99.8896 386.117C101.742 362.416 101.712 345.507 100.631 321.764Z" fill="#263238"/>
<path d="M98.3176 217.761C98.3176 217.742 98.3102 217.724 98.2971 217.71C98.284 217.696 98.2661 217.688 98.2475 217.688C98.2289 217.688 98.2111 217.696 98.198 217.71C98.1848 217.724 98.1774 217.742 98.1774 217.761C98.3577 220.568 98.8184 223.624 97.6166 226.274C96.565 228.6 94.552 229.914 92.6992 231.489C92.6992 231.542 92.6992 231.635 92.7793 231.615C95.233 230.843 97.6867 229.424 98.6581 226.795C99.7398 223.885 99.1489 220.682 98.3176 217.761Z" fill="#263238"/>
<path d="M77.807 249.265C75.8317 249.204 73.8548 249.274 71.8881 249.473C69.9619 249.579 68.0309 249.545 66.1094 249.369C65.1455 249.265 64.1889 249.098 63.2451 248.868C62.2436 248.628 61.3423 248.253 60.3708 247.971C59.4886 247.771 58.5721 247.807 57.7068 248.076C56.7053 248.316 55.7038 248.482 54.6122 248.628C52.241 248.988 49.837 249.051 47.4515 248.816C47.3613 248.816 47.3213 248.952 47.4515 248.973C49.4573 249.41 51.5012 249.63 53.5506 249.63C54.6006 249.606 55.6478 249.508 56.6853 249.338C57.6377 249.047 58.6277 248.914 59.6197 248.941C60.5926 249.212 61.5491 249.543 62.484 249.932C63.4365 250.21 64.4072 250.416 65.3883 250.548C67.3535 250.819 69.3399 250.882 71.3172 250.736C73.5477 250.683 75.7625 250.333 77.9071 249.692C77.9616 249.679 78.0085 249.643 78.0376 249.593C78.0667 249.543 78.0756 249.483 78.0623 249.426C78.0491 249.37 78.0147 249.321 77.9668 249.291C77.9189 249.26 77.8614 249.251 77.807 249.265Z" fill="#263238"/>
<path d="M73.2207 314.462C73.2113 314.457 73.201 314.455 73.1906 314.455C73.1801 314.455 73.1699 314.457 73.1604 314.462C73.1551 314.472 73.1523 314.482 73.1523 314.494C73.1523 314.505 73.1551 314.515 73.1604 314.525V314.682C73.1798 314.69 73.2014 314.69 73.2207 314.682V314.525C73.2252 314.515 73.2275 314.504 73.2275 314.494C73.2275 314.483 73.2252 314.472 73.2207 314.462Z" fill="#263238"/>
<path d="M72.0884 303.123C71.7145 298.86 71.3139 294.597 70.8866 290.334C70.0253 281.801 69.2141 273.268 68.3729 264.735C67.8921 259.895 67.5516 255.013 66.7905 250.214C66.7905 250.089 66.5802 250.089 66.5902 250.214C66.6503 254.491 67.0909 258.768 67.4415 263.034C67.792 267.301 68.1525 271.568 68.5331 275.834C69.3043 284.367 70.0354 292.911 70.9968 301.433C71.2705 303.846 71.5576 306.28 71.8581 308.735C72.1685 311.156 72.5792 313.565 72.8596 315.985C72.8596 316.008 72.868 316.029 72.8831 316.044C72.8981 316.06 72.9185 316.069 72.9397 316.069C72.961 316.069 72.9813 316.06 72.9964 316.044C73.0114 316.029 73.0198 316.008 73.0198 315.985C72.6593 311.708 72.469 307.39 72.0884 303.123Z" fill="#263238"/>
<path d="M72.4183 155.088C72.7387 156.006 77.7963 161.576 81.9125 160.836C83.2545 160.596 82.3131 152.908 82.3131 152.908L82.3632 152.323L83.1343 144.156L73.4498 139.315L72.0577 138.689C72.0577 138.689 71.9876 140.943 71.9375 143.738C71.9375 143.874 71.9375 143.999 71.9375 144.145C71.9375 144.291 71.9375 144.448 71.9375 144.594V145.866C71.9375 146.2 71.9375 146.513 71.9375 146.847C71.9375 147.181 71.9375 147.525 71.9375 147.89C71.9348 150.298 72.0954 152.703 72.4183 155.088Z" fill="#D3766A"/>
<path d="M71.9375 143.759C72.9714 145.894 74.4399 147.768 76.2405 149.251C78.0411 150.733 80.1305 151.789 82.3631 152.345L83.1343 144.177L73.4498 139.336L72.0577 138.71C72.0577 138.71 71.9876 140.943 71.9375 143.759Z" fill="#263238"/>
<path d="M95.1725 195.73L95.5531 208.592H48.3022C48.3022 208.592 53.8706 170.464 66.3293 156.434C72.5586 149.382 79.1785 150.707 83.8455 155.631C85.0173 156.882 97.9266 174.407 99.4088 181.814C100.701 188.281 95.1725 195.73 95.1725 195.73Z" fill="#26A37E"/>
<path opacity="0.1" d="M95.5036 207.058H48.5532C48.6133 206.662 48.6934 206.203 48.7836 205.681H95.4735L95.5036 207.058ZM95.3534 201.843H49.4746C49.3845 202.322 49.2943 202.781 49.2142 203.22H95.3934L95.3534 201.843ZM95.2432 197.993H50.2458C50.1456 198.463 50.0555 198.922 49.9653 199.37H95.2833L95.2432 197.993ZM51.087 194.134C50.9869 194.603 50.8767 195.062 50.7766 195.511H95.3333C95.5236 195.25 95.8441 194.77 96.2247 194.134H51.087ZM51.9984 190.284L51.6679 191.661H97.5567C97.777 191.223 97.9773 190.764 98.1776 190.284H51.9984ZM52.9999 186.435L52.6393 187.812H99.0289C99.149 187.363 99.2592 186.904 99.3494 186.435H52.9999ZM99.5496 182.586H54.0815C53.9413 183.045 53.8111 183.504 53.6809 183.963H99.6298C99.6251 183.499 99.595 183.036 99.5396 182.575L99.5496 182.586ZM98.448 178.737H55.2633C55.1131 179.196 54.9728 179.655 54.8226 180.114H98.9488C98.8085 179.665 98.6283 179.227 98.438 178.726L98.448 178.737ZM96.6052 174.877H56.5652C56.395 175.336 56.2347 175.795 56.0745 176.264H97.2963C97.086 175.795 96.8456 175.336 96.6253 174.866L96.6052 174.877ZM94.432 171.028H58.0374C57.8505 171.487 57.6702 171.946 57.4966 172.405H95.2332C94.9728 171.939 94.7024 171.476 94.422 171.017L94.432 171.028ZM92.0484 167.178H59.6899C59.4796 167.637 59.2693 168.096 59.069 168.555H92.9097L92.0484 167.178ZM89.5046 163.329H61.6228C61.3724 163.778 61.1221 164.237 60.8917 164.706H90.4059C90.1055 164.226 89.795 163.767 89.4946 163.319L89.5046 163.329ZM86.8106 159.48H63.9463C63.6358 159.928 63.3454 160.387 63.055 160.857H87.772L86.8106 159.48ZM83.8962 155.631H67.0209C66.7939 155.867 66.5635 156.117 66.3299 156.382C66.0962 156.646 65.9159 156.854 65.7891 157.007H84.9778C84.457 156.277 84.0765 155.829 83.8862 155.62L83.8962 155.631ZM77.767 151.771H73.2402C72.1198 152.055 71.0487 152.52 70.0655 153.148H80.9217C79.9391 152.524 78.8724 152.056 77.757 151.76L77.767 151.771Z" fill="#030402"/>
<path d="M79.7292 166.385C88.1919 169.765 119.729 177.286 126.369 171.538C136.795 162.515 144.947 146.346 149.153 133.088C150.605 128.477 122.814 124.502 121.291 129.708C119.288 136.488 114.281 148.829 112.949 150.946C111.617 153.064 92.7587 153.419 80.0396 154.66C69.4237 155.693 68.9931 162.108 79.7292 166.385Z" fill="#D3766A"/>
<path d="M124.598 98.9033C125.358 98.6366 126.178 98.6186 126.947 98.8517C127.717 99.0848 128.4 99.5579 128.904 100.207C129.729 99.0828 130.905 98.2933 132.229 97.9749C134.593 97.5368 136.295 101.198 136.295 101.198C137.383 100.215 138.73 99.5964 140.161 99.4249C142.465 99.2371 144.688 102.68 144.688 102.68C146.167 102.351 147.71 102.588 149.034 103.347C152.49 105.538 152.57 111.964 152.67 116.053C152.77 120.142 149.355 131.825 148.924 134.12L124.768 136.551C124.768 136.551 117.357 125.702 118.859 111.953C119.31 107.864 121.734 100.019 124.598 98.9033Z" fill="#D3766A"/>
<path d="M128.503 100.384C127.02 104.557 126.81 109.001 126.359 113.403C126.365 113.419 126.375 113.433 126.389 113.442C126.402 113.452 126.418 113.457 126.434 113.457C126.451 113.457 126.467 113.452 126.48 113.442C126.494 113.433 126.504 113.419 126.51 113.403C126.91 109.011 128.132 104.766 128.703 100.405C128.723 100.311 128.543 100.27 128.503 100.384Z" fill="#263238"/>
<path d="M135.964 101.271C135.714 102.258 135.593 103.276 135.604 104.297C135.544 105.34 135.504 106.456 135.474 107.53C135.474 109.69 135.474 111.86 135.474 114.019C135.474 114.113 135.614 114.134 135.614 114.019C135.667 111.863 135.757 109.707 135.884 107.551C135.951 106.473 136.031 105.399 136.125 104.328C136.268 103.32 136.301 102.298 136.225 101.282C136.212 101.258 136.194 101.237 136.172 101.222C136.15 101.208 136.124 101.199 136.097 101.198C136.071 101.197 136.045 101.203 136.021 101.216C135.998 101.229 135.978 101.248 135.964 101.271Z" fill="#263238"/>
<path d="M144.698 102.742C144.489 103.639 144.425 104.566 144.507 105.486C144.507 106.477 144.507 107.457 144.507 108.448C144.507 110.42 144.457 112.381 144.367 114.352C144.367 114.457 144.507 114.467 144.507 114.352C144.618 112.35 144.748 110.347 144.828 108.354C144.828 107.311 144.908 106.383 144.938 105.402C145.049 104.508 145.008 103.601 144.818 102.721C144.815 102.705 144.806 102.69 144.793 102.68C144.78 102.67 144.764 102.666 144.748 102.669C144.732 102.672 144.718 102.681 144.708 102.695C144.699 102.708 144.695 102.725 144.698 102.742Z" fill="#263238"/>
<path d="M115.453 143.759L137.937 162.818C137.937 162.818 129.384 172.885 124.737 173.917C120.09 174.95 94.9422 173.448 80.6708 167.439C66.3994 161.431 70.0448 155.599 80.4705 154.327C90.8961 153.054 110.215 150.665 110.846 150.269C111.477 149.872 115.453 143.759 115.453 143.759Z" fill="#26A37E"/>
<path opacity="0.1" d="M82.7642 168.263C82.0565 168.006 81.3655 167.735 80.6911 167.45C79.96 167.137 79.269 166.834 78.628 166.532L71.3872 160.367C71.2345 159.798 71.2662 159.193 71.4773 158.645L82.7642 168.263ZM74.2214 156.027C73.7967 156.235 73.3911 156.483 73.0096 156.768L88.6831 170.11C89.6846 170.37 90.6861 170.621 91.6275 170.84L74.2214 156.027ZM78.4678 154.66C77.8869 154.775 77.3461 154.9 76.8253 155.046L96.625 171.925C97.5063 172.092 98.3876 172.248 99.269 172.394L78.4678 154.66ZM83.4753 153.972L81.6426 154.191L103.746 172.968C104.567 173.083 105.388 173.187 106.189 173.27L83.4753 153.972ZM88.5729 153.346L86.7602 153.576L110.466 173.75L112.759 173.938L88.5729 153.346ZM93.6706 152.71L91.8579 152.939L116.785 174.157L118.938 174.22L93.6706 152.71ZM98.7482 152.053L96.9355 152.292L122.624 174.199C123.248 174.175 123.871 174.109 124.487 174.001L98.7482 152.053ZM103.756 151.385L101.953 151.635L126.991 172.926C127.381 172.697 127.772 172.436 128.172 172.154L103.756 151.385ZM108.763 150.676L106.981 150.936L130.095 170.621C130.446 170.339 130.796 170.037 131.097 169.734L108.763 150.676ZM112.138 148.589C111.838 149.017 111.567 149.393 111.337 149.632L132.929 168.023L133.931 167.064L112.138 148.589ZM114.291 145.46L113.53 146.586L135.563 165.363L136.475 164.32L114.291 145.46Z" fill="#030402"/>
<path d="M132.81 165.176C126.801 159.657 120.711 154.149 114.202 149.267C114.188 149.258 114.172 149.254 114.156 149.257C114.14 149.26 114.126 149.269 114.117 149.283C114.107 149.297 114.104 149.314 114.106 149.331C114.109 149.347 114.118 149.362 114.132 149.372C119.98 155.078 126.35 160.21 132.699 165.29C132.779 165.353 132.88 165.238 132.81 165.176Z" fill="#263238"/>
<path d="M68.6537 121.342C68.2484 121.661 67.7622 121.85 67.255 121.886C66.7478 121.921 66.2418 121.801 65.7994 121.54C64.5375 121.018 62.9251 119.662 61.553 120.611C60.0107 121.655 60.5515 123.981 61.2826 125.358C61.9903 126.517 62.6194 127.727 63.1654 128.978C63.5987 130.186 63.8225 131.464 63.8264 132.754C63.8264 135.351 62.4644 137.751 62.6246 140.338C62.8349 143.467 65.6291 145.72 68.0127 147.139C70.3963 148.558 73.3006 149.131 76.0247 150.122C78.3114 151.034 80.341 152.531 81.9267 154.474C83.5123 156.417 84.603 158.745 85.0983 161.243C85.3694 162.469 85.527 163.719 85.569 164.977C85.569 166.323 85.4789 167.679 85.569 169.025C85.6089 169.787 85.8233 170.529 86.1944 171.188C86.5655 171.846 87.0825 172.403 87.7022 172.811C88.8856 173.459 90.1713 173.88 91.4979 174.053C91.5399 174.065 91.5778 174.089 91.607 174.123C91.6363 174.157 91.6557 174.198 91.663 174.243C91.6704 174.288 91.6653 174.334 91.6485 174.376C91.6317 174.418 91.6038 174.454 91.568 174.48C90.8455 175 90.0892 175.467 89.3046 175.878C88.6277 176.286 87.8795 176.548 87.1038 176.65C86.3282 176.752 85.5408 176.692 84.7878 176.473C83.0853 175.847 82.0638 174.188 81.1324 172.686C80.1092 170.888 78.67 169.385 76.9461 168.315C75.166 167.334 73.2392 166.675 71.2475 166.364C67.3918 165.676 63.4458 165.885 59.6101 165.04C57.7503 164.696 55.9764 163.964 54.3948 162.889C52.8132 161.813 51.4566 160.416 50.4063 158.781C49.3752 157.119 48.6926 155.249 48.4033 153.294C48.189 151.158 48.2972 149 48.7238 146.899C49.5274 142.395 49.8131 137.808 49.5751 133.234C49.4252 131.079 49.1644 128.934 48.7939 126.808C48.4043 124.824 48.213 122.803 48.223 120.778C48.2635 119.023 48.7478 117.31 49.627 115.812C50.5061 114.313 51.7491 113.083 53.2305 112.245C54.6879 111.356 56.3403 110.871 58.0292 110.838C59.7181 110.805 61.3867 111.225 62.875 112.057C67.7022 114.926 69.2846 120.695 68.6537 121.342Z" fill="#263238"/>
<path d="M63.2749 142.622C63.8259 144.01 64.643 145.266 65.6762 146.314C66.7094 147.361 67.9371 148.178 69.2839 148.714C72.038 149.758 75.0626 149.82 77.8668 150.801C80.4736 151.601 82.7967 153.183 84.5468 155.349C86.0277 157.514 86.8002 160.118 86.7501 162.776C86.8502 165.78 86.5598 168.774 86.8703 171.768C86.8703 171.82 86.7901 171.841 86.7801 171.768C85.7786 166.552 87.7115 160.711 84.5768 156.048C82.6649 153.462 79.9555 151.642 76.9053 150.895C74.2514 150.112 71.3871 150.039 68.8332 148.902C67.5514 148.294 66.3993 147.426 65.4447 146.347C64.4901 145.269 63.7524 144.002 63.2749 142.622Z" fill="#263238"/>
<path d="M47.9127 157.049C47.6551 155.298 47.7094 153.512 48.0729 151.781C48.4435 149.695 48.9142 147.609 49.3448 145.522C48.9943 147.306 48.7039 149.111 48.4034 150.915C48.0638 152.612 47.9526 154.35 48.0729 156.079C48.2987 157.785 48.8903 159.417 49.804 160.852C50.7177 162.288 51.9299 163.491 53.3508 164.372C56.2352 166.219 59.5201 166.573 62.825 166.584C65.7624 166.529 68.7 166.679 71.6182 167.032C74.889 167.406 78.0483 168.49 80.8921 170.214C80.8921 170.214 80.8921 170.318 80.8921 170.287C75.1635 166.792 68.5937 166.97 62.1841 166.98C59.0133 167.138 55.8653 166.349 53.1105 164.706C51.7837 163.872 50.637 162.762 49.7424 161.444C48.8479 160.126 48.2249 158.63 47.9127 157.049Z" fill="#263238"/>
<path d="M66.6506 124.69C66.8309 124.69 69.2746 122.02 69.535 121.759C69.7953 121.498 72.3792 119.005 72.4193 118.828C71.5818 117.953 70.5974 117.246 69.5149 116.742C68.864 116.596 66.921 118.285 66.6006 118.598C66.2801 118.911 64.5976 120.914 64.7578 121.603C65.2053 122.742 65.8465 123.788 66.6506 124.69Z" fill="#26A37E"/>
<path d="M93.3298 130.021C96.9552 143.926 89.4339 147.89 86.4795 148.568C83.8355 149.184 74.8721 151.458 69.8946 138.011C64.9172 124.565 69.9748 118.421 75.9036 116.407C81.8325 114.394 89.7143 116.105 93.3298 130.021Z" fill="#D3766A"/>
<path d="M91.8878 127.204C91.5673 127.204 91.2668 127.204 90.8863 127.204C90.5394 127.255 90.1862 127.182 89.8848 126.996C89.8041 126.922 89.7487 126.824 89.727 126.714C89.7053 126.605 89.7185 126.491 89.7646 126.391C89.8906 126.204 90.0617 126.056 90.2604 125.961C90.4591 125.866 90.6785 125.827 90.8963 125.848C91.3404 125.828 91.7758 125.981 92.1181 126.276C92.1849 126.344 92.2333 126.429 92.2583 126.523C92.2834 126.617 92.2843 126.715 92.2609 126.81C92.2376 126.904 92.1908 126.99 92.1253 127.059C92.0597 127.129 91.9778 127.179 91.8878 127.204Z" fill="#263238"/>
<path d="M83.2254 129.499C83.5226 129.388 83.8135 129.259 84.0967 129.113C84.4282 129.02 84.7206 128.814 84.928 128.529C84.9758 128.429 84.99 128.315 84.9682 128.205C84.9464 128.095 84.8899 127.996 84.8078 127.924C84.6216 127.808 84.4088 127.747 84.1919 127.747C83.975 127.747 83.7622 127.808 83.576 127.924C83.145 128.069 82.7856 128.383 82.5745 128.8C82.5416 128.896 82.5351 128.999 82.5557 129.098C82.5763 129.197 82.6232 129.288 82.6909 129.361C82.7587 129.434 82.8447 129.485 82.9392 129.51C83.0337 129.534 83.1328 129.53 83.2254 129.499Z" fill="#263238"/>
<path d="M85.8786 132.566C85.8786 132.566 85.8185 132.629 85.8786 132.67C86.109 133.62 86.2191 134.757 85.458 135.257C85.458 135.257 85.458 135.32 85.458 135.309C86.4094 134.934 86.2492 133.432 85.8786 132.566Z" fill="#263238"/>
<path d="M84.8468 131.763C83.3446 131.982 83.8453 135.101 85.2775 134.892C86.7096 134.684 86.1087 131.565 84.8468 131.763Z" fill="#263238"/>
<path d="M84.2866 132.034C84.0562 132.264 83.8559 132.618 83.5454 132.712C83.235 132.806 82.8544 132.545 82.5439 132.274C82.6441 132.879 82.9646 133.442 83.5454 133.421C84.1263 133.401 84.4368 132.796 84.4768 132.159C84.4969 132.086 84.3767 131.94 84.2866 132.034Z" fill="#263238"/>
<path d="M90.7664 131.095C90.7664 131.095 90.8465 131.095 90.8565 131.168C90.9867 132.138 91.2971 133.254 92.1885 133.401V133.453C91.1369 133.484 90.7463 132.034 90.7664 131.095Z" fill="#263238"/>
<path d="M91.4275 129.937C92.9097 129.541 93.5406 132.639 92.1786 133.004C90.8165 133.369 90.1956 130.261 91.4275 129.937Z" fill="#263238"/>
<path d="M92.0984 130C92.3588 130.115 92.6592 130.354 92.9396 130.313C93.22 130.271 93.4404 129.875 93.5806 129.51C93.5806 129.51 93.5806 129.51 93.6407 129.51C93.7709 130.104 93.7108 130.761 93.19 130.991C92.6692 131.22 92.2386 130.782 91.9882 130.219C91.9381 130.135 91.9882 129.958 92.0984 130Z" fill="#263238"/>
<path d="M90.3856 135.769C90.3856 135.769 90.8363 137.166 90.9665 137.855C90.9665 137.918 90.8263 137.98 90.6059 138.043C90.0661 138.261 89.4791 138.322 88.9087 138.217C88.3383 138.112 87.8064 137.846 87.3711 137.448C87.361 137.436 87.3551 137.42 87.3545 137.404C87.354 137.387 87.3587 137.371 87.3679 137.358C87.3771 137.345 87.3904 137.335 87.4055 137.331C87.4206 137.326 87.4367 137.327 87.4512 137.333C88.3983 137.759 89.4524 137.854 90.4557 137.605C90.4557 137.406 89.5944 135.237 89.6946 135.205C90.2086 135.151 90.7273 135.169 91.2369 135.257C90.3656 132.316 89.0536 129.53 88.2324 126.589C88.2247 126.567 88.225 126.543 88.2332 126.522C88.2414 126.5 88.2569 126.483 88.2767 126.472C88.2965 126.462 88.3193 126.46 88.3407 126.466C88.3621 126.472 88.3806 126.486 88.3926 126.505C89.8936 129.439 91.1114 132.521 92.0281 135.706C92.0982 136.071 90.666 135.831 90.3856 135.769Z" fill="#263238"/>
<path d="M90.456 137.5C90.2273 138.145 89.8448 138.72 89.3443 139.169C89.0578 139.406 88.7079 139.544 88.3428 139.565C87.5617 139.565 87.3413 138.919 87.2813 138.282C87.2409 137.936 87.2409 137.586 87.2813 137.239C88.2841 137.684 89.3987 137.775 90.456 137.5Z" fill="#263238"/>
<path d="M89.3443 139.19C89.0578 139.427 88.7079 139.565 88.3428 139.587C87.5617 139.587 87.3413 138.94 87.2812 138.303C87.6707 138.187 88.0867 138.211 88.4614 138.372C88.8361 138.533 89.1473 138.821 89.3443 139.19Z" fill="#FF98B9"/>
<path d="M71.8786 142.476C73.0503 142.257 71.8786 134.579 71.8786 134.579C71.8786 134.579 76.4654 132.024 76.6757 124.763C76.9247 126.876 76.5767 129.018 75.6742 130.928C75.6742 130.928 83.6863 128.331 85.7594 120.497C85.7594 120.497 85.0783 124.408 84.0368 125.963C85.9847 124.876 87.5207 123.133 88.3933 121.018C88.3933 121.018 90.6066 124.836 91.9286 125.744C91.9286 125.744 90.4163 111.265 75.8044 115.239C73.1792 115.903 70.7798 117.306 68.8686 119.295C66.9575 121.284 65.6081 123.782 64.9682 126.516C63.9166 131.179 65.4089 136.718 67.2516 139.826C68.4033 141.673 71.8786 142.476 71.8786 142.476Z" fill="#263238"/>
<path d="M75.5934 135.737C75.5934 135.737 72.1984 131.564 70.3356 132.837C68.4728 134.11 71.3371 140.421 73.6806 141.089C73.9782 141.195 74.2934 141.238 74.6074 141.216C74.9214 141.193 75.2278 141.104 75.5082 140.955C75.7886 140.806 76.0373 140.6 76.2395 140.349C76.4417 140.097 76.5933 139.806 76.6851 139.493L75.5934 135.737Z" fill="#D3766A"/>
</svg>
