<svg width="592" height="440" viewBox="0 0 592 440" fill="none" xmlns="http://www.w3.org/2000/svg">
<path d="M591.061 386.665H0.551636V386.96H591.061V386.665Z" fill="#EBEBEB"/>
<path d="M531.891 405.668H492.776V405.963H531.891V405.668Z" fill="#EBEBEB"/>
<path d="M391.728 408.88H381.465V409.175H391.728V408.88Z" fill="#EBEBEB"/>
<path d="M491.595 394.708H468.932V395.003H491.595V394.708Z" fill="#EBEBEB"/>
<path d="M113.516 396.692H62.5078V396.987H113.516V396.692Z" fill="#EBEBEB"/>
<path d="M131.515 396.692H124.039V396.987H131.515V396.692Z" fill="#EBEBEB"/>
<path d="M266.458 401.676H155.82V401.971H266.458V401.676Z" fill="#EBEBEB"/>
<path d="M280.453 333.992H52.41C50.6236 333.989 48.9113 333.277 47.6492 332.013C46.3871 330.748 45.6782 329.035 45.6782 327.248V6.68456C45.6938 4.90834 46.4095 3.20998 47.6699 1.95839C48.9304 0.70679 50.6337 0.00304276 52.41 0H280.453C282.241 0 283.957 0.710486 285.221 1.97516C286.486 3.23983 287.196 4.95509 287.196 6.74361V327.248C287.196 329.037 286.486 330.752 285.221 332.017C283.957 333.281 282.241 333.992 280.453 333.992ZM52.41 0.236204C50.7019 0.239333 49.0647 0.92009 47.858 2.12905C46.6512 3.33801 45.9735 4.97639 45.9735 6.68456V327.248C45.9735 328.956 46.6512 330.595 47.858 331.804C49.0647 333.013 50.7019 333.693 52.41 333.697H280.453C282.162 333.693 283.8 333.013 285.009 331.804C286.218 330.596 286.898 328.957 286.901 327.248V6.68456C286.898 4.97531 286.218 3.33696 285.009 2.12833C283.8 0.919706 282.162 0.239326 280.453 0.236204H52.41Z" fill="#EBEBEB"/>
<path d="M535.919 333.992H307.864C306.077 333.989 304.363 333.277 303.099 332.013C301.835 330.749 301.124 329.036 301.121 327.248V6.68456C301.139 4.90726 301.858 3.20892 303.12 1.95765C304.382 0.706377 306.087 0.00300958 307.864 0H535.919C537.693 0.0061466 539.393 0.711267 540.651 1.96253C541.909 3.21379 542.623 4.91038 542.639 6.68456V327.248C542.639 329.033 541.932 330.744 540.672 332.008C539.412 333.272 537.703 333.986 535.919 333.992ZM307.864 0.236204C306.155 0.239326 304.517 0.919706 303.308 2.12833C302.099 3.33696 301.419 4.97531 301.416 6.68456V327.248C301.419 328.957 302.099 330.596 303.308 331.804C304.517 333.013 306.155 333.693 307.864 333.697H535.919C537.628 333.693 539.266 333.013 540.475 331.804C541.684 330.596 542.364 328.957 542.367 327.248V6.68456C542.364 4.97531 541.684 3.33696 540.475 2.12833C539.266 0.919706 537.628 0.239326 535.919 0.236204H307.864Z" fill="#EBEBEB"/>
<path d="M340.07 247.033H168.74V356.018H340.07V247.033Z" fill="#EBEBEB"/>
<path d="M340.07 247.033H168.74V254.415H340.07V247.033Z" fill="#E0E0E0"/>
<path d="M335.299 252.95C336.525 252.95 337.519 251.956 337.519 250.73C337.519 249.504 336.525 248.51 335.299 248.51C334.073 248.51 333.079 249.504 333.079 250.73C333.079 251.956 334.073 252.95 335.299 252.95Z" fill="#FAFAFA"/>
<path d="M327.906 252.95C329.132 252.95 330.126 251.956 330.126 250.73C330.126 249.504 329.132 248.51 327.906 248.51C326.68 248.51 325.686 249.504 325.686 250.73C325.686 251.956 326.68 252.95 327.906 252.95Z" fill="#FAFAFA"/>
<path d="M320.513 252.95C321.74 252.95 322.734 251.956 322.734 250.73C322.734 249.504 321.74 248.51 320.513 248.51C319.287 248.51 318.293 249.504 318.293 250.73C318.293 251.956 319.287 252.95 320.513 252.95Z" fill="#FAFAFA"/>
<path d="M435.768 277.492H264.438V386.476H435.768V277.492Z" fill="#F5F5F5"/>
<path d="M435.768 277.492H264.438V284.873H435.768V277.492Z" fill="#E0E0E0"/>
<path d="M433.217 281.177C433.217 281.616 433.087 282.045 432.843 282.41C432.599 282.776 432.253 283.06 431.847 283.228C431.441 283.396 430.995 283.44 430.564 283.355C430.133 283.269 429.738 283.057 429.427 282.747C429.117 282.436 428.905 282.041 428.82 281.61C428.734 281.179 428.778 280.733 428.946 280.327C429.114 279.921 429.399 279.575 429.764 279.331C430.129 279.087 430.558 278.957 430.997 278.957C431.586 278.957 432.151 279.19 432.567 279.607C432.984 280.023 433.217 280.588 433.217 281.177Z" fill="#FAFAFA"/>
<path d="M425.824 281.177C425.824 281.616 425.694 282.045 425.45 282.41C425.206 282.776 424.859 283.06 424.454 283.228C424.048 283.396 423.602 283.44 423.171 283.355C422.74 283.269 422.345 283.057 422.034 282.747C421.724 282.436 421.512 282.041 421.426 281.61C421.341 281.179 421.385 280.733 421.553 280.327C421.721 279.921 422.005 279.575 422.371 279.331C422.736 279.087 423.165 278.957 423.604 278.957C424.193 278.957 424.758 279.19 425.174 279.607C425.591 280.023 425.824 280.588 425.824 281.177Z" fill="#FAFAFA"/>
<path d="M418.431 281.177C418.431 281.618 418.299 282.05 418.053 282.416C417.806 282.782 417.456 283.067 417.046 283.233C416.637 283.399 416.188 283.44 415.756 283.349C415.323 283.258 414.928 283.041 414.62 282.725C414.312 282.408 414.105 282.007 414.026 281.572C413.948 281.138 414 280.69 414.177 280.285C414.354 279.881 414.648 279.538 415.021 279.301C415.394 279.065 415.829 278.945 416.27 278.956C416.849 278.972 417.398 279.212 417.802 279.627C418.206 280.042 418.432 280.598 418.431 281.177Z" fill="#FAFAFA"/>
<path d="M313.781 37.6625H313.356C313.545 36.6458 313.644 35.6143 313.651 34.5801C313.648 30.0717 311.855 25.749 308.666 22.5622C305.477 19.3754 301.153 17.5852 296.645 17.5852H296.515C295.349 15.5778 293.666 13.9195 291.642 12.7829C289.617 11.6463 287.326 11.0729 285.005 11.1223C282.684 11.1718 280.418 11.8422 278.444 13.064C276.47 14.2858 274.86 16.0142 273.78 18.0694C272.597 17.7521 271.379 17.5893 270.154 17.5852C266.457 17.5857 262.903 19.0195 260.24 21.5852C257.578 24.151 256.013 27.649 255.876 31.3441C253.709 32.9793 252.109 35.2523 251.3 37.8436C250.491 40.435 250.515 43.2146 251.367 45.7921C252.219 48.3695 253.857 50.6152 256.051 52.2137C258.245 53.8123 260.885 54.6834 263.6 54.7046C264.647 54.7024 265.69 54.5715 266.706 54.3149H311.23C312.056 54.5715 312.916 54.7029 313.781 54.7046C316.043 54.7046 318.211 53.8062 319.811 52.2071C321.41 50.608 322.308 48.4392 322.308 46.1777C322.308 43.9162 321.41 41.7473 319.811 40.1482C318.211 38.5491 316.043 37.6507 313.781 37.6507V37.6625Z" fill="#EBEBEB"/>
<path d="M450.153 71.1799H449.823C449.97 70.4012 450.046 69.6104 450.047 68.8178C450.047 65.3724 448.678 62.068 446.242 59.6317C443.806 57.1954 440.501 55.8266 437.056 55.8266H436.961C436.072 54.2852 434.785 53.0109 433.235 52.1371C431.685 51.2632 429.928 50.822 428.149 50.8594C426.37 50.8968 424.633 51.4115 423.121 52.3498C421.609 53.288 420.377 54.6153 419.553 56.1928C417.967 55.764 416.305 55.6999 414.691 56.0052C413.077 56.3106 411.554 56.9775 410.234 57.9559C408.915 58.9344 407.834 60.1989 407.074 61.6546C406.313 63.1104 405.892 64.7195 405.841 66.3613C404.162 67.6013 402.917 69.3402 402.284 71.3298C401.651 73.3194 401.663 75.458 402.317 77.4405C402.972 79.423 404.236 81.1481 405.93 82.3695C407.623 83.5909 409.659 84.2462 411.747 84.2419C412.673 84.2392 413.596 84.108 414.486 83.8522H447.957C448.853 84.1767 449.81 84.3009 450.76 84.216C451.71 84.1311 452.63 83.8391 453.455 83.3606C454.28 82.8822 454.991 82.2288 455.536 81.4465C456.082 80.6641 456.449 79.7718 456.613 78.8322C456.777 77.8926 456.733 76.9286 456.484 76.0078C456.235 75.087 455.788 74.2319 455.173 73.5026C454.559 72.7732 453.792 72.1873 452.927 71.786C452.061 71.3848 451.119 71.1779 450.165 71.1799H450.153Z" fill="#EBEBEB"/>
<path d="M180.881 80.6281H180.551C180.698 79.8494 180.774 79.0587 180.775 78.2661C180.775 74.8206 179.406 71.5163 176.97 69.0799C174.534 66.6436 171.229 65.2749 167.784 65.2749H167.689C166.8 63.7334 165.513 62.4591 163.963 61.5853C162.413 60.7115 160.656 60.2702 158.877 60.3076C157.098 60.345 155.361 60.8598 153.849 61.798C152.337 62.7362 151.105 64.0635 150.281 65.641C148.695 65.2122 147.033 65.1481 145.419 65.4535C143.806 65.7588 142.282 66.4258 140.962 67.4042C139.643 68.3826 138.562 69.6471 137.802 71.1029C137.041 72.5586 136.62 74.1678 136.569 75.8096C134.89 77.0496 133.645 78.7884 133.012 80.778C132.379 82.7676 132.391 84.9063 133.045 86.8888C133.7 88.8713 134.964 90.5963 136.658 91.8177C138.351 93.0391 140.387 93.6944 142.475 93.6902C143.402 93.6874 144.324 93.5562 145.215 93.3004H178.685C179.581 93.625 180.538 93.7492 181.488 93.6642C182.438 93.5793 183.358 93.2873 184.183 92.8089C185.008 92.3304 185.719 91.677 186.264 90.8947C186.81 90.1124 187.177 89.22 187.341 88.2805C187.505 87.3409 187.461 86.3768 187.212 85.456C186.963 84.5353 186.516 83.6802 185.901 82.9508C185.287 82.2215 184.52 81.6356 183.655 81.2343C182.789 80.833 181.847 80.6261 180.893 80.6281H180.881Z" fill="#EBEBEB"/>
<path d="M93.5921 344.597L92.104 342.495C91.8343 342.123 91.4788 341.821 91.0676 341.615C90.6564 341.41 90.2016 341.306 89.742 341.314H79.3254C78.8921 341.307 78.4644 341.412 78.0837 341.619C77.7029 341.826 77.3821 342.128 77.1523 342.495L75.9713 344.562C75.7406 344.928 75.4196 345.23 75.0391 345.436C74.6586 345.643 74.2313 345.749 73.7982 345.743H67.4916C67.1422 345.74 66.796 345.81 66.475 345.948C66.1539 346.086 65.865 346.289 65.6264 346.544C65.3878 346.8 65.2047 347.102 65.0887 347.431C64.9727 347.761 64.9263 348.111 64.9524 348.459L66.9719 383.406C67.0221 384.134 67.3434 384.817 67.8725 385.32C68.4017 385.823 69.1001 386.109 69.83 386.122H119.326C119.676 386.125 120.022 386.055 120.343 385.917C120.664 385.779 120.953 385.576 121.192 385.321C121.43 385.065 121.613 384.763 121.729 384.434C121.845 384.104 121.892 383.754 121.866 383.406L119.834 348.53C119.79 347.802 119.472 347.117 118.944 346.614C118.416 346.11 117.718 345.824 116.988 345.814H95.9069C95.4526 345.807 95.0064 345.693 94.6042 345.482C94.2021 345.271 93.8553 344.968 93.5921 344.597Z" fill="#E0E0E0"/>
<path d="M121.937 349.144H76.5856C75.6583 349.156 74.7675 349.508 74.082 350.133C73.3964 350.757 72.9636 351.611 72.8654 352.534L70.1373 382.803C70.0919 383.236 70.1393 383.674 70.2762 384.088C70.4131 384.501 70.6364 384.881 70.9313 385.202C71.2262 385.522 71.5859 385.776 71.9866 385.947C72.3872 386.118 72.8197 386.202 73.2552 386.193H118.653C119.581 386.178 120.472 385.826 121.159 385.202C121.846 384.578 122.282 383.725 122.386 382.803L125.114 352.534C125.162 352.095 125.114 351.651 124.975 351.232C124.835 350.814 124.607 350.43 124.305 350.108C124.003 349.786 123.635 349.533 123.226 349.367C122.818 349.2 122.378 349.124 121.937 349.144Z" fill="#F0F0F0"/>
<path d="M493.875 345.093L492.398 343.027C492.127 342.656 491.771 342.355 491.361 342.15C490.95 341.944 490.496 341.84 490.036 341.846H479.573C479.139 341.836 478.71 341.94 478.329 342.147C477.948 342.355 477.628 342.658 477.399 343.027L476.148 345.093C475.918 345.461 475.597 345.762 475.216 345.969C474.835 346.176 474.408 346.281 473.974 346.274H467.727C467.378 346.272 467.031 346.342 466.71 346.48C466.389 346.617 466.1 346.82 465.862 347.076C465.623 347.331 465.44 347.633 465.324 347.963C465.208 348.292 465.162 348.642 465.188 348.991L467.219 383.937C467.264 384.665 467.582 385.35 468.109 385.853C468.637 386.357 469.336 386.643 470.065 386.653H519.609C519.958 386.656 520.305 386.586 520.626 386.448C520.947 386.31 521.236 386.107 521.474 385.852C521.713 385.597 521.896 385.295 522.012 384.965C522.128 384.636 522.174 384.285 522.148 383.937L520.129 348.991C520.079 348.262 519.757 347.579 519.228 347.077C518.699 346.574 518 346.287 517.271 346.274H496.189C495.738 346.272 495.294 346.163 494.892 345.958C494.49 345.753 494.142 345.457 493.875 345.093Z" fill="#E0E0E0"/>
<path d="M522.219 349.64H476.88C475.951 349.652 475.059 350.003 474.372 350.628C473.684 351.252 473.249 352.107 473.148 353.03L470.42 383.299C470.374 383.733 470.422 384.171 470.559 384.584C470.696 384.998 470.919 385.377 471.214 385.698C471.509 386.018 471.868 386.273 472.269 386.443C472.67 386.614 473.102 386.698 473.538 386.689H518.877C519.805 386.675 520.696 386.322 521.383 385.699C522.07 385.075 522.506 384.222 522.609 383.299L525.337 353.03C525.384 352.596 525.338 352.158 525.202 351.743C525.066 351.329 524.843 350.948 524.548 350.627C524.252 350.306 523.892 350.052 523.49 349.882C523.089 349.712 522.655 349.629 522.219 349.64Z" fill="#F0F0F0"/>
<path d="M351.314 316.855L349.826 314.789C349.556 314.416 349.2 314.115 348.789 313.909C348.378 313.703 347.923 313.6 347.464 313.608H337C336.567 313.601 336.139 313.706 335.758 313.913C335.377 314.119 335.057 314.421 334.827 314.789L333.599 316.855C333.368 317.222 333.047 317.523 332.666 317.73C332.286 317.937 331.859 318.042 331.425 318.036H325.178C324.828 318.034 324.482 318.104 324.161 318.242C323.84 318.38 323.551 318.583 323.313 318.838C323.074 319.093 322.891 319.395 322.775 319.725C322.659 320.054 322.613 320.404 322.639 320.753L324.658 355.699C324.708 356.427 325.03 357.11 325.559 357.613C326.088 358.116 326.786 358.402 327.516 358.415H377.001C377.351 358.42 377.698 358.351 378.02 358.214C378.342 358.076 378.631 357.874 378.87 357.618C379.109 357.362 379.292 357.059 379.408 356.729C379.523 356.399 379.568 356.048 379.54 355.699L377.521 320.753C377.476 320.025 377.158 319.34 376.63 318.836C376.102 318.333 375.404 318.047 374.674 318.036H353.593C353.148 318.028 352.711 317.917 352.315 317.712C351.92 317.508 351.577 317.214 351.314 316.855Z" fill="#E0E0E0"/>
<path d="M379.658 321.402H334.307C333.381 321.417 332.491 321.769 331.806 322.393C331.121 323.018 330.688 323.87 330.587 324.792L327.859 355.061C327.812 355.495 327.858 355.933 327.994 356.348C328.13 356.762 328.353 357.143 328.648 357.464C328.944 357.785 329.304 358.039 329.706 358.209C330.107 358.379 330.541 358.462 330.977 358.451H376.316C377.244 358.436 378.135 358.084 378.822 357.46C379.509 356.836 379.945 355.983 380.048 355.061L382.729 324.78C382.776 324.351 382.731 323.917 382.598 323.506C382.464 323.096 382.245 322.719 381.955 322.399C381.664 322.08 381.309 321.826 380.914 321.654C380.518 321.482 380.09 321.396 379.658 321.402Z" fill="#F0F0F0"/>
<path d="M295.806 440C422.272 440 524.793 434.014 524.793 426.631C524.793 419.247 422.272 413.262 295.806 413.262C169.34 413.262 66.8184 419.247 66.8184 426.631C66.8184 434.014 169.34 440 295.806 440Z" fill="#F5F5F5"/>
<path d="M191.439 85.0452H73.7155C72.1697 85.0452 70.9165 86.2983 70.9165 87.8442V293.53C70.9165 295.076 72.1697 296.329 73.7155 296.329H191.439C192.985 296.329 194.238 295.076 194.238 293.53V87.8442C194.238 86.2983 192.985 85.0452 191.439 85.0452Z" fill="#129FC8"/>
<path opacity="0.7" d="M191.439 85.0452H73.7155C72.1697 85.0452 70.9165 86.2983 70.9165 87.8442V293.53C70.9165 295.076 72.1697 296.329 73.7155 296.329H191.439C192.985 296.329 194.238 295.076 194.238 293.53V87.8442C194.238 86.2983 192.985 85.0452 191.439 85.0452Z" fill="white"/>
<path d="M102.521 111.819H79.29V114.972H102.521V111.819Z" fill="#129FC8"/>
<path d="M102.521 118.905H79.29V122.058H102.521V118.905Z" fill="#129FC8"/>
<path d="M185.239 111.819H162.009V114.972H185.239V111.819Z" fill="#129FC8"/>
<path d="M141.931 97.2334H118.701V100.387H141.931V97.2334Z" fill="#129FC8"/>
<path d="M185.239 91.73H79.29V94.8833H185.239V91.73Z" fill="#129FC8"/>
<path d="M185.227 128.731H91.1001V131.885H185.227V128.731Z" fill="#129FC8"/>
<path d="M185.239 135.026H79.29V138.179H185.239V135.026Z" fill="#129FC8"/>
<path d="M185.239 141.332H79.29V144.486H185.239V141.332Z" fill="#129FC8"/>
<path d="M185.239 147.627H79.29V150.781H185.239V147.627Z" fill="#129FC8"/>
<path d="M173.417 153.922H79.29V157.075H173.417V153.922Z" fill="#129FC8"/>
<path d="M185.227 165.366H91.1001V168.52H185.227V165.366Z" fill="#129FC8"/>
<path d="M185.239 171.661H79.29V174.814H185.239V171.661Z" fill="#129FC8"/>
<path d="M185.239 177.968H79.29V181.121H185.239V177.968Z" fill="#129FC8"/>
<path d="M185.239 184.262H79.29V187.416H185.239V184.262Z" fill="#129FC8"/>
<path d="M173.417 190.557H79.29V193.711H173.417V190.557Z" fill="#129FC8"/>
<path d="M185.227 202.001H91.1001V205.155H185.227V202.001Z" fill="#129FC8"/>
<path d="M185.239 208.296H79.29V211.449H185.239V208.296Z" fill="#129FC8"/>
<path d="M185.239 214.603H79.29V217.756H185.239V214.603Z" fill="#129FC8"/>
<path d="M185.239 220.897H79.29V224.051H185.239V220.897Z" fill="#129FC8"/>
<path d="M173.417 227.192H79.29V230.346H173.417V227.192Z" fill="#129FC8"/>
<path d="M185.227 239.817H91.1001V242.971H185.227V239.817Z" fill="#129FC8"/>
<path d="M185.239 246.112H79.29V249.266H185.239V246.112Z" fill="#129FC8"/>
<path d="M185.239 252.419H79.29V255.572H185.239V252.419Z" fill="#129FC8"/>
<path d="M185.239 258.714H79.29V261.867H185.239V258.714Z" fill="#129FC8"/>
<path d="M173.417 265.009H79.29V268.162H173.417V265.009Z" fill="#129FC8"/>
<path d="M185.239 283.173H162.009V286.326H185.239V283.173Z" fill="#129FC8"/>
<g opacity="0.2">
<path d="M102.521 111.819H79.29V114.972H102.521V111.819Z" fill="white"/>
<path d="M102.521 118.905H79.29V122.059H102.521V118.905Z" fill="white"/>
<path d="M185.239 111.819H162.009V114.972H185.239V111.819Z" fill="white"/>
<path d="M141.931 97.2334H118.701V100.387H141.931V97.2334Z" fill="white"/>
<path d="M185.239 91.73H79.29V94.8833H185.239V91.73Z" fill="white"/>
<path d="M185.227 128.731H91.1001V131.885H185.227V128.731Z" fill="white"/>
<path d="M185.239 135.026H79.29V138.179H185.239V135.026Z" fill="white"/>
<path d="M185.239 141.333H79.29V144.486H185.239V141.333Z" fill="white"/>
<path d="M185.239 147.627H79.29V150.781H185.239V147.627Z" fill="white"/>
<path d="M173.417 153.922H79.29V157.076H173.417V153.922Z" fill="white"/>
<path d="M185.227 165.366H91.1001V168.52H185.227V165.366Z" fill="white"/>
<path d="M185.239 171.661H79.29V174.814H185.239V171.661Z" fill="white"/>
<path d="M185.239 177.968H79.29V181.121H185.239V177.968Z" fill="white"/>
<path d="M185.239 184.262H79.29V187.416H185.239V184.262Z" fill="white"/>
<path d="M173.417 190.557H79.29V193.711H173.417V190.557Z" fill="white"/>
<path d="M185.227 202.001H91.1001V205.155H185.227V202.001Z" fill="white"/>
<path d="M185.239 208.296H79.29V211.45H185.239V208.296Z" fill="white"/>
<path d="M185.239 214.603H79.29V217.756H185.239V214.603Z" fill="white"/>
<path d="M185.239 220.898H79.29V224.051H185.239V220.898Z" fill="white"/>
<path d="M173.417 227.193H79.29V230.346H173.417V227.193Z" fill="white"/>
<path d="M185.227 239.818H91.1001V242.971H185.227V239.818Z" fill="white"/>
<path d="M185.239 246.113H79.29V249.266H185.239V246.113Z" fill="white"/>
<path d="M185.239 252.419H79.29V255.572H185.239V252.419Z" fill="white"/>
<path d="M185.239 258.714H79.29V261.867H185.239V258.714Z" fill="white"/>
<path d="M173.417 265.009H79.29V268.162H173.417V265.009Z" fill="white"/>
<path d="M185.239 283.173H162.009V286.326H185.239V283.173Z" fill="white"/>
</g>
<path opacity="0.1" d="M197.344 248.368H131.68C130.134 248.368 128.881 249.621 128.881 251.167V304.773C128.881 306.319 130.134 307.572 131.68 307.572H197.344C198.89 307.572 200.143 306.319 200.143 304.773V251.167C200.143 249.621 198.89 248.368 197.344 248.368Z" fill="black"/>
<path d="M206.131 259.576H140.466C138.921 259.576 137.667 260.829 137.667 262.375V315.981C137.667 317.527 138.921 318.78 140.466 318.78H206.131C207.677 318.78 208.93 317.527 208.93 315.981V262.375C208.93 260.829 207.677 259.576 206.131 259.576Z" fill="#129FC8"/>
<path opacity="0.3" d="M206.131 259.576H140.466C138.921 259.576 137.667 260.829 137.667 262.375V315.981C137.667 317.527 138.921 318.78 140.466 318.78H206.131C207.677 318.78 208.93 317.527 208.93 315.981V262.375C208.93 260.829 207.677 259.576 206.131 259.576Z" fill="white"/>
<path d="M158.808 294.073H144.636V301.159H158.808V294.073Z" fill="#129FC8"/>
<path d="M200.143 294.073H159.989V301.159H200.143V294.073Z" fill="#129FC8"/>
<path d="M158.808 284.625H144.636V292.892H158.808V284.625Z" fill="#129FC8"/>
<path d="M158.808 276.358H144.636V283.444H158.808V276.358Z" fill="#129FC8"/>
<path d="M200.143 284.625H159.989V292.892H200.143V284.625Z" fill="#129FC8"/>
<path d="M200.143 302.34H159.989V310.607H200.143V302.34Z" fill="#129FC8"/>
<path d="M200.143 276.358H159.989V283.444H200.143V276.358Z" fill="#129FC8"/>
<path d="M158.808 302.34H144.636V310.607H158.808V302.34Z" fill="#129FC8"/>
<path d="M158.808 266.91H144.636V275.177H158.808V266.91Z" fill="#129FC8"/>
<path d="M200.143 266.91H159.989V275.177H200.143V266.91Z" fill="#129FC8"/>
<path opacity="0.1" d="M217.741 145.997H152.076C150.53 145.997 149.277 147.25 149.277 148.796V202.402C149.277 203.948 150.53 205.202 152.076 205.202H217.741C219.287 205.202 220.54 203.948 220.54 202.402V148.796C220.54 147.25 219.287 145.997 217.741 145.997Z" fill="black"/>
<path d="M230.933 143.198H165.268C163.722 143.198 162.469 144.451 162.469 145.997V199.604C162.469 201.15 163.722 202.403 165.268 202.403H230.933C232.478 202.403 233.732 201.15 233.732 199.604V145.997C233.732 144.451 232.478 143.198 230.933 143.198Z" fill="#129FC8"/>
<path opacity="0.3" d="M230.933 143.198H165.268C163.722 143.198 162.469 144.451 162.469 145.997V199.604C162.469 201.15 163.722 202.403 165.268 202.403H230.933C232.478 202.403 233.732 201.15 233.732 199.604V145.997C233.732 144.451 232.478 143.198 230.933 143.198Z" fill="white"/>
<path d="M226.126 151.17H208.411V159.437H226.126V151.17Z" fill="#129FC8"/>
<path d="M207.23 151.17H189.514V159.437H207.23V151.17Z" fill="#129FC8"/>
<path d="M207.23 159.437H189.514V194.868H207.23V159.437Z" fill="#129FC8"/>
<path d="M226.126 159.437H208.411V194.868H226.126V159.437Z" fill="#129FC8"/>
<path d="M188.333 151.17H170.618V159.437H188.333V151.17Z" fill="#129FC8"/>
<path d="M188.333 159.437H170.618V194.868H188.333V159.437Z" fill="#129FC8"/>
<path opacity="0.1" d="M240.062 208.131H174.397C172.851 208.131 171.598 209.384 171.598 210.93V264.536C171.598 266.082 172.851 267.335 174.397 267.335H240.062C241.608 267.335 242.861 266.082 242.861 264.536V210.93C242.861 209.384 241.608 208.131 240.062 208.131Z" fill="black"/>
<path d="M264.001 204.34H198.337C196.791 204.34 195.538 205.593 195.538 207.139V260.745C195.538 262.291 196.791 263.544 198.337 263.544H264.001C265.547 263.544 266.8 262.291 266.8 260.745V207.139C266.8 205.593 265.547 204.34 264.001 204.34Z" fill="#129FC8"/>
<path opacity="0.3" d="M264.001 204.34H198.337C196.791 204.34 195.538 205.593 195.538 207.139V260.745C195.538 262.291 196.791 263.544 198.337 263.544H264.001C265.547 263.544 266.8 262.291 266.8 260.745V207.139C266.8 205.593 265.547 204.34 264.001 204.34Z" fill="white"/>
<path d="M259.194 212.583H232.031V232.66H259.194V212.583Z" fill="#129FC8"/>
<path d="M230.85 212.583H203.687V232.66H230.85V212.583Z" fill="#129FC8"/>
<path d="M230.85 233.841H203.687V256.281H230.85V233.841Z" fill="#129FC8"/>
<path d="M259.194 233.841H232.031V256.281H259.194V233.841Z" fill="#129FC8"/>
<path opacity="0.2" d="M266.281 207.139V246.833H241.798C241.111 246.854 240.426 246.731 239.789 246.471C239.153 246.211 238.578 245.82 238.102 245.323C237.626 244.826 237.261 244.235 237.029 243.588C236.797 242.94 236.703 242.251 236.755 241.565V204.316H264.001C265.548 204.316 266.281 205.591 266.281 207.139Z" fill="black"/>
<path opacity="0.1" d="M241.55 90.3359H175.885C174.339 90.3359 173.086 91.5891 173.086 93.1349V146.741C173.086 148.287 174.339 149.54 175.885 149.54H241.55C243.096 149.54 244.349 148.287 244.349 146.741V93.1349C244.349 91.5891 243.096 90.3359 241.55 90.3359Z" fill="black"/>
<path d="M253.372 79.6951H187.707C186.162 79.6951 184.908 80.9482 184.908 82.4941V136.1C184.908 137.646 186.162 138.899 187.707 138.899H253.372C254.918 138.899 256.171 137.646 256.171 136.1V82.4941C256.171 80.9482 254.918 79.6951 253.372 79.6951Z" fill="#129FC8"/>
<path opacity="0.3" d="M253.372 79.6951H187.707C186.162 79.6951 184.908 80.9482 184.908 82.4941V136.1C184.908 137.646 186.162 138.899 187.707 138.899H253.372C254.918 138.899 256.171 137.646 256.171 136.1V82.4941C256.171 80.9482 254.918 79.6951 253.372 79.6951Z" fill="white"/>
<path d="M235.574 87.3953H213.135V93.3004H235.574V87.3953Z" fill="#129FC8"/>
<path d="M223.764 94.4812H213.135V131.093H223.764V94.4812Z" fill="#129FC8"/>
<path d="M248.565 87.3953H236.755V93.3004H248.565V87.3953Z" fill="#129FC8"/>
<path d="M248.565 94.4812H236.755V131.093H248.565V94.4812Z" fill="#129FC8"/>
<path d="M235.574 94.4812H224.945V131.093H235.574V94.4812Z" fill="#129FC8"/>
<path d="M211.954 94.4812H193.057V131.093H211.954V94.4812Z" fill="#129FC8"/>
<path d="M211.954 87.3953H193.057V93.3004H211.954V87.3953Z" fill="#129FC8"/>
<path d="M449.445 218.122H369.041C365.969 218.122 363.478 220.613 363.478 223.685V304.089C363.478 307.161 365.969 309.651 369.041 309.651H449.445C452.517 309.651 455.007 307.161 455.007 304.089V223.685C455.007 220.613 452.517 218.122 449.445 218.122Z" fill="#129FC8"/>
<path opacity="0.25" d="M443.433 230.086H375.43V297.699H443.433V230.086Z" fill="white"/>
<path opacity="0.25" d="M375.43 297.616L392.744 283.385L398.401 287.944L416.329 272.803L425.139 281.472L443.433 266.119V297.616H375.43Z" fill="white"/>
<path opacity="0.25" d="M375.43 297.617L390.087 270.122L407.212 272.792L420.014 256.068L433.194 258.442L443.433 248.215V297.617H375.43Z" fill="white"/>
<path opacity="0.25" d="M375.43 297.617L409.243 293.436L420.203 287.956L432.013 289.137L443.433 283.444V297.617H375.43Z" fill="white"/>
<path opacity="0.2" d="M445.795 218.489V227.937C445.731 229.482 445.089 230.947 443.995 232.041C442.901 233.135 441.436 233.778 439.89 233.842H373.753V261.572C373.677 263.063 373.012 264.462 371.905 265.463C370.798 266.464 369.339 266.984 367.848 266.91H363.124V223.685C363.124 220.614 365.958 218.489 369.029 218.489H445.795Z" fill="black"/>
<path d="M337.968 140.399H257.565C254.493 140.399 252.002 142.89 252.002 145.962V226.366C252.002 229.438 254.493 231.928 257.565 231.928H337.968C341.041 231.928 343.531 229.438 343.531 226.366V145.962C343.531 142.89 341.041 140.399 337.968 140.399Z" fill="#129FC8"/>
<path opacity="0.8" d="M309.399 149.954H285.767C285.2 149.954 284.74 150.414 284.74 150.981V164.315C284.74 164.883 285.2 165.343 285.767 165.343H309.399C309.967 165.343 310.427 164.883 310.427 164.315V150.981C310.427 150.414 309.967 149.954 309.399 149.954Z" fill="white"/>
<path opacity="0.6" d="M291.365 183.058H272.646C272.079 183.058 271.619 183.518 271.619 184.085V193.781C271.619 194.349 272.079 194.809 272.646 194.809H291.365C291.933 194.809 292.393 194.349 292.393 193.781V184.085C292.393 183.518 291.933 183.058 291.365 183.058Z" fill="white"/>
<path opacity="0.6" d="M322.887 183.058H304.167C303.6 183.058 303.14 183.518 303.14 184.085V193.781C303.14 194.349 303.6 194.809 304.167 194.809H322.887C323.454 194.809 323.914 194.349 323.914 193.781V184.085C323.914 183.518 323.454 183.058 322.887 183.058Z" fill="white"/>
<path opacity="0.4" d="M303.506 207.918H294.66C294.093 207.918 293.633 208.378 293.633 208.946V216.93C293.633 217.497 294.093 217.957 294.66 217.957H303.506C304.074 217.957 304.534 217.497 304.534 216.93V208.946C304.534 208.378 304.074 207.918 303.506 207.918Z" fill="white"/>
<path opacity="0.4" d="M317.348 207.918H308.502C307.934 207.918 307.474 208.378 307.474 208.946V216.93C307.474 217.497 307.934 217.957 308.502 217.957H317.348C317.915 217.957 318.375 217.497 318.375 216.93V208.946C318.375 208.378 317.915 207.918 317.348 207.918Z" fill="white"/>
<path opacity="0.4" d="M331.201 207.918H322.355C321.788 207.918 321.328 208.378 321.328 208.946V216.93C321.328 217.497 321.788 217.957 322.355 217.957H331.201C331.769 217.957 332.229 217.497 332.229 216.93V208.946C332.229 208.378 331.769 207.918 331.201 207.918Z" fill="white"/>
<path opacity="0.4" d="M271.465 207.918H262.619C262.052 207.918 261.592 208.378 261.592 208.946V216.93C261.592 217.497 262.052 217.957 262.619 217.957H271.465C272.033 217.957 272.493 217.497 272.493 216.93V208.946C272.493 208.378 272.033 207.918 271.465 207.918Z" fill="white"/>
<path opacity="0.4" d="M286.488 207.918H277.642C277.075 207.918 276.615 208.378 276.615 208.946V216.93C276.615 217.497 277.075 217.957 277.642 217.957H286.488C287.055 217.957 287.515 217.497 287.515 216.93V208.946C287.515 208.378 287.055 207.918 286.488 207.918Z" fill="white"/>
<g opacity="0.3">
<path d="M312.34 183.058H313.522V174.791H298.168V165.343H296.987V174.791H281.634V183.058H282.815V175.972H312.34V183.058Z" fill="white"/>
<path d="M281.634 201.954H266.281V207.859H267.462V203.135H281.634V207.859H282.815V194.868H281.634V201.954Z" fill="white"/>
<path d="M313.521 203.135V194.868H312.34V203.135H298.168V207.859H299.349V204.316H312.34V207.859H313.521V204.316H326.513V207.859H327.694V203.135H313.521Z" fill="white"/>
</g>
<path opacity="0.2" d="M343.047 145.962V172.429H278.173C276.616 172.377 275.135 171.741 274.025 170.646C272.916 169.552 272.259 168.08 272.186 166.524V140.541H337.98C338.677 140.536 339.368 140.675 340.009 140.951C340.649 141.226 341.226 141.631 341.702 142.14C342.178 142.65 342.544 143.253 342.775 143.91C343.006 144.568 343.099 145.267 343.047 145.962Z" fill="black"/>
<path d="M463.475 100.611H383.071C379.999 100.611 377.509 103.101 377.509 106.173V186.577C377.509 189.649 379.999 192.14 383.071 192.14H463.475C466.547 192.14 469.038 189.649 469.038 186.577V106.173C469.038 103.101 466.547 100.611 463.475 100.611Z" fill="#129FC8"/>
<path opacity="0.25" d="M457.275 112.563H389.272V180.176H457.275V112.563Z" fill="white"/>
<path opacity="0.35" d="M403.066 154.123H396.216V171.685H403.066V154.123Z" fill="white"/>
<path opacity="0.35" d="M403.066 154.123H396.216V180.176H403.066V154.123Z" fill="white"/>
<path opacity="0.35" d="M414.876 141.817H408.026V167.669H414.876V141.817Z" fill="white"/>
<path opacity="0.35" d="M414.876 141.817H408.026V180.176H414.876V141.817Z" fill="white"/>
<path opacity="0.35" d="M426.698 149.387H419.848V170.137H426.698V149.387Z" fill="white"/>
<path opacity="0.35" d="M426.698 149.387H419.848V180.176H426.698V149.387Z" fill="white"/>
<path opacity="0.35" d="M438.52 138.758H431.67V166.677H438.52V138.758Z" fill="white"/>
<path opacity="0.35" d="M438.52 138.758H431.67V180.176H438.52V138.758Z" fill="white"/>
<path opacity="0.35" d="M450.33 122.519H443.48V161.374H450.33V122.519Z" fill="white"/>
<path opacity="0.35" d="M450.33 122.519H443.48V180.176H450.33V122.519Z" fill="white"/>
<path opacity="0.2" d="M402.098 100.386V150.462C402.06 151.938 401.439 153.34 400.369 154.358C399.3 155.377 397.87 155.929 396.393 155.894H377.296V106.162C377.329 104.642 377.947 103.194 379.02 102.119C380.093 101.043 381.54 100.423 383.06 100.386H402.098Z" fill="black"/>
<path d="M387.996 37.8398H307.593C304.52 37.8398 302.03 40.3303 302.03 43.4024V123.806C302.03 126.878 304.52 129.369 307.593 129.369H387.996C391.068 129.369 393.559 126.878 393.559 123.806V43.4024C393.559 40.3303 391.068 37.8398 387.996 37.8398Z" fill="#129FC8"/>
<path opacity="0.25" d="M377.433 88.4166C380.089 72.0568 368.979 56.6418 352.62 53.9863C336.26 51.3307 320.845 62.4402 318.189 78.7999C315.534 95.1597 326.643 110.575 343.003 113.23C359.363 115.886 374.778 104.776 377.433 88.4166Z" fill="white"/>
<path opacity="0.25" d="M347.771 83.6045L377.296 89.2025C376.232 94.7955 373.599 99.9703 369.704 104.123C365.809 108.275 360.813 111.234 355.299 112.654C349.786 114.074 343.982 113.896 338.566 112.141C333.15 110.387 328.345 107.127 324.711 102.744C321.078 98.3607 318.767 93.0343 318.047 87.3867C317.327 81.739 318.229 76.0031 320.646 70.8486C323.064 65.6941 326.898 61.3338 331.701 58.2766C336.504 55.2194 342.077 53.5915 347.771 53.583V83.6045Z" fill="white"/>
<path opacity="0.25" d="M347.771 83.6045V113.614C339.913 113.448 332.434 110.207 326.94 104.587C321.446 98.9675 318.374 91.4174 318.385 83.558C318.396 75.6987 321.488 68.1571 326.998 62.5526C332.508 56.948 339.996 53.7277 347.854 53.583L347.771 83.6045Z" fill="white"/>
<path opacity="0.25" d="M347.771 83.6041L331.957 58.0941C334.303 56.6322 336.844 55.5071 339.504 54.7518C342.16 53.9821 344.91 53.5846 347.676 53.5708L347.771 83.6041Z" fill="white"/>
<path d="M506.323 142.903C506.323 142.903 522.266 170.846 523.447 177.542C524.628 184.239 509.866 227.051 509.866 227.051C509.866 227.051 513.113 238.317 509.57 240.219C506.027 242.12 499.839 245.947 498.941 242.699C498.044 239.451 498.941 228.739 498.941 228.739L501.61 226.46C501.61 226.46 511.058 181.723 511.058 180.176C511.058 178.629 493.922 152.245 493.922 152.245L506.323 142.903Z" fill="#E4897B"/>
<path d="M447.543 415.754L437.965 416.758L437.481 411.207L436.17 396.102L445.748 395.086L447.201 411.774L447.543 415.754Z" fill="#E4897B"/>
<path d="M495.351 414.537H486.068L485.986 412.435L485.974 412.175L485.501 398.711L485.489 398.44L485.301 393.279H494.595L495.351 414.537Z" fill="#E4897B"/>
<path opacity="0.2" d="M445.748 395.086L447.201 411.774L437.481 411.207L436.17 396.102L445.748 395.086Z" fill="black"/>
<path opacity="0.2" d="M495.292 413.356H495.28L485.986 412.175H485.974L485.49 399.184H485.501L494.808 399.928L495.28 412.943L495.292 413.356Z" fill="black"/>
<path d="M516.987 156.284L501.008 167.149L500.701 166.76L491.005 154.123L485.1 146.375L493.875 122.519C503.96 126.369 516.987 156.284 516.987 156.284Z" fill="#263238"/>
<path opacity="0.2" d="M500.701 166.76L491.005 154.123L498.788 142.183C498.788 142.183 503.547 154.512 500.701 166.76Z" fill="black"/>
<path d="M484.769 413.982H496.048C496.233 413.981 496.413 414.044 496.557 414.16C496.701 414.276 496.801 414.439 496.839 414.62L498.67 422.887C498.708 423.088 498.701 423.294 498.651 423.492C498.6 423.69 498.507 423.874 498.377 424.031C498.248 424.189 498.085 424.317 497.901 424.404C497.717 424.492 497.516 424.539 497.311 424.54C493.662 424.481 491.005 424.257 486.422 424.257C483.6 424.257 475.085 424.552 471.187 424.552C467.29 424.552 466.782 420.702 468.376 420.348C475.533 418.789 480.919 416.628 483.21 414.573C483.634 414.182 484.193 413.97 484.769 413.982Z" fill="#263238"/>
<path d="M436.949 413.687H448.228C448.413 413.686 448.593 413.749 448.737 413.865C448.882 413.981 448.981 414.144 449.019 414.325L450.85 422.592C450.888 422.793 450.882 422.999 450.831 423.197C450.781 423.395 450.687 423.579 450.558 423.737C450.428 423.894 450.266 424.022 450.081 424.11C449.897 424.198 449.696 424.244 449.492 424.246C445.842 424.186 443.185 423.962 438.603 423.962C435.78 423.962 427.265 424.257 423.368 424.257C419.47 424.257 418.963 420.407 420.557 420.053C427.714 418.494 433.099 416.333 435.39 414.278C435.814 413.887 436.373 413.675 436.949 413.687Z" fill="#263238"/>
<path d="M435.296 409.813H448.913C448.913 409.813 447.803 292.597 462.531 253.009C463.57 266.095 464.739 279.665 465.885 290.979C466.593 297.983 467.314 303.97 467.987 308.588C472.274 338.114 483.08 410.994 483.08 410.994H496.579C496.579 410.994 494.973 341.149 493.391 312.143C491.631 280.645 490.875 211.402 490.792 205.497H441.497C436.808 230.298 424.785 329.504 435.296 409.813Z" fill="#129FC8"/>
<path opacity="0.6" d="M435.296 409.813H448.913C448.913 409.813 447.803 292.597 462.531 253.009C463.57 266.095 464.739 279.665 465.885 290.979C466.593 297.983 467.314 303.97 467.987 308.588C472.274 338.114 483.08 410.994 483.08 410.994H496.579C496.579 410.994 494.973 341.149 493.391 312.143C491.631 280.645 490.875 211.402 490.792 205.497H441.497C436.808 230.298 424.785 329.504 435.296 409.813Z" fill="white"/>
<path d="M459.377 101.414C459.495 101.863 459.625 102.311 459.779 102.725C460.889 105.824 463.135 108.386 466.062 109.894C468.302 111.09 470.872 111.521 473.38 111.12C475.887 110.719 478.195 109.509 479.95 107.673C484.604 102.949 484.486 97.552 485.005 88.3754C485.165 86.2318 484.773 84.083 483.867 82.1337C482.961 80.1845 481.57 78.4997 479.829 77.2399C478.087 75.9801 476.052 75.1872 473.917 74.9368C471.782 74.6864 469.618 74.9868 467.632 75.8094C458.621 79.4824 457.393 93.1468 459.377 101.414Z" fill="#E4897B"/>
<path opacity="0.2" d="M464.373 108.854C464.909 109.243 465.473 109.591 466.062 109.894C467.599 110.709 469.299 111.172 471.038 111.247C472.776 111.323 474.51 111.01 476.112 110.331C475.704 109.224 475.153 108.175 474.471 107.213C471.017 106.781 467.512 107.35 464.373 108.854Z" fill="black"/>
<path d="M482.856 120.759C478.332 124.869 467.254 123.346 467.254 123.346C467.254 123.346 460.334 121.456 461.786 119.295C465.861 118.621 467.833 116.72 468.648 114.287C469.094 112.779 469.235 111.197 469.061 109.634C468.994 108.762 468.879 107.895 468.719 107.036L482.407 96.8435C480.624 103.587 478.427 115.905 482.856 120.759Z" fill="#E4897B"/>
<path d="M463.782 81.9509C463.877 82.2107 463.641 82.7422 463.464 83.3445C463.134 84.5249 462.967 85.7447 462.968 86.9702C463.006 88.9675 463.443 90.9371 464.254 92.7626C465.066 94.5881 466.235 96.2327 467.692 97.5994C468.715 101.312 470.1 104.915 471.825 108.358C471.973 108.714 472.209 109.027 472.51 109.268C472.917 109.479 473.379 109.557 473.833 109.492L481.84 109.221C482.074 109.244 482.311 109.216 482.533 109.138C482.756 109.061 482.959 108.936 483.127 108.772C483.25 108.542 483.349 108.301 483.423 108.051C484.143 106.327 487.19 107.142 488.241 105.595C488.547 104.894 488.758 104.155 488.867 103.398C489.529 101.485 492.233 100.493 492.139 98.4615C492.08 97.2805 490.958 96.2176 491.336 95.0838C491.714 93.95 493.107 93.5957 493.698 92.58C494.288 91.5644 493.698 90.218 493.048 89.2732C492.665 88.8255 492.378 88.3045 492.203 87.7421C492.029 87.1796 491.971 86.5875 492.032 86.0018C492.196 85.5657 492.402 85.1464 492.647 84.7499C493.024 83.9523 493.15 83.059 493.009 82.1881C492.868 81.3172 492.465 80.5096 491.855 79.8723C491.297 79.4367 490.804 78.9237 490.391 78.3488C489.848 77.3213 490.308 75.9867 489.647 74.9592C488.985 73.9318 487.627 73.9672 486.47 74.0381C485.312 74.1089 483.942 74.0381 483.257 73.1641C482.761 72.4909 482.785 71.5343 482.242 70.9084C481.462 70.0344 480.045 70.2706 478.947 70.7076C477.848 71.1446 476.644 71.6996 475.581 71.2154C474.837 70.8729 474.4 70.1171 473.727 69.6683C473.25 69.3602 472.688 69.2114 472.121 69.2432C471.554 69.2751 471.012 69.4859 470.573 69.8454C469.983 70.3533 469.628 71.1209 468.955 71.5225C467.927 71.9296 466.783 71.9296 465.755 71.5225C465.243 71.3185 464.686 71.2579 464.143 71.3474C463.6 71.4369 463.091 71.673 462.672 72.0303C461.68 73.2113 462.755 75.3136 461.739 76.5064C461.161 77.1914 460.098 77.2859 459.472 77.9236C459.279 78.1546 459.147 78.4296 459.087 78.7241C459.027 79.0186 459.041 79.3233 459.128 79.6111C459.214 79.8989 459.371 80.1608 459.584 80.3733C459.796 80.5858 460.058 80.7423 460.346 80.8289C460.7 80.8998 461.161 80.9234 461.29 81.2541C461.326 81.4016 461.349 81.5517 461.361 81.7029C461.491 82.1635 462.141 82.1871 462.542 82.0335C463.369 81.7147 463.7 81.7383 463.782 81.9509Z" fill="#263238"/>
<path d="M469.593 93.7139C469.419 94.5783 469.055 95.393 468.525 96.098C467.996 96.8031 467.316 97.3807 466.534 97.7884C464.668 98.5797 463.44 95.946 463.711 93.1943C463.971 90.7377 465.235 87.2892 467.254 87.7498C469.274 88.2104 470.242 91.2456 469.593 93.7139Z" fill="#E4897B"/>
<path opacity="0.2" d="M462.531 252.951C463.57 266.036 464.739 279.642 465.885 290.956C467.562 274.622 469.617 262.977 469.617 262.977C469.617 262.977 471.542 261.395 476.833 252.951C482.124 244.506 476.833 228.74 476.833 228.74C476.998 243.384 462.531 252.951 462.531 252.951Z" fill="black"/>
<path d="M493.036 215.335L436.737 212.583C437.982 192.077 440.483 171.666 444.225 151.466C445.763 143.351 447.734 135.324 450.13 127.42C451.349 123.41 452.78 119.468 454.417 115.61C454.417 115.61 489.41 118.492 496.579 124.007C503.748 129.522 492.646 186.601 493.036 215.335Z" fill="#263238"/>
<path d="M463.676 116.543C463.676 116.543 469.026 112.338 479.029 112.563C489.032 112.787 490.048 116.543 490.048 116.543C490.048 116.543 501.067 122.034 492.41 131.093C483.753 140.151 466.699 117.204 466.699 117.204L463.676 116.543Z" fill="#263238"/>
<path opacity="0.25" d="M463.676 116.543C463.676 116.543 469.026 112.338 479.029 112.563C489.032 112.787 490.048 116.543 490.048 116.543C490.048 116.543 501.067 122.034 492.41 131.093C483.753 140.151 466.699 117.204 466.699 117.204L463.676 116.543Z" fill="white"/>
<path opacity="0.2" d="M455.303 128.14C455.303 128.14 452.882 144.084 444.225 151.465C445.763 143.351 447.734 135.324 450.13 127.42L455.303 128.14Z" fill="black"/>
<path d="M448.086 115.811C448.086 115.811 413.117 108.666 408.204 106.788C403.29 104.91 377.296 80.0613 377.296 80.0613L371.604 84.3602C371.604 84.3602 391.079 109.634 400.822 116.921C410.566 124.208 444.614 135.215 444.614 135.215L448.086 115.811Z" fill="#E4897B"/>
<path d="M455.385 115.811L424.927 110.248L424.147 131.294L446.906 140.541C446.906 140.541 461.255 126.145 455.385 115.811Z" fill="#263238"/>
<path d="M377.297 80.061C374.497 76.8604 364.305 69.9515 362.805 69.3609C361.306 68.7704 359.132 77.8052 359.569 78.9862C360.006 80.1673 365.014 82.671 367.541 82.9663C370.069 83.2615 372.761 85.848 372.761 85.848L377.297 80.061Z" fill="#E4897B"/>
<path d="M423.274 109.48L426.616 110.248L425.092 131.672L421.892 130.502L423.274 109.48Z" fill="#263238"/>
<path opacity="0.25" d="M423.274 109.48L426.616 110.248L425.092 131.672L421.892 130.502L423.274 109.48Z" fill="white"/>
<path d="M498.941 166.972L516.987 154.749L518.227 157.867L501.032 168.685L498.941 166.972Z" fill="#263238"/>
<path opacity="0.25" d="M498.941 166.972L516.987 154.749L518.227 157.867L501.032 168.685L498.941 166.972Z" fill="white"/>
<path d="M433.761 405.975L434.434 409.813H450.519V406.27L433.761 405.975Z" fill="#129FC8"/>
<path d="M481.545 407.451L483.08 410.994H496.579L497.465 407.451H481.545Z" fill="#129FC8"/>
</svg>
