<svg width="640" height="477" viewBox="0 0 640 477" fill="none" xmlns="http://www.w3.org/2000/svg">
<path d="M575.872 439.667H533.478V439.987H575.872V439.667Z" fill="#EBEBEB"/>
<path d="M423.962 443.149H412.838V443.469H423.962V443.149Z" fill="#EBEBEB"/>
<path d="M532.198 427.789H507.635V428.109H532.198V427.789Z" fill="#EBEBEB"/>
<path d="M122.432 429.939H67.1489V430.259H122.432V429.939Z" fill="#EBEBEB"/>
<path d="M141.939 429.939H133.837V430.259H141.939V429.939Z" fill="#EBEBEB"/>
<path d="M288.192 435.34H168.282V435.66H288.192V435.34Z" fill="#EBEBEB"/>
<path d="M305.152 361.984H57.9838C56.0454 361.984 54.1864 361.214 52.8157 359.843C51.4451 358.473 50.675 356.614 50.675 354.675V7.2448C50.6919 5.3175 51.4694 3.47488 52.8382 2.11802C54.2071 0.761168 56.0565 -7.38892e-05 57.9838 5.37926e-09H305.152C306.112 5.37927e-09 307.062 0.189046 307.949 0.556348C308.836 0.923649 309.641 1.46201 310.32 2.1407C310.999 2.81938 311.537 3.6251 311.904 4.51185C312.272 5.39859 312.461 6.34899 312.461 7.3088V354.675C312.461 355.635 312.272 356.585 311.904 357.472C311.537 358.359 310.999 359.165 310.32 359.843C309.641 360.522 308.836 361.06 307.949 361.428C307.062 361.795 306.112 361.984 305.152 361.984ZM57.9838 0.256001C56.1313 0.259385 54.3557 0.996788 53.0458 2.30671C51.7358 3.61663 50.9984 5.39229 50.995 7.2448V354.675C50.9984 356.528 51.7358 358.303 53.0458 359.613C54.3557 360.923 56.1313 361.661 57.9838 361.664H305.152C307.004 361.661 308.78 360.923 310.09 359.613C311.4 358.303 312.137 356.528 312.141 354.675V7.2448C312.137 5.39229 311.4 3.61663 310.09 2.30671C308.78 0.996788 307.004 0.259385 305.152 0.256001H57.9838Z" fill="#EBEBEB"/>
<path d="M582.016 361.984H334.848C332.91 361.984 331.051 361.214 329.68 359.843C328.309 358.473 327.539 356.614 327.539 354.675V7.2448C327.556 5.3175 328.334 3.47488 329.702 2.11802C331.071 0.761168 332.921 -7.38892e-05 334.848 5.37926e-09H582.016C583.955 5.37928e-09 585.814 0.770032 587.184 2.1407C588.555 3.51136 589.325 5.37038 589.325 7.3088V354.675C589.325 356.614 588.555 358.473 587.184 359.843C585.814 361.214 583.955 361.984 582.016 361.984ZM334.848 0.256001C332.996 0.259385 331.22 0.996788 329.91 2.30671C328.6 3.61663 327.863 5.39229 327.859 7.2448V354.675C327.863 356.528 328.6 358.303 329.91 359.613C331.22 360.923 332.996 361.661 334.848 361.664H582.016C583.869 361.661 585.644 360.923 586.954 359.613C588.264 358.303 589.002 356.528 589.005 354.675V7.2448C589.002 5.39229 588.264 3.61663 586.954 2.30671C585.644 0.996788 583.869 0.259385 582.016 0.256001H334.848Z" fill="#EBEBEB"/>
<path d="M640 419.072H0V419.392H640V419.072Z" fill="#EBEBEB"/>
<path d="M217.101 88.6782H124.096V206.528H217.101V88.6782Z" fill="#F0F0F0"/>
<path d="M207.846 100.403H133.363V194.791H207.846V100.403Z" fill="#FAFAFA"/>
<path d="M116.915 206.528H124.109L124.109 88.6787H116.915L116.915 206.528Z" fill="#E0E0E0"/>
<path d="M181.44 149.056C185.437 153.053 187.683 158.474 187.683 164.128C187.683 169.781 185.437 175.202 181.44 179.2C177.443 183.197 172.021 185.443 166.368 185.443C160.715 185.443 155.293 183.197 151.296 179.2C142.963 170.867 173.107 140.723 181.44 149.056Z" fill="#F5F5F5"/>
<path d="M159.181 147.405C157.623 145.848 156.388 143.999 155.545 141.964C154.702 139.929 154.268 137.748 154.268 135.546C154.268 133.343 154.702 131.163 155.545 129.128C156.388 127.093 157.623 125.244 159.181 123.687C160.738 122.129 162.587 120.894 164.622 120.051C166.656 119.208 168.837 118.774 171.04 118.774C173.242 118.774 175.423 119.208 177.458 120.051C179.493 120.894 181.342 122.129 182.899 123.687C189.44 130.24 165.734 153.959 159.181 147.405Z" fill="#EBEBEB"/>
<path d="M499.815 254.362H488.768V419.84H499.815V254.362Z" fill="#F0F0F0"/>
<path d="M504.627 254.362H495.014V419.84H504.627V254.362Z" fill="#E6E6E6"/>
<path d="M388.441 254.362H377.395V419.84H388.441V254.362Z" fill="#F0F0F0"/>
<path d="M393.255 254.362H383.642V419.84H393.255V254.362Z" fill="#E6E6E6"/>
<path d="M541.696 254.362H530.65V419.84H541.696V254.362Z" fill="#F0F0F0"/>
<path d="M546.496 254.362H536.883V419.84H546.496V254.362Z" fill="#E6E6E6"/>
<path d="M430.324 254.362H419.277V419.84H430.324V254.362Z" fill="#F0F0F0"/>
<path d="M546.509 243.737H377.408V256.998H546.509V243.737Z" fill="#F0F0F0"/>
<path d="M425.523 243.737H377.408V256.998H425.523V243.737Z" fill="#E0E0E0"/>
<path d="M435.136 254.362H425.523V419.84H435.136V254.362Z" fill="#E6E6E6"/>
<path d="M156.877 244.583H86.144V419.84H156.877V244.583Z" fill="#E6E6E6"/>
<path d="M289.19 244.583H141.44V419.84H289.19V244.583Z" fill="#F5F5F5"/>
<path d="M238.848 255.642H262.976C265.498 255.642 267.994 256.138 270.324 257.103C272.653 258.068 274.77 259.482 276.553 261.265C278.336 263.048 279.75 265.165 280.715 267.494C281.68 269.824 282.176 272.32 282.176 274.842V411.136H219.674V274.816C219.681 269.733 221.703 264.86 225.297 261.265C228.892 257.671 233.765 255.648 238.848 255.642Z" fill="#EBEBEB"/>
<path d="M169.088 255.642H193.28C195.801 255.642 198.298 256.138 200.627 257.103C202.957 258.068 205.074 259.482 206.856 261.265C208.639 263.048 210.054 265.165 211.018 267.494C211.983 269.824 212.48 272.32 212.48 274.842V411.136H149.914V274.816C149.92 269.733 151.943 264.86 155.537 261.265C159.132 257.671 164.005 255.648 169.088 255.642Z" fill="#EBEBEB"/>
<path d="M206.771 332.211C206.696 333.42 206.27 334.58 205.544 335.549C204.818 336.518 203.824 337.254 202.685 337.666C201.546 338.077 200.312 338.147 199.134 337.865C197.956 337.584 196.886 336.965 196.056 336.083C195.226 335.202 194.671 334.097 194.461 332.904C194.251 331.711 194.395 330.483 194.874 329.371C195.353 328.259 196.147 327.311 197.158 326.645C198.168 325.978 199.352 325.621 200.563 325.619C201.404 325.644 202.231 325.834 202.998 326.179C203.765 326.524 204.457 327.016 205.033 327.629C205.61 328.241 206.06 328.961 206.358 329.747C206.657 330.533 206.797 331.371 206.771 332.211Z" fill="#E0E0E0"/>
<path d="M238.733 332.211C238.658 333.42 238.231 334.581 237.504 335.551C236.778 336.52 235.783 337.256 234.644 337.667C233.504 338.078 232.269 338.147 231.091 337.864C229.913 337.582 228.843 336.961 228.013 336.079C227.183 335.196 226.63 334.089 226.422 332.896C226.213 331.703 226.358 330.474 226.839 329.362C227.32 328.25 228.116 327.304 229.129 326.638C230.141 325.973 231.326 325.619 232.538 325.619C234.233 325.673 235.838 326.397 237 327.633C238.161 328.869 238.785 330.516 238.733 332.211Z" fill="#E0E0E0"/>
<path d="M320 476.173C457.066 476.173 568.179 469.686 568.179 461.683C568.179 453.681 457.066 447.194 320 447.194C182.934 447.194 71.8208 453.681 71.8208 461.683C71.8208 469.686 182.934 476.173 320 476.173Z" fill="#F5F5F5"/>
<path d="M374.426 426.74C374.31 408.423 368.87 397.185 364.314 390.99C361.73 387.234 358.341 384.103 354.394 381.825L354.97 380.622C355.174 380.724 375.539 390.862 375.77 426.702L374.426 426.74Z" fill="#26A37E"/>
<path d="M379.712 423.501L378.432 423.386C383.68 363.943 343.872 343.053 343.526 342.849L344.128 341.658C344.486 341.863 385.049 363.162 379.712 423.501Z" fill="#26A37E"/>
<path d="M384.205 425.716C382.784 391.86 386.368 354.228 386.406 353.844L387.686 353.972C387.686 354.356 384.077 391.899 385.498 425.652L384.205 425.716Z" fill="#26A37E"/>
<path d="M386.855 427.687C389.172 413.248 394.842 405.043 399.181 400.704C401.682 398.053 404.743 395.993 408.141 394.675L407.834 393.651C407.655 393.651 390.362 399.207 385.805 427.52L386.855 427.687Z" fill="#26A37E"/>
<g opacity="0.3">
<path d="M374.426 426.74C374.31 408.423 368.87 397.185 364.314 390.99C361.73 387.234 358.341 384.103 354.394 381.825L354.97 380.622C355.174 380.724 375.539 390.862 375.77 426.702L374.426 426.74Z" fill="white"/>
<path d="M379.712 423.501L378.432 423.386C383.68 363.943 343.872 343.053 343.526 342.849L344.128 341.658C344.486 341.863 385.049 363.162 379.712 423.501Z" fill="white"/>
<path d="M384.205 425.716C382.784 391.86 386.368 354.228 386.406 353.844L387.686 353.972C387.686 354.356 384.077 391.899 385.498 425.652L384.205 425.716Z" fill="white"/>
<path d="M386.854 427.687C389.171 413.248 394.841 405.043 399.181 400.704C401.681 398.053 404.743 395.993 408.141 394.675L407.833 393.651C407.654 393.651 390.361 399.207 385.805 427.52L386.854 427.687Z" fill="white"/>
</g>
<path d="M347.955 344.32C347.955 344.32 339.11 321.805 326.4 338.535C316.083 352.116 326.4 366.989 326.4 366.989C326.4 366.989 381.734 368.384 371.84 347.264C365.709 334.208 347.955 344.32 347.955 344.32Z" fill="#26A37E"/>
<g opacity="0.5">
<path d="M346.15 345.344C346.15 345.344 329.843 342.784 329.754 344.064C329.664 345.344 344.051 345.92 342.707 347.699C341.363 349.478 327.501 351.014 327.347 352.717C327.194 354.419 340.339 350.272 339.75 351.782C339.162 353.293 330.381 360.346 330.24 362.214C330.099 364.083 338.483 354.253 339.482 355.366C340.48 356.48 340.992 365.389 341.837 363.341C342.682 361.293 341.658 352.307 343.68 350.541C345.702 348.774 357.568 360 360.256 358.49C362.944 356.979 347.098 350.72 346.15 345.344Z" fill="white"/>
<path d="M354.675 346.24C354.675 346.24 368.243 346.419 368.653 350.08C369.063 353.741 366.08 349.863 354.675 346.24Z" fill="white"/>
</g>
<path d="M352.768 425.613L359.066 459.828C359.386 461.574 360.308 463.152 361.671 464.289C363.035 465.425 364.753 466.048 366.528 466.049H391.04C392.815 466.048 394.534 465.425 395.897 464.289C397.26 463.152 398.182 461.574 398.502 459.828L404.813 425.613C404.929 424.977 404.904 424.323 404.74 423.698C404.576 423.072 404.276 422.491 403.862 421.994C403.448 421.497 402.93 421.097 402.345 420.822C401.759 420.547 401.12 420.405 400.474 420.404H357.12C356.472 420.4 355.83 420.54 355.242 420.813C354.654 421.087 354.133 421.486 353.718 421.984C353.302 422.482 353.001 423.065 352.837 423.693C352.673 424.32 352.649 424.976 352.768 425.613Z" fill="#26A37E"/>
<path d="M348.941 383.796C348.941 383.796 333.735 370.906 331.021 388.007C328.832 401.882 342.08 408.666 342.08 408.666C342.08 408.666 382.797 388.186 367.373 376.666C357.901 369.575 348.941 383.796 348.941 383.796Z" fill="#26A37E"/>
<path opacity="0.2" d="M348.941 383.796C348.941 383.796 333.735 370.906 331.021 388.007C328.832 401.882 342.08 408.666 342.08 408.666C342.08 408.666 382.797 388.186 367.373 376.666C357.901 369.575 348.941 383.796 348.941 383.796Z" fill="black"/>
<g opacity="0.5">
<path d="M348.045 385.28C348.045 385.28 335.245 389.799 335.655 390.759C336.064 391.719 346.752 386.535 346.471 388.352C346.189 390.17 336.73 396.685 337.293 397.978C337.856 399.271 345.767 391.143 345.933 392.461C346.099 393.779 342.464 402.33 343.091 403.751C343.719 405.171 345.971 394.791 347.123 395.175C348.275 395.559 352.141 401.856 351.949 400.039C351.757 398.221 347.507 392.103 348.301 390.042C349.095 387.981 362.074 391.501 363.431 389.351C364.787 387.2 350.81 388.775 348.045 385.28Z" fill="white"/>
<path d="M354.56 382.606C354.56 382.606 364.48 377.486 366.195 379.93C367.91 382.375 364.288 380.788 354.56 382.606Z" fill="white"/>
</g>
<path d="M401.255 348.928C401.255 348.928 418.906 333.952 422.055 353.831C424.615 369.959 409.191 377.831 409.191 377.831C409.191 377.831 361.831 353.959 379.751 340.608C390.835 332.403 401.255 348.928 401.255 348.928Z" fill="#26A37E"/>
<path opacity="0.3" d="M401.255 348.928C401.255 348.928 418.906 333.952 422.055 353.831C424.615 369.959 409.191 377.831 409.191 377.831C409.191 377.831 361.831 353.959 379.751 340.608C390.835 332.403 401.255 348.928 401.255 348.928Z" fill="black"/>
<g opacity="0.5">
<path d="M402.291 350.72C402.291 350.72 417.19 355.981 416.691 357.12C416.192 358.259 403.789 352.205 404.109 354.317C404.429 356.429 415.437 363.994 414.784 365.504C414.131 367.015 404.941 357.555 404.749 359.104C404.557 360.653 408.768 370.624 408.038 372.224C407.309 373.824 404.698 361.767 403.354 362.253C402.01 362.739 397.53 370.023 397.747 367.911C397.965 365.799 402.867 358.682 401.984 356.288C401.101 353.895 385.984 357.991 384.397 355.482C382.81 352.973 399.066 354.714 402.291 350.72Z" fill="white"/>
<path d="M394.688 347.546C394.688 347.546 383.168 341.556 381.158 344.448C379.149 347.341 383.411 345.434 394.688 347.546Z" fill="white"/>
</g>
<path d="M411.61 394.241C411.61 394.241 423.514 382.03 427.2 396.379C430.182 408.027 419.43 414.875 419.43 414.875C419.43 414.875 383.104 400.641 395.315 389.582C402.829 382.798 411.61 394.241 411.61 394.241Z" fill="#26A37E"/>
<path opacity="0.4" d="M411.61 394.241C411.61 394.241 423.514 382.03 427.2 396.379C430.182 408.027 419.43 414.875 419.43 414.875C419.43 414.875 383.104 400.641 395.315 389.582C402.829 382.798 411.61 394.241 411.61 394.241Z" fill="black"/>
<g opacity="0.5">
<path d="M412.493 395.393C412.493 395.393 423.77 398.209 423.488 399.066C423.206 399.924 413.696 396.353 414.067 397.889C414.438 399.425 423.027 404.199 422.669 405.338C422.31 406.477 414.899 400.218 414.874 401.332C414.848 402.445 418.611 409.473 418.189 410.727C417.766 411.981 415.014 403.29 414.067 403.738C413.12 404.186 410.33 409.844 410.342 408.282C410.355 406.721 413.491 401.153 412.659 399.463C411.827 397.773 401.037 401.818 399.706 400.09C398.374 398.362 410.406 398.593 412.493 395.393Z" fill="white"/>
<path d="M406.694 393.638C406.694 393.638 397.837 390.042 396.57 392.358C395.302 394.675 398.298 392.87 406.694 393.638Z" fill="white"/>
</g>
<path d="M488.282 262.886H397.005C395.961 262.906 394.924 262.702 393.965 262.289C393.006 261.876 392.146 261.263 391.442 260.492C390.739 259.72 390.207 258.807 389.884 257.814C389.561 256.821 389.453 255.771 389.568 254.733L394.483 198.515C394.708 196.305 395.735 194.254 397.369 192.749C399.003 191.245 401.132 190.391 403.354 190.349H494.63C495.676 190.33 496.714 190.534 497.675 190.947C498.635 191.361 499.497 191.975 500.202 192.747C500.907 193.52 501.439 194.434 501.763 195.429C502.087 196.423 502.195 197.476 502.08 198.515L497.152 254.72C496.93 256.931 495.904 258.984 494.269 260.489C492.634 261.994 490.504 262.847 488.282 262.886Z" fill="#263238"/>
<path d="M434.496 222.08C434.086 226.113 432.212 229.855 429.227 232.599C426.243 235.342 422.357 236.896 418.304 236.966C416.397 237.002 414.505 236.63 412.754 235.876C411.002 235.122 409.431 234.004 408.146 232.595C406.861 231.186 405.891 229.52 405.301 227.707C404.71 225.893 404.513 223.975 404.723 222.08C405.152 218.056 407.032 214.326 410.013 211.588C412.993 208.85 416.869 207.293 420.915 207.206L421.581 199.59C415.459 199.7 409.589 202.048 405.082 206.192C400.574 210.337 397.742 215.989 397.12 222.08C396.805 224.94 397.103 227.835 397.993 230.572C398.883 233.308 400.345 235.824 402.282 237.952C404.219 240.081 406.587 241.772 409.228 242.916C411.869 244.059 414.722 244.627 417.6 244.582C423.724 244.473 429.595 242.122 434.103 237.975C438.61 233.829 441.442 228.173 442.061 222.08H434.496Z" fill="#26A37E"/>
<path d="M444.774 218.79C445.089 215.929 444.791 213.035 443.901 210.298C443.011 207.562 441.549 205.046 439.612 202.917C437.675 200.789 435.307 199.097 432.666 197.954C430.026 196.811 427.172 196.243 424.294 196.288L423.629 203.968C425.535 203.934 427.426 204.308 429.176 205.062C430.927 205.816 432.497 206.935 433.782 208.343C435.066 209.751 436.036 211.417 436.627 213.229C437.219 215.042 437.417 216.959 437.209 218.854L444.774 218.79Z" fill="#26A37E"/>
<path opacity="0.7" d="M444.774 218.79C445.089 215.929 444.791 213.035 443.901 210.298C443.011 207.562 441.549 205.046 439.612 202.917C437.675 200.789 435.307 199.097 432.666 197.954C430.026 196.811 427.172 196.243 424.294 196.288L423.629 203.968C425.535 203.934 427.426 204.308 429.176 205.062C430.927 205.816 432.497 206.935 433.782 208.343C435.066 209.751 436.036 211.417 436.627 213.229C437.219 215.042 437.417 216.959 437.209 218.854L444.774 218.79Z" fill="white"/>
<path d="M426.138 222.08C425.95 223.917 425.097 225.621 423.738 226.871C422.38 228.121 420.611 228.83 418.765 228.864C417.897 228.878 417.036 228.708 416.239 228.364C415.442 228.019 414.727 227.51 414.142 226.868C413.558 226.226 413.116 225.467 412.847 224.642C412.578 223.816 412.488 222.943 412.582 222.08C412.77 220.245 413.624 218.542 414.983 217.294C416.342 216.047 418.111 215.34 419.955 215.309L420.25 211.853C417.464 211.905 414.794 212.975 412.745 214.862C410.695 216.749 409.408 219.321 409.127 222.093C408.983 223.396 409.118 224.714 409.524 225.961C409.929 227.207 410.595 228.353 411.478 229.322C412.361 230.29 413.44 231.06 414.644 231.579C415.847 232.099 417.147 232.355 418.458 232.333C421.245 232.285 423.919 231.216 425.971 229.328C428.023 227.441 429.312 224.867 429.594 222.093L426.138 222.08Z" fill="#26A37E"/>
<path opacity="0.7" d="M426.138 222.08C425.95 223.917 425.097 225.621 423.738 226.871C422.38 228.121 420.611 228.83 418.765 228.864C417.897 228.878 417.036 228.708 416.239 228.364C415.442 228.019 414.727 227.51 414.142 226.868C413.558 226.226 413.116 225.467 412.847 224.642C412.578 223.816 412.488 222.943 412.582 222.08C412.77 220.245 413.624 218.542 414.983 217.294C416.342 216.047 418.111 215.34 419.955 215.309L420.25 211.853C417.464 211.905 414.794 212.975 412.745 214.862C410.695 216.749 409.408 219.321 409.127 222.093C408.983 223.396 409.118 224.714 409.524 225.961C409.929 227.207 410.595 228.353 411.478 229.322C412.361 230.29 413.44 231.06 414.644 231.579C415.847 232.099 417.147 232.355 418.458 232.333C421.245 232.285 423.919 231.216 425.971 229.328C428.023 227.441 429.312 224.867 429.594 222.093L426.138 222.08Z" fill="white"/>
<path d="M430.809 220.582C430.953 219.279 430.818 217.959 430.412 216.712C430.005 215.464 429.338 214.318 428.454 213.349C427.569 212.38 426.489 211.611 425.284 211.092C424.079 210.574 422.777 210.318 421.465 210.342L421.12 213.76C421.987 213.746 422.847 213.916 423.643 214.26C424.439 214.603 425.153 215.112 425.737 215.752C426.322 216.392 426.764 217.15 427.033 217.973C427.303 218.797 427.395 219.669 427.302 220.531L430.809 220.582Z" fill="#26A37E"/>
<path d="M474.688 199.59L474.022 207.206C475.928 207.171 477.819 207.543 479.569 208.296C481.32 209.049 482.89 210.166 484.175 211.573C485.46 212.981 486.43 214.645 487.021 216.457C487.612 218.269 487.811 220.186 487.603 222.08C487.194 226.111 485.321 229.851 482.34 232.595C479.358 235.338 475.475 236.893 471.424 236.966C469.517 237.004 467.624 236.633 465.871 235.88C464.119 235.127 462.547 234.009 461.261 232.6C459.976 231.19 459.006 229.523 458.416 227.709C457.827 225.895 457.632 223.976 457.843 222.08C458.23 218.039 460.11 214.287 463.117 211.558L458.214 206.182C453.667 210.303 450.819 215.972 450.227 222.08C449.913 224.94 450.21 227.835 451.101 230.572C451.991 233.308 453.453 235.824 455.39 237.952C457.326 240.081 459.694 241.772 462.335 242.916C464.976 244.059 467.83 244.627 470.707 244.582C476.83 244.47 482.7 242.118 487.207 237.972C491.714 233.826 494.546 228.172 495.168 222.08C495.48 219.22 495.181 216.327 494.29 213.592C493.399 210.857 491.937 208.343 490 206.216C488.064 204.089 485.697 202.399 483.057 201.256C480.417 200.114 477.564 199.546 474.688 199.59Z" fill="#26A37E"/>
<path opacity="0.7" d="M474.688 199.59L474.022 207.206C475.928 207.171 477.819 207.543 479.569 208.296C481.32 209.049 482.89 210.166 484.175 211.573C485.46 212.981 486.43 214.645 487.021 216.457C487.612 218.269 487.811 220.186 487.603 222.08C487.194 226.111 485.321 229.851 482.34 232.595C479.358 235.338 475.475 236.893 471.424 236.966C469.517 237.004 467.624 236.633 465.871 235.88C464.119 235.127 462.547 234.009 461.261 232.6C459.976 231.19 459.006 229.523 458.416 227.709C457.827 225.895 457.632 223.976 457.843 222.08C458.23 218.039 460.11 214.287 463.117 211.558L458.214 206.182C453.667 210.303 450.819 215.972 450.227 222.08C449.913 224.94 450.21 227.835 451.101 230.572C451.991 233.308 453.453 235.824 455.39 237.952C457.326 240.081 459.694 241.772 462.335 242.916C464.976 244.059 467.83 244.627 470.707 244.582C476.83 244.47 482.7 242.118 487.207 237.972C491.714 233.826 494.546 228.172 495.168 222.08C495.48 219.22 495.181 216.327 494.29 213.592C493.399 210.857 491.937 208.343 490 206.216C488.064 204.089 485.697 202.399 483.057 201.256C480.417 200.114 477.564 199.546 474.688 199.59Z" fill="white"/>
<path d="M456.742 202.01L461.658 207.399C464.616 204.626 468.509 203.067 472.563 203.034L473.229 195.431C467.103 195.482 461.22 197.83 456.742 202.01Z" fill="#26A37E"/>
<path opacity="0.3" d="M456.742 202.01L461.658 207.399C464.616 204.626 468.509 203.067 472.563 203.034L473.229 195.431C467.103 195.482 461.22 197.83 456.742 202.01Z" fill="black"/>
<path d="M473.677 211.2L473.357 214.835C474.269 214.817 475.174 214.993 476.012 215.353C476.85 215.713 477.602 216.248 478.216 216.922C478.831 217.596 479.294 218.393 479.575 219.261C479.856 220.128 479.949 221.046 479.847 221.952C479.651 223.868 478.763 225.647 477.349 226.955C475.935 228.263 474.092 229.01 472.167 229.056C471.256 229.075 470.352 228.898 469.515 228.539C468.678 228.18 467.927 227.647 467.313 226.974C466.698 226.302 466.235 225.506 465.953 224.64C465.671 223.774 465.577 222.857 465.677 221.952C465.868 220.013 466.782 218.218 468.237 216.922L465.895 214.362C463.712 216.329 462.342 219.041 462.055 221.965C461.903 223.333 462.045 224.717 462.472 226.026C462.898 227.335 463.598 228.537 464.526 229.554C465.454 230.57 466.588 231.377 467.853 231.92C469.117 232.463 470.483 232.731 471.859 232.704C474.784 232.654 477.588 231.533 479.742 229.554C481.895 227.575 483.249 224.875 483.546 221.965C483.7 220.59 483.557 219.198 483.128 217.883C482.699 216.567 481.994 215.359 481.059 214.339C480.124 213.319 478.981 212.511 477.708 211.97C476.435 211.428 475.06 211.166 473.677 211.2Z" fill="#26A37E"/>
<path d="M465.101 212.3L467.443 214.86C468.864 213.54 470.726 212.797 472.665 212.774L472.973 209.139C470.045 209.171 467.237 210.299 465.101 212.3Z" fill="#26A37E"/>
<path opacity="0.3" d="M465.101 212.3L467.443 214.86C468.864 213.54 470.726 212.797 472.665 212.774L472.973 209.139C470.045 209.171 467.237 210.299 465.101 212.3Z" fill="black"/>
<path d="M407.27 254.425C406.964 254.431 406.659 254.371 406.377 254.249C406.096 254.128 405.843 253.949 405.636 253.722C405.429 253.496 405.272 253.228 405.177 252.937C405.081 252.645 405.049 252.337 405.081 252.032C405.146 251.39 405.441 250.794 405.912 250.354C406.383 249.914 406.997 249.66 407.641 249.638C407.948 249.633 408.252 249.693 408.534 249.814C408.816 249.935 409.069 250.115 409.276 250.341C409.483 250.567 409.639 250.835 409.735 251.127C409.83 251.418 409.863 251.727 409.83 252.032C409.763 252.672 409.467 253.266 408.997 253.706C408.527 254.146 407.914 254.401 407.27 254.425Z" fill="white"/>
<path d="M431.821 253.248H413.901C413.744 253.253 413.589 253.224 413.444 253.163C413.3 253.102 413.171 253.011 413.065 252.895C412.959 252.78 412.88 252.643 412.832 252.494C412.784 252.345 412.769 252.187 412.787 252.032C412.787 251.692 412.922 251.367 413.162 251.127C413.402 250.887 413.728 250.752 414.067 250.752H431.987C432.15 250.745 432.312 250.776 432.461 250.84C432.611 250.905 432.744 251.002 432.851 251.125C432.958 251.248 433.036 251.393 433.079 251.55C433.122 251.707 433.13 251.872 433.101 252.032C433.084 252.36 432.942 252.669 432.704 252.896C432.466 253.122 432.149 253.248 431.821 253.248Z" fill="white"/>
<path d="M426.893 258.049H413.504C413.342 258.053 413.181 258.021 413.033 257.956C412.884 257.89 412.752 257.793 412.646 257.671C412.54 257.548 412.462 257.404 412.417 257.248C412.373 257.092 412.364 256.929 412.39 256.769C412.409 256.435 412.55 256.12 412.786 255.884C413.022 255.648 413.337 255.507 413.67 255.489H427.072C427.234 255.485 427.395 255.516 427.543 255.582C427.692 255.647 427.824 255.744 427.93 255.867C428.036 255.989 428.115 256.133 428.159 256.289C428.203 256.445 428.212 256.609 428.186 256.769C428.164 257.103 428.021 257.418 427.783 257.654C427.544 257.89 427.228 258.031 426.893 258.049Z" fill="white"/>
<path d="M459.162 254.425C458.854 254.432 458.548 254.374 458.265 254.254C457.982 254.133 457.727 253.954 457.519 253.727C457.31 253.5 457.153 253.232 457.056 252.94C456.96 252.647 456.927 252.338 456.96 252.032C457.025 251.39 457.32 250.794 457.791 250.354C458.262 249.914 458.876 249.66 459.52 249.638C459.827 249.633 460.131 249.693 460.413 249.814C460.695 249.935 460.947 250.115 461.154 250.341C461.361 250.567 461.518 250.835 461.614 251.127C461.709 251.418 461.742 251.727 461.709 252.032C461.642 252.67 461.348 253.263 460.88 253.702C460.413 254.141 459.803 254.398 459.162 254.425Z" fill="white"/>
<path d="M483.712 253.248H465.792C465.636 253.251 465.481 253.22 465.338 253.158C465.195 253.097 465.066 253.006 464.961 252.891C464.856 252.776 464.776 252.64 464.727 252.492C464.679 252.344 464.662 252.187 464.678 252.032C464.697 251.698 464.837 251.383 465.074 251.147C465.31 250.911 465.625 250.77 465.958 250.752H483.878C484.041 250.745 484.203 250.776 484.352 250.84C484.502 250.905 484.635 251.002 484.742 251.125C484.849 251.248 484.927 251.393 484.97 251.55C485.013 251.707 485.021 251.872 484.992 252.032C484.975 252.36 484.833 252.669 484.595 252.896C484.357 253.122 484.04 253.248 483.712 253.248Z" fill="white"/>
<path d="M478.784 258.049H465.395C465.233 258.053 465.072 258.021 464.924 257.956C464.776 257.89 464.644 257.793 464.537 257.671C464.431 257.548 464.353 257.404 464.309 257.248C464.264 257.092 464.255 256.929 464.282 256.769C464.3 256.435 464.441 256.12 464.677 255.884C464.913 255.648 465.228 255.507 465.562 255.489H478.963C479.125 255.485 479.286 255.516 479.434 255.582C479.583 255.647 479.715 255.744 479.821 255.867C479.928 255.989 480.006 256.133 480.05 256.289C480.094 256.445 480.103 256.609 480.077 256.769C480.055 257.103 479.912 257.418 479.674 257.654C479.435 257.89 479.119 258.031 478.784 258.049Z" fill="white"/>
<path d="M370.445 293.542H233.703C232.658 293.561 231.621 293.357 230.662 292.944C229.702 292.532 228.841 291.919 228.136 291.148C227.432 290.377 226.899 289.464 226.575 288.471C226.25 287.478 226.14 286.427 226.253 285.389L233.856 198.515C234.081 196.305 235.108 194.254 236.742 192.749C238.377 191.244 240.505 190.39 242.727 190.349H379.482C380.527 190.331 381.563 190.537 382.522 190.951C383.481 191.366 384.341 191.98 385.045 192.752C385.748 193.525 386.279 194.438 386.602 195.432C386.925 196.425 387.033 197.476 386.919 198.515L379.328 285.44C379.088 287.641 378.054 289.678 376.418 291.17C374.782 292.662 372.658 293.505 370.445 293.542Z" fill="#26A37E"/>
<path opacity="0.7" d="M370.445 293.542H233.703C232.658 293.561 231.621 293.357 230.662 292.944C229.702 292.532 228.841 291.919 228.136 291.148C227.432 290.377 226.899 289.464 226.575 288.471C226.25 287.478 226.14 286.427 226.253 285.389L233.856 198.515C234.081 196.305 235.108 194.254 236.742 192.749C238.377 191.244 240.505 190.39 242.727 190.349H379.482C380.527 190.331 381.563 190.537 382.522 190.951C383.481 191.366 384.341 191.98 385.045 192.752C385.748 193.525 386.279 194.438 386.602 195.432C386.925 196.425 387.033 197.476 386.919 198.515L379.328 285.44C379.088 287.641 378.054 289.678 376.418 291.17C374.782 292.662 372.658 293.505 370.445 293.542Z" fill="white"/>
<path d="M239.411 267.571H235.943L240.589 214.477H244.058L239.411 267.571Z" fill="#26A37E"/>
<path d="M244.339 267.571H240.858L244.275 228.518H247.757L244.339 267.571Z" fill="#263238"/>
<path d="M252.148 267.571H248.679L250.906 242.048H254.375L252.148 267.571Z" fill="#26A37E"/>
<path d="M257.063 267.571H253.594L256.256 237.133H259.725L257.063 267.571Z" fill="#263238"/>
<path d="M264.883 267.571H261.402L265.37 222.208H268.851L264.883 267.571Z" fill="#26A37E"/>
<path d="M269.798 267.571H266.317L269.747 228.518H273.216L269.798 267.571Z" fill="#263238"/>
<path d="M277.607 267.571H274.138L277.555 228.518H281.024L277.607 267.571Z" fill="#26A37E"/>
<path d="M282.522 267.571H279.053L283.328 218.675H286.797L282.522 267.571Z" fill="#263238"/>
<path d="M290.342 267.572H286.861L289.19 241.024H292.659L290.342 267.572Z" fill="#26A37E"/>
<path d="M295.258 267.571H291.789L295.207 228.518H298.676L295.258 267.571Z" fill="#263238"/>
<path d="M303.066 267.571H299.597L303.565 222.208H307.034L303.066 267.571Z" fill="#26A37E"/>
<path d="M307.994 267.572H304.512L309.325 212.532H312.807L307.994 267.572Z" fill="#263238"/>
<path d="M315.802 267.571H312.333L313.587 253.12H317.069L315.802 267.571Z" fill="#26A37E"/>
<path d="M320.717 267.571H317.248L319.591 240.819H323.059L320.717 267.571Z" fill="#263238"/>
<path d="M328.525 267.571H325.056L327.296 242.048H330.765L328.525 267.571Z" fill="#26A37E"/>
<path d="M333.453 267.572H329.971L334.362 217.447H337.831L333.453 267.572Z" fill="#263238"/>
<path d="M341.261 267.571H337.792L340.672 234.675H344.141L341.261 267.571Z" fill="#26A37E"/>
<path d="M346.176 267.571H342.707L348.275 203.917H351.744L346.176 267.571Z" fill="#263238"/>
<path d="M353.997 267.571H350.515L354.253 224.832H357.734L353.997 267.571Z" fill="#26A37E"/>
<path d="M358.912 267.571H355.444L358.861 228.518H362.33L358.912 267.571Z" fill="#263238"/>
<path d="M366.72 267.571H363.251L367.962 213.76H371.43L366.72 267.571Z" fill="#26A37E"/>
<path d="M371.636 267.571H368.167L370.944 235.904H374.413L371.636 267.571Z" fill="#263238"/>
<path d="M238.08 282.061C237.643 282.07 237.208 281.987 236.806 281.815C236.404 281.644 236.043 281.388 235.747 281.066C235.451 280.744 235.228 280.362 235.092 279.946C234.955 279.531 234.909 279.091 234.957 278.656C235.059 277.734 235.49 276.88 236.173 276.252C236.855 275.623 237.742 275.263 238.669 275.238C239.107 275.228 239.543 275.312 239.946 275.484C240.35 275.657 240.712 275.913 241.007 276.237C241.303 276.561 241.526 276.944 241.662 277.361C241.797 277.779 241.842 278.22 241.792 278.656C241.688 279.575 241.254 280.426 240.572 281.052C239.89 281.677 239.005 282.036 238.08 282.061Z" fill="#263238"/>
<path d="M273.012 280.383H247.552C247.33 280.388 247.11 280.346 246.906 280.259C246.701 280.172 246.518 280.042 246.368 279.879C246.218 279.715 246.104 279.521 246.035 279.311C245.965 279.1 245.942 278.876 245.965 278.656C246.015 278.184 246.235 277.748 246.584 277.427C246.932 277.107 247.386 276.925 247.86 276.915H273.319C273.541 276.912 273.762 276.956 273.966 277.044C274.171 277.133 274.354 277.264 274.504 277.428C274.654 277.593 274.767 277.787 274.837 277.999C274.906 278.21 274.93 278.434 274.906 278.656C274.856 279.125 274.636 279.56 274.287 279.879C273.938 280.197 273.484 280.377 273.012 280.383Z" fill="#263238"/>
<path d="M266.023 287.219H246.951C246.725 287.223 246.501 287.178 246.294 287.087C246.087 286.996 245.903 286.861 245.753 286.692C245.603 286.523 245.492 286.323 245.427 286.107C245.362 285.891 245.345 285.663 245.376 285.439C245.42 284.968 245.637 284.53 245.984 284.209C246.331 283.888 246.785 283.706 247.258 283.699H266.317C266.54 283.694 266.762 283.736 266.967 283.824C267.172 283.912 267.356 284.043 267.507 284.208C267.657 284.373 267.771 284.568 267.839 284.78C267.908 284.993 267.93 285.218 267.904 285.439C267.866 285.916 267.653 286.362 267.305 286.691C266.958 287.019 266.501 287.207 266.023 287.219Z" fill="#263238"/>
<path opacity="0.3" d="M273.012 280.383H247.552C247.33 280.388 247.11 280.346 246.906 280.259C246.701 280.172 246.518 280.042 246.368 279.879C246.218 279.715 246.104 279.521 246.035 279.311C245.965 279.1 245.942 278.876 245.965 278.656C246.015 278.184 246.235 277.748 246.584 277.427C246.932 277.107 247.386 276.925 247.86 276.915H273.319C273.541 276.912 273.762 276.956 273.966 277.044C274.171 277.133 274.354 277.264 274.504 277.428C274.654 277.593 274.767 277.787 274.837 277.999C274.906 278.21 274.93 278.434 274.906 278.656C274.856 279.125 274.636 279.56 274.287 279.879C273.938 280.197 273.484 280.377 273.012 280.383Z" fill="white"/>
<path opacity="0.3" d="M266.023 287.219H246.951C246.725 287.223 246.501 287.178 246.294 287.087C246.087 286.996 245.903 286.861 245.753 286.692C245.603 286.523 245.492 286.323 245.427 286.107C245.362 285.891 245.345 285.663 245.376 285.439C245.42 284.968 245.637 284.53 245.984 284.209C246.331 283.888 246.785 283.706 247.258 283.699H266.317C266.54 283.694 266.762 283.736 266.967 283.824C267.172 283.912 267.356 284.043 267.507 284.208C267.657 284.373 267.771 284.568 267.839 284.78C267.908 284.993 267.93 285.218 267.904 285.439C267.866 285.916 267.653 286.362 267.305 286.691C266.958 287.019 266.501 287.207 266.023 287.219Z" fill="white"/>
<path d="M288.436 282.061C287.999 282.068 287.566 281.983 287.164 281.811C286.763 281.639 286.403 281.383 286.107 281.061C285.812 280.74 285.589 280.359 285.452 279.944C285.315 279.529 285.267 279.09 285.313 278.656C285.414 277.734 285.846 276.88 286.529 276.252C287.211 275.623 288.097 275.263 289.025 275.238C289.463 275.228 289.899 275.312 290.302 275.484C290.705 275.657 291.067 275.913 291.363 276.237C291.659 276.561 291.882 276.944 292.017 277.361C292.153 277.779 292.197 278.22 292.148 278.656C292.043 279.575 291.61 280.426 290.928 281.052C290.246 281.677 289.361 282.036 288.436 282.061Z" fill="#26A37E"/>
<path opacity="0.3" d="M288.436 282.061C287.999 282.068 287.566 281.983 287.164 281.811C286.763 281.639 286.403 281.383 286.107 281.061C285.812 280.74 285.589 280.359 285.452 279.944C285.315 279.529 285.267 279.09 285.313 278.656C285.414 277.734 285.846 276.88 286.529 276.252C287.211 275.623 288.097 275.263 289.025 275.238C289.463 275.228 289.899 275.312 290.302 275.484C290.705 275.657 291.067 275.913 291.363 276.237C291.659 276.561 291.882 276.944 292.017 277.361C292.153 277.779 292.197 278.22 292.148 278.656C292.043 279.575 291.61 280.426 290.928 281.052C290.246 281.677 289.361 282.036 288.436 282.061Z" fill="black"/>
<path d="M323.354 280.383H297.895C297.673 280.388 297.452 280.346 297.248 280.259C297.044 280.172 296.86 280.042 296.71 279.879C296.56 279.715 296.446 279.521 296.377 279.311C296.307 279.1 296.284 278.876 296.308 278.656C296.357 278.184 296.577 277.748 296.926 277.427C297.275 277.107 297.728 276.925 298.202 276.915H323.661C323.884 276.912 324.104 276.956 324.309 277.044C324.513 277.133 324.696 277.264 324.846 277.428C324.996 277.593 325.11 277.787 325.179 277.999C325.248 278.21 325.272 278.434 325.248 278.656C325.198 279.125 324.978 279.56 324.629 279.879C324.28 280.197 323.826 280.377 323.354 280.383Z" fill="#263238"/>
<path d="M316.365 287.219H297.306C297.076 287.23 296.846 287.191 296.633 287.104C296.42 287.016 296.229 286.882 296.074 286.712C295.918 286.542 295.802 286.34 295.734 286.12C295.666 285.9 295.648 285.667 295.68 285.439C295.724 284.968 295.941 284.53 296.288 284.209C296.635 283.888 297.089 283.706 297.562 283.699H316.621C316.844 283.694 317.066 283.736 317.271 283.824C317.477 283.912 317.661 284.043 317.811 284.208C317.961 284.373 318.075 284.568 318.143 284.78C318.212 284.993 318.234 285.218 318.208 285.439C318.174 285.911 317.967 286.353 317.627 286.681C317.287 287.01 316.837 287.201 316.365 287.219Z" fill="#263238"/>
<path opacity="0.3" d="M323.354 280.383H297.895C297.673 280.388 297.452 280.346 297.248 280.259C297.044 280.172 296.86 280.042 296.71 279.879C296.56 279.715 296.446 279.521 296.377 279.311C296.307 279.1 296.284 278.876 296.308 278.656C296.357 278.184 296.577 277.748 296.926 277.427C297.275 277.107 297.728 276.925 298.202 276.915H323.661C323.884 276.912 324.104 276.956 324.309 277.044C324.513 277.133 324.696 277.264 324.846 277.428C324.996 277.593 325.11 277.787 325.179 277.999C325.248 278.21 325.272 278.434 325.248 278.656C325.198 279.125 324.978 279.56 324.629 279.879C324.28 280.197 323.826 280.377 323.354 280.383Z" fill="white"/>
<path opacity="0.3" d="M316.365 287.219H297.306C297.076 287.23 296.846 287.191 296.633 287.104C296.42 287.016 296.229 286.882 296.074 286.712C295.918 286.542 295.802 286.34 295.734 286.12C295.666 285.9 295.648 285.667 295.68 285.439C295.724 284.968 295.941 284.53 296.288 284.209C296.635 283.888 297.089 283.706 297.562 283.699H316.621C316.844 283.694 317.066 283.736 317.271 283.824C317.477 283.912 317.661 284.043 317.811 284.208C317.961 284.373 318.075 284.568 318.143 284.78C318.212 284.993 318.234 285.218 318.208 285.439C318.174 285.911 317.967 286.353 317.627 286.681C317.287 287.01 316.837 287.201 316.365 287.219Z" fill="white"/>
<path d="M338.778 282.06C338.342 282.068 337.909 281.983 337.508 281.811C337.107 281.639 336.747 281.383 336.453 281.061C336.159 280.739 335.937 280.358 335.801 279.943C335.666 279.528 335.62 279.089 335.667 278.655C335.769 277.734 336.201 276.88 336.883 276.251C337.566 275.623 338.452 275.263 339.379 275.238C339.817 275.23 340.251 275.315 340.653 275.488C341.055 275.661 341.415 275.918 341.709 276.242C342.004 276.565 342.226 276.948 342.36 277.364C342.495 277.78 342.539 278.221 342.49 278.655C342.385 279.575 341.952 280.426 341.27 281.052C340.588 281.677 339.703 282.035 338.778 282.06Z" fill="#26A37E"/>
<path d="M373.76 280.383H348.237C348.015 280.389 347.795 280.346 347.592 280.259C347.388 280.172 347.205 280.042 347.056 279.878C346.907 279.714 346.794 279.521 346.727 279.31C346.659 279.099 346.637 278.876 346.663 278.656C346.707 278.185 346.923 277.746 347.27 277.425C347.618 277.104 348.071 276.922 348.544 276.915H374.003C374.226 276.912 374.447 276.956 374.651 277.044C374.855 277.133 375.038 277.264 375.188 277.428C375.338 277.593 375.452 277.787 375.521 277.999C375.59 278.21 375.614 278.434 375.591 278.656C375.542 279.115 375.331 279.541 374.995 279.858C374.66 280.175 374.221 280.362 373.76 280.383Z" fill="#263238"/>
<path d="M366.707 287.219H347.648C347.425 287.224 347.203 287.181 346.998 287.094C346.792 287.006 346.608 286.875 346.458 286.71C346.308 286.545 346.194 286.35 346.126 286.137C346.057 285.925 346.035 285.7 346.061 285.478C346.105 285.007 346.321 284.569 346.668 284.248C347.016 283.927 347.469 283.745 347.942 283.737H367.014C367.237 283.727 367.459 283.765 367.666 283.848C367.873 283.931 368.06 284.058 368.214 284.219C368.368 284.38 368.486 284.573 368.559 284.783C368.633 284.994 368.66 285.218 368.64 285.44C368.604 285.926 368.384 286.381 368.025 286.712C367.666 287.042 367.195 287.224 366.707 287.219Z" fill="#263238"/>
<path opacity="0.3" d="M373.76 280.383H348.237C348.015 280.389 347.795 280.346 347.592 280.259C347.388 280.172 347.205 280.042 347.056 279.878C346.907 279.714 346.794 279.521 346.727 279.31C346.659 279.099 346.637 278.876 346.663 278.656C346.707 278.185 346.923 277.746 347.27 277.425C347.618 277.104 348.071 276.922 348.544 276.915H374.003C374.226 276.912 374.447 276.956 374.651 277.044C374.855 277.133 375.038 277.264 375.188 277.428C375.338 277.593 375.452 277.787 375.521 277.999C375.59 278.21 375.614 278.434 375.591 278.656C375.542 279.115 375.331 279.541 374.995 279.858C374.66 280.175 374.221 280.362 373.76 280.383Z" fill="white"/>
<path opacity="0.3" d="M366.707 287.219H347.648C347.425 287.224 347.203 287.181 346.998 287.094C346.792 287.006 346.608 286.875 346.458 286.71C346.308 286.545 346.194 286.35 346.126 286.137C346.057 285.925 346.035 285.7 346.061 285.478C346.105 285.007 346.321 284.569 346.668 284.248C347.016 283.927 347.469 283.745 347.942 283.737H367.014C367.237 283.727 367.459 283.765 367.666 283.848C367.873 283.931 368.06 284.058 368.214 284.219C368.368 284.38 368.486 284.573 368.559 284.783C368.633 284.994 368.66 285.218 368.64 285.44C368.604 285.926 368.384 286.381 368.025 286.712C367.666 287.042 367.195 287.224 366.707 287.219Z" fill="white"/>
<path d="M509.133 182.183H429.619C428.575 182.202 427.538 181.998 426.578 181.585C425.619 181.172 424.758 180.56 424.053 179.789C423.348 179.017 422.816 178.105 422.491 177.112C422.167 176.119 422.057 175.068 422.17 174.029L426.394 125.735C426.619 123.526 427.646 121.476 429.281 119.974C430.915 118.471 433.044 117.62 435.264 117.581H514.778C515.822 117.562 516.859 117.766 517.819 118.179C518.778 118.592 519.639 119.204 520.344 119.976C521.049 120.747 521.581 121.659 521.906 122.652C522.231 123.645 522.34 124.696 522.227 125.735L518.003 174.08C517.767 176.28 516.734 178.318 515.101 179.81C513.467 181.302 511.345 182.146 509.133 182.183Z" fill="#26A37E"/>
<path d="M463.988 146.777C463.579 150.759 461.728 154.455 458.783 157.166C455.838 159.878 452.003 161.418 448 161.497C446.116 161.53 444.246 161.162 442.515 160.416C440.784 159.67 439.231 158.564 437.961 157.171C436.691 155.778 435.731 154.131 435.147 152.339C434.563 150.547 434.367 148.651 434.573 146.777C434.976 142.793 436.826 139.095 439.772 136.382C442.718 133.669 446.556 132.131 450.56 132.057C452.445 132.024 454.315 132.393 456.046 133.139C457.777 133.885 459.33 134.991 460.6 136.383C461.87 137.776 462.829 139.423 463.413 141.215C463.997 143.008 464.193 144.904 463.988 146.777Z" fill="#26A37E"/>
<path opacity="0.7" d="M463.988 146.777C463.579 150.759 461.728 154.455 458.783 157.166C455.838 159.878 452.003 161.418 448 161.497C446.116 161.53 444.246 161.162 442.515 160.416C440.784 159.67 439.231 158.564 437.961 157.171C436.691 155.778 435.731 154.131 435.147 152.339C434.563 150.547 434.367 148.651 434.573 146.777C434.976 142.793 436.826 139.095 439.772 136.382C442.718 133.669 446.556 132.131 450.56 132.057C452.445 132.024 454.315 132.393 456.046 133.139C457.777 133.885 459.33 134.991 460.6 136.383C461.87 137.776 462.829 139.423 463.413 141.215C463.997 143.008 464.193 144.904 463.988 146.777Z" fill="white"/>
<path d="M453.722 144.166C453.44 147.392 452.212 150.003 448.986 150.003C445.76 150.003 444.98 147.443 445.261 144.166C445.543 140.89 446.784 138.33 450.01 138.33C453.236 138.33 454.004 140.941 453.722 144.166Z" fill="#263238"/>
<path d="M448.82 151.821C442.074 151.821 438.413 153.319 436.685 155.52C437.913 157.385 439.591 158.91 441.565 159.955C443.538 161 445.742 161.531 447.975 161.498C450.344 161.467 452.677 160.915 454.81 159.882C456.942 158.849 458.821 157.36 460.314 155.52C458.97 153.319 455.578 151.821 448.82 151.821Z" fill="#263238"/>
<path d="M498.663 130.343H474.765C474.506 130.348 474.249 130.298 474.011 130.195C473.772 130.093 473.559 129.941 473.384 129.75C473.21 129.558 473.078 129.332 472.998 129.085C472.919 128.838 472.893 128.578 472.922 128.32C472.978 127.772 473.233 127.264 473.639 126.891C474.044 126.518 474.573 126.307 475.123 126.298H499.021C499.28 126.292 499.537 126.343 499.775 126.445C500.014 126.547 500.227 126.699 500.402 126.891C500.576 127.082 500.708 127.309 500.787 127.555C500.867 127.802 500.893 128.063 500.864 128.32C500.811 128.869 500.556 129.379 500.15 129.752C499.744 130.126 499.214 130.336 498.663 130.343Z" fill="white"/>
<path d="M505.037 145.28H473.46C473.2 145.286 472.943 145.236 472.705 145.133C472.467 145.031 472.253 144.879 472.079 144.688C471.904 144.496 471.773 144.269 471.693 144.023C471.613 143.776 471.587 143.515 471.616 143.258C471.672 142.709 471.927 142.199 472.332 141.824C472.738 141.449 473.266 141.236 473.818 141.223H505.396C505.655 141.219 505.913 141.271 506.151 141.375C506.389 141.479 506.602 141.632 506.777 141.824C506.951 142.017 507.082 142.244 507.162 142.491C507.242 142.739 507.268 143 507.239 143.258C507.185 143.807 506.931 144.317 506.525 144.69C506.118 145.063 505.589 145.274 505.037 145.28Z" fill="white"/>
<path d="M510.784 152.742H472.806C472.547 152.748 472.29 152.698 472.052 152.595C471.814 152.493 471.6 152.341 471.426 152.15C471.251 151.958 471.12 151.731 471.04 151.485C470.96 151.238 470.934 150.978 470.963 150.72C471.02 150.172 471.275 149.664 471.68 149.291C472.086 148.918 472.614 148.707 473.165 148.698H511.142C511.402 148.692 511.659 148.743 511.897 148.845C512.135 148.947 512.349 149.099 512.523 149.291C512.698 149.482 512.829 149.709 512.909 149.955C512.989 150.202 513.015 150.463 512.986 150.72C512.932 151.269 512.678 151.779 512.272 152.152C511.865 152.525 511.336 152.736 510.784 152.742Z" fill="white"/>
<path d="M507.571 160.218H472.154C471.894 160.222 471.637 160.17 471.399 160.066C471.16 159.962 470.947 159.809 470.773 159.617C470.598 159.424 470.467 159.197 470.387 158.95C470.308 158.702 470.281 158.441 470.311 158.183C470.369 157.636 470.625 157.129 471.031 156.757C471.436 156.385 471.962 156.173 472.512 156.161H507.93C508.189 156.155 508.446 156.205 508.684 156.308C508.922 156.41 509.136 156.562 509.31 156.753C509.485 156.945 509.617 157.172 509.696 157.418C509.776 157.665 509.802 157.925 509.773 158.183C509.72 158.733 509.466 159.245 509.06 159.62C508.654 159.995 508.124 160.208 507.571 160.218Z" fill="white"/>
<path d="M503.04 167.681H471.501C471.242 167.686 470.984 167.636 470.746 167.534C470.508 167.431 470.295 167.279 470.12 167.088C469.946 166.896 469.814 166.67 469.734 166.423C469.654 166.177 469.628 165.916 469.658 165.658C469.711 165.108 469.965 164.597 470.371 164.221C470.777 163.846 471.306 163.633 471.859 163.623H503.437C503.696 163.62 503.954 163.672 504.192 163.775C504.43 163.879 504.643 164.032 504.818 164.225C504.992 164.417 505.124 164.645 505.203 164.892C505.283 165.139 505.309 165.4 505.28 165.658C505.223 166.213 504.962 166.727 504.549 167.1C504.135 167.474 503.597 167.681 503.04 167.681Z" fill="white"/>
<path d="M506.266 175.143H470.848C470.589 175.148 470.332 175.098 470.094 174.996C469.856 174.893 469.642 174.742 469.468 174.55C469.293 174.358 469.161 174.132 469.082 173.885C469.002 173.639 468.976 173.378 469.005 173.12C469.059 172.571 469.313 172.061 469.719 171.688C470.125 171.315 470.655 171.105 471.207 171.098H506.624C506.883 171.093 507.141 171.143 507.379 171.245C507.617 171.347 507.83 171.499 508.005 171.691C508.179 171.882 508.311 172.109 508.391 172.356C508.471 172.602 508.497 172.863 508.467 173.12C508.409 173.667 508.153 174.174 507.748 174.546C507.342 174.918 506.816 175.13 506.266 175.143Z" fill="white"/>
<path d="M405.76 182.183H268.992C267.947 182.202 266.911 181.998 265.951 181.585C264.991 181.172 264.13 180.56 263.426 179.789C262.721 179.017 262.189 178.105 261.864 177.112C261.539 176.119 261.429 175.068 261.542 174.03L269.146 87.1431C269.371 84.9342 270.398 82.8845 272.032 81.3819C273.667 79.8793 275.796 79.0282 278.016 78.9895H414.72C415.764 78.9704 416.8 79.1742 417.759 79.5871C418.719 80.0001 419.579 80.6128 420.282 81.3843C420.986 82.1559 421.517 83.0686 421.84 84.0616C422.164 85.0546 422.271 86.1051 422.157 87.1431L414.618 174.081C414.378 176.277 413.347 178.311 411.717 179.803C410.087 181.294 407.969 182.14 405.76 182.183Z" fill="#26A37E"/>
<path opacity="0.7" d="M405.76 182.183H268.992C267.947 182.202 266.911 181.998 265.951 181.585C264.991 181.172 264.13 180.56 263.426 179.789C262.721 179.017 262.189 178.105 261.864 177.112C261.539 176.119 261.429 175.068 261.542 174.03L269.146 87.1431C269.371 84.9342 270.398 82.8845 272.032 81.3819C273.667 79.8793 275.796 79.0282 278.016 78.9895H414.72C415.764 78.9704 416.8 79.1742 417.759 79.5871C418.719 80.0001 419.579 80.6128 420.282 81.3843C420.986 82.1559 421.517 83.0686 421.84 84.0616C422.164 85.0546 422.271 86.1051 422.157 87.1431L414.618 174.081C414.378 176.277 413.347 178.311 411.717 179.803C410.087 181.294 407.969 182.14 405.76 182.183Z" fill="white"/>
<path d="M419.341 119.962C416.691 110.4 412.506 100.826 406.413 100.826C394.893 100.826 389.299 118.848 383.373 137.946C378.15 154.714 372.749 172.045 364.326 172.045C353.638 172.045 350.707 150.605 347.878 129.869C344.704 106.637 341.709 84.6851 327.936 84.6851C314.163 84.6851 307.341 106.637 300.096 129.869C293.632 150.605 286.963 172.045 276.262 172.045C271.27 172.045 266.624 157.274 264.179 144.141L263.066 156.941C265.728 166.426 269.888 175.859 275.93 175.859C289.702 175.859 296.538 153.907 303.77 130.675C310.17 109.952 316.915 88.4995 327.603 88.4995C338.291 88.4995 341.222 109.952 344.051 130.739C347.226 153.971 350.221 175.923 363.994 175.923C375.514 175.923 381.107 157.901 387.034 138.803C392.256 122.035 397.658 104.704 406.093 104.704C411.123 104.704 415.808 119.68 418.227 132.864L419.341 119.962Z" fill="#26A37E"/>
<path d="M332.103 89.7728C334.411 87.5632 334.642 84.0581 332.618 81.944C330.594 79.8299 327.082 79.9073 324.774 82.1169C322.466 84.3265 322.235 87.8315 324.259 89.9456C326.283 92.0597 329.795 91.9824 332.103 89.7728Z" fill="#263238"/>
<path d="M330.242 87.815C331.386 86.7198 331.497 84.9793 330.489 83.9275C329.482 82.8758 327.739 82.911 326.595 84.0062C325.451 85.1014 325.341 86.8419 326.348 87.8937C327.355 88.9454 329.099 88.9102 330.242 87.815Z" fill="#26A37E"/>
<path d="M340.07 62.5286H320.87C319.866 62.548 318.904 62.9332 318.164 63.612C317.424 64.2908 316.957 65.2164 316.851 66.215L316.544 69.7222C316.493 70.1917 316.542 70.6666 316.689 71.1154C316.836 71.5642 317.077 71.9766 317.395 72.3253C317.713 72.674 318.102 72.9509 318.536 73.1377C318.97 73.3245 319.438 73.4168 319.91 73.4086H326.31L328.217 76.2886C328.344 76.4581 328.508 76.5957 328.697 76.6906C328.886 76.7854 329.094 76.8348 329.305 76.8348C329.517 76.8348 329.725 76.7854 329.914 76.6906C330.103 76.5957 330.267 76.4581 330.393 76.2886L332.8 73.4086H339.2C340.202 73.3889 341.163 73.0032 341.901 72.3242C342.639 71.6452 343.103 70.7197 343.206 69.7222L343.513 66.215C343.565 65.739 343.514 65.2573 343.363 64.8029C343.212 64.3486 342.964 63.9322 342.637 63.5822C342.31 63.2323 341.912 62.957 341.469 62.7751C341.026 62.5933 340.549 62.5092 340.07 62.5286Z" fill="#26A37E"/>
<path d="M338.573 67.1619H321.126C321.003 67.1646 320.881 67.1409 320.769 67.0923C320.656 67.0438 320.555 66.9716 320.472 66.8805C320.389 66.7895 320.327 66.6818 320.29 66.5647C320.253 66.4476 320.241 66.3239 320.256 66.2019C320.292 65.9527 320.414 65.724 320.601 65.5555C320.788 65.3871 321.028 65.2897 321.28 65.2803H338.714C338.836 65.2796 338.957 65.3047 339.069 65.354C339.181 65.4032 339.281 65.4755 339.363 65.566C339.445 65.6566 339.507 65.7634 339.545 65.8796C339.583 65.9958 339.596 66.1187 339.584 66.2403C339.553 66.4894 339.435 66.7194 339.249 66.8885C339.064 67.0576 338.824 67.1546 338.573 67.1619Z" fill="#263238"/>
<path d="M328.806 70.6438H320.832C320.709 70.6463 320.586 70.6225 320.473 70.5741C320.359 70.5257 320.257 70.4537 320.174 70.3629C320.09 70.2722 320.027 70.1647 319.988 70.0476C319.95 69.9305 319.936 69.8065 319.949 69.6838C319.974 69.4224 320.095 69.1796 320.289 69.0023C320.483 68.825 320.736 68.7258 320.998 68.7238H328.96C329.083 68.7211 329.205 68.7448 329.318 68.7934C329.431 68.8419 329.532 68.9142 329.614 69.0052C329.697 69.0962 329.759 69.2039 329.796 69.321C329.833 69.4381 329.845 69.5618 329.83 69.6838C329.803 69.94 329.685 70.1778 329.497 70.354C329.309 70.5302 329.064 70.633 328.806 70.6438Z" fill="#263238"/>
<path d="M367.139 175.336C369.448 173.126 369.678 169.621 367.654 167.507C365.63 165.393 362.119 165.47 359.81 167.68C357.502 169.889 357.272 173.394 359.296 175.509C361.319 177.623 364.831 177.545 367.139 175.336Z" fill="#263238"/>
<path d="M366.221 171.52C366.146 172.264 365.801 172.955 365.251 173.462C364.702 173.969 363.986 174.257 363.238 174.272C362.881 174.288 362.525 174.225 362.195 174.09C361.864 173.954 361.567 173.748 361.323 173.487C361.08 173.225 360.896 172.914 360.785 172.574C360.674 172.235 360.637 171.875 360.678 171.52C360.753 170.776 361.098 170.086 361.647 169.579C362.197 169.072 362.913 168.783 363.661 168.768C364.018 168.753 364.374 168.815 364.704 168.951C365.035 169.087 365.332 169.292 365.575 169.554C365.819 169.816 366.002 170.127 366.114 170.466C366.225 170.806 366.262 171.165 366.221 171.52Z" fill="#26A37E"/>
<path d="M375.117 148.084H355.917C354.914 148.103 353.953 148.489 353.215 149.168C352.477 149.847 352.013 150.773 351.91 151.77L351.603 155.265C351.55 155.735 351.598 156.211 351.744 156.662C351.89 157.112 352.13 157.526 352.449 157.876C352.768 158.226 353.157 158.504 353.592 158.692C354.027 158.88 354.496 158.972 354.97 158.964H361.305L363.213 161.844C363.342 162.011 363.508 162.147 363.697 162.24C363.887 162.333 364.096 162.382 364.307 162.382C364.518 162.382 364.727 162.333 364.917 162.24C365.107 162.147 365.272 162.011 365.402 161.844L367.808 158.964H374.144C375.151 158.947 376.116 158.561 376.857 157.879C377.598 157.197 378.063 156.267 378.163 155.265L378.47 151.77C378.521 151.302 378.472 150.828 378.326 150.38C378.18 149.932 377.94 149.52 377.623 149.172C377.306 148.824 376.919 148.546 376.487 148.359C376.055 148.171 375.588 148.077 375.117 148.084Z" fill="#263238"/>
<path d="M373.619 152.717H356.173C356.05 152.72 355.928 152.696 355.815 152.647C355.702 152.599 355.601 152.527 355.518 152.436C355.436 152.345 355.374 152.237 355.337 152.12C355.299 152.003 355.288 151.879 355.302 151.757C355.327 151.498 355.447 151.257 355.638 151.08C355.829 150.903 356.079 150.802 356.339 150.797H373.76C373.882 150.796 374.003 150.821 374.115 150.871C374.227 150.92 374.327 150.992 374.409 151.083C374.491 151.173 374.554 151.28 374.592 151.396C374.63 151.512 374.643 151.635 374.63 151.757C374.609 152.013 374.494 152.252 374.307 152.429C374.121 152.606 373.876 152.708 373.619 152.717Z" fill="white"/>
<path d="M363.853 156.16H355.84C355.717 156.163 355.595 156.139 355.482 156.091C355.369 156.042 355.268 155.97 355.186 155.879C355.103 155.788 355.041 155.68 355.004 155.563C354.967 155.446 354.955 155.322 354.97 155.2C354.997 154.942 355.118 154.703 355.308 154.526C355.499 154.35 355.747 154.248 356.006 154.24H363.994C364.117 154.238 364.239 154.262 364.353 154.31C364.466 154.359 364.568 154.431 364.652 154.521C364.735 154.612 364.798 154.72 364.837 154.837C364.876 154.954 364.889 155.078 364.877 155.2C364.852 155.458 364.734 155.697 364.546 155.874C364.357 156.05 364.111 156.152 363.853 156.16Z" fill="white"/>
<path d="M411.853 102.4C411.703 103.9 411.007 105.293 409.898 106.315C408.789 107.336 407.344 107.916 405.837 107.943C405.127 107.956 404.422 107.818 403.77 107.537C403.118 107.257 402.533 106.84 402.054 106.316C401.576 105.791 401.215 105.171 400.995 104.495C400.775 103.82 400.702 103.106 400.781 102.4C400.937 100.903 401.634 99.515 402.742 98.4966C403.85 97.4782 405.292 96.8999 406.797 96.8705C407.505 96.8573 408.209 96.9951 408.86 97.2749C409.511 97.5547 410.096 97.9699 410.574 98.4931C411.052 99.0162 411.414 99.6352 411.634 100.309C411.855 100.983 411.929 101.695 411.853 102.4Z" fill="#263238"/>
<path d="M409.062 102.401C408.987 103.145 408.643 103.835 408.093 104.342C407.544 104.849 406.828 105.138 406.08 105.153C405.723 105.168 405.367 105.106 405.036 104.97C404.706 104.834 404.409 104.629 404.165 104.367C403.922 104.105 403.738 103.794 403.627 103.455C403.515 103.115 403.479 102.756 403.52 102.401C403.598 101.659 403.944 100.971 404.493 100.467C405.042 99.9625 405.757 99.676 406.502 99.6614C406.858 99.6463 407.213 99.7084 407.543 99.8432C407.872 99.9781 408.169 100.183 408.412 100.443C408.655 100.703 408.839 101.013 408.951 101.351C409.064 101.688 409.101 102.047 409.062 102.401Z" fill="#26A37E"/>
<path d="M417.958 78.9893H398.758C397.754 79.0059 396.79 79.3902 396.049 80.0696C395.308 80.7489 394.842 81.676 394.739 82.6757L394.432 86.1829C394.381 86.6524 394.431 87.1273 394.577 87.5761C394.724 88.0249 394.965 88.4373 395.283 88.786C395.602 89.1347 395.99 89.4116 396.424 89.5984C396.858 89.7852 397.326 89.8775 397.798 89.8693H404.198L406.106 92.7493C406.232 92.9188 406.396 93.0565 406.585 93.1513C406.774 93.2461 406.982 93.2955 407.194 93.2955C407.405 93.2955 407.613 93.2461 407.802 93.1513C407.991 93.0565 408.155 92.9188 408.282 92.7493L410.688 89.8693H417.024C418.029 89.8527 418.993 89.4684 419.733 88.7891C420.474 88.1098 420.94 87.1826 421.043 86.1829L421.35 82.6757C421.402 82.2041 421.351 81.727 421.203 81.2763C421.055 80.8257 420.812 80.412 420.491 80.0629C420.17 79.7138 419.778 79.4374 419.341 79.2522C418.904 79.0671 418.433 78.9774 417.958 78.9893Z" fill="#26A37E"/>
<path d="M416.461 83.6226H399.015C398.892 83.6254 398.77 83.6016 398.657 83.5531C398.544 83.5046 398.443 83.4323 398.36 83.3413C398.278 83.2503 398.216 83.1425 398.178 83.0255C398.141 82.9084 398.129 82.7846 398.144 82.6626C398.169 82.4033 398.289 82.1623 398.48 81.9853C398.671 81.8083 398.92 81.7077 399.181 81.7026H416.627C416.75 81.702 416.871 81.7271 416.982 81.7763C417.094 81.8256 417.195 81.8978 417.277 81.9884C417.359 82.079 417.421 82.1858 417.459 82.302C417.497 82.4182 417.51 82.541 417.498 82.6626C417.475 82.923 417.357 83.1657 417.165 83.3432C416.973 83.5208 416.722 83.6204 416.461 83.6226Z" fill="#263238"/>
<path d="M406.695 87.1047H398.707C398.585 87.1054 398.464 87.0803 398.352 87.031C398.24 86.9818 398.14 86.9096 398.058 86.819C397.976 86.7284 397.914 86.6216 397.876 86.5054C397.838 86.3892 397.824 86.2663 397.837 86.1447C397.862 85.8833 397.983 85.6405 398.177 85.4632C398.371 85.2859 398.624 85.1867 398.887 85.1847H406.861C406.984 85.1823 407.107 85.206 407.22 85.2545C407.334 85.3029 407.435 85.3749 407.519 85.4657C407.602 85.5564 407.666 85.6639 407.705 85.781C407.743 85.8981 407.757 86.0221 407.744 86.1447C407.716 86.4051 407.594 86.6463 407.401 86.8231C407.207 86.9999 406.956 87.1 406.695 87.1047Z" fill="#263238"/>
<path d="M283.187 172.135C283.034 173.633 282.337 175.023 281.229 176.042C280.12 177.06 278.677 177.638 277.171 177.664C276.464 177.676 275.762 177.537 275.112 177.256C274.462 176.975 273.879 176.56 273.403 176.037C272.926 175.514 272.565 174.896 272.346 174.223C272.126 173.55 272.052 172.838 272.128 172.135C272.278 170.635 272.974 169.242 274.083 168.22C275.191 167.199 276.637 166.619 278.144 166.592C278.853 166.581 279.556 166.72 280.207 167.002C280.857 167.283 281.441 167.7 281.918 168.224C282.395 168.748 282.755 169.368 282.974 170.043C283.193 170.717 283.265 171.43 283.187 172.135Z" fill="#263238"/>
<path d="M280.41 172.135C280.332 172.879 279.984 173.568 279.432 174.073C278.88 174.578 278.162 174.863 277.414 174.874C277.059 174.887 276.705 174.824 276.377 174.688C276.048 174.552 275.753 174.348 275.51 174.088C275.267 173.829 275.083 173.52 274.97 173.183C274.857 172.846 274.818 172.489 274.854 172.135C274.932 171.39 275.28 170.699 275.831 170.192C276.383 169.686 277.101 169.398 277.85 169.383C278.206 169.37 278.561 169.434 278.891 169.57C279.22 169.706 279.516 169.912 279.759 170.173C280.002 170.434 280.186 170.745 280.298 171.083C280.411 171.422 280.449 171.781 280.41 172.135Z" fill="#26A37E"/>
<path d="M289.28 148.711H270.08C269.076 148.73 268.113 149.115 267.373 149.794C266.633 150.473 266.167 151.398 266.061 152.397L265.766 155.904C265.713 156.374 265.761 156.85 265.907 157.3C266.053 157.749 266.294 158.163 266.613 158.512C266.931 158.861 267.321 159.138 267.756 159.324C268.191 159.51 268.66 159.601 269.133 159.591H275.533L277.44 162.471C277.566 162.64 277.73 162.778 277.919 162.873C278.108 162.967 278.317 163.017 278.528 163.017C278.739 163.017 278.948 162.967 279.137 162.873C279.325 162.778 279.49 162.64 279.616 162.471L282.035 159.591H288.435C289.439 159.571 290.402 159.186 291.142 158.507C291.882 157.829 292.348 156.903 292.454 155.904L292.749 152.397C292.803 151.918 292.753 151.433 292.601 150.976C292.449 150.519 292.199 150.1 291.869 149.749C291.539 149.399 291.136 149.124 290.689 148.944C290.242 148.765 289.761 148.685 289.28 148.711Z" fill="#263238"/>
<path d="M287.795 153.357H270.361C270.238 153.36 270.115 153.336 270.002 153.287C269.889 153.239 269.787 153.167 269.703 153.076C269.62 152.985 269.556 152.878 269.518 152.761C269.479 152.644 269.465 152.52 269.478 152.397C269.503 152.136 269.625 151.893 269.818 151.716C270.012 151.538 270.265 151.439 270.528 151.437H288C288.123 151.435 288.245 151.458 288.359 151.507C288.472 151.555 288.574 151.627 288.658 151.718C288.741 151.809 288.804 151.916 288.843 152.033C288.882 152.151 288.896 152.274 288.883 152.397C288.854 152.664 288.727 152.911 288.525 153.088C288.324 153.266 288.063 153.362 287.795 153.357Z" fill="white"/>
<path d="M278.041 156.826H270.08C269.957 156.827 269.836 156.802 269.724 156.752C269.613 156.703 269.512 156.631 269.43 156.54C269.348 156.45 269.286 156.343 269.248 156.227C269.21 156.11 269.197 155.988 269.209 155.866C269.232 155.606 269.35 155.363 269.542 155.185C269.734 155.008 269.985 154.908 270.246 154.906H278.233C278.356 154.903 278.478 154.927 278.591 154.976C278.704 155.024 278.805 155.096 278.887 155.187C278.97 155.278 279.032 155.386 279.069 155.503C279.107 155.62 279.118 155.744 279.104 155.866C279.078 156.13 278.955 156.374 278.758 156.552C278.562 156.729 278.306 156.827 278.041 156.826Z" fill="white"/>
<path d="M190.003 150.362L186.317 156.762L182.695 163.329C180.314 167.719 178.035 172.135 175.962 176.59C174.925 178.817 173.939 181.031 173.043 183.271L172.877 183.668C172.882 183.702 172.882 183.736 172.877 183.77C172.83 183.824 172.791 183.884 172.762 183.95C172.694 184.063 172.638 184.183 172.595 184.308C172.5 184.79 172.554 185.29 172.749 185.742C173.458 187.488 174.507 189.076 175.834 190.413C177.4 192.096 179.067 193.682 180.826 195.162L177.831 201.562C176.42 201.173 175.039 200.685 173.696 200.103C172.346 199.523 171.038 198.851 169.779 198.093C166.906 196.43 164.443 194.143 162.573 191.399C161.396 189.654 160.606 187.677 160.256 185.601C160.109 184.445 160.109 183.275 160.256 182.119C160.315 181.545 160.413 180.977 160.551 180.417L160.755 179.585L160.922 179.086C161.741 176.462 162.599 173.876 163.597 171.406C165.528 166.431 167.706 161.557 170.125 156.801C171.315 154.433 172.557 152.09 173.863 149.799C175.168 147.508 176.423 145.242 177.946 142.9L190.003 150.362Z" fill="#B5715A"/>
<path d="M177.561 194.471L184.294 192.718L184.678 203.585C184.678 203.585 179.417 204.366 176.192 201.14L177.561 194.471Z" fill="#B5715A"/>
<path d="M193.818 190.887L192.307 200.423L184.679 203.584L184.295 192.717L193.818 190.887Z" fill="#B5715A"/>
<path d="M221.645 99.1877C221.785 99.9301 222.31 100.468 222.797 100.352C223.283 100.237 223.552 99.5717 223.398 98.8293C223.245 98.0869 222.733 97.5493 222.246 97.6645C221.76 97.7797 221.44 98.4453 221.645 99.1877Z" fill="#263238"/>
<path d="M222.234 100.467C223.587 102.557 225.219 104.451 227.085 106.099C226.651 106.567 226.121 106.934 225.53 107.175C224.94 107.416 224.304 107.525 223.667 107.494L222.234 100.467Z" fill="#ED847E"/>
<path d="M218.086 95.6165C217.973 95.6171 217.864 95.5761 217.779 95.5013C217.697 95.4176 217.651 95.305 217.651 95.1877C217.651 95.0705 217.697 94.9579 217.779 94.8741C218.251 94.3342 218.847 93.917 219.516 93.6584C220.185 93.3998 220.907 93.3074 221.619 93.3893C221.736 93.4097 221.841 93.4758 221.909 93.573C221.977 93.6702 222.004 93.7906 221.984 93.9077C221.964 94.0249 221.898 94.1291 221.8 94.1975C221.703 94.2659 221.583 94.2929 221.466 94.2725C220.909 94.2217 220.348 94.3044 219.829 94.5136C219.31 94.7229 218.849 95.0527 218.483 95.4757C218.433 95.529 218.371 95.5696 218.302 95.5941C218.233 95.6186 218.159 95.6263 218.086 95.6165Z" fill="#263238"/>
<path d="M200.474 109.646C201.754 116.519 203.162 129.127 198.349 133.722C198.349 133.722 200.23 140.698 213.018 140.698C227.098 140.698 219.725 133.722 219.725 133.722C212.045 131.892 212.262 126.196 213.594 120.846L200.474 109.646Z" fill="#B5715A"/>
<path d="M195.571 134.989C194.547 133.082 193.421 130.893 195.763 130.215C198.323 129.46 214.874 128.065 219.738 129.473C218.24 132.135 220.774 135.399 220.774 135.399L195.571 134.989Z" fill="#263238"/>
<path d="M153.933 455.68C154.312 455.815 154.714 455.873 155.117 455.851C155.519 455.829 155.913 455.728 156.275 455.552C156.415 455.423 156.511 455.254 156.55 455.068C156.589 454.882 156.569 454.689 156.493 454.515C156.451 454.37 156.378 454.236 156.278 454.123C156.179 454.011 156.055 453.921 155.917 453.862C154.637 453.248 151.731 454.438 151.603 454.489C151.565 454.508 151.533 454.538 151.51 454.574C151.487 454.61 151.475 454.652 151.475 454.694C151.469 454.736 151.477 454.779 151.498 454.816C151.518 454.853 151.551 454.882 151.59 454.899C152.341 455.241 153.126 455.503 153.933 455.68ZM155.469 454.169L155.725 454.259C155.807 454.293 155.881 454.346 155.941 454.412C156 454.478 156.045 454.557 156.07 454.643C156.185 455.04 156.07 455.168 155.981 455.206C155.481 455.641 153.6 455.206 152.281 454.707C153.294 454.306 154.382 454.132 155.469 454.195V454.169Z" fill="#26A37E"/>
<path d="M151.641 454.939H151.756C152.819 454.631 155.097 453.006 155.123 451.943C155.124 451.776 155.067 451.613 154.962 451.483C154.857 451.352 154.711 451.262 154.547 451.227C154.386 451.173 154.216 451.153 154.046 451.166C153.877 451.179 153.712 451.226 153.561 451.303C152.281 451.943 151.513 454.555 151.475 454.657C151.454 454.69 151.444 454.727 151.444 454.766C151.444 454.804 151.454 454.842 151.475 454.875C151.495 454.899 151.52 454.918 151.55 454.929C151.579 454.94 151.61 454.943 151.641 454.939ZM154.304 451.611H154.406C154.675 451.7 154.675 451.841 154.675 451.892C154.675 452.519 153.152 453.787 152.115 454.311C152.41 453.277 153.007 452.354 153.83 451.662C153.979 451.597 154.144 451.58 154.304 451.611Z" fill="#26A37E"/>
<path d="M223.36 457.28C224.563 457.28 225.728 457.113 226.124 456.576C226.228 456.432 226.283 456.26 226.283 456.083C226.283 455.906 226.228 455.734 226.124 455.59C226.048 455.461 225.946 455.35 225.825 455.262C225.704 455.174 225.566 455.111 225.42 455.078C223.859 454.656 220.569 456.525 220.428 456.601C220.391 456.626 220.361 456.66 220.343 456.701C220.325 456.742 220.319 456.788 220.326 456.832C220.333 456.877 220.355 456.918 220.387 456.95C220.419 456.982 220.46 457.004 220.505 457.011C221.446 457.188 222.402 457.278 223.36 457.28ZM224.857 455.449C224.998 455.435 225.139 455.435 225.28 455.449C225.461 455.495 225.617 455.61 225.715 455.769C225.881 456.038 225.817 456.179 225.715 456.256C225.267 456.87 222.899 456.883 221.145 456.627C222.297 456.002 223.556 455.603 224.857 455.449Z" fill="#26A37E"/>
<path d="M220.518 457.025H220.608C221.747 456.513 224 454.465 223.821 453.415C223.821 453.172 223.603 452.865 222.989 452.801C222.76 452.766 222.527 452.783 222.305 452.849C222.084 452.915 221.88 453.03 221.709 453.185C220.505 454.158 220.262 456.692 220.249 456.807C220.244 456.845 220.249 456.883 220.265 456.917C220.281 456.951 220.307 456.98 220.339 456.999C220.394 457.028 220.457 457.037 220.518 457.025ZM222.809 453.185H222.95C223.347 453.185 223.373 453.39 223.385 453.441C223.488 454.081 221.952 455.681 220.825 456.372C220.942 455.295 221.389 454.28 222.105 453.466C222.305 453.306 222.553 453.216 222.809 453.211V453.185Z" fill="#26A37E"/>
<path d="M210.176 456.793H219.584L220.518 435.021H211.11L210.176 456.793Z" fill="#B5715A"/>
<path d="M141.158 452.442L150.349 454.426L159.577 434.151L150.387 432.167L141.158 452.442Z" fill="#B5715A"/>
<path d="M151.232 453.505L140.915 451.278C140.732 451.232 140.538 451.254 140.369 451.338C140.2 451.423 140.067 451.565 139.993 451.739L136.409 459.508C136.322 459.698 136.279 459.905 136.283 460.113C136.288 460.322 136.339 460.527 136.434 460.713C136.529 460.899 136.665 461.061 136.831 461.187C136.998 461.313 137.19 461.4 137.395 461.441C141.017 462.158 142.809 462.324 147.353 463.31C150.144 463.911 156.454 465.447 160.307 466.279C164.16 467.111 165.504 463.412 163.993 462.721C157.248 459.636 154.432 456.922 152.601 454.401C152.272 453.943 151.784 453.624 151.232 453.505Z" fill="#263238"/>
<path d="M219.52 455.68H209.28C209.093 455.681 208.912 455.744 208.766 455.86C208.62 455.977 208.517 456.138 208.473 456.32L206.617 464.679C206.571 464.881 206.571 465.092 206.618 465.294C206.664 465.497 206.757 465.686 206.887 465.847C207.018 466.009 207.184 466.139 207.372 466.227C207.561 466.315 207.766 466.359 207.974 466.355C211.673 466.291 217.024 466.074 221.683 466.074C227.123 466.074 231.833 466.368 238.221 466.368C242.061 466.368 243.149 462.464 241.536 462.119C234.176 460.506 228.173 460.339 221.811 456.41C221.13 455.959 220.336 455.706 219.52 455.68Z" fill="#263238"/>
<path d="M181.517 135.847C172.698 137.869 165.427 160.359 165.427 160.359L183.13 173.85C187.715 168.975 190.948 162.988 192.512 156.481C195.546 144.641 190.528 133.773 181.517 135.847Z" fill="#26A37E"/>
<path opacity="0.2" d="M189.069 152.384C184.281 157.12 182.669 165.747 182.349 173.248L183.129 173.85C187.714 168.967 190.952 162.978 192.525 156.467C192.704 155.763 192.857 155.059 192.985 154.368L189.069 152.384Z" fill="black"/>
<path d="M234.24 136.333C234.24 136.333 241.459 143.399 238.733 180.967C238.016 190.9 234.214 202.97 232.243 217.6H188.301C187.942 209.92 188.954 172.224 181.517 135.847C187.093 134.774 192.732 134.064 198.4 133.722C205.519 133.312 212.657 133.312 219.776 133.722C224.658 134.214 229.494 135.087 234.24 136.333Z" fill="#263238"/>
<path opacity="0.6" d="M239.283 167.783C238.451 162.33 237.568 157.543 236.723 153.447L236.441 153.28L222.669 159.053C223.334 167.616 232.384 176.256 238.681 181.312C238.681 181.197 238.681 181.069 238.681 180.967C239.04 176.064 239.219 171.699 239.283 167.783Z" fill="black"/>
<path opacity="0.2" d="M220.518 435.021L220.032 446.246H210.624L211.11 435.021H220.518Z" fill="black"/>
<path opacity="0.2" d="M150.387 432.167L159.578 434.151L154.816 444.609L145.626 442.625L150.387 432.167Z" fill="black"/>
<path d="M196.531 102.656C198.95 111.616 199.897 117.068 205.491 120.819C213.862 126.451 224.268 119.987 224.601 110.425C224.896 101.824 220.889 88.5245 211.225 86.7197C209.092 86.3014 206.887 86.4367 204.821 87.1125C202.755 87.7883 200.897 88.9822 199.423 90.5802C197.95 92.1783 196.91 94.1272 196.404 96.2411C195.898 98.355 195.941 100.563 196.531 102.656Z" fill="#B5715A"/>
<path d="M216.909 217.6C216.909 217.6 206.233 289.472 200.384 316.39C193.984 345.83 159.565 443.418 159.565 443.418L142.733 439.77C142.733 439.77 166.784 360.282 172.173 319.066C174.566 300.698 174.912 269.504 177.997 246.541C179.454 236.3 182.959 226.458 188.301 217.6H216.909Z" fill="#263238"/>
<path d="M163.597 437.76L160.461 443.84L141.517 439.744L143.117 434.048L163.597 437.76Z" fill="#26A37E"/>
<path opacity="0.6" d="M210.163 243.201C197.824 245.62 199.129 291.636 200.614 315.303C204.173 298.573 209.382 266.381 212.941 243.533C212.08 243.109 211.1 242.992 210.163 243.201Z" fill="black"/>
<path d="M232.192 217.6C232.192 217.6 236.032 287.91 235.021 316.582C233.958 346.419 223.501 444.071 223.501 444.071H207.616C207.616 444.071 207.027 348.16 206.336 318.861C205.555 286.925 201.702 217.6 201.702 217.6H232.192Z" fill="#263238"/>
<path d="M226.56 437.76C226.624 437.76 225.651 444.365 225.651 444.365H206.323L205.811 438.464L226.56 437.76Z" fill="#26A37E"/>
<path d="M238.835 144.91C240.282 147.162 241.92 149.684 243.571 152.026C245.222 154.369 246.925 156.737 248.691 159.002C252.036 163.492 255.767 167.68 259.84 171.521C260.826 172.43 261.837 173.274 262.861 174.081L263.629 174.657C263.488 174.582 263.337 174.531 263.181 174.503C262.848 174.439 262.682 174.503 262.771 174.503C263.525 174.559 264.281 174.413 264.96 174.081C266.078 173.6 267.16 173.04 268.198 172.404C272.966 169.261 277.485 165.756 281.715 161.921L287.206 166.362C283.876 171.951 279.73 177.012 274.906 181.377C273.537 182.584 272.063 183.668 270.502 184.615C268.532 185.842 266.333 186.656 264.038 187.009C261.473 187.375 258.862 186.822 256.666 185.447L255.552 184.743C254.093 183.796 252.698 182.798 251.366 181.748C246.299 177.631 241.679 172.993 237.581 167.911C235.571 165.428 233.638 162.919 231.834 160.321C230.029 157.722 228.288 155.201 226.598 152.231L238.835 144.91Z" fill="#B5715A"/>
<path d="M220.365 150.554C217.357 163.162 240.166 175.501 240.166 175.501L254.976 158.145C250.529 151.582 245.463 145.461 239.846 139.866C229.478 129.921 222.643 140.954 220.365 150.554Z" fill="#26A37E"/>
<path d="M280.205 164.493L283.699 153.268L292.902 157.85C292.902 157.85 291.558 166.042 284.864 167.463L280.205 164.493Z" fill="#B5715A"/>
<path d="M287.386 150.157L295.693 152.435L292.902 157.85L283.699 153.267L287.386 150.157Z" fill="#B5715A"/>
<path d="M206.08 115.943C208.469 115.41 210.656 114.203 212.38 112.465C214.104 110.727 215.294 108.532 215.808 106.138C215.808 106.138 213.76 100.737 217.6 97.063C221.44 93.3894 219.546 89.383 215.706 88.6278C211.866 87.8726 205.978 92.4678 205.978 92.4678L201.293 100.865L203.2 109.338L206.08 115.943Z" fill="#263238"/>
<path opacity="0.3" d="M206.08 115.943C208.469 115.41 210.656 114.203 212.38 112.465C214.104 110.727 215.294 108.532 215.808 106.138C215.808 106.138 213.76 100.737 217.6 97.063C221.44 93.3894 219.546 89.383 215.706 88.6278C211.866 87.8726 205.978 92.4678 205.978 92.4678L201.293 100.865L203.2 109.338L206.08 115.943Z" fill="white"/>
<path d="M211.866 103.028C212.489 105.274 213.839 107.25 215.706 108.647C218.151 110.465 219.981 108.647 219.802 105.908C219.648 103.348 218.189 99.5078 215.488 98.7142C212.787 97.9206 211.2 100.327 211.866 103.028Z" fill="#B5715A"/>
<path d="M207.36 113.434C205.069 107.968 200.845 93.8244 215.769 88.6276C215.769 88.6276 214.681 74.9828 221.939 80.538C221.939 80.538 215.001 71.6804 214.041 80.7428C214.041 80.7428 212.339 77.658 214.899 75.6228C214.899 75.6228 201.241 71.0404 201.561 81.3828C201.185 80.319 201.075 79.179 201.243 78.063C201.41 76.947 201.849 75.8892 202.521 74.9828C202.521 74.9828 199.552 74.8036 198.374 79.4884C197.197 84.1732 185.6 83.2004 186.662 93.8628C186.662 93.8628 176.422 106.74 201.011 117.735C201.011 117.735 197.773 119.732 199.616 122.919C199.951 121.801 200.513 120.764 201.266 119.872C202.019 118.98 202.947 118.253 203.993 117.735C203.993 117.735 202.393 121.383 205.811 122.458C205.47 121.515 205.384 120.499 205.562 119.513C205.739 118.526 206.174 117.604 206.822 116.839C207.227 116.382 207.493 115.818 207.589 115.215C207.684 114.612 207.604 113.994 207.36 113.434Z" fill="#263238"/>
<path opacity="0.1" d="M216.153 119.04C212.902 119.194 213.094 122.368 213.146 122.88C215.964 122.606 218.603 121.372 220.621 119.386C219.443 119.591 218.189 118.951 216.153 119.04Z" fill="black"/>
<path d="M214.502 87.2583C214.502 87.2583 216.179 81.0759 219.341 82.3047C222.502 83.5335 220.262 88.5383 221.901 90.8807C221.141 90.5573 220.48 90.0412 219.981 89.3833C219.483 88.7255 219.165 87.9488 219.059 87.1303C218.598 84.2119 215.731 88.6279 215.731 88.6279L214.502 87.2583Z" fill="#263238"/>
<path d="M215.744 112.013L218.79 108.519L217.626 107.495H213.85L212.685 108.519L215.744 112.013Z" fill="#26A37E"/>
<path opacity="0.2" d="M215.322 107.495H213.85L212.685 108.519L215.744 112.013L214.157 108.519L215.322 107.495Z" fill="white"/>
</svg>
