<svg width="475" height="480" viewBox="0 0 475 480" fill="none" xmlns="http://www.w3.org/2000/svg">
<path d="M156.033 77.5898H48.1616V419.477H156.033V77.5898Z" fill="#F5F5F5"/>
<path d="M156.033 77.5898H102.093V418.533H156.033V77.5898Z" fill="#EBEBEB"/>
<path d="M98.5704 44.0176H60.4727V77.5802H98.5704V44.0176Z" fill="#F5F5F5"/>
<path d="M98.5707 44.0176H89.4902V77.5802H98.5707V44.0176Z" fill="#EBEBEB"/>
<path d="M39.1714 77.5801V75.6235H159.194V77.5801" fill="#E0E0E0"/>
<path d="M78.5835 92.2197H69.4529V111.474H78.5835V92.2197Z" fill="#FAFAFA"/>
<path d="M102.093 119.039C102.093 119.24 90.0521 119.4 75.1321 119.4C60.212 119.4 48.1616 119.24 48.1616 119.039C48.1616 118.839 60.202 118.668 75.1321 118.668C90.0622 118.668 102.093 118.829 102.093 119.039Z" fill="#E0E0E0"/>
<path d="M132.986 92.2197H123.855V111.474H132.986V92.2197Z" fill="#E0E0E0"/>
<path d="M156.505 119.039C156.505 119.24 144.465 119.4 129.534 119.4C114.604 119.4 102.564 119.24 102.564 119.039C102.564 118.839 114.604 118.668 129.534 118.668C144.465 118.668 156.505 118.829 156.505 119.039Z" fill="#E0E0E0"/>
<path d="M132.986 130.448H123.855V149.702H132.986V130.448Z" fill="#E0E0E0"/>
<path d="M156.505 157.257C156.505 157.468 144.465 157.629 129.534 157.629C114.604 157.629 102.564 157.468 102.564 157.257C102.564 157.047 114.604 156.896 129.534 156.896C144.465 156.896 156.505 157.067 156.505 157.257Z" fill="#E0E0E0"/>
<path d="M132.986 169.83H123.855V189.084H132.986V169.83Z" fill="#E0E0E0"/>
<path d="M156.505 196.64C156.505 196.84 144.465 197.011 129.534 197.011C114.604 197.011 102.564 196.84 102.564 196.64C102.564 196.439 114.604 196.278 129.534 196.278C144.465 196.278 156.505 196.439 156.505 196.64Z" fill="#E0E0E0"/>
<path d="M132.986 209.212H123.855V228.466H132.986V209.212Z" fill="#E0E0E0"/>
<path d="M156.505 236.022C156.505 236.222 144.465 236.393 129.534 236.393C114.604 236.393 102.564 236.222 102.564 236.022C102.564 235.821 114.604 235.65 129.534 235.65C144.465 235.65 156.505 235.821 156.505 236.022Z" fill="#E0E0E0"/>
<path d="M132.986 247.47H123.855V266.725H132.986V247.47Z" fill="#E0E0E0"/>
<path d="M156.505 274.28C156.505 274.481 144.465 274.641 129.534 274.641C114.604 274.641 102.564 274.481 102.564 274.28C102.564 274.079 114.604 273.909 129.534 273.909C144.465 273.909 156.505 274.069 156.505 274.28Z" fill="#E0E0E0"/>
<path d="M132.986 285.869H123.855V305.123H132.986V285.869Z" fill="#E0E0E0"/>
<path d="M132.986 324.789H123.855V344.044H132.986V324.789Z" fill="#E0E0E0"/>
<path d="M156.505 312.689C156.505 312.889 144.465 313.05 129.534 313.05C114.604 313.05 102.564 312.889 102.564 312.689C102.564 312.488 114.604 312.317 129.534 312.317C144.465 312.317 156.505 312.478 156.505 312.689Z" fill="#E0E0E0"/>
<path d="M78.5835 131.03H69.4529V150.284H78.5835V131.03Z" fill="#FAFAFA"/>
<path d="M102.093 157.849C102.093 158.05 90.0521 158.21 75.1321 158.21C60.212 158.21 48.1616 158.05 48.1616 157.849C48.1616 157.649 60.202 157.478 75.1321 157.478C90.0622 157.478 102.093 157.639 102.093 157.849Z" fill="#E0E0E0"/>
<path d="M78.5835 169.84H69.4529V189.094H78.5835V169.84Z" fill="#FAFAFA"/>
<path d="M102.093 196.66C102.093 196.86 90.0521 197.021 75.1321 197.021C60.212 197.021 48.1616 196.86 48.1616 196.66C48.1616 196.459 60.202 196.288 75.1321 196.288C90.0622 196.288 102.093 196.449 102.093 196.66Z" fill="#E0E0E0"/>
<path d="M78.5835 208.66H69.4529V227.914H78.5835V208.66Z" fill="#FAFAFA"/>
<path d="M102.093 235.47C102.093 235.671 90.0521 235.831 75.1321 235.831C60.212 235.831 48.1616 235.671 48.1616 235.47C48.1616 235.269 60.202 235.099 75.1321 235.099C90.0622 235.099 102.093 235.259 102.093 235.47Z" fill="#E0E0E0"/>
<path d="M78.5835 247.47H69.4529V266.725H78.5835V247.47Z" fill="#FAFAFA"/>
<path d="M102.093 274.28C102.093 274.481 90.0521 274.641 75.1321 274.641C60.212 274.641 48.1616 274.481 48.1616 274.28C48.1616 274.079 60.202 273.909 75.1321 273.909C90.0622 273.909 102.093 274.069 102.093 274.28Z" fill="#E0E0E0"/>
<path d="M78.5835 286.28H69.4529V305.535H78.5835V286.28Z" fill="#FAFAFA"/>
<path d="M102.093 313.09C102.093 313.291 90.0521 313.451 75.1321 313.451C60.212 313.451 48.1616 313.291 48.1616 313.09C48.1616 312.89 60.202 312.719 75.1321 312.719C90.0622 312.719 102.093 312.88 102.093 313.09Z" fill="#E0E0E0"/>
<path d="M78.5835 325.09H69.4529V344.345H78.5835V325.09Z" fill="#FAFAFA"/>
<path d="M250.099 308.776H131.983V464.568H250.099V308.776Z" fill="#EBEBEB"/>
<path d="M250.109 308.776H194.723V464.568H250.109V308.776Z" fill="#E0E0E0"/>
<path d="M167.371 329.866H156.756V355.673H167.371V329.866Z" fill="#F5F5F5"/>
<path d="M167.371 430.855H156.756V456.662H167.371V430.855Z" fill="#F5F5F5"/>
<path d="M194.723 365.767C194.723 366.058 180.676 366.299 163.358 366.299C146.04 366.299 131.983 366.058 131.983 365.767C131.983 365.476 146.03 365.245 163.358 365.245C180.686 365.245 194.723 365.506 194.723 365.767Z" fill="#F5F5F5"/>
<path d="M167.371 380.747H156.756V406.554H167.371V380.747Z" fill="#F5F5F5"/>
<path d="M194.723 416.678C194.723 416.969 180.676 417.2 163.358 417.2C146.04 417.2 131.983 416.969 131.983 416.678C131.983 416.387 146.03 416.146 163.358 416.146C180.686 416.146 194.723 416.387 194.723 416.678Z" fill="#F5F5F5"/>
<path d="M217.098 329.866H206.483V355.673H217.098V329.866Z" fill="#F5F5F5"/>
<path d="M240.135 329.866H229.52V355.673H240.135V329.866Z" fill="#F5F5F5"/>
<path d="M217.098 378.831H206.483V404.637H217.098V378.831Z" fill="#F5F5F5"/>
<path d="M240.135 378.831H229.52V404.637H240.135V378.831Z" fill="#F5F5F5"/>
<path d="M217.098 427.795H206.483V453.601H217.098V427.795Z" fill="#F5F5F5"/>
<path d="M240.135 427.795H229.52V453.601H240.135V427.795Z" fill="#F5F5F5"/>
<path d="M251.614 303.357H123.103V308.976H251.614V303.357Z" fill="#E0E0E0"/>
<path d="M250.922 309.498C250.922 309.789 224.523 310.03 191.964 310.03C159.405 310.03 133.006 309.789 133.006 309.498C133.006 309.207 159.395 308.976 191.964 308.976C224.533 308.976 250.922 309.217 250.922 309.498Z" fill="#EBEBEB"/>
<path d="M129.494 464.598H10.4451L9.92334 276.437H128.983L129.494 464.598Z" fill="#EBEBEB"/>
<path d="M128.983 276.437H69.4529V464.598H128.983V276.437Z" fill="#E0E0E0"/>
<path d="M65.5601 239.393H23.519V276.437H65.5601V239.393Z" fill="#EBEBEB"/>
<path d="M65.5598 239.393H55.5361V276.437H65.5598V239.393Z" fill="#E0E0E0"/>
<path d="M132.464 274.27H0V276.427H132.464V274.27Z" fill="#E0E0E0"/>
<path d="M43.4959 292.591H33.4221V313.843H43.4959V292.591Z" fill="white"/>
<path d="M69.4528 322.181C69.4528 322.401 56.1181 322.582 39.683 322.582C23.2478 322.582 9.90308 322.401 9.90308 322.181C9.90308 321.96 23.2278 321.769 39.6629 321.769C56.098 321.769 69.4528 321.95 69.4528 322.181Z" fill="#E0E0E0"/>
<path d="M103.537 292.591H93.4634V313.843H103.537V292.591Z" fill="#F5F5F5"/>
<path d="M129.495 322.181C129.495 322.401 116.17 322.582 99.7347 322.582C83.2996 322.582 69.9648 322.401 69.9648 322.181C69.9648 321.96 83.2895 321.769 99.7347 321.769C116.18 321.769 129.495 321.95 129.495 322.181Z" fill="#EBEBEB"/>
<path d="M103.537 334.773H93.4634V356.024H103.537V334.773Z" fill="#F5F5F5"/>
<path d="M129.495 364.362C129.495 364.593 116.17 364.774 99.7347 364.774C83.2996 364.774 69.9648 364.593 69.9648 364.362C69.9648 364.132 83.2895 363.961 99.7347 363.961C116.18 363.961 129.495 364.142 129.495 364.362Z" fill="#EBEBEB"/>
<path d="M103.537 378.239H93.4634V399.49H103.537V378.239Z" fill="#F5F5F5"/>
<path d="M129.495 407.828C129.495 408.049 116.17 408.229 99.7347 408.229C83.2996 408.229 69.9648 408.049 69.9648 407.828C69.9648 407.607 83.2895 407.427 99.7347 407.427C116.18 407.427 129.495 407.607 129.495 407.828Z" fill="#EBEBEB"/>
<path d="M103.537 421.705H93.4634V442.956H103.537V421.705Z" fill="#F5F5F5"/>
<path d="M129.495 451.294C129.495 451.514 116.17 451.695 99.7347 451.695C83.2996 451.695 69.9648 451.514 69.9648 451.294C69.9648 451.073 83.2895 450.882 99.7347 450.882C116.18 450.882 129.495 451.053 129.495 451.294Z" fill="#EBEBEB"/>
<path d="M43.4959 335.425H33.4221V356.677H43.4959V335.425Z" fill="white"/>
<path d="M69.4528 365.014C69.4528 365.235 56.1181 365.416 39.683 365.416C23.2478 365.416 9.90308 365.235 9.90308 365.014C9.90308 364.793 23.2278 364.603 39.6629 364.603C56.098 364.603 69.4528 364.763 69.4528 365.014Z" fill="#E0E0E0"/>
<path d="M43.4959 378.259H33.4221V399.51H43.4959V378.259Z" fill="white"/>
<path d="M69.4528 407.838C69.4528 408.069 56.1181 408.249 39.683 408.249C23.2478 408.249 9.90308 408.069 9.90308 407.838C9.90308 407.607 23.2278 407.437 39.6629 407.437C56.098 407.437 69.4528 407.617 69.4528 407.838Z" fill="#E0E0E0"/>
<path d="M43.4959 421.083H33.4221V442.334H43.4959V421.083Z" fill="white"/>
<path d="M69.4528 450.672C69.4528 450.902 56.1181 451.083 39.683 451.083C23.2478 451.083 9.90308 450.902 9.90308 450.672C9.90308 450.441 23.2278 450.27 39.6629 450.27C56.098 450.27 69.4528 450.451 69.4528 450.672Z" fill="#E0E0E0"/>
<path d="M464.016 377.456L425.848 258.105L388.874 374.446L401.908 369.519L374.054 439.444L392.406 431.748L384.359 464.939L474.271 465.17L463.214 429.571L472.725 440.688L448.504 370.964L464.016 377.456Z" fill="#EBEBEB"/>
<path d="M362.476 362.526L318.067 223.65L275.053 359.014L290.224 353.285L257.815 434.638L279.157 425.688L269.795 464.297L374.406 464.568L361.543 423.149L372.61 436.083L344.435 354.961L362.476 362.526Z" fill="#E0E0E0"/>
<path d="M404.707 397.915L383.807 310.361L351.047 391.704L360.65 388.874L336.92 437.457L350.486 432.932L334.101 464.568H407.537L401.316 435.19L407.537 443.668L393.951 392.426L404.707 397.915Z" fill="#F5F5F5"/>
<path d="M251.624 0C251.764 0 251.885 104.671 251.885 233.784C251.885 362.897 251.764 467.568 251.624 467.568C251.483 467.568 251.363 362.917 251.363 233.784C251.363 104.651 251.473 0 251.624 0Z" fill="#E0E0E0"/>
<path d="M363.218 52.8874C363.81 48.593 357.75 45.0611 353.185 44.6899C351.017 44.5193 348.76 44.8504 346.703 44.138C342.248 42.5828 340.472 36.8235 336.127 34.9873C332.876 33.6227 329.104 34.8468 325.983 36.4322C322.863 38.0175 319.722 40.0041 316.2 40.2349C313.19 40.4256 309.809 39.2918 307.17 40.7868C305.163 41.9005 304.16 44.2082 302.294 45.5628C300.428 46.9173 298.14 47.1682 295.912 47.2886C293.685 47.409 291.367 47.4391 289.33 48.3722C287.293 49.3053 285.618 51.4525 286.039 53.6499L363.218 52.8874Z" fill="#EBEBEB"/>
<path d="M468.18 101.38C468.772 97.0857 462.712 93.5538 458.147 93.1926C455.969 93.012 453.722 93.3431 451.665 92.6307C447.21 91.0755 445.424 85.3262 441.079 83.4901C437.829 82.1155 434.056 83.3396 430.935 84.9249C427.815 86.5102 424.674 88.5069 421.153 88.7276C418.092 88.9283 414.771 87.7945 412.122 89.2895C410.116 90.4032 409.112 92.701 407.236 94.0555C405.36 95.41 403.092 95.6709 400.855 95.7913C398.617 95.9117 396.309 95.9318 394.272 96.8649C392.236 97.7981 390.56 99.9453 390.981 102.143L468.18 101.38Z" fill="#EBEBEB"/>
<path d="M344.185 174.385C344.777 170.101 338.716 166.569 334.151 166.197C331.984 166.027 329.726 166.358 327.669 165.636C323.214 164.09 321.438 158.331 317.084 156.495C313.833 155.13 310.06 156.344 306.94 157.93C303.819 159.515 300.679 161.512 297.157 161.743C294.097 161.933 290.775 160.799 288.127 162.294C286.12 163.408 285.117 165.706 283.24 167.07C281.364 168.435 279.096 168.676 276.859 168.796C274.621 168.917 272.314 168.937 270.287 169.87C268.26 170.803 266.564 172.95 266.986 175.147L344.185 174.385Z" fill="#EBEBEB"/>
<path d="M472.304 464.568C472.304 464.709 367.693 464.829 238.681 464.829C109.668 464.829 5.03687 464.709 5.03687 464.568C5.03687 464.428 109.618 464.307 238.681 464.307C367.743 464.307 472.304 464.428 472.304 464.568Z" fill="#263238"/>
<path d="M358.532 419.768C375.273 419.768 388.844 337.107 388.844 235.139C388.844 133.171 375.273 50.5093 358.532 50.5093C341.792 50.5093 328.221 133.171 328.221 235.139C328.221 337.107 341.792 419.768 358.532 419.768Z" fill="#DD8823"/>
<g opacity="0.2">
<path d="M367.362 74.3691C366.279 72.4083 364.558 70.8766 362.485 70.028C360.412 69.1794 358.111 69.0649 355.964 69.7034C350.566 71.369 347.676 77.2989 346.683 82.8575C345.689 88.4162 345.9 94.2658 343.793 99.5134C342.649 102.383 340.783 105.323 341.495 108.333C341.806 109.627 342.579 110.771 342.88 112.066C343.129 113.581 343.061 115.133 342.679 116.621C341.342 124.066 340.338 131.558 339.669 139.096C339.387 140.894 339.28 142.716 339.348 144.534C339.382 144.927 339.538 145.299 339.795 145.598C340.052 145.896 340.396 146.107 340.779 146.199C341.162 146.291 341.564 146.26 341.929 146.111C342.293 145.962 342.601 145.701 342.81 145.367C343.009 145.042 343.155 144.686 343.241 144.314C343.414 142.75 343.274 141.167 342.83 139.658C341.97 135.056 342.526 130.301 344.425 126.022C345.148 124.799 345.58 123.426 345.689 122.009C345.689 121.005 345.228 120.002 345.218 118.999C345.218 116.49 347.646 114.504 347.736 111.975C347.668 110.818 347.424 109.678 347.014 108.594C346.624 107.091 346.535 105.526 346.75 103.989C346.965 102.452 347.481 100.972 348.268 99.6338C349.051 98.3194 350.144 96.995 349.954 95.4799C349.823 94.4765 349.151 93.6337 348.95 92.6504C348.338 89.1486 353.606 87.7439 355.221 84.6235C356.275 82.5264 355.803 79.4963 357.8 78.2621C360.549 76.5664 364.763 80.4495 367.031 77.7905C367.416 77.3159 367.653 76.7382 367.712 76.1297C367.771 75.5212 367.649 74.9088 367.362 74.3691Z" fill="black"/>
</g>
<g opacity="0.2">
<path d="M373.683 91.6872C373.566 91.3653 373.502 91.0264 373.493 90.6838C373.594 90.135 373.749 89.5973 373.954 89.0785C373.959 88.6163 373.836 88.1619 373.599 87.7653C373.361 87.3687 373.019 87.0453 372.61 86.8309C372.229 86.6225 371.796 86.5313 371.364 86.5688C370.932 86.6063 370.52 86.7708 370.182 87.0416C369.279 87.2624 369.128 88.5166 369.489 89.3694C369.982 90.1443 370.386 90.9723 370.693 91.8377C370.738 92.4087 370.738 92.9824 370.693 93.5535C370.761 94.7939 371.104 96.0038 371.697 97.0954C371.968 97.6974 372.389 98.3997 373.051 98.3696C373.894 98.3696 374.145 97.2057 374.145 96.3629C374.21 94.7904 374.054 93.2166 373.683 91.6872Z" fill="black"/>
</g>
<g opacity="0.3">
<path d="M365.676 208.037C364.827 196.439 364.262 184.823 363.981 173.191C363.72 162.154 369.82 152.12 369.83 141.083C369.83 130.758 369.83 114.454 369.83 104.129L365.737 93.1923C365.491 92.5366 365.096 91.9474 364.582 91.4716C364.069 90.9958 363.451 90.6465 362.779 90.4516C362.106 90.2567 361.397 90.2216 360.709 90.349C360.021 90.4764 359.372 90.7629 358.813 91.1855C356.666 92.8511 354.579 95.8913 352.081 99.9148C351.298 101.178 350.808 102.601 350.646 104.079C349.522 115.337 353.124 126.835 350.887 137.932C349.944 142.648 347.957 147.133 347.345 151.909C346.171 161.02 350.074 170.381 348.017 179.331C347.014 183.545 344.786 187.458 344.495 191.773C343.974 199.288 349.512 206.322 348.679 213.847C348.378 216.586 347.245 219.155 346.623 221.874C345.619 226.279 345.98 230.904 346.362 235.389C347.091 244.038 347.827 252.691 348.569 261.346C348.993 264.979 349.077 268.644 348.82 272.293C348.198 278.313 345.76 284.042 344.977 290.053C342.148 311.565 338.726 328.983 346.392 350.355C352.412 367.081 344.455 374.275 358.332 396.048C358.874 396.901 366.941 369.429 368.185 369.339C368.614 369.297 369.019 369.119 369.338 368.83C369.658 368.54 369.877 368.156 369.961 367.733C375.067 346.061 374.176 323.407 367.382 302.203C366.638 300.321 366.22 298.326 366.148 296.304C366.208 294.297 366.991 292.39 367.442 290.434C369.901 279.828 362.586 268.932 364.372 258.196C365.215 253.079 368.074 248.493 369.068 243.406C370.322 236.965 368.516 230.362 367.402 223.931C366.519 218.623 366.098 213.325 365.676 208.037Z" fill="black"/>
</g>
<path d="M367.984 175.739C367.924 175.81 367.462 175.378 366.6 174.987C366.093 174.762 365.548 174.632 364.994 174.606C364.319 174.54 363.638 174.605 362.987 174.796C362.37 175.026 361.844 175.453 361.492 176.01C361.154 176.468 360.852 176.951 360.589 177.455C360.385 177.944 360.151 178.42 359.887 178.88C359.867 178.329 359.992 177.782 360.248 177.295C360.478 176.75 360.76 176.229 361.091 175.739C361.487 175.08 362.096 174.574 362.817 174.305C364.124 173.904 365.535 174.03 366.75 174.656C367.663 175.177 368.024 175.709 367.984 175.739Z" fill="#263238"/>
<g opacity="0.2">
<path d="M380.255 324.227C379.859 322.401 379.66 320.538 379.663 318.669C379.744 316.953 380.205 315.267 380.245 313.552C380.316 309.939 378.49 306.528 378.61 302.866C378.74 298.922 381.179 294.919 379.744 291.227C379.537 290.608 379.149 290.066 378.63 289.671C377.185 288.668 375.078 289.762 374.366 291.357C373.653 292.952 373.924 294.789 374.215 296.504C374.573 297.963 374.618 299.482 374.346 300.959C372.64 304.371 373.122 308.655 374.125 312.438C375.249 316.672 376.924 320.956 376.382 325.311C376.081 327.669 375.138 329.926 374.948 332.335C374.566 336.86 376.954 341.265 376.673 345.8C376.483 349.021 374.978 352.011 374.446 355.191C373.914 358.372 374.797 362.265 377.767 363.519C381.581 350.783 382.432 337.343 380.255 324.227Z" fill="black"/>
</g>
<g opacity="0.2">
<path d="M340.683 251.202C340.733 245.854 343.582 240.657 342.8 235.359C342.238 231.587 339.85 228.065 340.281 224.272C340.562 221.814 342.027 219.526 341.897 217.048C341.766 214.57 340.061 212.402 339.89 209.934C339.78 208.379 340.281 206.844 340.352 205.288C340.422 203.733 339.86 201.947 338.415 201.365L338.014 202.268C336.519 207.104 335.004 212.202 336.077 217.148C336.507 218.561 336.796 220.013 336.94 221.483C336.94 224.081 335.415 226.5 335.335 229.068C335.254 231.637 336.549 233.854 337.251 236.242C340.372 246.948 331.683 259.249 336.85 269.133C337.271 269.925 337.984 270.788 338.857 270.628C339.272 270.519 339.641 270.28 339.91 269.945C342.128 267.587 342.449 264.015 342.047 260.805C341.646 257.594 340.663 254.443 340.683 251.202Z" fill="black"/>
</g>
<path d="M383.155 251.634L384.349 252.246C384.382 252.267 384.41 252.295 384.429 252.33C384.447 252.364 384.457 252.402 384.457 252.442C384.457 252.481 384.447 252.519 384.429 252.553C384.41 252.588 384.382 252.616 384.349 252.637L383.185 253.309C383.146 253.329 383.114 253.361 383.095 253.4L382.483 254.594C382.462 254.627 382.433 254.654 382.399 254.673C382.365 254.692 382.326 254.702 382.287 254.702C382.248 254.702 382.209 254.692 382.175 254.673C382.141 254.654 382.112 254.627 382.091 254.594L381.419 253.43C381.4 253.391 381.368 253.359 381.329 253.34L380.135 252.728C380.099 252.709 380.069 252.681 380.048 252.646C380.027 252.612 380.016 252.572 380.016 252.532C380.016 252.492 380.027 252.452 380.048 252.417C380.069 252.383 380.099 252.355 380.135 252.336L381.289 251.664C381.328 251.644 381.36 251.613 381.379 251.574L381.991 250.38C382.012 250.346 382.041 250.319 382.075 250.3C382.109 250.281 382.148 250.271 382.187 250.271C382.226 250.271 382.264 250.281 382.299 250.3C382.333 250.319 382.362 250.346 382.382 250.38L383.055 251.544C383.077 251.584 383.112 251.616 383.155 251.634Z" fill="white"/>
<path d="M336.93 285.397L338.124 286.009C338.157 286.03 338.185 286.059 338.204 286.093C338.223 286.127 338.232 286.166 338.232 286.205C338.232 286.244 338.223 286.283 338.204 286.317C338.185 286.351 338.157 286.38 338.124 286.401L336.96 287.073C336.921 287.092 336.889 287.124 336.87 287.163L336.258 288.357C336.239 288.393 336.211 288.423 336.177 288.444C336.142 288.465 336.102 288.476 336.062 288.476C336.022 288.476 335.982 288.465 335.948 288.444C335.913 288.423 335.885 288.393 335.866 288.357L335.194 287.203C335.175 287.164 335.143 287.132 335.104 287.113L333.91 286.501C333.877 286.48 333.849 286.451 333.83 286.417C333.811 286.383 333.802 286.344 333.802 286.305C333.802 286.266 333.811 286.228 333.83 286.193C333.849 286.159 333.877 286.13 333.91 286.11L335.074 285.437C335.113 285.418 335.145 285.386 335.164 285.347L335.776 284.153C335.797 284.12 335.826 284.093 335.86 284.074C335.894 284.055 335.933 284.045 335.972 284.045C336.011 284.045 336.049 284.055 336.084 284.074C336.118 284.093 336.147 284.12 336.168 284.153L336.84 285.317C336.861 285.352 336.892 285.38 336.93 285.397Z" fill="white"/>
<path d="M375.549 96.2025C376.287 95.3786 377.262 94.8032 378.34 94.5553C379.418 94.3074 380.546 94.3991 381.57 94.8179C383.069 94.1607 384.745 94.0259 386.33 94.4353C387.914 94.8447 389.316 95.7744 390.309 97.0755C391.386 96.7503 392.529 96.7059 393.628 96.9465C394.727 97.1871 395.747 97.7047 396.59 98.4501C397.414 99.218 398.03 100.182 398.381 101.252C398.732 102.322 398.806 103.464 398.597 104.571C399.732 104.678 400.807 105.131 401.677 105.868C402.548 106.606 403.171 107.592 403.463 108.694C403.72 109.812 403.629 110.981 403.204 112.046C402.78 113.11 402.04 114.021 401.085 114.654C402.191 115.337 403.005 116.404 403.372 117.651C403.739 118.897 403.632 120.235 403.072 121.408C402.512 122.58 401.538 123.504 400.338 124.003C399.138 124.501 397.796 124.538 396.57 124.106L374.998 102.413C374.436 101.448 374.187 100.333 374.286 99.2202C374.385 98.1079 374.826 97.0535 375.549 96.2025Z" fill="#263238"/>
<path d="M397.202 124.959C398.063 119.434 396.815 113.788 393.705 109.14C390.595 104.493 385.851 101.186 380.416 99.8749L379.292 99.614C367.061 97.4468 364.181 107.641 362.335 119.992L360.94 165.365L364.302 186.586L372.941 175.549L377.215 163.819C377.215 163.819 389.255 164.763 392.165 153.134C393.59 147.505 395.557 135.705 397.202 124.959Z" fill="#AD6359"/>
<path d="M377.325 163.82C371.933 162.539 367.025 159.731 363.188 155.732C363.188 155.732 364.272 165.194 376.101 166.9L377.325 163.82Z" fill="#734738"/>
<path d="M391.282 134.993C391.186 135.43 390.922 135.812 390.546 136.056C390.171 136.3 389.714 136.387 389.276 136.297C389.06 136.263 388.854 136.187 388.669 136.072C388.484 135.957 388.323 135.807 388.197 135.629C388.071 135.451 387.982 135.25 387.934 135.038C387.887 134.825 387.882 134.605 387.921 134.391C388.017 133.953 388.282 133.572 388.657 133.328C389.033 133.084 389.489 132.997 389.928 133.086C390.142 133.122 390.348 133.199 390.532 133.314C390.717 133.429 390.877 133.58 391.003 133.757C391.129 133.934 391.218 134.135 391.266 134.347C391.314 134.559 391.32 134.779 391.282 134.993Z" fill="#263238"/>
<path d="M393.349 130.738C393.088 130.909 392.055 129.675 390.279 129.253C388.503 128.832 386.968 129.424 386.827 129.153C386.687 128.882 387.058 128.692 387.73 128.411C388.629 128.061 389.613 127.994 390.55 128.22C391.481 128.437 392.318 128.947 392.938 129.675C393.379 130.227 393.47 130.668 393.349 130.738Z" fill="#263238"/>
<path d="M375.82 132.143C375.722 132.578 375.457 132.958 375.081 133.2C374.706 133.442 374.251 133.527 373.814 133.437C373.599 133.403 373.392 133.327 373.207 133.212C373.022 133.097 372.862 132.947 372.735 132.769C372.609 132.592 372.52 132.391 372.472 132.178C372.425 131.965 372.42 131.745 372.459 131.531C372.56 131.096 372.826 130.718 373.2 130.474C373.574 130.231 374.028 130.142 374.466 130.227C374.682 130.26 374.889 130.337 375.075 130.453C375.261 130.568 375.422 130.72 375.548 130.898C375.675 131.077 375.764 131.279 375.811 131.493C375.857 131.707 375.861 131.928 375.82 132.143Z" fill="#263238"/>
<path d="M376.352 126.434C376.102 126.605 375.068 125.371 373.282 124.949C371.496 124.528 369.981 125.12 369.841 124.849C369.77 124.728 370.071 124.387 370.734 124.106C371.634 123.751 372.623 123.685 373.563 123.916C374.49 124.136 375.323 124.645 375.941 125.371C376.382 125.963 376.483 126.364 376.352 126.434Z" fill="#263238"/>
<path d="M379.062 141.113C380.068 141.046 381.079 141.104 382.072 141.284C382.543 141.344 382.995 141.354 383.145 141.053C383.285 140.589 383.285 140.093 383.145 139.628C382.975 138.414 382.804 137.15 382.623 135.826C381.941 130.417 381.56 126.013 381.771 125.983C381.981 125.952 382.774 130.317 383.416 135.725C383.567 137.06 383.727 138.324 383.868 139.538C384.022 140.16 383.954 140.816 383.677 141.394C383.572 141.54 383.435 141.66 383.277 141.745C383.119 141.831 382.943 141.879 382.764 141.886C382.497 141.893 382.231 141.866 381.971 141.806C380.976 141.702 379.997 141.469 379.062 141.113Z" fill="#263238"/>
<path d="M373.523 141.113C373.814 141.163 373.362 143.12 374.687 144.886C376.011 146.652 378.118 146.893 378.078 147.214C378.078 147.334 377.526 147.475 376.643 147.294C375.505 147.04 374.495 146.389 373.794 145.458C373.115 144.564 372.809 143.442 372.941 142.327C373.061 141.495 373.392 141.063 373.523 141.113Z" fill="#263238"/>
<path d="M377.596 121.317C377.275 121.728 375.84 120.946 373.964 120.534C372.088 120.123 370.442 120.143 370.362 119.631C370.362 119.39 370.743 119.049 371.496 118.809C372.451 118.519 373.466 118.492 374.436 118.728C375.399 118.939 376.286 119.407 377.004 120.083C377.546 120.625 377.747 121.116 377.596 121.317Z" fill="#263238"/>
<path d="M394.112 125.722C393.73 126.093 392.546 125.471 391.051 125.22C389.556 124.969 388.242 125.079 388.041 124.608C387.951 124.377 388.212 123.986 388.824 123.685C389.64 123.328 390.544 123.223 391.42 123.384C392.297 123.545 393.105 123.964 393.74 124.588C394.192 125.089 394.282 125.551 394.112 125.722Z" fill="#263238"/>
<path d="M366.329 99.3027C373.041 96.3929 380.887 98.1689 386.065 99.9649C391.242 101.761 400.032 110.35 397.373 119.38C397.373 119.38 396.048 111.353 392.948 108.815C389.205 105.744 386.266 109.989 382.493 107.892C378.72 105.794 375.148 102.875 370.272 105.012C364.934 107.37 366.469 110.29 364.964 115.397C364.262 117.755 362.666 120.414 362.004 122.34L362.917 100.447L366.329 99.3027Z" fill="#263238"/>
<path d="M394.423 106.206C394.011 105.092 393.235 104.15 392.221 103.533C391.206 102.915 390.013 102.659 388.834 102.805C388.764 101.388 388.273 100.025 387.426 98.8881C386.578 97.7514 385.411 96.8926 384.073 96.4213C382.736 95.95 381.288 95.8875 379.915 96.2416C378.542 96.5957 377.305 97.3505 376.362 98.4099C375.698 97.45 374.814 96.6618 373.785 96.1106C372.756 95.5593 371.61 95.2606 370.442 95.2393C368.115 95.2393 364.543 97.4266 363.188 99.333L362.516 117.805C363.113 118.044 363.776 118.059 364.383 117.847C364.99 117.635 365.499 117.21 365.817 116.651C366.048 116.119 366.068 115.447 366.529 115.106C366.991 114.765 367.844 115.046 368.536 115.276C369.678 115.64 370.91 115.6 372.025 115.161C373.14 114.722 374.069 113.913 374.657 112.868C374.909 113.357 375.337 113.732 375.854 113.918C376.372 114.104 376.94 114.088 377.446 113.872C378.429 113.399 379.341 112.791 380.155 112.066C380.561 111.711 381.047 111.459 381.571 111.334C382.095 111.208 382.642 111.211 383.165 111.343C383.727 111.564 384.169 112.046 384.791 112.136C385.864 112.286 386.657 111.133 387.068 110.129C387.48 109.126 387.881 107.942 388.894 107.591C389.908 107.24 390.831 107.811 391.754 108.183C392.677 108.554 393.971 108.624 394.433 107.741C394.535 107.498 394.587 107.236 394.586 106.973C394.584 106.709 394.529 106.448 394.423 106.206Z" fill="#263238"/>
<path d="M374.506 96.4935C374.506 96.4935 374.707 96.6039 375.018 96.8347C375.484 97.1674 375.835 97.6374 376.021 98.1792L376.081 98.3598L376.222 98.2293C377.54 97.1192 379.117 96.3599 380.807 96.0219C381.889 95.7919 383.007 95.7919 384.088 96.0219C385.265 96.3428 386.331 96.9816 387.169 97.8681C387.848 98.5452 388.374 99.3593 388.714 100.256C389.019 101.09 389.123 101.984 389.015 102.865V103.126H389.276C390.456 103.09 391.604 103.514 392.476 104.31C393.159 104.943 393.626 105.775 393.811 106.688C393.955 107.51 393.935 108.352 393.751 109.166C393.868 108.97 393.953 108.757 394.001 108.534C394.16 107.914 394.184 107.267 394.072 106.638C393.914 105.65 393.438 104.741 392.717 104.049C391.79 103.153 390.545 102.663 389.256 102.684L389.476 102.935C389.613 101.982 389.513 101.011 389.185 100.106C388.778 99.011 388.107 98.0336 387.232 97.26C386.357 96.4865 385.305 95.9406 384.169 95.6708C383.028 95.419 381.847 95.419 380.707 95.6708C378.962 96.0424 377.351 96.8778 376.041 98.0889L376.242 98.1491C376.027 97.575 375.623 97.0906 375.098 96.7745C374.737 96.5136 374.516 96.4734 374.506 96.4935Z" fill="#455A64"/>
<path d="M444.28 191.683L443.347 183.756L447.832 178.258C447.832 178.258 452.658 175.529 453.27 174.726C453.546 174.988 453.742 175.324 453.834 175.694C453.927 176.063 453.912 176.451 453.792 176.813C453.792 176.813 455.347 174.806 456.381 174.947C457.414 175.087 458.107 176.833 458.387 178.077C459.129 178.426 459.812 178.886 460.414 179.442C461.04 180.004 461.48 180.742 461.678 181.559L461.418 183.154C461.804 183.109 462.194 183.18 462.54 183.359C462.885 183.538 463.168 183.816 463.354 184.157C463.734 185.091 463.862 186.109 463.725 187.107C463.725 187.107 464.959 186.425 465.551 187.418C465.824 187.755 466.011 188.153 466.096 188.577C466.182 189.002 466.164 189.441 466.043 189.857C465.782 190.699 461.809 197.362 460.444 198.395C459.08 199.429 447.732 208.329 447.732 208.329L437.889 198.004L444.28 191.683Z" fill="#AD6359"/>
<path d="M464.578 190.178C464.121 190.91 463.544 191.561 462.872 192.104C462.179 192.73 461.438 193.3 460.655 193.81C460.184 194.184 459.601 194.393 458.999 194.402C458.66 194.384 458.332 194.275 458.049 194.086C457.766 193.897 457.54 193.635 457.394 193.328C457.254 193.023 457.192 192.688 457.215 192.353C457.238 192.019 457.344 191.695 457.524 191.412C457.857 190.937 458.271 190.526 458.749 190.198C459.487 189.635 460.258 189.116 461.056 188.643C461.767 188.156 462.544 187.774 463.364 187.509C462.683 188.022 461.976 188.501 461.247 188.944C460.605 189.385 459.842 189.947 459.03 190.569C458.608 190.87 458.245 191.243 457.956 191.673C457.817 191.885 457.735 192.129 457.718 192.382C457.7 192.635 457.748 192.888 457.856 193.118C457.964 193.342 458.129 193.533 458.335 193.673C458.542 193.812 458.781 193.894 459.03 193.91C459.528 193.897 460.01 193.724 460.404 193.419C461.184 192.936 461.931 192.403 462.642 191.823C463.856 190.86 464.518 190.178 464.578 190.178Z" fill="#734738"/>
<path d="M458.679 178.197C458.729 178.268 457.906 178.96 456.672 180.204C455.964 180.929 455.294 181.689 454.665 182.482C454.304 182.933 453.953 183.405 453.591 183.917C453.225 184.513 452.655 184.955 451.986 185.161C451.793 185.206 451.592 185.211 451.397 185.174C451.202 185.138 451.016 185.062 450.852 184.95C450.55 184.738 450.322 184.436 450.2 184.087C450.1 183.769 450.064 183.433 450.095 183.101C450.126 182.768 450.223 182.445 450.381 182.151C450.623 181.649 450.908 181.169 451.234 180.716L452.036 179.542C452.524 178.737 453.089 177.981 453.722 177.284C453.328 178.14 452.865 178.962 452.337 179.743C451.906 180.485 451.264 181.348 450.802 182.331C450.68 182.574 450.608 182.838 450.591 183.109C450.573 183.379 450.611 183.651 450.702 183.907C450.775 184.163 450.94 184.383 451.167 184.524C451.393 184.665 451.664 184.717 451.926 184.669C452.488 184.49 452.966 184.112 453.27 183.606C453.632 183.104 454.013 182.602 454.374 182.171C455.03 181.38 455.737 180.632 456.491 179.933C457.139 179.259 457.875 178.675 458.679 178.197Z" fill="#734738"/>
<path d="M460.996 182.763C460.996 182.823 460.414 183.335 459.521 184.278C458.408 185.587 457.134 186.75 455.729 187.74C455.332 188.045 454.912 188.32 454.474 188.562C454.222 188.694 453.932 188.737 453.652 188.683C453.41 188.613 453.182 188.501 452.979 188.352C452.77 188.225 452.592 188.054 452.458 187.85C452.341 187.669 452.25 187.474 452.187 187.268C452.07 186.902 452.029 186.516 452.066 186.134C452.104 185.59 452.303 185.07 452.638 184.639C452.869 184.338 453.06 184.238 453.08 184.258C452.68 184.819 452.441 185.478 452.387 186.164C452.369 186.506 452.424 186.848 452.548 187.168C452.608 187.338 452.689 187.499 452.789 187.649C452.896 187.794 453.033 187.913 453.19 188.001C453.351 188.109 453.527 188.193 453.712 188.251C453.889 188.274 454.068 188.239 454.224 188.151C454.631 187.915 455.023 187.653 455.397 187.368C456.772 186.385 458.054 185.28 459.23 184.067C459.731 183.524 460.33 183.082 460.996 182.763Z" fill="#734738"/>
<path d="M463.635 186.796C462.897 187.482 462.102 188.103 461.257 188.652L458.588 190.559C458.068 190.975 457.49 191.313 456.873 191.562C456.496 191.675 456.095 191.675 455.719 191.562C455.515 191.501 455.327 191.396 455.17 191.254C455.012 191.111 454.887 190.936 454.806 190.739C454.679 190.371 454.648 189.976 454.715 189.592C454.781 189.208 454.944 188.847 455.187 188.542C455.581 188.021 456.003 187.522 456.451 187.047C457.181 186.222 457.972 185.454 458.819 184.749C459.384 184.27 459.992 183.844 460.635 183.475C460.873 183.32 461.139 183.211 461.418 183.154C461.468 183.224 460.414 183.796 459.09 185.04C458.295 185.774 457.544 186.555 456.842 187.378C456.451 187.84 456 188.331 455.638 188.843C455.445 189.079 455.313 189.36 455.256 189.659C455.198 189.959 455.216 190.268 455.307 190.559C455.439 190.814 455.663 191.009 455.933 191.104C456.204 191.199 456.5 191.187 456.762 191.071C457.337 190.838 457.877 190.527 458.368 190.148L461.087 188.331C461.891 187.748 462.743 187.234 463.635 186.796Z" fill="#734738"/>
<path d="M453.902 176.693C454.073 176.753 453.12 178.84 451.263 180.897C451.041 181.155 450.803 181.4 450.551 181.629C450.441 181.739 450.28 181.85 450.19 181.94L450.069 182.05C450.062 182.09 450.062 182.131 450.069 182.171C450.08 182.692 450.044 183.212 449.959 183.726C449.778 184.639 449.497 185.141 449.437 185.111C449.463 184.633 449.517 184.157 449.598 183.686C449.629 183.161 449.629 182.635 449.598 182.111C449.603 182 449.638 181.893 449.698 181.8L449.899 181.579C450.029 181.459 450.13 181.388 450.24 181.268C450.35 181.147 450.691 180.806 450.912 180.566C451.678 179.7 452.398 178.796 453.069 177.856C453.571 177.134 453.832 176.662 453.902 176.693Z" fill="#734738"/>
<path d="M452.467 188.673C452.397 188.673 452.257 188.342 451.886 187.89C451.385 187.3 450.848 186.74 450.28 186.214C449.741 185.69 449.089 185.296 448.374 185.061C447.822 184.89 447.441 184.91 447.431 184.84C447.421 184.77 447.802 184.619 448.434 184.709C449.262 184.857 450.027 185.248 450.631 185.833C451.23 186.383 451.756 187.007 452.197 187.689C452.508 188.241 452.528 188.663 452.467 188.673Z" fill="#734738"/>
<path d="M387.429 183.154L374.998 169.107L375.389 186.555L376.061 209.844L354.208 235.399L352.271 244.801V258.045C359.726 247.249 373.814 227.101 374.988 222.335C377.326 212.793 388.031 184.157 387.429 183.154Z" fill="#455A64"/>
<path d="M419.557 207.295L389.778 188.964L387.43 183.154L372.781 225.627C372.781 225.627 415.293 236.142 423.691 232.379C432.089 228.617 456.802 206.292 456.802 206.292L441.611 192.074L419.557 207.295Z" fill="#455A64"/>
<path d="M375.259 169.549L369.108 177.716C366.753 173.45 364.15 169.325 361.312 165.365L357.228 207.576L354.218 235.399L376.071 209.844L375.259 169.549Z" fill="#E0E0E0"/>
<path d="M352.271 258.046C352.379 257.79 352.51 257.545 352.663 257.313C352.944 256.842 353.345 256.139 353.907 255.306C355.011 253.551 356.646 251.022 358.703 247.942C362.787 241.751 368.626 233.313 374.315 223.55C375.028 222.326 375.7 221.102 376.322 219.888C376.944 218.674 377.576 217.47 378.168 216.276C378.76 215.081 379.242 213.877 379.764 212.714C380.012 212.133 380.23 211.541 380.416 210.938C380.638 210.366 380.829 209.784 380.988 209.192C381.561 206.962 381.868 204.671 381.901 202.369C381.969 200.361 381.929 198.352 381.78 196.349C381.51 192.656 381.058 189.686 380.777 187.629C380.647 186.626 380.536 185.864 380.456 185.272C380.404 184.997 380.378 184.718 380.376 184.439C380.471 184.702 380.539 184.974 380.576 185.251L381.008 187.599C381.369 189.606 381.881 192.616 382.202 196.309C382.383 198.333 382.454 200.366 382.413 202.399C382.392 204.743 382.096 207.077 381.53 209.352C381.371 209.961 381.18 210.56 380.958 211.148C380.737 211.74 380.576 212.362 380.306 212.954C379.784 214.128 379.302 215.372 378.7 216.556C378.098 217.74 377.526 218.995 376.854 220.199C376.182 221.403 375.529 222.647 374.847 223.871C369.148 233.674 363.238 242.072 359.064 248.203L354.057 255.397C353.506 256.209 353.054 256.872 352.733 257.403C352.6 257.632 352.445 257.847 352.271 258.046Z" fill="#263238"/>
<path d="M388.553 195.104C388.285 196.202 387.919 197.273 387.459 198.305C386.697 200.252 385.583 202.91 384.259 205.8C382.934 208.69 381.66 211.278 380.687 213.125C380.214 214.151 379.642 215.129 378.981 216.044C379.329 214.972 379.769 213.931 380.295 212.934C381.299 210.867 382.422 208.349 383.707 205.549C384.991 202.75 386.125 200.211 387.058 198.134C387.47 197.084 387.97 196.07 388.553 195.104Z" fill="#263238"/>
<path d="M422.517 220.449C421.851 218.636 421.37 216.761 421.082 214.851C420.603 212.975 420.317 211.055 420.229 209.121C420.4 209.121 421.042 211.6 421.674 214.73C422.306 217.861 422.688 220.419 422.517 220.449Z" fill="#263238"/>
<path d="M425.136 219.215C424.955 219.215 424.303 216.657 423.23 213.546C422.156 210.436 421.072 207.977 421.223 207.897C422.36 209.567 423.226 211.406 423.791 213.345C424.541 215.22 424.995 217.201 425.136 219.215Z" fill="#263238"/>
<path d="M370.934 175.84L367.773 175.739L366.419 178.388L367.242 181.368L370.352 181.769L372.118 178.057L370.934 175.84Z" fill="#DD8823"/>
<path d="M366.84 178.769L361.322 175.659C361.322 175.659 363.248 172.398 367.914 175.659L366.84 178.769Z" fill="#DD8823"/>
<path d="M375.258 178.629C375.319 178.629 375.359 179.141 375.048 179.903C374.618 180.938 373.806 181.768 372.78 182.221L372.359 182.402V181.93C372.359 181.589 372.359 181.238 372.359 180.867C372.198 177.856 370.763 175.85 370.924 175.719C371.084 175.589 371.426 176.131 371.927 177.024C372.549 178.204 372.912 179.504 372.991 180.836C373.016 181.211 373.016 181.586 372.991 181.96L372.579 181.669C373.489 181.28 374.247 180.603 374.737 179.743C375.128 179.081 375.128 178.619 375.258 178.629Z" fill="#263238"/>
<path d="M367.914 180.234C367.936 180.428 367.936 180.623 367.914 180.816C367.914 181.258 367.794 181.82 367.713 182.452C367.513 183.867 367.212 185.923 366.8 188.472C365.978 193.489 364.723 200.512 362.927 208.098C361.394 214.607 359.478 221.02 357.188 227.302C356.295 229.71 355.522 231.637 354.93 232.941L354.248 234.446C354.184 234.626 354.092 234.795 353.977 234.948C354.006 234.758 354.06 234.572 354.138 234.396C354.298 233.975 354.489 233.463 354.71 232.851C355.231 231.516 355.944 229.57 356.777 227.162C358.462 222.336 360.489 215.563 362.295 207.967C364.101 200.372 365.406 193.439 366.309 188.402C366.76 185.954 367.131 183.947 367.402 182.442C367.533 181.8 367.643 181.268 367.723 180.826C367.804 180.385 367.884 180.234 367.914 180.234Z" fill="#263238"/>
<g opacity="0.3">
<path d="M363.93 186.706C365.757 184.9 366.941 182.472 368.807 180.766C370.262 185.281 367.713 190.378 363.79 192.997L358.382 195.104L359.185 187.579L363.93 186.706Z" fill="black"/>
</g>
<path d="M366.399 178.298C366.921 180.305 361.492 181.067 359.686 182.161L359.034 188.964C366.951 187.348 371.075 180.234 371.075 180.234L366.399 178.298Z" fill="#DD8823"/>
<path d="M376.061 226.439C376.21 226.446 376.358 226.466 376.503 226.5L377.797 226.72L382.764 227.613L401.015 230.884C404.878 231.537 409.102 232.299 413.657 232.821C415.983 233.164 418.344 233.208 420.681 232.951C423.069 232.59 425.216 231.205 427.424 229.871C429.663 228.477 431.815 226.946 433.865 225.286C435.992 223.62 438.129 221.854 440.297 220.058C444.621 216.456 449.046 212.663 453.551 208.74L456.561 206.101V206.553L441.35 192.325H441.711L419.637 207.476L419.507 207.566L419.367 207.486L397.734 194.041L391.784 190.298L390.239 189.295C389.888 189.064 389.717 188.934 389.717 188.934C389.717 188.934 389.908 189.024 390.269 189.235L391.854 190.168L397.874 193.79L419.627 207.054H419.356L441.36 191.833L441.551 191.693L441.722 191.853L456.933 206.071L457.173 206.302L456.922 206.523L453.912 209.161C449.407 213.085 444.972 216.877 440.638 220.479C438.461 222.275 436.323 224.031 434.176 225.697C432.108 227.371 429.937 228.913 427.674 230.312C425.477 231.637 423.25 233.062 420.731 233.443C418.339 233.698 415.925 233.644 413.547 233.282C408.952 232.731 404.737 231.948 400.885 231.276C393.169 229.891 386.958 228.667 382.653 227.814L377.717 226.811L376.433 226.53C376.307 226.509 376.183 226.479 376.061 226.439Z" fill="#263238"/>
<path d="M329.676 415.293L310.562 444.39L355.994 470.939C358.262 466.444 339.85 443.999 339.85 443.999L349.944 428.066L329.676 415.293Z" fill="#455A64"/>
<path d="M326.966 433.805C326.451 433.684 325.909 433.757 325.444 434.008C324.978 434.259 324.62 434.673 324.438 435.17C324.3 435.68 324.361 436.225 324.608 436.692C324.856 437.16 325.272 437.516 325.772 437.688C326.318 437.816 326.892 437.737 327.383 437.466C327.874 437.196 328.248 436.753 328.431 436.223C328.526 435.676 328.404 435.113 328.092 434.655C327.779 434.196 327.3 433.877 326.756 433.765" fill="#E0E0E0"/>
<path d="M310.562 444.38L312.759 440.517L355.472 467.719C355.472 467.719 356.967 469.796 355.904 471.08L310.562 444.38Z" fill="#E0E0E0"/>
<path d="M340.723 444.18C340.582 444.4 339.419 443.859 337.913 443.929C336.408 443.999 335.275 444.601 335.124 444.39C334.974 444.18 336.047 443.096 337.873 443.036C339.699 442.976 340.893 444.029 340.723 444.18Z" fill="#E0E0E0"/>
<path d="M344.335 448.936C344.265 449.187 343.081 448.996 341.776 449.498C340.472 449.999 339.679 450.862 339.468 450.722C339.258 450.581 339.84 449.247 341.475 448.655C343.111 448.063 344.455 448.725 344.335 448.936Z" fill="#E0E0E0"/>
<path d="M343.713 456.23C343.482 456.16 343.823 454.866 345.097 453.983C346.372 453.1 347.696 453.22 347.686 453.461C347.676 453.702 346.683 453.983 345.609 454.715C344.535 455.447 343.943 456.33 343.713 456.23Z" fill="#E0E0E0"/>
<path d="M343.452 438.591C343.241 438.741 342.398 437.838 341.094 437.196C339.789 436.554 338.585 436.373 338.585 436.113C338.585 435.852 339.98 435.611 341.505 436.394C343.03 437.176 343.662 438.48 343.452 438.591Z" fill="#E0E0E0"/>
<path d="M345.519 432.571C345.469 432.661 344.515 432.29 343.251 431.226C342.499 430.605 341.825 429.894 341.244 429.109C340.915 428.645 340.616 428.159 340.351 427.654C340.175 427.362 340.046 427.044 339.97 426.711C339.919 426.469 339.95 426.217 340.057 425.994C340.164 425.77 340.341 425.589 340.562 425.477C340.762 425.384 340.982 425.341 341.202 425.352C341.422 425.362 341.636 425.426 341.826 425.537C342.116 425.702 342.379 425.908 342.609 426.149C343.028 426.55 343.408 426.99 343.743 427.464C344.309 428.256 344.746 429.133 345.037 430.062C345.389 430.895 345.48 431.815 345.298 432.701C345.158 432.701 345.047 431.698 344.445 430.283C344.092 429.452 343.634 428.669 343.081 427.955C342.758 427.536 342.399 427.147 342.007 426.791C341.606 426.38 341.194 426.139 340.943 426.28C340.853 426.34 340.833 426.36 340.853 426.561C340.907 426.804 340.998 427.038 341.124 427.253C341.367 427.728 341.635 428.19 341.927 428.638C342.426 429.399 342.997 430.112 343.632 430.765C344.776 431.888 345.599 432.45 345.519 432.571Z" fill="#E0E0E0"/>
<path d="M345.027 432.721C344.97 431.82 345.21 430.925 345.71 430.173C346.435 428.789 347.524 427.631 348.86 426.822C349.158 426.592 349.511 426.443 349.884 426.39C350.257 426.338 350.637 426.382 350.987 426.52C351.188 426.641 351.35 426.816 351.453 427.027C351.556 427.237 351.597 427.472 351.569 427.704C351.532 428.05 351.444 428.388 351.308 428.708C351.092 429.263 350.79 429.78 350.415 430.243C349.791 431.022 348.985 431.635 348.067 432.029C346.492 432.681 345.419 432.41 345.439 432.32C346.241 432.08 347.029 431.792 347.797 431.457C348.584 431.041 349.27 430.455 349.803 429.741C350.11 429.33 350.356 428.877 350.536 428.397C350.746 427.875 350.787 427.393 350.536 427.323C350.324 427.276 350.104 427.277 349.892 427.326C349.68 427.374 349.482 427.469 349.312 427.604C348.858 427.866 348.428 428.169 348.027 428.507C347.34 429.085 346.742 429.761 346.251 430.514C345.439 431.788 345.188 432.761 345.027 432.721Z" fill="#E0E0E0"/>
<path d="M356.797 292.521C361.221 297.167 377.305 316 384.57 324.829C388.814 329.987 392.025 334.371 394.423 337.873C396.398 340.786 397.566 344.169 397.81 347.68C398.053 351.191 397.362 354.703 395.807 357.86C392.857 363.82 389.275 370.854 387.419 373.693C382.703 380.887 347.104 438.39 347.104 438.39L319.21 424.132C319.21 424.132 334.913 391.844 341.686 377.657C347.455 365.556 359.084 353.475 359.084 353.475C359.23 353.311 359.31 353.098 359.31 352.878C359.31 352.659 359.23 352.446 359.084 352.281L353.054 344.696L356.797 292.521Z" fill="#263238"/>
<path d="M415.363 238.61C415.363 235.721 415.875 233.383 416.487 233.383C417.099 233.383 417.621 235.721 417.621 238.61C417.621 241.5 417.109 243.838 416.487 243.838C415.865 243.838 415.363 241.49 415.363 238.61Z" fill="#EBEBEB"/>
<path d="M53.4493 216.787L54.8941 224.633L50.7803 230.413C50.7803 230.413 46.1448 233.423 45.5929 234.296C45.2978 234.052 45.0786 233.728 44.9613 233.364C44.844 232.999 44.8333 232.609 44.9307 232.239C44.9307 232.239 43.5059 234.316 42.4724 234.245C41.439 234.175 40.6262 232.469 40.2751 231.235C39.4999 230.942 38.7755 230.529 38.1279 230.011C37.4717 229.496 36.9829 228.797 36.7231 228.004L36.9138 226.389C36.5343 226.468 36.1398 226.431 35.7818 226.282C35.4238 226.134 35.1189 225.881 34.9071 225.556C34.463 224.654 34.2657 223.65 34.3351 222.646C34.3351 222.646 33.1512 223.399 32.4889 222.446C32.1956 222.128 31.9839 221.744 31.8721 221.326C31.7602 220.908 31.7515 220.47 31.8468 220.048C32.0575 219.195 35.5793 212.292 36.8636 211.158C38.1479 210.024 48.904 200.412 48.904 200.412L59.3992 210.074L53.4493 216.787Z" fill="#AD6359"/>
<path d="M176.301 397.041C193.419 397.041 207.295 317.255 207.295 218.834C207.295 120.412 193.419 40.626 176.301 40.626C159.184 40.626 145.307 120.412 145.307 218.834C145.307 317.255 159.184 397.041 176.301 397.041Z" fill="#DD8823"/>
<g opacity="0.3">
<path d="M188.924 247.711C192.057 235.463 192.509 222.683 190.248 210.245C189.646 206.944 188.853 203.523 189.686 200.211C190.419 197.342 192.375 194.783 192.455 191.823C192.566 187.98 189.516 184.8 188.261 181.198C186.255 175.308 189.034 169.007 190.469 162.946C192.275 155.361 191.894 147.455 191.472 139.668C190.659 123.143 189.777 106.337 184.158 90.7744C183.796 89.771 183.275 87.5937 182.592 85.5669C182.406 85.0104 182.079 84.5113 181.644 84.1176C181.208 83.7239 180.679 83.4489 180.106 83.3189C179.534 83.1889 178.938 83.2083 178.375 83.3753C177.812 83.5424 177.302 83.8513 176.893 84.2726C173.602 87.8546 172.779 92.9718 172.097 97.7879C171.468 102.216 170.84 106.638 170.211 111.052L166.85 134.993C164.311 152.843 161.773 170.783 162.074 188.803C162.184 195.175 162.635 201.616 161.472 207.867C160.679 212.071 159.174 216.135 158.682 220.379C157.88 227.493 159.967 234.567 161.783 241.45C167.011 261.461 170.023 281.986 170.763 302.655C171.034 310.261 170.994 317.906 172.368 325.391C173.672 332.555 166.348 334.281 166.137 341.556C165.977 348.218 169.95 359.516 173.642 365.054C174.405 366.188 177.505 368.777 179.241 367.834C179.911 367.446 180.484 366.91 180.917 366.268C189.636 351.87 186.937 335.024 187.087 317.364C187.198 300.929 180.164 284.675 183.154 268.511C184.489 261.467 187.128 254.694 188.924 247.711Z" fill="black"/>
</g>
<g opacity="0.2">
<path d="M196.078 254.564C197.435 254.564 198.536 253.463 198.536 252.105C198.536 250.748 197.435 249.647 196.078 249.647C194.72 249.647 193.619 250.748 193.619 252.105C193.619 253.463 194.72 254.564 196.078 254.564Z" fill="black"/>
</g>
<g opacity="0.2">
<path d="M184.157 373.543C183.756 373.179 183.272 372.92 182.747 372.787C182.222 372.654 181.673 372.652 181.147 372.78C180.094 372.951 179.09 373.382 178.027 373.563C177.089 373.72 176.13 373.68 175.209 373.445C174.288 373.21 173.426 372.785 172.679 372.198C171.866 371.617 171.303 370.75 171.103 369.77C171.033 369.228 171.103 368.676 171.103 368.125C170.863 365.576 167.863 364.262 166.719 361.954C165.956 360.419 166.077 358.522 165.164 357.068C164.562 356.114 163.568 355.452 162.906 354.529C161.451 352.522 161.812 349.793 161.461 347.345C161.11 344.897 159.916 342.489 159.565 339.97C159.532 339.401 159.392 338.843 159.153 338.325C159.03 338.066 158.82 337.858 158.56 337.738C158.3 337.617 158.006 337.59 157.729 337.662L157.177 339.729L159.103 347.997C159.791 350.563 160.221 353.192 160.388 355.843C160.278 357.329 160.459 358.822 160.919 360.238C161.481 361.482 162.595 362.456 162.986 363.76C163.378 365.064 162.986 366.429 163.548 367.623C164.11 368.817 165.555 369.63 166.247 370.874C166.666 371.888 166.943 372.955 167.07 374.044C167.4 375.335 168.003 376.539 168.837 377.578C169.671 378.616 170.717 379.464 171.906 380.065C174.301 381.237 176.991 381.667 179.632 381.299C180.397 381.247 181.141 381.024 181.809 380.647C182.445 380.166 182.978 379.562 183.375 378.871C183.958 378.099 184.406 377.234 184.699 376.312C184.842 375.841 184.867 375.343 184.773 374.86C184.678 374.377 184.467 373.925 184.157 373.543Z" fill="black"/>
</g>
<g opacity="0.2">
<path d="M186.355 369.6C187.579 369.038 188.141 367.643 188.593 366.369L189.486 363.81C190.511 361.311 191.16 358.674 191.412 355.984C191.435 355.853 191.431 355.72 191.402 355.591C191.373 355.461 191.318 355.339 191.242 355.231C191.098 355.121 190.921 355.061 190.74 355.061C190.558 355.061 190.382 355.121 190.238 355.231C189.947 355.424 189.697 355.671 189.503 355.961C189.308 356.25 189.173 356.575 189.104 356.917C188.914 357.589 188.854 358.302 188.613 358.924C188.376 359.419 188.178 359.933 188.021 360.459C187.89 361.081 188.021 361.743 187.91 362.375C187.68 363.61 186.516 364.543 186.375 365.787C186.375 366.098 186.375 366.419 186.315 366.72C186.195 367.322 185.763 367.804 185.593 368.386C185.422 368.967 185.733 369.78 186.335 369.73" fill="black"/>
</g>
<g opacity="0.2">
<path d="M192.516 262.841C192.523 262.58 192.591 262.325 192.716 262.096C192.841 261.866 193.018 261.67 193.234 261.522C193.449 261.374 193.696 261.28 193.955 261.246C194.214 261.212 194.477 261.239 194.723 261.326C195.203 261.607 195.583 262.03 195.81 262.538C196.037 263.045 196.099 263.611 195.987 264.156C195.752 265.243 195.331 266.282 194.743 267.226C194.154 268.175 193.87 269.282 193.93 270.397C194.071 271.511 194.813 272.454 195.154 273.517C196.288 277.059 192.947 280.681 193.449 284.354C193.77 286.641 195.506 288.477 196.108 290.705C196.71 292.932 196.108 295.411 196.228 297.779C196.338 299.444 196.85 301.08 196.87 302.795C196.898 304.755 196.273 306.668 195.094 308.234C194.915 308.499 194.669 308.714 194.382 308.856C193.378 309.237 192.626 307.852 192.516 306.739C191.994 301.722 193.449 296.254 190.99 291.839C190.459 290.835 189.746 290.003 189.275 288.999C188.787 287.843 188.466 286.624 188.321 285.377C187.9 282.869 187.479 280.26 188.191 277.812C188.632 276.276 189.525 274.802 189.325 273.196C189.184 272.518 189.006 271.848 188.793 271.189C188.456 269.901 188.556 268.537 189.077 267.312C189.599 266.086 190.511 265.068 191.673 264.417C192.076 263.967 192.365 263.427 192.516 262.841Z" fill="black"/>
</g>
<g opacity="0.2">
<path d="M199.339 199.459C199.027 197.342 198.837 195.214 198.646 193.077C198.412 190.402 198.175 187.756 197.934 185.141C197.482 180.124 197.031 174.977 197.874 169.96C197.939 169.624 197.934 169.278 197.858 168.945C197.782 168.611 197.637 168.297 197.432 168.023C197.306 167.843 197.139 167.696 196.944 167.595C196.749 167.493 196.533 167.44 196.313 167.44C196.094 167.44 195.877 167.493 195.683 167.595C195.488 167.696 195.32 167.843 195.195 168.023C193.81 169.629 195.124 172.037 195.275 174.134C195.466 176.883 193.519 179.572 194.131 182.261C194.332 183.094 194.763 183.866 194.954 184.709C195.385 186.616 194.542 188.723 195.385 190.509C195.753 191.061 196.056 191.653 196.288 192.275C196.352 192.774 196.325 193.28 196.208 193.77C195.617 197.298 195.795 200.912 196.73 204.365C196.832 204.765 197.084 205.11 197.433 205.33C197.781 205.55 198.201 205.629 198.606 205.549C199.489 205.328 199.83 204.375 199.9 203.111C199.816 201.88 199.628 200.658 199.339 199.459Z" fill="black"/>
</g>
<g opacity="0.2">
<path d="M184.158 69.4526C183.054 67.5116 181.326 66.0011 179.254 65.1667C177.183 64.3324 174.89 64.2233 172.749 64.8572C167.351 66.5027 164.472 72.3423 163.468 77.8207C162.465 83.2991 162.686 89.0584 160.589 94.2257C159.435 97.0653 157.578 99.9549 158.291 102.925C158.602 104.199 159.364 105.323 159.676 106.597C159.918 108.093 159.85 109.624 159.475 111.092C158.137 118.45 157.134 125.832 156.465 133.237C156.18 135.007 156.069 136.802 156.134 138.595C156.172 138.986 156.332 139.355 156.59 139.651C156.849 139.946 157.194 140.154 157.576 140.245C157.958 140.335 158.359 140.304 158.723 140.156C159.087 140.008 159.395 139.749 159.605 139.417C159.799 139.108 159.942 138.769 160.027 138.414C160.208 136.877 160.071 135.32 159.625 133.839C158.759 129.303 159.317 124.61 161.221 120.404C161.941 119.18 162.37 117.806 162.475 116.39C162.475 115.387 162.023 114.454 162.003 113.47C162.003 110.992 164.431 109.035 164.532 106.557C164.458 105.42 164.215 104.301 163.809 103.236C163.419 101.755 163.329 100.211 163.545 98.6945C163.76 97.1781 164.277 95.7202 165.064 94.4063C165.846 93.112 166.94 91.7976 166.739 90.3026C166.619 89.2992 165.947 88.4965 165.736 87.5232C165.124 84.0717 170.391 82.687 171.997 79.5565C173.06 77.5498 172.589 74.5397 174.586 73.2955C177.335 71.6199 181.549 75.4528 183.816 72.8239C184.205 72.3612 184.446 71.7921 184.506 71.1908C184.567 70.5896 184.446 69.9839 184.158 69.4526Z" fill="black"/>
</g>
<g opacity="0.2">
<path d="M191.512 83.7206C191.4 83.4181 191.336 83.0999 191.322 82.7775C191.423 82.2384 191.578 81.7107 191.783 81.2022C191.786 80.7444 191.662 80.295 191.424 79.9036C191.187 79.5122 190.846 79.1941 190.439 78.9847C190.058 78.7789 189.625 78.6891 189.193 78.7266C188.762 78.764 188.351 78.927 188.011 79.1954C187.118 79.4061 186.957 80.6503 187.318 81.4831C187.804 82.2484 188.201 83.0664 188.502 83.9213C188.547 84.4823 188.547 85.046 188.502 85.6069C188.573 86.8309 188.916 88.0237 189.506 89.0987C189.777 89.6906 190.198 90.383 190.86 90.3529C191.713 90.3529 191.954 89.209 191.954 88.3461C192.027 86.7912 191.878 85.2337 191.512 83.7206Z" fill="black"/>
</g>
<path d="M183.325 214.108C183.325 216.616 183.325 240.466 183.325 240.466L174.204 253.691V292.521L157.458 270.617L159.384 266.604L176.141 231.025" fill="#455A64"/>
<path d="M171.836 151.568C172.107 151.367 181.087 136.628 181.087 136.628L182.603 149.04V158.26L171.836 151.568Z" fill="#AD6359"/>
<path d="M29.8903 420.651L6.23096 446.177L46.6566 479.869C49.6666 475.856 35.1881 450.631 35.1881 450.631L47.7703 436.584L29.8903 420.651Z" fill="#455A64"/>
<path d="M24.1411 438.45C23.6536 438.247 23.1085 438.23 22.6092 438.402C22.1099 438.574 21.6911 438.923 21.432 439.384C21.2106 439.864 21.1807 440.411 21.3485 440.912C21.5163 441.414 21.8691 441.832 22.335 442.083C22.8527 442.3 23.4327 442.318 23.9629 442.133C24.493 441.948 24.9355 441.572 25.2046 441.079C25.3822 440.554 25.351 439.981 25.1175 439.479C24.884 438.976 24.4661 438.583 23.9504 438.38" fill="#E0E0E0"/>
<path d="M6.23096 446.176L9.04038 442.735L46.6666 476.619C46.6666 476.619 47.8004 478.906 46.5361 480L6.23096 446.176Z" fill="#E0E0E0"/>
<path d="M35.9907 450.962C35.8201 451.163 34.7566 450.431 33.2615 450.25C31.7665 450.069 30.5525 450.471 30.4321 450.25C30.3116 450.029 31.5659 449.126 33.3719 449.377C35.178 449.628 36.2014 450.822 35.9907 450.962Z" fill="#E0E0E0"/>
<path d="M38.79 456.25C38.6796 456.481 37.5358 456.11 36.1712 456.38C34.8066 456.651 33.8735 457.384 33.6929 457.203C33.5123 457.023 34.305 455.819 36.0107 455.508C37.7164 455.197 38.9405 456.069 38.79 456.25Z" fill="#E0E0E0"/>
<path d="M36.9941 463.334C36.7834 463.233 37.3353 462.009 38.74 461.327C40.1447 460.645 41.429 461.006 41.3788 461.237C41.3287 461.468 40.2651 461.578 39.1212 462.13C37.9774 462.682 37.1848 463.484 36.9941 463.334Z" fill="#E0E0E0"/>
<path d="M39.6228 445.905C39.392 446.016 38.7198 444.992 37.5358 444.139C36.3518 443.287 35.1979 442.905 35.2381 442.654C35.2782 442.404 36.693 442.394 38.0676 443.417C39.4422 444.44 39.8536 445.835 39.6228 445.905Z" fill="#E0E0E0"/>
<path d="M42.663 440.307C42.5928 440.387 41.7199 439.865 40.6563 438.611C40.0325 437.874 39.5033 437.061 39.081 436.193C38.83 435.679 38.6122 435.149 38.4288 434.608C38.3108 434.285 38.2399 433.947 38.2181 433.604C38.203 433.356 38.272 433.11 38.4141 432.906C38.5561 432.702 38.7628 432.552 39.0007 432.48C39.2142 432.425 39.4376 432.419 39.6535 432.464C39.8694 432.51 40.0719 432.604 40.2449 432.741C40.5065 432.952 40.7333 433.203 40.9172 433.484C41.2623 433.951 41.5645 434.448 41.8202 434.969C42.2419 435.847 42.5262 436.784 42.663 437.748C42.8714 438.626 42.8084 439.546 42.4824 440.387C42.3319 440.387 42.3921 439.384 42.0409 437.858C41.8169 436.979 41.4796 436.133 41.0376 435.34C40.7986 434.869 40.52 434.419 40.2048 433.996C39.8737 433.524 39.5125 433.213 39.2014 433.313C39.1011 433.313 39.071 433.373 39.0609 433.574C39.0734 433.822 39.1277 434.066 39.2215 434.297C39.3779 434.808 39.5621 435.31 39.7733 435.802C40.1474 436.635 40.5939 437.434 41.1078 438.19C41.6764 438.857 42.1962 439.565 42.663 440.307Z" fill="#E0E0E0"/>
<path d="M42.1714 440.377C42.071 440.377 42.2717 439.313 43.265 437.979C44.2114 436.735 45.477 435.771 46.9273 435.189C47.2599 435.014 47.6317 434.927 48.0074 434.936C48.3832 434.944 48.7505 435.049 49.0745 435.24C49.2514 435.394 49.3803 435.597 49.446 435.822C49.5118 436.048 49.5117 436.288 49.4458 436.514C49.3553 436.837 49.2166 437.145 49.0344 437.427C48.731 437.939 48.3483 438.399 47.9006 438.791C47.1549 439.454 46.2597 439.925 45.2918 440.166C43.6363 440.557 42.6128 440.106 42.653 440.026C42.6931 439.945 43.6563 440.026 45.1213 439.554C45.9511 439.266 46.7079 438.801 47.3387 438.189C47.7087 437.835 48.0263 437.43 48.2819 436.985C48.5728 436.504 48.7033 435.982 48.5026 435.932C48.3005 435.852 48.0833 435.818 47.8665 435.832C47.6497 435.846 47.4386 435.907 47.2484 436.012C46.7545 436.193 46.2776 436.418 45.8236 436.684C45.0592 437.151 44.3635 437.721 43.7567 438.38C42.7032 439.524 42.3018 440.437 42.1714 440.377Z" fill="#E0E0E0"/>
<path d="M157.619 270.216C151.929 263.714 142.648 257.564 142.648 257.564L87.0318 263.714L83.53 266.975C84.2826 271.46 86.6204 285.678 91.557 292.059C97.6373 299.916 104.831 306.638 126.324 309.749C131.21 310.451 134.932 319.602 139.658 321.619C150.234 331.813 170.181 350.074 173.773 351.86C176.448 334.963 178.525 317.622 180.004 299.836C175.208 293.906 162.084 275.323 157.619 270.216Z" fill="#263238"/>
<path d="M142.247 282.487L101.21 268.37C101.21 268.37 102.213 285.548 104.651 289.892L78.7442 347.084C78.7442 347.084 53.2788 381.72 46.0244 391.172C36.5727 403.433 21.0908 428.918 21.0908 428.918L43.7669 445.434L99.9553 378.509C99.9553 378.509 106.166 375.8 108.434 372.188L151.027 319.321L142.247 282.487Z" fill="#263238"/>
<path d="M42.0613 202.268L68.229 164.632C69.8121 162.446 71.865 160.642 74.2369 159.354C76.6088 158.065 79.2393 157.325 81.935 157.187L130.097 154.678C130.097 154.678 137.01 146.371 141.134 147.234C145.257 148.096 151.619 152.25 149.863 159.896C148.107 167.542 137.662 183.044 125.622 184.498L85.1558 184.378L57.2422 213.255L42.0613 202.268Z" fill="#455A64"/>
<path d="M168.726 248.804L133.979 262.791L157.619 270.216" fill="#E0E0E0"/>
<path d="M168.104 151.297L141.224 148.488L126.815 181.348L115.066 230.112C115.066 230.112 75.8445 253.761 68.1989 263.915C64.356 269.022 76.1255 282.186 76.1255 282.186C76.1255 282.186 88.3264 299.896 100.036 297.708C111.745 295.521 138.314 275.895 151.528 266.363C155.421 263.564 162.315 258.477 166.579 252.236C170.89 245.563 174.168 238.276 176.301 230.623L168.104 151.297Z" fill="#455A64"/>
<path d="M183.355 159.676C179.667 155.179 175.457 151.137 170.813 147.635L168.104 151.318L168.375 153.886L176.301 230.644L183.235 215.152C183.235 215.152 183.295 198.165 183.325 188.011V171.545L183.355 159.676Z" fill="#E0E0E0"/>
<path d="M170.572 226.66C170.459 226.42 170.375 226.167 170.321 225.907C170.171 225.336 169.96 224.603 169.709 223.7C169.187 221.784 168.365 219.034 167.301 215.673C166.237 212.312 164.913 208.248 163.488 203.793C162.063 199.338 160.478 194.382 159.144 189.114C158.458 186.552 157.938 183.947 157.588 181.318C157.34 178.828 157.575 176.314 158.281 173.913C159.625 169.338 161.883 165.696 163.388 162.495C164.682 160.019 165.638 157.38 166.227 154.648C166.308 154.167 166.388 153.735 166.448 153.354C166.508 152.973 166.508 152.672 166.528 152.351C166.533 152.084 166.567 151.818 166.629 151.558C166.657 151.825 166.657 152.094 166.629 152.361C166.629 152.642 166.629 152.963 166.629 153.364C166.629 153.766 166.528 154.197 166.458 154.679C165.959 157.471 165.053 160.176 163.769 162.705C162.304 165.946 160.107 169.619 158.813 174.094C158.143 176.429 157.929 178.871 158.18 181.288C158.535 183.887 159.055 186.461 159.736 188.994C161.07 194.241 162.615 199.168 164.02 203.653C165.425 208.138 166.699 212.161 167.712 215.573C168.726 218.984 169.488 221.764 169.94 223.7C170.181 224.703 170.331 225.426 170.442 225.938C170.504 226.175 170.548 226.416 170.572 226.66Z" fill="#263238"/>
<path d="M172.629 234.878C172.484 235.007 172.322 235.115 172.148 235.199C171.827 235.39 171.365 235.691 170.733 236.012C168.952 236.951 167.1 237.75 165.194 238.4C158.881 240.583 152.131 241.196 145.528 240.186C138.956 239.111 132.718 236.539 127.297 232.67C125.661 231.506 124.109 230.229 122.652 228.848C122.13 228.356 121.759 227.945 121.498 227.684C121.352 227.556 121.227 227.408 121.126 227.242C121.714 227.682 122.274 228.158 122.802 228.667C124.298 229.971 125.866 231.19 127.498 232.319C132.93 236.045 139.117 238.526 145.619 239.584C152.136 240.569 158.792 240.026 165.064 237.998C166.961 237.383 168.817 236.649 170.622 235.801C171.275 235.459 171.945 235.15 172.629 234.878Z" fill="#455A64"/>
<path d="M167.873 243.296C167.873 243.296 167.602 243.597 167.03 244.068C166.458 244.54 165.615 245.172 164.532 245.914C161.682 247.819 158.626 249.394 155.421 250.61C152.209 251.822 148.865 252.647 145.458 253.068C144.429 253.202 143.394 253.283 142.357 253.309C141.981 253.359 141.6 253.359 141.224 253.309C141.224 253.209 142.829 253.099 145.398 252.687C148.744 252.144 152.027 251.271 155.201 250.078C158.369 248.874 161.416 247.372 164.301 245.593C166.518 244.179 167.813 243.215 167.873 243.296Z" fill="#263238"/>
<path d="M134.541 182.051C134.471 181.95 136.337 180.907 138.775 178.539C141.974 175.463 144.339 171.625 145.648 167.385C146.957 163.145 147.168 158.641 146.261 154.298C145.849 152.505 145.34 150.737 144.735 149C145.021 149.41 145.254 149.855 145.428 150.324C145.96 151.579 146.38 152.878 146.682 154.207C147.717 158.62 147.558 163.229 146.222 167.56C144.885 171.891 142.419 175.788 139.076 178.85C138.077 179.775 136.995 180.608 135.846 181.338C135.441 181.627 135.003 181.866 134.541 182.051Z" fill="#263238"/>
<path d="M78.8745 171.184C80.6014 173 82.0486 175.063 83.1689 177.305C85.1756 180.947 86.179 184.178 86.0285 184.228C85.878 184.278 84.6238 181.218 82.6371 177.596C80.6504 173.973 78.724 171.294 78.8745 171.184Z" fill="#263238"/>
<path d="M82.2861 167.542C83.2428 169.875 84.0111 172.28 84.5838 174.736C85.6975 178.749 86.4701 182.04 86.2995 182.081C86.129 182.121 85.1156 178.91 84.0018 174.896C82.8881 170.883 82.1456 167.592 82.2861 167.542Z" fill="#263238"/>
<path d="M122.832 245.724C123.418 245.58 124.016 245.49 124.618 245.453L129.514 244.901C133.648 244.43 139.347 243.697 145.568 242.664C151.789 241.63 157.458 240.486 161.522 239.604L166.338 238.6C166.919 238.439 167.513 238.328 168.114 238.269C167.557 238.508 166.979 238.696 166.388 238.831C165.274 239.152 163.639 239.573 161.612 240.065C157.599 241.068 151.94 242.272 145.669 243.316C139.398 244.359 133.628 245.012 129.524 245.383C127.448 245.564 125.762 245.684 124.598 245.744C124.01 245.788 123.419 245.781 122.832 245.724Z" fill="#263238"/>
<path d="M140.341 230.112C141.541 230.405 142.721 230.777 143.872 231.226C146.04 231.948 149.04 232.901 152.391 233.794C155.742 234.687 158.833 235.359 161.06 235.801C162.282 235.983 163.489 236.251 164.672 236.604C163.435 236.595 162.202 236.467 160.99 236.222C155.091 235.3 149.306 233.756 143.732 231.617C142.556 231.225 141.42 230.721 140.341 230.112Z" fill="#263238"/>
<path d="M121.076 262.199L111.043 267.306L92.2595 248.162L102.775 245.162" fill="#455A64"/>
<path d="M102.775 245.162C102.543 245.285 102.297 245.38 102.042 245.443L99.9352 246.125L92.3297 248.373L92.4401 247.951L101.972 257.604C105.383 261.096 108.554 264.346 111.223 267.096L110.932 267.045L118.257 263.443L120.324 262.44C120.562 262.311 120.814 262.21 121.076 262.139C120.872 262.319 120.642 262.468 120.394 262.581L118.387 263.674L111.153 267.477L110.982 267.557L110.852 267.427L101.531 257.995L92.0788 248.373L91.7778 248.062L92.1892 247.951L99.8549 245.874L102.002 245.333C102.25 245.238 102.51 245.18 102.775 245.162Z" fill="#263238"/>
<path d="M121.076 262.199C120.966 262.33 117.424 259.189 113.19 255.176C108.955 251.162 105.594 247.801 105.715 247.681C108.471 249.874 111.104 252.219 113.601 254.704C117.845 258.728 121.196 262.079 121.076 262.199Z" fill="#263238"/>
<path d="M160.177 259.249C160.107 259.169 161.502 257.875 163.368 255.447C165.774 252.258 167.921 248.883 169.789 245.353C171.698 241.845 173.319 238.187 174.636 234.416C175.639 231.516 175.93 229.63 176.03 229.65C176.037 230.098 175.993 230.546 175.9 230.985C175.693 232.189 175.408 233.379 175.047 234.546C172.575 242.228 168.73 249.398 163.699 255.707C162.933 256.663 162.101 257.565 161.211 258.407C160.901 258.728 160.554 259.011 160.177 259.249Z" fill="#263238"/>
<path d="M183.345 171.384C182.078 172.649 180.738 173.838 179.332 174.946C178.903 173.047 178.333 171.182 177.626 169.368C175.816 164.868 173.676 160.508 171.224 156.324C170.301 154.698 169.519 153.404 168.977 152.511C168.719 152.03 168.413 151.576 168.064 151.156C168.243 151.667 168.475 152.158 168.756 152.621L170.763 156.525C173.086 160.747 175.16 165.103 176.974 169.568C177.721 171.502 178.328 173.487 178.79 175.508L178.88 175.95L179.261 175.689C180.711 174.611 182.055 173.398 183.275 172.067L183.345 171.384Z" fill="#263238"/>
<g opacity="0.3">
<path d="M169.438 184.258C163.509 182.602 157.669 179.863 151.518 180.244C144.495 180.686 138.475 185.101 132.866 189.335C129.996 191.512 126.645 193.399 123.775 195.576L120.946 207.054C125.702 208.188 130.979 204.937 134.371 201.436C137.762 197.934 140.602 193.73 144.866 191.332C149.13 188.934 154.027 188.683 158.783 189.134C163.539 189.586 168.204 190.72 172.97 191.051C176.813 191.322 179.994 191.051 183.205 189.566V184.288C179.111 185.984 173.954 185.502 169.438 184.258Z" fill="black"/>
</g>
<path d="M183.285 178.358C181.918 178.628 180.522 178.726 179.131 178.649C168.917 177.947 160.609 169.98 150.404 169.177C143.311 168.615 135.785 171.977 129.725 175.679C123.665 179.381 118.457 184.308 112.598 188.321C98.5506 197.904 95.4401 196.429 81.4933 199.118L77.0083 209.482L88.7978 212.382C88.7978 212.382 116.892 205.088 125.822 196.077C134.852 186.897 140.01 178.779 146.562 177.154C160.609 173.672 174.957 185.572 183.325 183.877L183.285 178.358Z" fill="#DD8823"/>
<g opacity="0.3">
<path d="M95.5503 251.523L90.3127 253.269L106.668 270.246L119.42 263.042L111.273 266.634L95.5503 251.523Z" fill="black"/>
</g>
<g opacity="0.3">
<path d="M164.572 242.212C152.783 248.232 139.237 249.497 126.063 250.691C137.281 253.269 153.154 251.072 164.572 242.212Z" fill="black"/>
</g>
<path d="M182.281 118.989L176.261 131.631L172.448 148.488L184.047 160.528V149.722C184.033 139.453 183.444 129.192 182.281 118.989Z" fill="#AD6359"/>
<path d="M178.78 100.076C176.462 103.969 174.004 112.116 173.171 118.136C172.519 122.822 175.308 124.387 175.177 125.501C174.094 134.14 177.395 132.685 182.291 118.969C181.513 112.605 180.34 106.295 178.78 100.076Z" fill="#263238"/>
<path d="M177.465 125.732C177.553 125.301 177.553 124.858 177.465 124.427C177.377 123.997 177.202 123.589 176.952 123.228C176.701 122.866 176.38 122.56 176.008 122.326C175.636 122.093 175.22 121.937 174.786 121.869C172.579 121.558 169.88 122.22 168.947 126.755C167.301 134.782 175.669 134.782 175.73 134.541C175.79 134.301 176.793 129.103 177.465 125.732Z" fill="#AD6359"/>
<path d="M174.596 131.17C174.596 131.17 174.435 131.23 174.184 131.3C173.837 131.358 173.48 131.287 173.181 131.1C172.408 130.618 171.967 129.093 172.178 127.668C172.299 126.975 172.573 126.317 172.98 125.742C173.107 125.508 173.288 125.309 173.508 125.16C173.728 125.012 173.981 124.919 174.245 124.889C174.414 124.877 174.581 124.927 174.718 125.028C174.854 125.129 174.949 125.275 174.987 125.441C175.047 125.682 174.987 125.832 174.987 125.852C174.987 125.872 175.188 125.752 175.188 125.411C175.181 125.205 175.107 125.008 174.977 124.849C174.791 124.634 174.528 124.5 174.245 124.478C173.903 124.478 173.566 124.566 173.268 124.732C172.969 124.899 172.718 125.14 172.539 125.431C172.057 126.057 171.733 126.79 171.596 127.568C171.315 129.203 171.826 130.889 172.92 131.461C173.125 131.56 173.35 131.612 173.577 131.612C173.805 131.612 174.03 131.56 174.235 131.461C174.546 131.361 174.616 131.19 174.596 131.17Z" fill="#734738"/>
<path d="M177.987 95.6206C177.536 96.0324 177.219 96.5697 177.076 97.1633C176.933 97.757 176.971 98.3798 177.185 98.9518C176.357 99.1457 175.592 99.5467 174.962 100.117C174.332 100.687 173.857 101.409 173.582 102.213C173.161 103.858 174.365 105.875 176.051 105.825C175.588 106.405 175.355 107.135 175.398 107.876C175.44 108.616 175.755 109.315 176.281 109.838C176.833 110.332 177.548 110.605 178.288 110.605C179.029 110.605 179.743 110.332 180.295 109.838L177.987 95.6206Z" fill="#263238"/>
<path d="M152.09 333.659C151.897 333.533 151.718 333.385 151.558 333.218L150.103 331.883L144.826 326.866L137.04 319.451L132.454 315.047C130.905 313.412 129.205 311.928 127.377 310.612C125.431 309.378 123.083 309.408 120.906 309.147C118.787 308.913 116.691 308.514 114.635 307.953C111.156 306.986 107.817 305.573 104.701 303.749C102.61 302.531 100.635 301.124 98.8014 299.545C98.1492 298.983 97.6676 298.541 97.3465 298.2C97.0254 297.859 96.8649 297.709 96.885 297.688C96.905 297.668 97.5974 298.311 98.8917 299.384C100.759 300.905 102.749 302.267 104.842 303.458C107.953 305.202 111.269 306.55 114.715 307.471C116.749 308.017 118.822 308.403 120.916 308.625C121.999 308.766 123.123 308.806 124.267 308.986C125.447 309.146 126.584 309.542 127.608 310.15C128.599 310.777 129.517 311.51 130.347 312.338L132.775 314.675L137.331 319.09L145.036 326.595L150.204 331.682L151.588 333.087C151.775 333.26 151.943 333.451 152.09 333.659Z" fill="#455A64"/>
<path d="M198.616 124.959L199.81 125.571C199.843 125.592 199.871 125.621 199.89 125.655C199.909 125.689 199.918 125.728 199.918 125.767C199.918 125.806 199.909 125.844 199.89 125.879C199.871 125.913 199.843 125.942 199.81 125.962L198.646 126.635C198.607 126.654 198.575 126.686 198.556 126.725L197.944 127.919C197.923 127.952 197.894 127.979 197.86 127.998C197.826 128.017 197.787 128.027 197.748 128.027C197.709 128.027 197.671 128.017 197.636 127.998C197.602 127.979 197.573 127.952 197.553 127.919L196.88 126.755C196.861 126.716 196.829 126.684 196.79 126.665L195.596 126.053C195.563 126.032 195.535 126.003 195.516 125.969C195.498 125.935 195.488 125.896 195.488 125.857C195.488 125.818 195.498 125.779 195.516 125.745C195.535 125.711 195.563 125.682 195.596 125.661L196.76 124.989C196.799 124.97 196.831 124.938 196.85 124.899L197.462 123.705C197.483 123.672 197.512 123.644 197.546 123.625C197.58 123.606 197.619 123.596 197.658 123.596C197.697 123.596 197.735 123.606 197.77 123.625C197.804 123.644 197.833 123.672 197.854 123.705L198.526 124.869C198.545 124.908 198.577 124.94 198.616 124.959Z" fill="white"/>
<path d="M196.248 316.08L197.442 316.702C197.479 316.719 197.509 316.746 197.531 316.78C197.552 316.814 197.563 316.853 197.563 316.893C197.563 316.933 197.552 316.972 197.531 317.006C197.509 317.04 197.479 317.067 197.442 317.084L196.289 317.756C196.249 317.775 196.218 317.807 196.198 317.846L195.586 319.04C195.565 319.073 195.537 319.101 195.502 319.12C195.468 319.139 195.43 319.148 195.391 319.148C195.351 319.148 195.313 319.139 195.279 319.12C195.244 319.101 195.216 319.073 195.195 319.04L194.523 317.876C194.503 317.837 194.471 317.805 194.432 317.786L193.238 317.174C193.205 317.153 193.178 317.124 193.159 317.09C193.14 317.056 193.13 317.017 193.13 316.978C193.13 316.939 193.14 316.901 193.159 316.866C193.178 316.832 193.205 316.803 193.238 316.783L194.402 316.11C194.441 316.091 194.473 316.059 194.492 316.02L195.105 314.826C195.125 314.793 195.154 314.765 195.188 314.746C195.223 314.728 195.261 314.718 195.3 314.718C195.339 314.718 195.378 314.728 195.412 314.746C195.446 314.765 195.475 314.793 195.496 314.826L196.168 315.99C196.187 316.026 196.214 316.057 196.248 316.08Z" fill="white"/>
<path d="M156.395 144.133L157.589 144.745C157.622 144.766 157.649 144.795 157.668 144.829C157.687 144.863 157.697 144.902 157.697 144.941C157.697 144.98 157.687 145.018 157.668 145.053C157.649 145.087 157.622 145.116 157.589 145.136L156.425 145.809C156.391 145.832 156.363 145.863 156.344 145.899L155.722 147.093C155.703 147.126 155.675 147.154 155.642 147.173C155.608 147.192 155.57 147.203 155.532 147.203C155.493 147.203 155.455 147.192 155.422 147.173C155.388 147.154 155.361 147.126 155.341 147.093L154.669 145.929C154.649 145.89 154.618 145.858 154.579 145.839L153.385 145.227C153.351 145.206 153.324 145.177 153.305 145.143C153.286 145.109 153.276 145.07 153.276 145.031C153.276 144.992 153.286 144.954 153.305 144.919C153.324 144.885 153.351 144.856 153.385 144.835L154.548 144.163C154.588 144.144 154.619 144.112 154.639 144.073L155.251 142.879C155.272 142.846 155.3 142.818 155.335 142.799C155.369 142.78 155.407 142.771 155.446 142.771C155.486 142.771 155.524 142.78 155.558 142.799C155.592 142.818 155.621 142.846 155.642 142.879L156.314 144.043C156.331 144.08 156.359 144.112 156.395 144.133Z" fill="white"/>
<path d="M289.541 155.753L291.448 156.756C291.504 156.786 291.552 156.83 291.585 156.885C291.618 156.94 291.636 157.003 291.636 157.067C291.636 157.131 291.618 157.194 291.585 157.249C291.552 157.304 291.504 157.348 291.448 157.378L289.591 158.452C289.536 158.486 289.491 158.534 289.461 158.592L288.458 160.499C288.426 160.553 288.38 160.597 288.326 160.629C288.271 160.66 288.209 160.676 288.147 160.676C288.084 160.676 288.022 160.66 287.967 160.629C287.913 160.597 287.867 160.553 287.835 160.499L286.832 158.632C286.798 158.577 286.75 158.531 286.692 158.502L284.785 157.498C284.731 157.467 284.686 157.421 284.655 157.367C284.624 157.312 284.608 157.25 284.608 157.187C284.608 157.125 284.624 157.063 284.655 157.008C284.686 156.954 284.731 156.908 284.785 156.876L286.641 155.803C286.7 155.772 286.746 155.723 286.772 155.662L287.775 153.756C287.807 153.702 287.853 153.657 287.907 153.626C287.962 153.595 288.024 153.578 288.086 153.578C288.149 153.578 288.211 153.595 288.265 153.626C288.32 153.657 288.365 153.702 288.397 153.756L289.471 155.612C289.483 155.664 289.507 155.712 289.541 155.753Z" fill="#DD8823"/>
<path d="M403.223 272.604L404.417 273.226C404.453 273.244 404.483 273.271 404.505 273.304C404.526 273.338 404.538 273.377 404.538 273.417C404.538 273.457 404.526 273.496 404.505 273.53C404.483 273.564 404.453 273.591 404.417 273.608L403.253 274.28C403.216 274.299 403.187 274.331 403.172 274.37L402.55 275.564C402.533 275.601 402.506 275.631 402.473 275.652C402.439 275.674 402.4 275.685 402.36 275.685C402.32 275.685 402.281 275.674 402.247 275.652C402.213 275.631 402.186 275.601 402.169 275.564L401.487 274.4C401.465 274.369 401.438 274.342 401.407 274.32L400.213 273.698C400.176 273.681 400.146 273.654 400.124 273.62C400.103 273.587 400.092 273.547 400.092 273.507C400.092 273.467 400.103 273.428 400.124 273.395C400.146 273.361 400.176 273.334 400.213 273.317L401.376 272.645C401.41 272.622 401.438 272.591 401.457 272.554L402.079 271.36C402.096 271.324 402.123 271.293 402.157 271.272C402.19 271.251 402.229 271.239 402.269 271.239C402.309 271.239 402.349 271.251 402.382 271.272C402.416 271.293 402.443 271.324 402.46 271.36L403.132 272.524C403.155 272.558 403.186 272.586 403.223 272.604Z" fill="#DD8823"/>
<path d="M422.116 98.37L423.31 98.9821C423.346 99.0007 423.376 99.0288 423.397 99.0633C423.417 99.0978 423.429 99.1374 423.429 99.1777C423.429 99.2181 423.417 99.2576 423.397 99.2921C423.376 99.3266 423.346 99.3547 423.31 99.3734L422.146 100.046C422.112 100.068 422.084 100.1 422.066 100.136L421.444 101.33C421.424 101.363 421.396 101.391 421.363 101.41C421.33 101.429 421.292 101.439 421.253 101.439C421.214 101.439 421.177 101.429 421.143 101.41C421.11 101.391 421.082 101.363 421.062 101.33L420.39 100.166C420.371 100.127 420.339 100.095 420.3 100.076L419.106 99.4637C419.07 99.445 419.04 99.4169 419.019 99.3824C418.998 99.3479 418.987 99.3084 418.987 99.268C418.987 99.2277 418.998 99.1881 419.019 99.1536C419.04 99.1191 419.07 99.091 419.106 99.0724L420.27 98.4001C420.304 98.3773 420.331 98.3462 420.35 98.3098L420.972 97.1158C420.992 97.0825 421.019 97.0549 421.053 97.0357C421.086 97.0165 421.124 97.0063 421.163 97.0063C421.201 97.0063 421.239 97.0165 421.273 97.0357C421.306 97.0549 421.334 97.0825 421.353 97.1158L422.026 98.2797C422.05 98.3147 422.081 98.3452 422.116 98.37Z" fill="#DD8823"/>
<path d="M318.799 329.776L319.994 330.398C320.027 330.418 320.054 330.445 320.074 330.479C320.093 330.512 320.103 330.55 320.103 330.589C320.103 330.627 320.093 330.665 320.074 330.699C320.054 330.732 320.027 330.76 319.994 330.779L318.83 331.452L318.739 331.542L318.127 332.736C318.109 332.772 318.08 332.802 318.046 332.823C318.012 332.843 317.972 332.855 317.932 332.855C317.891 332.855 317.852 332.843 317.817 332.823C317.783 332.802 317.755 332.772 317.736 332.736L317.064 331.572C317.041 331.538 317.01 331.51 316.973 331.492L315.779 330.87C315.746 330.85 315.718 330.822 315.699 330.789C315.68 330.756 315.67 330.718 315.67 330.679C315.67 330.641 315.68 330.603 315.699 330.569C315.718 330.536 315.746 330.508 315.779 330.488L316.943 329.816C316.982 329.797 317.014 329.765 317.034 329.726L317.646 328.532C317.664 328.496 317.692 328.466 317.727 328.445C317.761 328.424 317.801 328.413 317.841 328.413C317.882 328.413 317.921 328.424 317.956 328.445C317.99 328.466 318.018 328.496 318.037 328.532L318.709 329.696C318.732 329.73 318.763 329.757 318.799 329.776Z" fill="#DD8823"/>
<path d="M313.552 115.728L317.495 117.735C317.61 117.798 317.706 117.891 317.773 118.004C317.84 118.117 317.875 118.246 317.875 118.377C317.875 118.509 317.84 118.637 317.773 118.75C317.706 118.863 317.61 118.956 317.495 119.019L313.652 121.237C313.532 121.308 313.434 121.413 313.371 121.538L311.365 125.481C311.301 125.596 311.208 125.692 311.095 125.759C310.983 125.826 310.854 125.861 310.722 125.861C310.591 125.861 310.462 125.826 310.349 125.759C310.236 125.692 310.143 125.596 310.08 125.481L307.903 121.698C307.832 121.578 307.727 121.48 307.602 121.418L303.659 119.411C303.544 119.348 303.448 119.255 303.381 119.142C303.314 119.029 303.279 118.9 303.279 118.769C303.279 118.637 303.314 118.508 303.381 118.396C303.448 118.283 303.544 118.19 303.659 118.126L307.502 115.909C307.622 115.838 307.72 115.733 307.783 115.608L309.789 111.665C309.852 111.55 309.945 111.454 310.058 111.387C310.171 111.32 310.3 111.285 310.431 111.285C310.563 111.285 310.692 111.32 310.805 111.387C310.918 111.454 311.01 111.55 311.074 111.665L313.291 115.508C313.359 115.601 313.449 115.676 313.552 115.728Z" fill="#DD8823"/>
<path d="M413.617 257.243L416.046 258.497C416.117 258.534 416.177 258.59 416.219 258.659C416.261 258.728 416.283 258.808 416.283 258.888C416.283 258.969 416.261 259.048 416.219 259.117C416.177 259.186 416.117 259.242 416.046 259.28L413.688 260.644C413.612 260.683 413.552 260.747 413.517 260.825L412.253 263.253C412.212 263.321 412.154 263.378 412.084 263.418C412.015 263.457 411.936 263.478 411.857 263.478C411.777 263.478 411.698 263.457 411.629 263.418C411.559 263.378 411.501 263.321 411.46 263.253L410.096 260.885C410.054 260.811 409.991 260.752 409.915 260.714L407.487 259.46C407.415 259.423 407.355 259.367 407.314 259.298C407.272 259.229 407.25 259.149 407.25 259.069C407.25 258.988 407.272 258.909 407.314 258.84C407.355 258.771 407.415 258.715 407.487 258.678L409.845 257.313C409.917 257.265 409.975 257.199 410.015 257.122L411.27 254.704C411.308 254.633 411.366 254.574 411.435 254.532C411.505 254.491 411.585 254.469 411.666 254.469C411.747 254.469 411.827 254.491 411.896 254.532C411.966 254.574 412.023 254.633 412.062 254.704L413.427 257.062C413.468 257.142 413.535 257.206 413.617 257.243Z" fill="#DD8823"/>
<path d="M431.517 77.2092L433.936 78.4634C434.007 78.5007 434.067 78.557 434.109 78.6259C434.151 78.6949 434.173 78.7741 434.173 78.8547C434.173 78.9354 434.151 79.0145 434.109 79.0835C434.067 79.1525 434.007 79.2087 433.936 79.246L431.578 80.6106C431.501 80.6522 431.439 80.7149 431.397 80.7912L430.143 83.2193C430.103 83.2881 430.046 83.3453 429.978 83.385C429.909 83.4247 429.831 83.4456 429.752 83.4456C429.672 83.4456 429.594 83.4247 429.526 83.385C429.457 83.3453 429.4 83.2881 429.36 83.2193L427.996 80.8514C427.951 80.78 427.889 80.7213 427.815 80.6808L425.387 79.4266C425.318 79.387 425.261 79.33 425.221 79.2613C425.182 79.1926 425.161 79.1147 425.161 79.0353C425.161 78.956 425.182 78.878 425.221 78.8093C425.261 78.7406 425.318 78.6836 425.387 78.644L427.755 77.2794C427.827 77.231 427.885 77.1655 427.925 77.0888L429.18 74.6707C429.217 74.5992 429.273 74.5393 429.342 74.4975C429.411 74.4557 429.49 74.4336 429.571 74.4336C429.652 74.4336 429.731 74.4557 429.8 74.4975C429.869 74.5393 429.925 74.5992 429.962 74.6707L431.317 77.0286C431.365 77.1071 431.434 77.1698 431.517 77.2092Z" fill="#DD8823"/>
<path d="M135.755 102.072L137.652 103.076C137.706 103.106 137.751 103.151 137.783 103.205C137.814 103.258 137.831 103.319 137.831 103.382C137.831 103.444 137.814 103.505 137.783 103.559C137.751 103.613 137.706 103.657 137.652 103.688L135.795 104.761C135.735 104.792 135.686 104.841 135.655 104.902L134.652 106.808C134.621 106.863 134.577 106.908 134.523 106.939C134.469 106.971 134.408 106.987 134.346 106.987C134.283 106.987 134.222 106.971 134.168 106.939C134.115 106.908 134.07 106.863 134.04 106.808L132.966 104.952C132.935 104.892 132.886 104.842 132.825 104.812L130.919 103.808C130.862 103.778 130.815 103.734 130.782 103.679C130.748 103.624 130.731 103.561 130.731 103.497C130.731 103.433 130.748 103.37 130.782 103.315C130.815 103.261 130.862 103.216 130.919 103.186L132.775 102.123C132.834 102.085 132.883 102.034 132.916 101.972L133.919 100.066C133.95 100.011 133.994 99.9662 134.048 99.9347C134.102 99.9033 134.163 99.8867 134.225 99.8867C134.287 99.8867 134.349 99.9033 134.402 99.9347C134.456 99.9662 134.501 100.011 134.531 100.066L135.605 101.922C135.641 101.985 135.693 102.037 135.755 102.072Z" fill="#DD8823"/>
<path d="M221.503 256.4L223.409 257.403C223.467 257.432 223.515 257.475 223.548 257.529C223.582 257.583 223.6 257.646 223.6 257.709C223.6 257.773 223.582 257.836 223.548 257.89C223.515 257.944 223.467 257.987 223.409 258.015L221.613 259.059C221.553 259.09 221.504 259.139 221.473 259.199L220.47 261.106C220.44 261.163 220.395 261.21 220.34 261.243C220.285 261.276 220.223 261.294 220.159 261.294C220.094 261.294 220.032 261.276 219.977 261.243C219.922 261.21 219.877 261.163 219.847 261.106L218.774 259.25C218.743 259.189 218.694 259.14 218.633 259.109L216.727 258.106C216.673 258.075 216.628 258.031 216.596 257.977C216.565 257.923 216.548 257.862 216.548 257.8C216.548 257.737 216.565 257.676 216.596 257.622C216.628 257.569 216.673 257.524 216.727 257.494L218.583 256.42C218.64 256.383 218.685 256.331 218.714 256.27L219.717 254.373C219.748 254.319 219.792 254.274 219.846 254.242C219.9 254.211 219.961 254.194 220.023 254.194C220.085 254.194 220.147 254.211 220.2 254.242C220.254 254.274 220.299 254.319 220.329 254.373L221.403 256.229C221.417 256.295 221.452 256.355 221.503 256.4Z" fill="#DD8823"/>
<path d="M215.312 319.16L216.516 319.773C216.549 319.793 216.577 319.822 216.596 319.856C216.615 319.891 216.625 319.929 216.625 319.968C216.625 320.007 216.615 320.046 216.596 320.08C216.577 320.114 216.549 320.143 216.516 320.164L215.352 320.836C215.318 320.859 215.291 320.89 215.272 320.926L214.65 322.12C214.631 322.154 214.603 322.181 214.569 322.201C214.536 322.22 214.498 322.23 214.459 322.23C214.421 322.23 214.383 322.22 214.349 322.201C214.316 322.181 214.288 322.154 214.269 322.12L213.596 320.956C213.577 320.917 213.545 320.886 213.506 320.866L212.312 320.254C212.276 320.235 212.246 320.207 212.226 320.173C212.205 320.138 212.194 320.099 212.194 320.058C212.194 320.018 212.205 319.979 212.226 319.944C212.246 319.91 212.276 319.881 212.312 319.863L213.476 319.191C213.515 319.171 213.547 319.139 213.566 319.1L214.178 317.906C214.199 317.873 214.228 317.846 214.262 317.827C214.296 317.808 214.335 317.798 214.374 317.798C214.413 317.798 214.452 317.808 214.486 317.827C214.52 317.846 214.549 317.873 214.57 317.906L215.242 319.07C215.258 319.105 215.282 319.136 215.312 319.16Z" fill="#DD8823"/>
<path d="M142.147 372.018L143.341 372.64C143.377 372.657 143.408 372.684 143.429 372.718C143.451 372.751 143.462 372.791 143.462 372.831C143.462 372.871 143.451 372.91 143.429 372.943C143.408 372.977 143.377 373.004 143.341 373.021L142.177 373.693C142.145 373.719 142.118 373.749 142.097 373.784L141.475 374.978C141.458 375.014 141.431 375.045 141.397 375.066C141.363 375.087 141.324 375.099 141.284 375.099C141.244 375.099 141.205 375.087 141.171 375.066C141.137 375.045 141.11 375.014 141.093 374.978L140.421 373.814L140.341 373.794L139.147 373.172C139.111 373.155 139.08 373.128 139.059 373.094C139.037 373.06 139.026 373.021 139.026 372.981C139.026 372.941 139.037 372.902 139.059 372.868C139.08 372.834 139.111 372.807 139.147 372.79L140.311 372.118C140.345 372.095 140.372 372.064 140.391 372.028L141.013 370.834C141.03 370.798 141.057 370.767 141.091 370.746C141.125 370.724 141.164 370.713 141.204 370.713C141.244 370.713 141.283 370.724 141.317 370.746C141.35 370.767 141.377 370.798 141.394 370.834L142.067 371.998C142.092 372.009 142.119 372.016 142.147 372.018Z" fill="#DD8823"/>
<path d="M120.735 117.836L124.678 119.842C124.794 119.904 124.89 119.996 124.957 120.108C125.025 120.22 125.06 120.349 125.06 120.479C125.06 120.61 125.025 120.739 124.957 120.851C124.89 120.963 124.794 121.055 124.678 121.117L120.835 123.344C120.715 123.414 120.615 123.515 120.545 123.635L118.538 127.588C118.476 127.704 118.384 127.8 118.272 127.867C118.16 127.935 118.031 127.97 117.901 127.97C117.77 127.97 117.641 127.935 117.529 127.867C117.417 127.8 117.325 127.704 117.263 127.588L115.036 123.745C114.966 123.625 114.865 123.525 114.745 123.454L110.792 121.448C110.679 121.384 110.585 121.291 110.52 121.179C110.455 121.067 110.421 120.94 110.421 120.811C110.421 120.681 110.455 120.554 110.52 120.442C110.585 120.33 110.679 120.237 110.792 120.173L114.645 117.946C114.762 117.875 114.859 117.775 114.926 117.655L116.932 113.702C116.996 113.589 117.089 113.495 117.201 113.43C117.313 113.365 117.44 113.331 117.57 113.331C117.699 113.331 117.826 113.365 117.938 113.43C118.05 113.495 118.143 113.589 118.207 113.702L120.434 117.555C120.506 117.675 120.61 117.772 120.735 117.836Z" fill="#DD8823"/>
<path d="M234.898 284.635L238.841 286.642C238.956 286.705 239.052 286.798 239.119 286.911C239.186 287.024 239.221 287.152 239.221 287.284C239.221 287.415 239.186 287.544 239.119 287.657C239.052 287.77 238.956 287.863 238.841 287.926L234.998 290.143C234.876 290.212 234.778 290.317 234.717 290.444L232.711 294.388C232.649 294.503 232.557 294.599 232.445 294.667C232.333 294.734 232.204 294.769 232.073 294.769C231.943 294.769 231.814 294.734 231.702 294.667C231.59 294.599 231.498 294.503 231.436 294.388L229.209 290.545C229.141 290.425 229.04 290.327 228.918 290.264L224.975 288.257C224.86 288.194 224.764 288.101 224.697 287.988C224.63 287.875 224.594 287.746 224.594 287.615C224.594 287.484 224.63 287.355 224.697 287.242C224.764 287.129 224.86 287.036 224.975 286.973L228.817 284.755C228.938 284.684 229.036 284.579 229.098 284.454L231.105 280.511C231.168 280.396 231.261 280.3 231.374 280.233C231.487 280.166 231.616 280.131 231.747 280.131C231.879 280.131 232.007 280.166 232.12 280.233C232.233 280.3 232.326 280.396 232.389 280.511L234.607 284.354C234.673 284.475 234.775 284.573 234.898 284.635Z" fill="#DD8823"/>
</svg>
