<svg width="640" height="477" viewBox="0 0 640 477" fill="none" xmlns="http://www.w3.org/2000/svg">
<path d="M640 419.072H0V419.392H640V419.072Z" fill="#EBEBEB"/>
<path d="M575.872 439.667H533.479V439.987H575.872V439.667Z" fill="#EBEBEB"/>
<path d="M423.962 443.149H412.838V443.469H423.962V443.149Z" fill="#EBEBEB"/>
<path d="M532.198 427.789H507.635V428.109H532.198V427.789Z" fill="#EBEBEB"/>
<path d="M122.432 429.939H67.1489V430.259H122.432V429.939Z" fill="#EBEBEB"/>
<path d="M141.939 429.939H133.837V430.259H141.939V429.939Z" fill="#EBEBEB"/>
<path d="M288.192 435.341H168.282V435.661H288.192V435.341Z" fill="#EBEBEB"/>
<path d="M303.36 361.984H56.2047C54.2685 361.981 52.4128 361.209 51.0449 359.839C49.677 358.468 48.9087 356.611 48.9087 354.675V7.2448C48.9255 5.31971 49.7013 3.47901 51.0673 2.12252C52.4334 0.766026 54.2795 0.00329778 56.2047 0H303.36C305.298 0 307.157 0.770032 308.528 2.1407C309.899 3.51136 310.669 5.37038 310.669 7.3088V354.675C310.669 356.614 309.899 358.473 308.528 359.843C307.157 361.214 305.298 361.984 303.36 361.984ZM56.2047 0.256001C54.3534 0.259392 52.579 0.997203 51.2711 2.30749C49.9633 3.61778 49.2287 5.39347 49.2287 7.2448V354.675C49.2287 356.527 49.9633 358.302 51.2711 359.612C52.579 360.923 54.3534 361.661 56.2047 361.664H303.36C305.212 361.661 306.988 360.923 308.298 359.613C309.608 358.303 310.345 356.528 310.349 354.675V7.2448C310.345 5.39229 309.608 3.61663 308.298 2.30671C306.988 0.996788 305.212 0.259385 303.36 0.256001H56.2047Z" fill="#EBEBEB"/>
<path d="M580.237 361.984H333.069C331.131 361.981 329.274 361.21 327.904 359.84C326.534 358.47 325.763 356.613 325.76 354.675V7.2448C325.78 5.31854 326.559 3.47786 327.927 2.12172C329.295 0.765579 331.142 0.00326181 333.069 0H580.237C582.16 0.00666175 584.002 0.770879 585.366 2.12701C586.729 3.48314 587.503 5.32192 587.52 7.2448V354.675C587.52 356.609 586.753 358.464 585.388 359.834C584.023 361.204 582.171 361.977 580.237 361.984ZM333.069 0.256001C331.216 0.259385 329.44 0.996788 328.13 2.30671C326.821 3.61663 326.083 5.39229 326.08 7.2448V354.675C326.083 356.528 326.821 358.303 328.13 359.613C329.44 360.923 331.216 361.661 333.069 361.664H580.237C582.089 361.661 583.865 360.923 585.175 359.613C586.485 358.303 587.222 356.528 587.225 354.675V7.2448C587.222 5.39229 586.485 3.61663 585.175 2.30671C583.865 0.996788 582.089 0.259385 580.237 0.256001H333.069Z" fill="#EBEBEB"/>
<path d="M556.403 21.7217H161.216V203.802H556.403V21.7217Z" fill="#E6E6E6"/>
<path d="M567.424 21.7217H163.776V203.802H567.424V21.7217Z" fill="#F0F0F0"/>
<path d="M556.403 203.802H161.216V208.73H561.549L556.403 203.802Z" fill="#E6E6E6"/>
<path d="M572.557 203.802H172.877L175.245 208.73H574.938L572.557 203.802Z" fill="#F0F0F0"/>
<path d="M559.603 195.559V29.9907L171.597 29.9907V195.559L559.603 195.559Z" fill="#FAFAFA"/>
<path d="M230.438 195.546L285.542 29.9778H338.176L283.059 195.546H230.438Z" fill="white"/>
<path d="M294.374 195.546L349.478 29.9778H369.997L314.88 195.546H294.374Z" fill="white"/>
<path d="M559.603 195.559V29.9907H557.517V195.559H559.603Z" fill="#E6E6E6"/>
<path d="M87.0402 419.072H108.365L108.365 287.002H87.0402L87.0402 419.072Z" fill="#F0F0F0"/>
<path d="M366.656 286.989H108.365V419.059H366.656V286.989Z" fill="#F5F5F5"/>
<path d="M368.359 348.953H132.851V404.659H368.359V348.953Z" fill="#FAFAFA"/>
<path d="M368.359 310.72H132.851V339.635H368.359V310.72Z" fill="#FAFAFA"/>
<g style="mix-blend-mode:multiply" opacity="0.7">
<path d="M131.392 404.646H132.851V348.941H131.392V404.646Z" fill="#E6E6E6"/>
</g>
<g style="mix-blend-mode:multiply" opacity="0.7">
<path d="M131.392 339.635H132.851V310.72H131.392V339.635Z" fill="#E6E6E6"/>
</g>
<g style="mix-blend-mode:multiply" opacity="0.7">
<path d="M87.0272 297.625L367.13 297.625V293.913L87.0272 293.913V297.625Z" fill="#E6E6E6"/>
</g>
<path d="M84.5315 295.488H108.352V284.749H84.5315V295.488Z" fill="#F0F0F0"/>
<path d="M369.152 284.749H108.365V295.488H369.152V284.749Z" fill="#F5F5F5"/>
<path d="M497.024 385.881C495.216 381.76 493.81 377.473 492.825 373.081C491.778 368.664 490.987 364.189 490.457 359.68C489.397 350.675 489.136 341.595 489.676 332.544C490.783 314.42 494.388 296.535 500.39 279.398L502.694 272.998L505.19 266.701C506.035 264.614 506.969 262.553 507.904 260.505C508.838 258.457 509.721 256.371 510.732 254.361C512.819 250.355 514.713 246.272 517.017 242.406L520.358 236.544L523.955 230.848C533.503 215.669 545.016 201.818 558.195 189.657C556.403 193.792 554.496 197.798 552.537 201.753C550.579 205.709 548.697 209.702 546.828 213.657C543.091 221.581 539.302 229.389 535.795 237.286L533.132 243.2L530.572 249.126C528.832 253.056 527.244 257.049 525.593 260.992L523.225 266.957C522.432 268.953 521.638 270.925 520.947 272.947L518.681 278.937L516.595 284.979C510.982 301.081 506.454 317.54 503.04 334.246C501.337 342.617 499.891 351.078 498.88 359.667C497.746 368.361 497.127 377.114 497.024 385.881Z" fill="#E6E6E6"/>
<path d="M412.979 354.931C414.262 340.171 413.91 325.314 411.929 310.631C411.737 308.851 411.405 307.072 411.11 305.306C410.816 303.539 410.521 301.773 410.176 300.032C409.83 298.291 409.433 296.538 409.049 294.797L408.473 292.237L407.795 289.677C406.054 282.807 403.874 276.056 401.267 269.466C395.999 256.142 389.354 243.405 381.44 231.463L378.445 226.88C377.395 225.395 376.307 223.911 375.283 222.387L373.67 220.16C373.145 219.405 372.557 218.701 372.019 217.946L368.704 213.466C367.654 211.904 366.425 210.509 365.299 209.011C364.173 207.514 362.995 206.042 361.869 204.506C359.501 201.549 357.094 198.592 354.829 195.405C368.858 202.246 381.472 211.669 392.013 223.181C402.878 234.805 411.451 248.376 417.28 263.181C423.129 278.082 425.886 294.017 425.382 310.016C425.112 317.91 423.987 325.751 422.029 333.402C421.028 337.185 419.797 340.904 418.342 344.538C416.909 348.174 415.112 351.656 412.979 354.931Z" fill="#E6E6E6"/>
<path d="M416.832 354.931C417.075 345.843 417.101 336.947 416.896 328.051C416.691 319.155 416.346 310.439 415.616 301.735C414.363 284.47 411.925 267.312 408.32 250.381C407.36 246.195 406.477 241.971 405.299 237.837C404.327 233.651 402.995 229.568 401.831 225.408C399.271 217.216 396.467 209.05 393.229 201.011C386.829 184.858 378.752 169.344 369.997 153.37C377.156 159.051 383.707 165.46 389.543 172.493C395.467 179.545 400.753 187.11 405.338 195.098L408.704 201.152C409.792 203.187 410.727 205.299 411.751 207.386L413.248 210.509C413.747 211.559 414.144 212.647 414.592 213.709L417.216 220.109C418.778 224.461 420.339 228.839 421.619 233.28C422.899 237.722 423.987 242.24 425.075 246.72C428.925 264.775 430.265 283.275 429.056 301.696C428.446 310.832 427.163 319.911 425.216 328.858C424.243 333.312 423.079 337.741 421.709 342.093C420.381 346.48 418.752 350.77 416.832 354.931Z" fill="#E6E6E6"/>
<path d="M492.429 365.85C490.15 360.64 488.064 355.341 486.157 350.016C485.184 347.341 484.275 344.666 483.341 341.99L480.781 333.914C477.363 323.11 474.381 312.154 471.693 301.222C466.379 279.218 462.307 256.932 459.494 234.47C456.691 211.967 455.344 189.307 455.462 166.63C455.599 160.964 455.795 155.29 456.051 149.606C456.179 143.949 456.896 138.278 457.395 132.621C457.894 126.963 458.509 121.331 459.584 115.725C460.659 110.118 461.606 104.538 462.809 98.9951C464.985 121.664 466.649 143.795 468.928 166.029C471.206 188.262 473.753 210.291 476.505 232.384L484.902 298.79C487.68 320.986 490.419 343.206 492.429 365.85Z" fill="#E6E6E6"/>
<path d="M488.691 362.24C486.003 357.261 483.494 352.179 481.152 347.046C479.961 344.486 478.835 341.926 477.683 339.366L474.393 331.52C470.093 321.101 466.201 310.541 462.553 299.878C455.356 278.532 449.314 256.813 444.454 234.816C439.571 212.76 436.053 190.425 433.92 167.936C433.476 162.304 433.088 156.668 432.755 151.027C432.333 145.408 432.435 139.725 432.333 134.08C432.23 128.435 432.256 122.79 432.691 117.12C433.126 111.45 433.459 105.83 434.048 100.211C438.758 122.394 442.726 144.205 447.258 165.978C451.789 187.75 456.371 209.408 461.158 231.091L475.481 296.243C480.179 318.042 484.864 339.878 488.691 362.24Z" fill="#E6E6E6"/>
<path d="M503.321 390.297C500.07 386.236 496.99 382.067 494.08 377.792C492.608 375.667 491.174 373.504 489.753 371.392L485.606 364.8C482.854 360.409 480.281 355.942 477.696 351.475C476.416 349.248 475.2 346.969 473.958 344.704C472.717 342.438 471.488 340.173 470.297 337.881C460.801 319.546 452.473 300.628 445.363 281.241C438.203 261.833 432.454 241.932 428.16 221.696C427.161 216.576 426.21 211.486 425.305 206.425C424.409 201.305 423.885 196.185 423.232 191.065L422.4 183.385C422.157 180.825 422.067 178.201 421.952 175.616C421.696 170.436 421.581 165.256 421.606 160.077C428.557 179.673 434.406 199.053 441.165 218.214C447.923 237.376 454.4 256.384 461.465 275.366L482.56 332.429C489.638 351.526 496.781 370.611 503.321 390.297Z" fill="#E6E6E6"/>
<path d="M481.28 358.118C478.026 354.614 474.954 350.944 472.077 347.123C469.133 343.36 466.445 339.443 463.705 335.527C460.966 331.61 458.47 327.565 456.025 323.482C454.745 321.447 453.606 319.399 452.403 317.338C451.2 315.277 449.984 313.229 448.896 311.117C446.669 306.906 444.365 302.733 442.291 298.445C440.217 294.157 438.208 289.843 436.185 285.53C434.163 281.216 432.499 276.749 430.643 272.358L429.363 269.043L428.083 265.69L425.625 258.982C422.31 250.022 419.686 240.87 417.024 231.718C415.897 227.085 414.707 222.464 413.645 217.818C413.145 215.488 412.505 213.197 412.096 210.842L410.816 203.802C410.381 201.459 410.009 199.104 409.613 196.749C409.216 194.394 408.755 192.077 408.55 189.683C408.013 184.939 407.535 180.194 407.117 175.45C406.95 173.069 406.656 170.714 406.592 168.32C406.528 165.926 406.451 163.546 406.438 161.165C406.361 156.395 406.417 151.625 406.605 146.854C413.005 164.941 417.881 182.886 423.897 200.538C426.585 209.498 429.773 218.163 432.563 226.995L437.133 240.128C437.888 242.317 438.566 244.531 439.347 246.707L441.741 253.235C444.736 262.003 448.077 270.643 451.2 279.386C452.851 283.725 454.528 288.039 456.102 292.416L461.069 305.459L471.129 331.635C474.573 340.378 477.965 349.158 481.28 358.118Z" fill="#E6E6E6"/>
<path d="M498.893 378.701C496.321 375.197 494.121 371.435 492.327 367.475C490.48 363.523 488.885 359.457 487.552 355.303C484.924 346.964 483.111 338.391 482.138 329.703C481.157 321.005 480.879 312.243 481.306 303.501C481.447 299.123 481.946 294.784 482.368 290.432C482.791 286.08 483.559 281.779 484.391 277.504C487.668 260.435 493.073 243.845 500.48 228.122C507.65 212.432 516.921 197.791 528.039 184.602C526.887 188.775 525.632 192.866 524.275 196.877C523.059 200.96 521.715 204.954 520.435 208.947L516.672 220.928C515.533 224.947 514.112 228.864 513.075 232.858C508.342 248.574 504.399 264.517 501.261 280.627C499.691 288.632 498.437 296.666 497.498 304.73C496.559 312.794 495.919 320.9 495.578 329.05C495.271 337.203 495.322 345.408 495.821 353.664C496.246 362.072 497.272 370.439 498.893 378.701Z" fill="#E6E6E6"/>
<path d="M492.224 355.098C490.031 351.205 488.086 347.178 486.4 343.04C484.659 338.906 483.162 334.695 481.754 330.445C479.005 321.9 476.828 313.181 475.239 304.346C473.647 295.46 472.625 286.482 472.18 277.466C472.09 275.213 472.051 272.948 472 270.682C471.949 268.416 472 266.151 472 263.885C472 261.62 472.167 259.354 472.282 257.088C472.397 254.823 472.525 252.557 472.768 250.292C473.012 248.026 473.216 245.76 473.523 243.508L474.509 236.749C474.88 234.496 475.392 232.269 475.789 230.029C476.019 228.916 476.224 227.789 476.467 226.688C476.711 225.588 477.031 224.461 477.325 223.36C479.501 214.486 482.501 205.834 486.285 197.517C493.773 180.877 504.64 165.722 518.413 154.279C517.466 156.34 516.429 158.298 515.469 160.295L513.959 163.213L512.589 166.221L509.824 172.122L507.328 178.1C504.09 185.979 501.312 194.039 499.008 202.24L498.1 205.274L497.344 208.346C496.832 210.394 496.243 212.416 495.783 214.477C495.322 216.538 494.925 218.599 494.439 220.647C493.952 222.695 493.658 224.781 493.261 226.855C493.069 227.879 492.89 228.916 492.672 229.952C492.455 230.989 492.352 232.026 492.186 233.063C491.879 235.149 491.507 237.223 491.264 239.322L490.458 245.581C490.202 247.68 490.061 249.792 489.843 251.892C489.626 253.991 489.447 256.09 489.306 258.202C489.165 260.314 488.986 262.426 488.909 264.538C488.832 266.65 488.64 268.775 488.589 270.938C488.538 273.101 488.499 275.188 488.397 277.338C488.218 285.85 488.32 294.388 488.589 302.938C489.139 320.064 490.496 337.332 492.224 355.098Z" fill="#E6E6E6"/>
<path d="M474.65 337.613L418.406 226.663L420.659 335.463L474.65 337.613Z" fill="#E6E6E6"/>
<path d="M517.939 308.032H404.876L419.673 419.072H503.129L517.939 308.032Z" fill="#F5F5F5"/>
<path d="M447.308 308.032H404.876L419.673 419.072H441.958L447.308 308.032Z" fill="#EBEBEB"/>
<path d="M161.421 268.378H124.723V284.749H161.421V268.378Z" fill="#E0E0E0"/>
<path d="M244.992 284.749H161.421V268.378H244.992C245.573 268.378 246.129 268.608 246.54 269.019C246.95 269.429 247.181 269.986 247.181 270.567V282.573C247.178 283.151 246.945 283.705 246.535 284.113C246.125 284.52 245.57 284.749 244.992 284.749Z" fill="#F0F0F0"/>
<path d="M158.963 270.502H124.723V282.611H158.963V270.502Z" fill="#F0F0F0"/>
<path d="M168.806 256.423H132.109V268.365H168.806V256.423Z" fill="#E6E6E6"/>
<path d="M233.767 268.378H168.807V256.436H233.767C234.347 256.436 234.904 256.666 235.314 257.077C235.725 257.487 235.955 258.044 235.955 258.624V266.24C235.942 266.812 235.705 267.356 235.296 267.755C234.887 268.155 234.338 268.378 233.767 268.378Z" fill="#FAFAFA"/>
<path d="M214.848 256.423H187.008V268.365H214.848V256.423Z" fill="#F5F5F5"/>
<path d="M166.349 258.56H132.109V266.24H166.349V258.56Z" fill="#F5F5F5"/>
<path d="M320 476.877C457.066 476.877 568.179 470.39 568.179 462.388C568.179 454.385 457.066 447.898 320 447.898C182.934 447.898 71.8208 454.385 71.8208 462.388C71.8208 470.39 182.934 476.877 320 476.877Z" fill="#F5F5F5"/>
<path d="M474.009 122.752C477.171 112.512 444.825 110.182 437.03 128.576C426.112 154.342 442.035 168.832 442.035 168.832C451.315 163.853 469.465 163.11 479.385 166.4L474.009 122.752Z" fill="#263238"/>
<path d="M476.505 451.814L466.521 452.198L466.47 441.408L476.441 441.024L476.505 451.814Z" fill="#B55B52"/>
<path d="M466.125 450.138H477.44C477.641 450.139 477.836 450.206 477.996 450.329C478.155 450.451 478.27 450.622 478.323 450.816L480.781 459.776C480.843 459.987 480.855 460.21 480.815 460.426C480.776 460.642 480.685 460.846 480.552 461.021C480.418 461.195 480.245 461.336 480.047 461.431C479.849 461.526 479.631 461.573 479.411 461.568C475.456 461.492 473.536 461.261 468.57 461.261C465.51 461.261 457.626 461.581 453.402 461.581C449.178 461.581 448.41 457.408 450.125 457.037C457.805 455.335 462.182 453.005 464.55 450.778C464.973 450.37 465.537 450.14 466.125 450.138Z" fill="#EE3481"/>
<path opacity="0.2" d="M466.47 441.421L466.496 446.976L476.48 447.027L476.454 441.024L466.47 441.421Z" fill="black"/>
<path d="M443.661 241.69C442.035 253.978 447.577 312.269 452.249 337.69C458.457 371.469 464.333 444.711 464.333 444.711L477.785 443.904C477.785 443.904 479.411 363.61 475.289 336.384C475.021 300.659 475.661 238.093 475.661 238.093L443.661 241.69Z" fill="#263238"/>
<path opacity="0.2" d="M475.353 277.03C475.353 267.968 468.646 260.813 466.969 278.118C465.907 289.139 470.195 307.622 475.225 320.422C475.213 306.483 475.277 290.867 475.353 277.03Z" fill="black"/>
<path d="M535.897 452.928L526.745 453.171L522.432 440.691L531.596 440.448L535.897 452.928Z" fill="#B55B52"/>
<path d="M535.68 450.137H524.39C524.301 450.131 524.212 450.144 524.129 450.177C524.046 450.209 523.971 450.26 523.909 450.325C523.848 450.389 523.802 450.467 523.775 450.552C523.747 450.637 523.739 450.727 523.75 450.816L524.582 459.776C524.669 460.261 524.917 460.702 525.287 461.027C525.657 461.353 526.126 461.543 526.618 461.568C530.535 461.491 532.378 461.26 537.344 461.26C540.403 461.26 544.423 461.58 548.647 461.58C552.871 461.58 552.103 457.408 550.259 457.037C541.978 455.334 540.685 453.005 537.459 450.777C536.944 450.39 536.324 450.167 535.68 450.137Z" fill="#EE3481"/>
<path opacity="0.2" d="M522.444 440.704L524.659 447.13L534.003 447.398L531.609 440.448L522.444 440.704Z" fill="black"/>
<path d="M459.021 239.961C459.021 239.961 479.77 315.929 490.189 338.342C496.96 372.966 521.19 445.529 521.19 445.529L535.27 444.557C535.27 444.557 519.91 371.136 510.464 337.037C505.344 305.357 502.003 252.557 487.424 236.761L459.021 239.961Z" fill="#263238"/>
<path d="M438.912 185.191C438.643 191.591 438.092 197.799 437.337 204.083C436.582 210.368 435.66 216.589 434.444 222.823L433.971 225.165L433.715 226.445C433.556 227.2 433.311 227.934 432.985 228.634C432.492 229.734 431.73 230.694 430.771 231.424C429.578 232.299 428.127 232.749 426.649 232.704C425.69 232.667 424.745 232.459 423.859 232.09C423.248 231.836 422.661 231.527 422.105 231.168C420.498 230.073 419.031 228.783 417.74 227.328C416.576 226.048 415.513 224.768 414.502 223.488C410.645 218.375 407.22 212.951 404.262 207.271C403.951 206.671 403.872 205.979 404.039 205.325C404.205 204.671 404.606 204.101 405.165 203.723C405.725 203.346 406.403 203.187 407.072 203.277C407.741 203.367 408.354 203.699 408.793 204.211C412.736 208.871 416.716 213.645 420.889 217.843C421.913 218.893 422.963 219.904 424.012 220.8C424.883 221.605 425.846 222.306 426.88 222.887C427.046 222.951 427.2 223.027 427.212 223.002C427.225 222.976 427.136 222.912 426.688 222.874C425.994 222.862 425.315 223.078 424.755 223.488C424.4 223.733 424.106 224.058 423.897 224.435L424.051 223.373L424.371 221.107C425.177 215.079 425.817 208.986 426.406 202.893C426.995 196.8 427.443 190.631 427.852 184.615V184.538C427.934 183.073 428.594 181.7 429.687 180.722C430.781 179.744 432.218 179.24 433.683 179.322C435.148 179.403 436.52 180.063 437.498 181.157C438.477 182.25 438.98 183.687 438.899 185.152L438.912 185.191Z" fill="#B55B52"/>
<path d="M434.214 176.64C424.716 181.287 426.201 193.6 426.201 193.6L441.395 204.301C441.395 204.301 446.95 190.925 445.798 184.512C444.608 177.92 441.254 173.248 434.214 176.64Z" fill="#EE3481"/>
<path opacity="0.2" d="M432.64 186.957C434.867 183.45 438.694 184.294 443.149 187.085C444.184 187.982 445.051 189.057 445.709 190.259C444.754 195.077 443.339 199.792 441.485 204.339L430.771 196.8C430.345 193.404 430.999 189.96 432.64 186.957Z" fill="black"/>
<path d="M409.51 205.952L407.244 197.287L399.564 204.199C399.564 204.199 402.342 208.832 406.809 209.459L409.51 205.952Z" fill="#B55B52"/>
<path d="M401.357 193.754L399.795 195.303C398.608 196.464 397.92 198.042 397.874 199.701C397.829 201.361 398.43 202.974 399.552 204.199L407.232 197.287L405.081 194.125C404.88 193.831 404.617 193.584 404.31 193.402C404.003 193.22 403.66 193.107 403.306 193.072C402.951 193.036 402.592 193.079 402.256 193.197C401.919 193.315 401.612 193.505 401.357 193.754Z" fill="#B55B52"/>
<path d="M405.248 194.343C403.309 191.74 401.551 189.008 399.987 186.164C399.501 185.191 397.927 186.548 398.707 187.968C399.488 189.389 400.935 194.023 402.471 195.712C404.007 197.402 405.248 194.343 405.248 194.343Z" fill="#B55B52"/>
<path d="M430.694 183.667C433.395 208.397 441.459 225.638 443.66 241.689L487.36 236.8C484.889 220.736 483.635 210.227 486.707 180.48C486.842 179.186 486.706 177.879 486.309 176.64C485.911 175.402 485.26 174.26 484.396 173.287C483.533 172.314 482.477 171.532 481.294 170.989C480.112 170.447 478.83 170.157 477.529 170.137C474.867 170.137 471.923 170.137 468.953 170.329C462.295 170.592 455.664 171.337 449.113 172.557C444.505 173.504 439.603 174.835 436.096 175.859C434.428 176.329 432.976 177.366 431.99 178.791C431.004 180.216 430.546 181.94 430.694 183.667Z" fill="#EE3481"/>
<path d="M449.113 172.531C449.113 172.531 442.099 180.122 452.557 190.451C456.449 182.585 462.052 175.688 468.953 170.266L449.113 172.531Z" fill="white"/>
<path d="M464.486 148.173C463.949 154.701 464.013 166.541 468.953 170.304C468.953 170.304 458.035 176.243 452.147 186.688C444.467 179.008 449.113 172.531 449.113 172.531C456.038 169.971 455.27 164.761 453.465 159.949L464.486 148.173Z" fill="#B55B52"/>
<path opacity="0.2" d="M463.283 149.466C463.615 153.275 463.131 157.11 461.862 160.717C460.979 163.2 457.933 164.621 454.707 165.223C454.553 163.41 454.121 161.631 453.427 159.949L463.283 149.466Z" fill="black"/>
<path d="M473.753 139.047C471.859 149.619 471.27 154.138 465.254 158.976C456.192 166.247 443.622 161.6 442.329 150.669C441.164 140.826 444.479 125.184 455.398 122.163C457.804 121.488 460.342 121.438 462.773 122.02C465.203 122.601 467.444 123.795 469.284 125.486C471.123 127.178 472.499 129.312 473.281 131.685C474.064 134.059 474.226 136.593 473.753 139.047Z" fill="#B55B52"/>
<path d="M465.6 130.56C463.04 136.217 465.28 145.817 473.395 145.229C466.829 152.717 468.39 169.139 468.39 169.139C472.496 169.432 476.6 168.543 480.217 166.579C480.217 166.579 477.657 151.053 480.358 140.16C482.56 131.302 482.24 114.112 463.04 117.849C460.8 118.285 446.208 122.112 444.736 129.779C444.621 130.47 460.313 135.014 465.6 130.56Z" fill="#263238"/>
<path d="M476.16 145.05C475.932 146.053 475.509 147.002 474.913 147.841C474.318 148.68 473.563 149.393 472.691 149.939C470.349 151.386 468.416 149.479 468.429 146.867C468.429 144.512 469.709 140.928 472.333 140.544C472.915 140.468 473.508 140.539 474.056 140.75C474.605 140.962 475.092 141.308 475.472 141.756C475.853 142.204 476.115 142.74 476.235 143.315C476.355 143.891 476.329 144.487 476.16 145.05Z" fill="#B55B52"/>
<path opacity="0.2" d="M479.833 187.571C479.665 189.755 480.072 191.945 481.016 193.922C481.959 195.899 483.405 197.593 485.209 198.835C485.44 194.407 485.824 189.44 486.387 183.731C484.16 181.338 480.358 183.424 479.833 187.571Z" fill="black"/>
<path d="M487.68 234.15L490.086 237.837C490.278 238.131 489.958 238.477 489.446 238.528L443.622 243.648C443.225 243.648 442.88 243.533 442.829 243.29L441.984 239.45C441.984 239.181 442.253 238.912 442.675 238.861L486.938 233.894C487.073 233.869 487.212 233.879 487.343 233.924C487.473 233.969 487.589 234.047 487.68 234.15Z" fill="#263238"/>
<path d="M482.342 239.77L483.533 239.629C483.763 239.629 483.93 239.462 483.904 239.322L482.778 234.291C482.778 234.15 482.522 234.048 482.278 234.074L481.101 234.214C480.858 234.214 480.691 234.381 480.73 234.522L481.856 239.539C481.882 239.693 482.112 239.795 482.342 239.77Z" fill="#EE3481"/>
<path d="M447.053 243.725L448.23 243.597C448.473 243.597 448.64 243.418 448.601 243.277L447.475 238.259C447.475 238.106 447.219 238.016 446.989 238.042L445.798 238.17C445.568 238.17 445.401 238.336 445.427 238.49L446.553 243.507C446.592 243.648 446.809 243.75 447.053 243.725Z" fill="#EE3481"/>
<path d="M464.64 241.741L465.83 241.613C466.061 241.613 466.227 241.447 466.201 241.293L465.075 236.275C465.075 236.135 464.819 236.032 464.589 236.058L463.398 236.186C463.168 236.186 463.001 236.352 463.027 236.506L464.153 241.523C464.243 241.677 464.461 241.767 464.64 241.741Z" fill="#EE3481"/>
<path d="M455.68 140.122C455.577 140.992 455.04 141.645 454.477 141.581C453.913 141.517 453.529 140.749 453.632 139.891C453.734 139.034 454.272 138.368 454.848 138.432C455.424 138.496 455.821 139.264 455.68 140.122Z" fill="#263238"/>
<path d="M445.913 138.97C445.811 139.84 445.273 140.493 444.71 140.429C444.147 140.365 443.763 139.597 443.865 138.74C443.968 137.882 444.505 137.216 445.145 137.28C445.785 137.344 446.016 138.112 445.913 138.97Z" fill="#263238"/>
<path d="M445.324 137.357L443.302 136.512C443.302 136.512 444.16 138.24 445.324 137.357Z" fill="#263238"/>
<path d="M448.333 140.8C447.326 142.669 446.068 144.391 444.595 145.92C444.999 146.288 445.479 146.562 446.002 146.723C446.524 146.885 447.075 146.93 447.616 146.854L448.333 140.8Z" fill="#A02724"/>
<path d="M450.048 149.914C450.007 149.886 449.974 149.847 449.954 149.802C449.934 149.757 449.926 149.707 449.933 149.658C449.937 149.624 449.949 149.591 449.966 149.562C449.983 149.533 450.007 149.507 450.034 149.487C450.061 149.467 450.093 149.452 450.126 149.444C450.159 149.436 450.193 149.435 450.227 149.44C451.297 149.627 452.396 149.559 453.435 149.241C454.474 148.923 455.423 148.364 456.205 147.61C456.227 147.584 456.255 147.564 456.285 147.549C456.316 147.535 456.349 147.526 456.383 147.525C456.417 147.523 456.451 147.528 456.483 147.539C456.515 147.55 456.544 147.568 456.569 147.59C456.595 147.613 456.615 147.641 456.63 147.671C456.644 147.702 456.653 147.735 456.655 147.769C456.656 147.803 456.651 147.837 456.64 147.869C456.629 147.901 456.611 147.93 456.589 147.955C455.758 148.774 454.744 149.382 453.631 149.729C452.517 150.077 451.337 150.153 450.189 149.952L450.048 149.914Z" fill="#263238"/>
<path d="M460.377 135.565C460.3 135.525 460.238 135.463 460.198 135.386C459.886 134.821 459.445 134.338 458.911 133.975C458.378 133.613 457.766 133.381 457.126 133.299C456.99 133.299 456.86 133.245 456.764 133.149C456.668 133.053 456.614 132.923 456.614 132.787C456.614 132.651 456.668 132.521 456.764 132.425C456.86 132.329 456.99 132.275 457.126 132.275C457.933 132.362 458.708 132.639 459.387 133.084C460.066 133.529 460.629 134.13 461.03 134.835C461.065 134.893 461.088 134.957 461.098 135.024C461.107 135.091 461.104 135.159 461.087 135.224C461.07 135.29 461.041 135.351 461.001 135.405C460.96 135.459 460.909 135.505 460.851 135.539C460.779 135.578 460.699 135.601 460.617 135.606C460.535 135.61 460.453 135.596 460.377 135.565Z" fill="#263238"/>
<path d="M443.328 133.875L443.251 133.811C443.203 133.765 443.165 133.709 443.139 133.647C443.113 133.586 443.099 133.52 443.099 133.453C443.099 133.386 443.113 133.32 443.139 133.258C443.165 133.197 443.203 133.141 443.251 133.094C443.764 132.462 444.421 131.962 445.167 131.635C445.913 131.307 446.726 131.163 447.539 131.213C447.675 131.23 447.798 131.3 447.882 131.408C447.966 131.516 448.004 131.653 447.987 131.789C447.97 131.925 447.9 132.048 447.792 132.132C447.684 132.216 447.547 132.254 447.411 132.237C446.767 132.201 446.123 132.32 445.535 132.586C444.947 132.851 444.431 133.254 444.032 133.76C443.95 133.864 443.833 133.934 443.702 133.956C443.572 133.977 443.438 133.948 443.328 133.875Z" fill="#263238"/>
<path d="M486.208 176.883C489.971 180.723 493.542 184.563 497.024 188.621C498.765 190.643 500.518 192.679 502.144 194.829C503.914 197.042 505.551 199.359 507.047 201.767C507.521 202.516 507.949 203.294 508.327 204.096C508.598 204.715 508.812 205.358 508.967 206.016C509.024 206.282 509.067 206.551 509.095 206.823V207.322C509.107 207.543 509.107 207.766 509.095 207.987V208.333V208.487V208.614L509.031 208.87C508.698 210.253 508.455 211.648 508.019 213.005C507.253 215.771 506.246 218.465 505.011 221.056C503.745 223.686 502.177 226.16 500.339 228.429C499.396 229.579 498.36 230.649 497.242 231.629C496.679 232.128 496.103 232.602 495.475 233.062C495.168 233.28 494.835 233.498 494.502 233.702C494.17 233.907 493.863 234.087 493.325 234.368L490.547 229.645C490.547 229.581 490.829 229.35 490.97 229.171L491.507 228.57C491.866 228.147 492.211 227.699 492.544 227.29C493.202 226.344 493.805 225.361 494.349 224.346C495.44 222.296 496.348 220.155 497.062 217.946C497.382 216.794 497.741 215.68 497.984 214.49C498.227 213.299 498.496 212.16 498.688 210.982C498.88 209.805 499.021 208.589 499.2 207.398V207.168V207.066V207.296C499.2 207.437 499.2 207.629 499.2 207.718C499.194 207.799 499.194 207.881 499.2 207.962V208.282C499.2 208.538 499.2 208.461 499.2 208.358C499.2 208.256 498.791 207.693 498.496 207.27C497.216 205.517 495.603 203.533 493.965 201.651C492.327 199.77 490.611 197.811 488.845 195.93L478.285 184.589L486.208 176.883Z" fill="#B55B52"/>
<path d="M496.09 232.653L488.41 239.782L483.43 231.68C483.43 231.68 488.218 228.237 492.518 229.53L496.09 232.653Z" fill="#B55B52"/>
<path d="M482.56 241.28L480 238.605C479.513 238.092 479.249 237.408 479.263 236.701C479.278 235.994 479.57 235.322 480.077 234.829L483.353 231.616L488.32 239.782L486.182 241.536C485.655 241.951 484.991 242.155 484.321 242.108C483.652 242.06 483.024 241.765 482.56 241.28Z" fill="#B55B52"/>
<path d="M468.89 176.525C468.301 181.094 480.474 194.445 480.474 194.445L491.866 180.186C491.866 180.186 486.554 172.736 482.496 171.046C475.981 168.294 469.555 171.315 468.89 176.525Z" fill="#EE3481"/>
<path d="M455.129 138.509L453.107 137.664C453.107 137.664 453.99 139.417 455.129 138.509Z" fill="#263238"/>
<path d="M164.634 129.549C159.911 134.785 154.035 150.477 172.237 147.329C190.439 144.18 164.634 129.549 164.634 129.549Z" fill="#263238"/>
<path d="M170.432 115.123C171.546 108.16 158.81 92.173 153.792 102.042C147.635 113.92 170.432 115.123 170.432 115.123Z" fill="#263238"/>
<path d="M170.47 119.347C176.243 115.303 178.829 95.0274 168.218 98.2786C155.43 102.183 170.47 119.347 170.47 119.347Z" fill="#263238"/>
<path d="M199.68 181.453C199.565 182.528 199.462 183.872 199.373 185.101C199.283 186.33 199.232 187.661 199.194 188.941C199.194 191.501 199.04 194.061 199.117 196.557C199.224 201.613 199.682 206.656 200.486 211.648C200.666 212.928 200.947 214.106 201.178 215.335L201.254 215.757C201.252 215.804 201.252 215.851 201.254 215.898C201.254 215.898 201.254 215.898 201.254 216.013C201.254 216.128 201.869 216.436 202.739 216.525C203.755 216.645 204.782 216.645 205.798 216.525C210.718 215.731 215.528 214.369 220.134 212.468L222.618 216.884C221.427 217.741 220.288 218.458 219.085 219.175C217.882 219.892 216.691 220.583 215.424 221.197C212.843 222.535 210.127 223.595 207.322 224.359C205.733 224.783 204.101 225.019 202.458 225.063C200.311 225.125 198.19 224.579 196.339 223.488C195.226 222.798 194.278 221.871 193.562 220.775C193.221 220.259 192.934 219.71 192.704 219.136C192.587 218.869 192.484 218.596 192.397 218.317L192.269 217.908L192.205 217.652C191.859 216.295 191.45 214.925 191.155 213.556C189.928 208.086 189.196 202.517 188.966 196.916C188.826 194.138 188.774 191.373 188.877 188.596C188.877 187.2 188.992 185.818 189.094 184.423C189.197 183.028 189.325 181.696 189.53 180.135L199.68 181.453Z" fill="#FFB573"/>
<path d="M198.4 169.383C202.24 171.124 202.24 188.34 202.24 188.34L184.858 196.225C184.858 196.225 181.888 175.297 185.792 171.367C189.696 167.437 192.781 166.849 198.4 169.383Z" fill="#263238"/>
<path opacity="0.2" d="M197.44 173.056L200.052 189.376L190.618 193.639L197.44 173.056Z" fill="black"/>
<path d="M217.907 214.618L225.165 206.669L227.443 215.424C227.443 215.424 222.797 219.866 218.842 218.586L217.907 214.618Z" fill="#FFB573"/>
<path d="M229.837 206.413L230.912 210.752C230.993 211.094 230.983 211.45 230.885 211.787C230.786 212.124 230.601 212.429 230.349 212.672L227.443 215.424L225.165 206.669L226.573 205.389C226.829 205.157 227.142 204.996 227.479 204.922C227.817 204.848 228.168 204.864 228.498 204.967C228.828 205.071 229.125 205.259 229.36 205.512C229.595 205.766 229.759 206.076 229.837 206.413Z" fill="#FFB573"/>
<path d="M200.589 173.351C200.103 179.2 197.172 193.459 185.229 228.019L145.165 221.095C148.48 205.735 150.221 195.93 148.685 165.312C148.648 164.621 148.754 163.93 148.996 163.281C149.237 162.633 149.61 162.041 150.09 161.543C150.57 161.045 151.148 160.65 151.787 160.385C152.426 160.12 153.113 159.989 153.805 160C157.822 160.037 161.834 160.289 165.824 160.755C171.952 161.354 178.03 162.385 184.013 163.84C188.903 165.12 194.138 166.989 197.3 168.141C198.348 168.522 199.24 169.24 199.835 170.183C200.431 171.126 200.696 172.24 200.589 173.351Z" fill="#263238"/>
<path opacity="0.2" d="M149.44 173.875C152.909 175.411 155.584 179.943 153.92 187.162C153.124 190.438 151.415 193.42 148.992 195.763C149.325 190.042 149.376 183.347 149.107 174.72L149.44 173.875Z" fill="black"/>
<path d="M171.149 140.583C171.29 146.637 170.586 157.556 165.811 160.756C165.811 160.756 169.28 165.095 178.97 172.57C188.211 167.45 184.013 163.892 184.013 163.892C177.754 161.216 178.752 156.404 180.672 152.052L171.149 140.583Z" fill="#FFB573"/>
<path opacity="0.2" d="M175.04 145.268L180.672 152.039C180.209 153.049 179.836 154.098 179.559 155.175C177.127 154.381 173.568 151.578 173.504 148.775C173.466 147.456 174.72 145.831 175.04 145.268Z" fill="black"/>
<path d="M166.4 129.434C166.951 139.354 166.963 143.514 171.943 148.634C179.431 156.314 191.488 153.498 193.92 143.616C196.109 134.656 194.842 119.988 185.165 115.981C183.03 115.086 180.702 114.752 178.401 115.012C176.101 115.271 173.905 116.116 172.024 117.465C170.142 118.813 168.638 120.622 167.653 122.717C166.669 124.812 166.238 127.125 166.4 129.434Z" fill="#FFB573"/>
<path d="M166.311 136.077C170.586 136.295 175.488 128.051 173.504 124.327C175.744 123.827 185.293 124.903 185.255 121.383C189.568 124.391 199.04 124.544 200.615 120.461C202.189 116.378 198.605 112.576 193.946 114.061C190.579 105.383 174.387 103.591 168.346 111.834C160.691 111.642 144.064 124.16 166.311 136.077Z" fill="#263238"/>
<path d="M183.552 132.173C183.552 132.98 183.962 133.633 184.499 133.633C185.037 133.633 185.447 132.993 185.459 132.186C185.472 131.38 185.037 130.714 184.512 130.714C183.987 130.714 183.552 131.367 183.552 132.173Z" fill="#263238"/>
<path d="M192.666 132.224C192.666 133.03 193.088 133.683 193.613 133.696C194.138 133.709 194.573 133.043 194.586 132.237C194.599 131.43 194.163 130.778 193.639 130.765C193.114 130.752 192.679 131.418 192.666 132.224Z" fill="#263238"/>
<path d="M193.408 130.817L195.341 130.266C195.341 130.266 194.343 131.841 193.408 130.817Z" fill="#263238"/>
<path d="M189.85 133.658C190.557 135.487 191.513 137.21 192.691 138.778C192.278 139.07 191.806 139.267 191.309 139.358C190.812 139.449 190.301 139.43 189.811 139.303L189.85 133.658Z" fill="#ED893E"/>
<path d="M185.114 142.49C185.507 142.554 185.905 142.584 186.304 142.58C186.335 142.581 186.367 142.577 186.396 142.566C186.426 142.555 186.452 142.538 186.475 142.517C186.498 142.495 186.516 142.469 186.528 142.441C186.541 142.412 186.547 142.381 186.547 142.349C186.544 142.286 186.517 142.226 186.472 142.181C186.428 142.136 186.367 142.109 186.304 142.106C185.297 142.118 184.302 141.893 183.399 141.448C182.496 141.003 181.711 140.351 181.107 139.546C181.091 139.518 181.07 139.493 181.044 139.474C181.019 139.455 180.989 139.441 180.958 139.434C180.926 139.427 180.894 139.426 180.862 139.432C180.831 139.438 180.801 139.451 180.774 139.469C180.732 139.514 180.708 139.574 180.708 139.636C180.708 139.697 180.732 139.757 180.774 139.802C181.286 140.513 181.932 141.116 182.677 141.578C183.421 142.039 184.249 142.349 185.114 142.49Z" fill="#263238"/>
<path d="M183.77 143.847C184.109 144.05 184.465 144.225 184.832 144.372C184.861 144.384 184.891 144.391 184.922 144.391C184.954 144.391 184.984 144.385 185.013 144.373C185.042 144.361 185.068 144.344 185.089 144.321C185.111 144.299 185.128 144.273 185.139 144.244C185.152 144.215 185.158 144.184 185.159 144.153C185.159 144.122 185.153 144.091 185.141 144.063C185.129 144.034 185.111 144.008 185.089 143.986C185.067 143.965 185.04 143.948 185.011 143.936C184.081 143.571 183.249 142.993 182.582 142.248C181.915 141.504 181.432 140.613 181.171 139.648C181.165 139.618 181.153 139.589 181.136 139.563C181.118 139.537 181.095 139.515 181.069 139.498C181.043 139.482 181.013 139.47 180.982 139.465C180.952 139.46 180.92 139.462 180.89 139.469C180.83 139.482 180.777 139.516 180.741 139.566C180.706 139.616 180.69 139.677 180.698 139.738C180.913 140.592 181.296 141.394 181.823 142.1C182.35 142.805 183.012 143.399 183.77 143.847Z" fill="#263238"/>
<path d="M163.367 137.165C163.918 139.003 165.168 140.552 166.848 141.479C169.088 142.682 170.765 140.8 170.611 138.394C170.471 136.231 169.127 132.992 166.643 132.788C166.102 132.752 165.559 132.853 165.066 133.08C164.573 133.307 164.145 133.654 163.819 134.089C163.494 134.523 163.282 135.032 163.203 135.57C163.124 136.107 163.18 136.655 163.367 137.165Z" fill="#FFB573"/>
<path d="M179.405 127.668C179.495 127.711 179.598 127.725 179.697 127.707C179.796 127.688 179.886 127.639 179.955 127.565C181.504 126.016 184.294 126.464 184.32 126.464C184.443 126.483 184.57 126.454 184.672 126.383C184.774 126.311 184.845 126.203 184.87 126.08C184.881 126.018 184.88 125.954 184.866 125.893C184.851 125.831 184.825 125.773 184.788 125.722C184.751 125.67 184.704 125.627 184.65 125.594C184.596 125.561 184.536 125.539 184.474 125.53C184.346 125.53 181.171 125.005 179.29 126.9C179.244 126.944 179.208 126.997 179.184 127.055C179.159 127.113 179.146 127.176 179.146 127.239C179.146 127.302 179.159 127.365 179.184 127.423C179.208 127.481 179.244 127.534 179.29 127.578L179.405 127.668Z" fill="#263238"/>
<path d="M195.75 127.846C195.831 127.857 195.913 127.848 195.989 127.819C196.065 127.79 196.133 127.742 196.186 127.68C196.265 127.583 196.303 127.459 196.291 127.334C196.279 127.209 196.218 127.094 196.122 127.014C195.555 126.52 194.878 126.168 194.148 125.987C193.418 125.807 192.655 125.804 191.923 125.978C191.805 126.016 191.707 126.099 191.649 126.209C191.592 126.319 191.58 126.448 191.616 126.566C191.632 126.627 191.66 126.684 191.699 126.733C191.738 126.783 191.786 126.823 191.841 126.853C191.897 126.883 191.957 126.902 192.02 126.907C192.082 126.913 192.145 126.906 192.205 126.886C192.786 126.754 193.39 126.762 193.967 126.912C194.544 127.061 195.076 127.346 195.52 127.744C195.586 127.798 195.666 127.834 195.75 127.846Z" fill="#263238"/>
<path d="M181.402 449.741H191.411L190.771 426.561H180.762L181.402 449.741Z" fill="#FFB573"/>
<path d="M192 448.576H180.749C180.557 448.569 180.371 448.638 180.23 448.767C180.088 448.897 180.004 449.076 179.994 449.268L179.162 458.164C179.153 458.393 179.191 458.622 179.272 458.837C179.354 459.051 179.478 459.247 179.636 459.413C179.795 459.579 179.986 459.712 180.196 459.803C180.407 459.894 180.634 459.941 180.864 459.943C184.781 459.879 186.65 459.648 191.603 459.648C194.637 459.648 200.947 459.956 205.146 459.956C209.344 459.956 209.37 455.808 207.59 455.424C199.667 453.735 196.454 451.418 193.702 449.191C193.22 448.8 192.621 448.583 192 448.576Z" fill="#263238"/>
<g opacity="0.2">
<path d="M190.771 426.561L191.104 438.516H181.095L180.762 426.561H190.771Z" fill="black"/>
</g>
<path d="M185.255 228.019C185.255 228.019 191.501 290.522 193.447 321.011C195.469 352.717 192.819 436.211 192.819 436.211H179.29C179.29 436.211 170.931 342.157 170.931 323.392C165.607 289.383 150.925 254.157 155.917 222.963L185.255 228.019Z" fill="#EE3481"/>
<path opacity="0.6" d="M185.255 228.019C185.255 228.019 191.501 290.522 193.447 321.011C195.469 352.717 192.819 436.211 192.819 436.211H179.29C179.29 436.211 170.931 342.157 170.931 323.392C165.607 289.383 150.925 254.157 155.917 222.963L185.255 228.019Z" fill="white"/>
<path opacity="0.2" d="M163.994 252.762C161.147 253.526 158.611 255.16 156.736 257.434C158.797 270.4 162.278 283.699 165.478 297.011C167.77 282.547 166.4 258.176 163.994 252.762Z" fill="#EE3481"/>
<path d="M178.112 436.685H193.997L195.162 431.616L177.37 431.002L178.112 436.685Z" fill="#263238"/>
<path d="M195.84 450.33C196.697 450.403 197.553 450.187 198.272 449.716C198.434 449.574 198.557 449.395 198.631 449.194C198.704 448.992 198.726 448.776 198.695 448.564C198.688 448.432 198.648 448.305 198.579 448.193C198.509 448.081 198.413 447.988 198.298 447.924C197.018 447.258 193.075 449.293 192.627 449.524C192.584 449.545 192.549 449.581 192.528 449.625C192.507 449.669 192.501 449.719 192.512 449.767C192.518 449.815 192.539 449.86 192.571 449.897C192.602 449.933 192.645 449.959 192.691 449.972C193.728 450.187 194.782 450.307 195.84 450.33ZM197.632 448.256C197.783 448.247 197.933 448.278 198.067 448.346C198.117 448.368 198.159 448.404 198.188 448.45C198.218 448.495 198.234 448.548 198.234 448.602C198.254 448.741 198.238 448.884 198.189 449.015C198.14 449.147 198.058 449.265 197.952 449.357C197.351 449.908 195.699 449.997 193.485 449.639C194.766 448.948 196.156 448.48 197.594 448.256H197.632Z" fill="#EE3481"/>
<path d="M192.704 449.971H192.794C193.997 449.434 196.352 447.271 196.173 446.131C196.173 445.863 195.93 445.53 195.277 445.466C195.047 445.446 194.816 445.472 194.596 445.542C194.376 445.612 194.173 445.726 193.997 445.875C192.717 446.925 192.512 449.613 192.499 449.715C192.498 449.757 192.507 449.798 192.525 449.836C192.543 449.874 192.569 449.907 192.602 449.933C192.633 449.953 192.668 449.966 192.704 449.971ZM195.085 445.914H195.226C195.661 445.914 195.687 446.131 195.699 446.183C195.815 446.874 194.215 448.563 192.999 449.306C193.094 448.166 193.542 447.083 194.279 446.208C194.505 446.02 194.79 445.916 195.085 445.914Z" fill="#EE3481"/>
<path d="M98.4448 434.022L107.699 437.837L117.158 416.666L107.917 412.851L98.4448 434.022Z" fill="#FFB573"/>
<path d="M108.429 437.76L98.6496 432.205C98.4838 432.107 98.2874 432.073 98.0983 432.111C97.9093 432.149 97.7409 432.255 97.6256 432.41L92.16 439.463C92.0286 439.647 91.9376 439.857 91.8928 440.079C91.8479 440.301 91.8503 440.53 91.8999 440.751C91.9494 440.972 92.0448 441.18 92.1801 441.362C92.3153 441.543 92.4873 441.694 92.6848 441.805C96.128 443.674 97.8816 444.365 102.182 446.848C104.819 448.359 110.144 451.738 113.792 453.812C117.44 455.885 119.693 452.391 118.362 451.252C112.371 445.901 110.835 442.355 109.632 439.13C109.413 438.541 108.984 438.054 108.429 437.76Z" fill="#263238"/>
<g opacity="0.2">
<path d="M117.159 416.679L112.282 427.584L103.027 423.77L107.904 412.851L117.159 416.679Z" fill="black"/>
</g>
<path d="M174.003 226.074C174.003 226.074 157.645 297.907 154.88 328.32C147.93 356.57 115.2 426.24 115.2 426.24L102.682 421.12C102.682 421.12 122.304 346.688 133.082 326.183C134.106 292.186 133.927 251.226 144.73 221.031L174.003 226.074Z" fill="#EE3481"/>
<path opacity="0.6" d="M174.003 226.074C174.003 226.074 157.645 297.907 154.88 328.32C147.93 356.57 115.2 426.24 115.2 426.24L102.682 421.12C102.682 421.12 122.304 346.688 133.082 326.183C134.106 292.186 133.927 251.226 144.73 221.031L174.003 226.074Z" fill="white"/>
<path d="M101.35 421.094L116.032 427.149L119.04 422.912L102.835 415.552L101.35 421.094Z" fill="#263238"/>
<path d="M110.835 441.089C111.545 441.575 112.396 441.809 113.255 441.754C113.464 441.711 113.66 441.615 113.823 441.477C113.986 441.338 114.112 441.16 114.189 440.961C114.252 440.847 114.285 440.719 114.285 440.589C114.285 440.46 114.252 440.332 114.189 440.218C113.459 439.015 108.979 438.823 108.48 438.81C108.432 438.804 108.382 438.815 108.341 438.84C108.299 438.866 108.267 438.905 108.25 438.951C108.222 438.99 108.207 439.037 108.207 439.085C108.207 439.134 108.222 439.181 108.25 439.22C109.053 439.92 109.918 440.546 110.835 441.089ZM113.395 440.167C113.531 440.238 113.65 440.338 113.741 440.461C113.769 440.508 113.784 440.561 113.784 440.615C113.784 440.669 113.769 440.722 113.741 440.769C113.69 440.898 113.609 441.013 113.504 441.104C113.399 441.195 113.274 441.26 113.139 441.293C112.333 441.46 110.861 440.73 109.107 439.322C110.578 439.358 112.033 439.644 113.408 440.167H113.395Z" fill="#EE3481"/>
<path d="M108.314 439.245C108.314 439.245 108.314 439.245 108.403 439.245C109.683 439.36 112.832 438.643 113.229 437.568C113.318 437.312 113.318 436.928 112.781 436.544C112.597 436.415 112.389 436.323 112.169 436.275C111.949 436.227 111.722 436.222 111.501 436.262C109.888 436.544 108.365 438.822 108.301 438.822C108.279 438.857 108.268 438.897 108.268 438.938C108.268 438.978 108.279 439.018 108.301 439.053C108.287 439.083 108.281 439.117 108.283 439.15C108.285 439.184 108.296 439.216 108.314 439.245ZM112.384 436.902C112.432 436.918 112.475 436.945 112.512 436.979C112.858 437.222 112.806 437.389 112.781 437.44C112.538 438.093 110.31 438.72 108.941 438.822C109.583 437.877 110.505 437.157 111.578 436.762C111.855 436.719 112.138 436.768 112.384 436.902Z" fill="#EE3481"/>
<path d="M184.32 130.752L186.253 130.214C186.253 130.214 185.216 131.712 184.32 130.752Z" fill="#263238"/>
<path d="M144.999 218.65L143.36 222.054C143.168 222.31 143.45 222.643 143.911 222.733L185.14 229.85C185.498 229.914 185.831 229.85 185.895 229.555L186.88 226.035C186.944 225.792 186.663 225.523 186.266 225.459L145.703 218.458C145.579 218.426 145.449 218.428 145.326 218.461C145.202 218.495 145.09 218.56 144.999 218.65Z" fill="#263238"/>
<path d="M149.76 224.141L148.672 223.962C148.454 223.962 148.314 223.783 148.352 223.642L149.632 219.072C149.632 218.944 149.875 218.868 150.093 218.906L151.181 219.085C151.398 219.085 151.539 219.264 151.501 219.405L150.221 223.975C150.221 224.103 150.016 224.18 149.76 224.141Z" fill="#EE3481"/>
<g opacity="0.6">
<path d="M149.76 224.141L148.672 223.962C148.454 223.962 148.314 223.783 148.352 223.642L149.632 219.072C149.632 218.944 149.875 218.868 150.093 218.906L151.181 219.085C151.398 219.085 151.539 219.264 151.501 219.405L150.221 223.975C150.221 224.103 150.016 224.18 149.76 224.141Z" fill="white"/>
</g>
<path d="M182.016 229.709L180.941 229.517C180.723 229.517 180.57 229.338 180.608 229.21L181.888 224.64C181.888 224.499 182.131 224.423 182.349 224.461L183.437 224.653C183.655 224.653 183.795 224.832 183.757 224.96L182.477 229.53C182.451 229.671 182.234 229.747 182.016 229.709Z" fill="#EE3481"/>
<g opacity="0.6">
<path d="M182.016 229.709L180.941 229.517C180.723 229.517 180.57 229.338 180.608 229.21L181.888 224.64C181.888 224.499 182.131 224.423 182.349 224.461L183.437 224.653C183.655 224.653 183.795 224.832 183.757 224.96L182.477 229.53C182.451 229.671 182.234 229.747 182.016 229.709Z" fill="white"/>
</g>
<path d="M165.978 226.944L164.89 226.752C164.672 226.752 164.532 226.573 164.57 226.445L165.85 221.863C165.85 221.735 166.093 221.658 166.311 221.696L167.399 221.876C167.604 221.876 167.757 222.055 167.719 222.196L166.439 226.765C166.4 226.893 166.196 226.97 165.978 226.944Z" fill="#EE3481"/>
<g opacity="0.6">
<path d="M165.978 226.944L164.89 226.752C164.672 226.752 164.532 226.573 164.57 226.445L165.85 221.863C165.85 221.735 166.093 221.658 166.311 221.696L167.399 221.876C167.604 221.876 167.757 222.055 167.719 222.196L166.439 226.765C166.4 226.893 166.196 226.97 165.978 226.944Z" fill="white"/>
</g>
<path d="M140.621 226.458L148.122 234.24L137.971 234.919C137.971 234.919 134.503 229.504 136.525 225.869L140.621 226.458Z" fill="#FFB573"/>
<path d="M151.373 173.543C148.48 178.151 145.485 182.733 142.49 187.277C139.495 191.821 136.435 196.429 133.696 200.832L133.261 201.523C133.261 201.523 133.261 201.6 133.159 201.69C133.053 201.983 132.989 202.288 132.967 202.599C132.886 203.612 132.933 204.631 133.107 205.632C133.537 208.079 134.17 210.485 135.002 212.826C135.821 215.283 136.781 217.754 137.843 220.199C138.906 222.643 140.007 225.127 141.12 227.52L136.819 230.208C133.385 225.698 130.384 220.872 127.859 215.795C126.515 213.097 125.443 210.271 124.659 207.36C124.217 205.689 123.985 203.969 123.968 202.24C123.972 201.183 124.106 200.13 124.365 199.104C124.531 198.508 124.745 197.926 125.005 197.363L125.312 196.749L125.568 196.25C126.925 193.69 128.282 191.309 129.69 188.903C131.098 186.496 132.506 184.167 133.939 181.824C136.807 177.127 139.725 172.506 142.784 167.936L151.373 173.543Z" fill="#FFB573"/>
<path d="M154.087 160.23C144.256 158.541 136.871 173.709 136.871 173.709L148.391 187.891C148.391 187.891 155.776 179.635 157.415 174.349C159.156 168.845 158.874 161.062 154.087 160.23Z" fill="#263238"/>
<path d="M148.992 242.611L140.454 242.714L137.971 234.919L148.122 234.24L148.992 242.611Z" fill="#FFB573"/>
<path d="M486.554 59.7376C489.799 59.7409 493.012 60.3837 496.009 61.6291C499.005 62.8745 501.727 64.6981 504.019 66.9958C506.311 69.2935 508.127 72.0203 509.365 75.0203C510.603 78.0203 511.237 81.2347 511.232 84.48V272.435C511.225 278.978 508.623 285.251 503.996 289.878C499.37 294.505 493.097 297.107 486.554 297.114H423.962C418.87 297.114 413.986 299.136 410.385 302.737C406.785 306.338 404.762 311.221 404.762 316.314V334.515L366.477 301.722C362.996 298.745 358.565 297.11 353.984 297.114H153.447C146.903 297.107 140.63 294.505 136.004 289.878C131.377 285.251 128.775 278.978 128.768 272.435V84.48C128.775 77.9369 131.377 71.6638 136.004 67.0372C140.63 62.4105 146.903 59.8083 153.447 59.8016H486.554M486.554 40.6016H153.447C141.82 40.6353 130.679 45.2691 122.457 53.4905C114.236 61.712 109.602 72.8531 109.568 84.48V272.435C109.602 284.062 114.236 295.203 122.457 303.425C130.679 311.646 141.82 316.28 153.447 316.314H353.984L423.962 376.243V316.314H486.554C498.181 316.28 509.322 311.646 517.543 303.425C525.765 295.203 530.398 284.062 530.432 272.435V84.48C530.398 72.8531 525.765 61.712 517.543 53.4905C509.322 45.2691 498.181 40.6353 486.554 40.6016Z" fill="#EE3481"/>
<path d="M305.741 453.555C306.919 453.555 308.032 453.402 308.391 452.877C308.489 452.738 308.542 452.573 308.542 452.403C308.542 452.234 308.489 452.068 308.391 451.93C308.313 451.804 308.21 451.695 308.089 451.609C307.968 451.523 307.831 451.463 307.687 451.431C306.164 451.021 303.053 452.826 302.912 452.903C302.874 452.926 302.845 452.961 302.829 453.003C302.813 453.044 302.811 453.09 302.823 453.133C302.831 453.176 302.853 453.216 302.885 453.246C302.917 453.276 302.958 453.295 303.002 453.299C303.905 453.47 304.822 453.555 305.741 453.555ZM307.124 451.802C307.264 451.788 307.405 451.788 307.546 451.802C307.721 451.846 307.872 451.956 307.968 452.109C308.135 452.378 308.084 452.506 308.032 452.583C307.636 453.171 305.332 453.184 303.629 452.954C304.71 452.357 305.897 451.979 307.124 451.84V451.802Z" fill="#EE3481"/>
<path d="M302.989 453.312H303.079C304.154 452.826 306.253 450.855 306.048 449.831C306.048 449.587 305.818 449.28 305.229 449.229C305.017 449.203 304.801 449.222 304.596 449.284C304.392 449.345 304.202 449.449 304.039 449.587C302.925 450.547 302.759 452.992 302.759 453.095C302.76 453.134 302.769 453.173 302.787 453.208C302.805 453.244 302.83 453.275 302.861 453.299C302.902 453.317 302.946 453.321 302.989 453.312ZM305.063 449.626H305.204C305.588 449.626 305.613 449.818 305.626 449.869C305.754 450.483 304.346 452.032 303.232 452.711C303.289 451.682 303.675 450.7 304.333 449.907C304.532 449.724 304.793 449.623 305.063 449.626Z" fill="#EE3481"/>
<path d="M292.967 453.095H302.068L302.183 432.026H293.082L292.967 453.095Z" fill="#CE7A63"/>
<path d="M301.978 452.045H292.032C291.855 452.043 291.684 452.103 291.548 452.216C291.412 452.328 291.32 452.486 291.29 452.66L289.792 460.8C289.756 461 289.765 461.205 289.818 461.401C289.87 461.597 289.965 461.779 290.096 461.934C290.226 462.09 290.39 462.214 290.574 462.299C290.758 462.384 290.959 462.427 291.162 462.426C294.746 462.362 299.917 462.144 304.422 462.144C309.683 462.144 310.336 462.439 316.518 462.439C320.256 462.439 321.139 458.663 319.565 458.317C312.397 456.756 310.49 456.589 304.205 452.8C303.545 452.351 302.775 452.09 301.978 452.045Z" fill="#263238"/>
<path opacity="0.2" d="M302.183 432.026L302.131 442.893H293.018L293.082 432.026H302.183Z" fill="black"/>
<path d="M232.729 450.419C232.799 449.455 232.502 448.499 231.897 447.744C231.76 447.644 231.594 447.59 231.424 447.59C231.254 447.59 231.088 447.644 230.95 447.744C230.829 447.817 230.724 447.915 230.645 448.032C230.565 448.15 230.512 448.283 230.489 448.422C230.157 449.933 232.141 453.12 232.23 453.261C232.255 453.298 232.289 453.328 232.33 453.346C232.371 453.365 232.416 453.37 232.461 453.363C232.503 453.358 232.542 453.339 232.572 453.309C232.602 453.278 232.622 453.239 232.627 453.197C232.735 452.275 232.769 451.346 232.729 450.419ZM230.886 448.96C230.867 448.824 230.867 448.686 230.886 448.55C230.897 448.465 230.927 448.382 230.974 448.309C231.02 448.236 231.082 448.174 231.155 448.128C231.424 447.974 231.552 448.038 231.629 448.128C232.243 448.55 232.384 450.854 232.243 452.544C231.565 451.447 231.104 450.231 230.886 448.96Z" fill="#EE3481"/>
<path d="M232.627 453.12C232.635 453.091 232.635 453.06 232.627 453.031C232.077 451.93 229.991 449.741 228.967 449.895C228.723 449.895 228.429 450.099 228.403 450.701C228.39 451.139 228.546 451.565 228.839 451.891C229.862 452.718 231.111 453.218 232.423 453.325C232.46 453.331 232.498 453.325 232.532 453.309C232.566 453.293 232.595 453.268 232.615 453.235C232.632 453.2 232.636 453.159 232.627 453.12ZM228.787 450.867V450.739C228.787 450.355 228.954 450.33 229.005 450.33C229.619 450.227 231.245 451.712 231.987 452.89C230.927 452.783 229.924 452.359 229.107 451.674C228.93 451.461 228.827 451.196 228.813 450.919L228.787 450.867Z" fill="#EE3481"/>
<path d="M232.487 453.223L241.408 453.85L245.082 432.615L236.173 431.988L232.487 453.223Z" fill="#CE7A63"/>
<path d="M232.397 451.187L242.24 450.317C242.424 450.301 242.608 450.346 242.763 450.446C242.918 450.545 243.036 450.694 243.098 450.867L246.093 458.765C246.162 458.947 246.189 459.143 246.172 459.337C246.154 459.531 246.092 459.719 245.991 459.886C245.89 460.053 245.752 460.194 245.587 460.299C245.423 460.404 245.237 460.471 245.043 460.493C241.485 460.749 236.314 460.992 231.846 461.389C226.637 461.85 230.029 461.837 223.91 462.387C220.211 462.72 218.624 459.047 220.07 458.547C226.88 456.371 228.045 454.874 230.31 452.071C230.581 451.791 230.906 451.569 231.264 451.417C231.622 451.266 232.008 451.187 232.397 451.187Z" fill="#263238"/>
<path opacity="0.2" d="M245.082 432.628L243.187 443.572L234.266 442.944L236.16 431.988L245.082 432.628Z" fill="black"/>
<path d="M305.459 221.633C305.459 221.633 288.819 291.533 282.522 317.479C275.571 345.882 248.32 440.141 248.32 440.141L232.064 436.621C232.064 436.621 249.728 355.636 256.678 316.007C262.016 285.581 274.074 221.633 274.074 221.633H305.459Z" fill="#263238"/>
<path d="M250.88 435.2L249.677 441.46L230.26 439.386L229.991 433.652L250.88 435.2Z" fill="#EE3481"/>
<path opacity="0.3" d="M295.872 254.029C284.352 255.552 282.266 295.923 281.997 319.603L282.522 317.466C285.978 303.309 292.493 276.007 297.715 254.157C297.118 253.978 296.489 253.934 295.872 254.029Z" fill="black"/>
<path d="M322.727 221.633C322.727 221.633 318.285 289.703 316.327 317.415C314.266 346.241 306.087 440.781 306.087 440.781H290.56C290.56 440.781 288.935 347.969 288.487 319.617C287.987 288.717 290.714 221.633 290.714 221.633H322.727Z" fill="#263238"/>
<path d="M308.173 434.65C308.237 434.65 307.546 441.05 307.546 441.05H288.794L288.064 435.329L308.173 434.65Z" fill="#EE3481"/>
<path d="M279.68 156.16C277.197 161.191 274.675 166.477 272.346 171.674C270.016 176.871 267.725 182.131 265.946 187.379L265.255 189.338L264.64 191.283L264.359 192.167C264.381 191.958 264.381 191.748 264.359 191.539C264.272 190.677 263.86 189.881 263.207 189.312C262.707 188.979 262.695 189.12 262.887 189.223C263.243 189.387 263.616 189.512 264 189.594C265.148 189.835 266.311 189.993 267.482 190.067C273.085 190.24 278.693 190.073 284.275 189.568H284.429C285.255 189.506 286.076 189.743 286.742 190.238C287.407 190.732 287.871 191.449 288.05 192.258C288.229 193.067 288.11 193.914 287.716 194.642C287.321 195.371 286.677 195.932 285.901 196.224C280.089 198.568 273.996 200.143 267.776 200.909C265.99 201.092 264.19 201.109 262.4 200.96C261.318 200.873 260.247 200.684 259.2 200.397C257.662 199.997 256.235 199.253 255.027 198.221C254.154 197.472 253.436 196.559 252.915 195.533C252.392 194.468 252.079 193.312 251.994 192.128C251.941 191.184 252.014 190.237 252.211 189.312L252.493 188.032L253.031 185.715L253.645 183.45C255.327 177.562 257.357 171.779 259.725 166.131C262.08 160.525 264.576 155.136 267.482 149.683C268.335 148.088 269.781 146.891 271.508 146.352C273.235 145.812 275.105 145.973 276.715 146.799C278.325 147.624 279.546 149.05 280.115 150.767C280.684 152.485 280.555 154.357 279.757 155.981L279.68 156.16Z" fill="#CF7A64"/>
<path d="M284.531 189.914L290.189 187.687L289.907 198.208C287.624 198.048 285.42 197.304 283.507 196.045C283.038 195.705 282.685 195.23 282.495 194.683C282.305 194.136 282.287 193.543 282.445 192.986L282.765 191.834C282.885 191.397 283.109 190.994 283.416 190.66C283.723 190.326 284.105 190.071 284.531 189.914Z" fill="#CE7A63"/>
<path d="M299.507 186.496L297.472 195.61L289.907 198.196L290.189 187.687L299.507 186.496Z" fill="#CE7A63"/>
<path d="M310.042 109.082C310.195 109.799 310.695 110.298 311.155 110.208C311.616 110.119 311.898 109.453 311.744 108.736C311.591 108.019 311.104 107.456 310.631 107.597C310.157 107.738 309.901 108.352 310.042 109.082Z" fill="#263238"/>
<path d="M310.618 110.311C311.923 112.338 313.504 114.173 315.316 115.764C314.894 116.215 314.379 116.569 313.806 116.801C313.234 117.034 312.617 117.138 312 117.108L310.618 110.311Z" fill="#BA4D3C"/>
<path d="M306.599 105.613C306.49 105.612 306.385 105.571 306.304 105.498C306.264 105.458 306.233 105.412 306.211 105.36C306.19 105.308 306.178 105.253 306.178 105.197C306.178 105.141 306.19 105.086 306.211 105.034C306.233 104.982 306.264 104.935 306.304 104.896C306.758 104.382 307.328 103.983 307.967 103.733C308.606 103.484 309.296 103.391 309.978 103.463C310.089 103.484 310.188 103.549 310.252 103.642C310.317 103.735 310.342 103.85 310.324 103.962C310.316 104.017 310.297 104.071 310.268 104.119C310.239 104.168 310.201 104.21 310.156 104.243C310.11 104.277 310.059 104.301 310.004 104.314C309.949 104.327 309.893 104.329 309.837 104.32C309.297 104.268 308.752 104.346 308.248 104.549C307.745 104.752 307.298 105.073 306.944 105.485C306.899 105.53 306.845 105.564 306.785 105.586C306.726 105.608 306.662 105.617 306.599 105.613Z" fill="#263238"/>
<path d="M290.074 122.163C291.354 128.819 292.16 138.048 287.514 142.49C287.514 142.49 289.344 149.235 301.709 149.235C315.302 149.235 308.25 143.309 308.25 143.309C302.592 141.555 302.643 135.117 303.936 129.946L290.074 122.163Z" fill="#CE7A63"/>
<path d="M271.22 142.515C262.682 144.474 257.063 167.488 257.063 167.488L271.36 178.189C276.653 174.39 280.404 168.816 281.933 162.483C284.8 151.04 279.936 140.519 271.22 142.515Z" fill="#EE3481"/>
<path opacity="0.2" d="M278.528 158.528C273.655 163.716 270.819 170.488 270.541 177.6L271.296 178.189C276.584 174.386 280.335 168.814 281.869 162.483C282.035 161.805 282.189 161.114 282.317 160.448L278.528 158.528Z" fill="black"/>
<path d="M325.12 151.642C326.963 161.383 329.741 184.499 324.544 223.795C324.496 224.118 324.345 224.416 324.115 224.646C323.885 224.877 323.586 225.027 323.264 225.075C318.804 225.602 314.294 225.542 309.85 224.896C300.89 223.616 293.453 224.167 284.762 224.896C280.929 225.194 277.082 225.249 273.242 225.063C273.036 225.052 272.834 224.999 272.649 224.906C272.464 224.814 272.301 224.684 272.168 224.526C272.036 224.367 271.938 224.183 271.881 223.984C271.823 223.786 271.807 223.578 271.834 223.373C273.178 213.261 278.055 175.667 271.283 142.554C276.661 141.523 282.1 140.839 287.565 140.506C294.458 140.102 301.369 140.102 308.263 140.506C310.541 140.711 312.781 141.043 314.778 141.389C317.334 141.858 319.688 143.087 321.534 144.917C323.379 146.746 324.629 149.09 325.12 151.642Z" fill="#EE3481"/>
<path d="M285.747 112.423C288.077 121.153 289.011 126.375 294.387 129.997C302.49 135.463 312.563 129.191 312.883 119.949C313.165 111.629 309.299 98.7653 299.942 96.9989C297.88 96.5993 295.749 96.7342 293.753 97.3906C291.757 98.047 289.963 99.2032 288.54 100.749C287.117 102.295 286.114 104.179 285.625 106.223C285.136 108.266 285.178 110.4 285.747 112.423Z" fill="#CE7A63"/>
<path d="M306.163 115.098C308.89 121.114 308.032 126.618 304.64 129.178C300.8 132.096 290.035 132.544 285.952 128.41C287.501 126.861 288.359 124.928 286.375 122.176C284.391 119.424 277.107 115.149 276.967 109.274C276.826 103.399 280.717 102.733 280.487 102.733C277.043 101.197 277.261 95.6675 281.05 92.6211C285.069 89.3827 291.597 88.4867 299.367 90.0611C304.269 91.0339 309.082 90.9443 308.237 87.8467C314.01 91.1619 311.143 103.437 305.562 105.05C306.445 107.264 310.311 110.784 310.311 110.784C310.311 110.784 309.363 114.445 306.163 115.098Z" fill="#263238"/>
<path d="M281.05 101.543C281.05 101.543 278.951 102.823 273.434 101.21C274.919 103.962 280.435 104.064 281.767 103.437C283.098 102.81 281.05 101.543 281.05 101.543Z" fill="#263238"/>
<path d="M302.656 112.896C303.158 114.953 304.328 116.785 305.984 118.106C308.173 119.834 309.824 118.246 309.824 115.712C309.734 113.434 308.544 109.798 306.061 109.056C303.578 108.314 302.08 110.413 302.656 112.896Z" fill="#CE7A63"/>
<path d="M325.466 150.311C326.605 152.96 327.68 155.636 328.781 158.298C329.881 160.96 330.957 163.636 332.019 166.311L338.342 182.298C339.405 184.935 340.467 187.559 341.542 190.08L342.362 191.898L342.566 192.346V192.448C342.566 192.448 342.566 192.448 342.49 192.32C342.307 192 342.097 191.696 341.862 191.412C341.386 190.887 340.818 190.453 340.185 190.132C339.722 189.872 339.221 189.686 338.701 189.581C338.381 189.51 338.055 189.467 337.728 189.453C337.528 189.44 337.327 189.44 337.126 189.453C336.927 189.466 336.73 189.5 336.538 189.556C336.429 189.576 336.325 189.615 336.23 189.671C336.614 189.598 336.985 189.468 337.331 189.287C337.843 189.056 338.419 188.775 338.982 188.468C341.312 187.188 343.77 185.792 346.214 184.372C348.659 182.951 351.194 181.517 353.728 180.16H353.805C354.515 179.777 355.337 179.654 356.129 179.811C356.921 179.969 357.633 180.398 358.142 181.024C358.652 181.651 358.927 182.435 358.92 183.242C358.913 184.049 358.625 184.829 358.105 185.447C354.277 190.091 349.988 194.337 345.305 198.119C344.678 198.605 344.026 199.092 343.296 199.591C342.427 200.2 341.501 200.723 340.531 201.152C340.116 201.329 339.688 201.475 339.251 201.588C338.886 201.683 338.514 201.747 338.138 201.78C337.843 201.799 337.548 201.799 337.254 201.78C336.824 201.772 336.395 201.721 335.974 201.626C335.372 201.492 334.791 201.277 334.246 200.986C333.528 200.603 332.889 200.086 332.365 199.463C332.099 199.146 331.859 198.807 331.648 198.452L331.533 198.234L331.456 198.106L331.174 197.581C330.778 196.877 330.445 196.212 330.073 195.52C328.678 192.832 327.411 190.183 326.233 187.52C323.763 182.208 321.446 176.909 319.181 171.584C318.054 168.922 316.945 166.251 315.853 163.572C314.765 160.896 313.677 158.221 312.64 155.533C311.949 153.836 311.961 151.933 312.673 150.245C313.384 148.556 314.738 147.219 316.435 146.528C318.132 145.837 320.035 145.849 321.724 146.561C323.412 147.273 324.749 148.626 325.44 150.324L325.466 150.311Z" fill="#CF7A64"/>
<path d="M358.874 174.861C357.239 175.797 355.805 177.047 354.654 178.538C353.503 180.03 352.658 181.734 352.167 183.552L355.328 187.61L362.24 185.472C362.787 185.299 363.261 184.948 363.584 184.474L367.13 179.239C367.406 178.729 367.531 178.151 367.49 177.573C367.449 176.995 367.244 176.44 366.899 175.975L363.149 170.931L358.874 174.861Z" fill="#CE7A63"/>
<path d="M306.675 156.698C307.469 166.848 318.643 180.109 318.643 180.109L334.4 168.295C334.4 168.295 332.007 154.023 323.84 146.279C313.741 136.717 305.92 147.2 306.675 156.698Z" fill="#EE3481"/>
<path d="M310.502 140.468C309.043 136.193 292.262 135.45 282.15 136.474C272.038 137.498 277.133 145.37 278.835 146.471C274.253 148.173 276.697 156.263 285.235 160.231C293.773 164.199 312.32 145.626 310.502 140.468Z" fill="#263238"/>
</svg>
