<svg width="440" height="441" viewBox="0 0 440 441" fill="none" xmlns="http://www.w3.org/2000/svg">
<path d="M232.939 0.301025V49.5557H247.089V61.4971L259.03 49.5557H322.627V0.301025H232.939Z" fill="#EBEBEB"/>
<path d="M248.143 29.8558V20.0009C248.143 19.7564 248.24 19.522 248.413 19.3491C248.585 19.1763 248.82 19.0792 249.064 19.0792H251.434C252.021 19.0829 252.595 19.2486 253.093 19.558C253.591 19.8675 253.994 20.3086 254.257 20.8326C254.52 21.3566 254.633 21.9432 254.583 22.5275C254.534 23.1117 254.324 23.671 253.977 24.1434C254.489 24.4681 254.912 24.9166 255.206 25.4476C255.5 25.9786 255.655 26.575 255.658 27.1819C255.659 27.6523 255.568 28.1183 255.389 28.5533C255.21 28.9882 254.946 29.3835 254.614 29.7166C254.282 30.0497 253.888 30.314 253.453 30.4943C253.019 30.6746 252.553 30.7674 252.083 30.7674H249.044C248.805 30.7622 248.577 30.6641 248.409 30.494C248.241 30.3239 248.145 30.0951 248.143 29.8558ZM249.996 23.6066H251.434C251.61 23.6039 251.783 23.5667 251.944 23.4971C252.106 23.4275 252.252 23.3268 252.374 23.2007C252.496 23.0747 252.592 22.9258 252.657 22.7626C252.722 22.5993 252.754 22.4249 252.751 22.2494C252.752 22.0761 252.719 21.9043 252.654 21.7439C252.588 21.5835 252.491 21.4379 252.368 21.3153C252.246 21.1928 252.1 21.0958 251.94 21.0302C251.779 20.9645 251.608 20.9313 251.434 20.9327H249.996V23.6066ZM249.996 28.9139H252.083C252.518 28.8805 252.924 28.6841 253.221 28.3639C253.517 28.0438 253.682 27.6234 253.682 27.187C253.682 26.7506 253.517 26.3302 253.221 26.01C252.924 25.6898 252.518 25.4934 252.083 25.4601H249.996V28.9139Z" fill="white"/>
<path d="M267.639 29.3798C267.716 29.6135 267.698 29.8682 267.588 30.0883C267.478 30.3085 267.285 30.4761 267.052 30.5547C266.934 30.5898 266.811 30.6069 266.687 30.6053C266.458 30.6079 266.233 30.5446 266.039 30.423C265.818 30.2704 265.634 30.0695 265.502 29.8355C265.233 29.1957 265.116 28.5026 265.158 27.8099C265.151 27.557 265.082 27.3098 264.955 27.0907C264.823 26.8947 264.65 26.7289 264.449 26.6046C264.163 26.4207 263.848 26.2871 263.517 26.2096H261.552V29.8355C261.547 30.0809 261.445 30.3143 261.269 30.4849C261.092 30.6556 260.856 30.7498 260.61 30.7471C260.49 30.7484 260.37 30.7259 260.258 30.6806C260.147 30.6354 260.045 30.5685 259.959 30.4837C259.873 30.3989 259.805 30.298 259.759 30.1867C259.712 30.0755 259.689 29.9561 259.689 29.8355V20.0008C259.687 19.8794 259.71 19.7589 259.756 19.6465C259.802 19.5341 259.87 19.4319 259.955 19.3461C260.041 19.2602 260.143 19.1924 260.256 19.1465C260.368 19.1007 260.489 19.0778 260.61 19.0791H263.598C264.543 19.0898 265.445 19.474 266.107 20.1477C266.77 20.8215 267.138 21.73 267.133 22.6747C267.133 23.1992 267.016 23.717 266.79 24.1901C266.563 24.6633 266.234 25.0799 265.826 25.4094C266.057 25.5793 266.256 25.7884 266.414 26.0272C266.778 26.5577 266.973 27.1865 266.971 27.8301C266.95 28.1689 266.971 28.509 267.032 28.843C267.168 28.8795 267.293 28.9469 267.398 29.0401C267.504 29.1332 267.586 29.2495 267.639 29.3798ZM265.3 22.6747C265.302 22.4469 265.26 22.2208 265.174 22.0096C265.089 21.7983 264.963 21.6061 264.803 21.4441C264.642 21.2821 264.452 21.1534 264.241 21.0656C264.031 20.9778 263.806 20.9326 263.578 20.9326H261.552V24.3763H263.578C263.803 24.3776 264.026 24.3347 264.234 24.2499C264.442 24.1651 264.631 24.0401 264.791 23.8821C264.951 23.7241 265.078 23.5362 265.166 23.329C265.253 23.1218 265.298 22.8995 265.3 22.6747Z" fill="white"/>
<path d="M278.153 28.0125H274.101L273.281 30.18C273.213 30.3533 273.095 30.5022 272.941 30.6071C272.788 30.7119 272.606 30.7678 272.42 30.7674C272.313 30.7885 272.203 30.7885 272.096 30.7674C271.865 30.6809 271.678 30.5067 271.576 30.2827C271.473 30.0588 271.464 29.8033 271.549 29.5723L275.236 19.6768C275.308 19.5012 275.432 19.3519 275.591 19.2487C275.75 19.1456 275.937 19.0935 276.127 19.0995C276.316 19.0927 276.502 19.1445 276.659 19.2479C276.817 19.3514 276.939 19.5012 277.008 19.6768L280.695 29.5216C280.78 29.7527 280.771 30.0081 280.668 30.2321C280.566 30.456 280.379 30.6303 280.148 30.7168C280.044 30.7387 279.937 30.7387 279.834 30.7168C279.648 30.721 279.466 30.6665 279.313 30.561C279.161 30.4555 279.045 30.3044 278.983 30.1293L278.153 28.0125ZM277.464 26.1792L276.117 22.5836L274.76 26.1792H277.464Z" fill="white"/>
<path d="M286.661 29.8558C286.658 30.095 286.563 30.3239 286.395 30.494C286.226 30.6641 285.999 30.7621 285.759 30.7673C285.639 30.7687 285.519 30.7461 285.408 30.7009C285.296 30.6557 285.194 30.5887 285.108 30.504C285.023 30.4192 284.955 30.3182 284.908 30.207C284.862 30.0957 284.838 29.9764 284.838 29.8558V20.1325C284.831 19.9842 284.861 19.8365 284.925 19.7024C284.988 19.5682 285.084 19.4516 285.202 19.3627C285.399 19.2224 285.643 19.165 285.882 19.2029C286.121 19.2408 286.335 19.3709 286.479 19.5653L291.867 27.0299V20.1527C291.87 19.9145 291.965 19.6867 292.134 19.5182C292.302 19.3498 292.53 19.2539 292.768 19.2513C293.009 19.2512 293.241 19.3456 293.413 19.5141C293.585 19.6826 293.685 19.9118 293.69 20.1527V29.8558C293.687 30.0985 293.589 30.3303 293.417 30.501C293.244 30.6716 293.011 30.7674 292.768 30.7673C292.638 30.7655 292.509 30.7346 292.391 30.6768C292.274 30.6189 292.171 30.5357 292.09 30.4331C292.052 30.4073 292.02 30.3725 291.999 30.3318L286.661 22.9178V29.8558Z" fill="white"/>
<path d="M298.703 29.8558V20.0008C298.702 19.8794 298.725 19.7589 298.771 19.6465C298.816 19.5341 298.884 19.4319 298.97 19.3461C299.056 19.2602 299.158 19.1924 299.271 19.1465C299.383 19.1007 299.503 19.0778 299.625 19.0791H301.57C303.119 19.0791 304.606 19.6949 305.702 20.7908C306.798 21.8868 307.414 23.3733 307.414 24.9232C307.414 26.4732 306.798 27.9597 305.702 29.0557C304.606 30.1516 303.119 30.7674 301.57 30.7674H299.594C299.356 30.7621 299.13 30.6637 298.963 30.4933C298.796 30.3229 298.703 30.0941 298.703 29.8558ZM300.557 28.9139H301.57C302.628 28.9139 303.643 28.4934 304.391 27.745C305.14 26.9966 305.56 25.9816 305.56 24.9232C305.56 23.8649 305.14 22.8498 304.391 22.1015C303.643 21.3531 302.628 20.9326 301.57 20.9326H300.557V28.9139Z" fill="white"/>
<path d="M226.67 439.45V334.043H256.954V308.5L282.498 334.043H418.574V439.45H226.67Z" fill="white"/>
<path d="M226.669 439.45C226.568 438.437 226.153 334.428 226.082 333.456H226.669L256.954 333.355L256.255 334.043L256.164 308.459V306.555L257.521 307.902L283.136 333.385C279.834 332.615 419.313 333.294 418.583 333.01H419.596V334.023L419.475 439.43V440.301H418.604C370.767 440.129 274.526 439.754 226.7 439.44L226.669 439.45ZM226.669 439.45C274.496 439.126 370.767 438.751 418.573 438.579L417.712 439.45L417.591 334.043L418.604 335.056L282.173 334.945L281.91 334.682L256.396 309.057L257.733 308.5L257.642 334.043V334.793H257.004L226.72 334.682L227.318 334.094L226.72 439.501L226.669 439.45Z" fill="#EBEBEB"/>
<path d="M369.455 394.268C373.596 391.989 375.106 386.785 372.828 382.644C370.549 378.502 365.345 376.992 361.204 379.271C357.062 381.55 355.552 386.754 357.831 390.895C360.109 395.036 365.314 396.546 369.455 394.268Z" fill="#EBEBEB"/>
<path d="M325.856 394.704C330.229 392.91 332.32 387.911 330.527 383.538C328.733 379.165 323.734 377.073 319.361 378.867C314.988 380.661 312.896 385.66 314.69 390.033C316.484 394.406 321.483 396.498 325.856 394.704Z" fill="#EBEBEB"/>
<path d="M280.912 395.273C285.604 394.698 288.941 390.428 288.365 385.737C287.79 381.045 283.521 377.708 278.829 378.283C274.137 378.859 270.8 383.128 271.376 387.82C271.951 392.512 276.22 395.849 280.912 395.273Z" fill="#EBEBEB"/>
<path d="M74.3735 146.158C98.3067 137.833 110.855 111.383 102.402 87.0797C93.9479 62.7766 67.6931 49.8239 43.7598 58.149C19.8266 66.4741 7.2779 92.9244 15.7316 117.228C24.1854 141.531 50.4402 154.483 74.3735 146.158Z" fill="#EBEBEB"/>
<path d="M23.2196 101.565C23.0879 121.599 39.0301 138.109 58.8312 138.433C63.5559 138.496 68.2461 137.619 72.6288 135.853C77.0115 134.087 80.9993 131.467 84.3602 128.146C87.7212 124.824 90.3881 120.868 92.206 116.506C94.0239 112.145 94.9564 107.465 94.9492 102.74C95.0809 82.696 79.1286 66.1967 59.3376 65.8726C54.6129 65.8095 49.9227 66.6865 45.54 68.4526C41.1573 70.2186 37.1695 72.8385 33.8086 76.1599C30.4476 79.4812 27.7807 83.4377 25.9628 87.7992C24.1449 92.1607 23.2124 96.8401 23.2196 101.565Z" fill="white"/>
<path d="M33.2268 101.727C33.1608 108.641 35.8164 115.303 40.6202 120.276C45.424 125.248 51.9907 128.132 58.9024 128.304C62.3069 128.347 65.6861 127.713 68.8432 126.438C72.0004 125.163 74.8726 123.274 77.2929 120.879C79.7132 118.484 81.6331 115.632 82.9412 112.489C84.2492 109.345 84.9192 105.973 84.9123 102.568C84.9782 95.6544 82.3227 88.9922 77.5188 84.0197C72.715 79.0472 66.1484 76.1634 59.2366 75.9909C55.8325 75.9493 52.454 76.5846 49.2974 77.8598C46.1408 79.1351 43.2692 81.0248 40.8492 83.4194C38.4292 85.8139 36.5092 88.6655 35.2006 91.8084C33.8921 94.9513 33.2212 98.3229 33.2268 101.727Z" fill="#EBEBEB"/>
<path d="M43.2942 101.889C43.2423 106.104 44.854 110.168 47.7796 113.202C50.7053 116.236 54.709 117.994 58.9224 118.095C60.9952 118.12 63.0524 117.734 64.9746 116.957C66.8968 116.181 68.6455 115.031 70.1193 113.573C71.5931 112.115 72.7626 110.379 73.5598 108.466C74.357 106.552 74.7661 104.499 74.7633 102.426C74.8125 98.2126 73.2 94.1493 70.2749 91.1162C67.3498 88.083 63.3476 86.3242 59.1351 86.2206C57.0623 86.1951 55.005 86.5817 53.0829 87.358C51.1607 88.1342 49.4119 89.2847 47.9381 90.7424C46.4643 92.2002 45.2948 93.9363 44.4976 95.8499C43.7004 97.7634 43.2913 99.8163 43.2942 101.889Z" fill="white"/>
<path d="M52.0645 102.031C52.032 103.91 52.7466 105.725 54.0513 107.077C55.356 108.429 57.1441 109.208 59.0228 109.243C59.9489 109.259 60.869 109.09 61.7292 108.747C62.5893 108.403 63.3724 107.891 64.0325 107.242C64.6927 106.592 65.2166 105.817 65.5738 104.962C65.931 104.108 66.1142 103.19 66.1127 102.264C66.1425 100.387 65.4267 98.5749 64.1223 97.225C62.8179 95.875 61.0314 95.0974 59.1545 95.0628C58.2288 95.0453 57.309 95.2126 56.4488 95.5551C55.5887 95.8976 54.8056 96.4082 54.1453 97.0572C53.485 97.7062 52.9609 98.4804 52.6036 99.3345C52.2463 100.189 52.063 101.105 52.0645 102.031Z" fill="#EBEBEB"/>
<path d="M59.4382 102.305L107.548 77.0037L107.184 76.3049L59.0635 101.606L59.4382 102.305Z" fill="#EBEBEB"/>
<path d="M110.395 78.2293L110.213 78.1686L107.134 77.2165L113.211 74.0362L116.503 75.0389L110.395 78.2293Z" fill="#EBEBEB"/>
<path d="M113.94 70.1367L112.847 73.3373L106.77 76.5176C107.246 75.4979 107.606 74.4276 107.843 73.3272L113.94 70.1367Z" fill="#EBEBEB"/>
<path d="M57.5957 101.363L58.8618 103.642L62.2447 103.358L60.0265 101.545L59.8037 98.6887L57.5957 101.363Z" fill="#EBEBEB"/>
<path d="M95.5128 339.717L24.8008 365.79L41.336 410.634L112.048 384.561L95.5128 339.717Z" fill="#EBEBEB"/>
<path d="M95.5362 339.695C93.6827 343.483 91.738 347.17 89.8541 350.918C87.9702 354.665 85.985 358.321 84.0201 361.998C81.9944 365.833 79.935 369.655 77.8418 373.463L77.6595 373.818L72.1192 383.946L71.8356 384.422L71.3292 384.24L60.5829 380.189L60.198 380.047C56.1466 378.507 52.0953 376.948 48.0439 375.337C44.2018 373.764 40.3294 372.194 36.4265 370.627C32.5575 368.997 28.6884 367.457 24.8193 365.776C28.7188 367.001 32.6081 368.349 36.4974 369.645C40.3868 370.941 44.2963 372.319 48.1857 373.696C52.5105 375.226 56.8556 376.786 61.1906 378.386L70.9443 381.961C72.6256 378.923 74.3171 375.884 76.0085 372.917C78.2773 368.865 80.5461 364.895 82.8553 360.904C84.881 357.339 86.9878 353.814 89.0945 350.249C91.2012 346.684 93.3586 343.159 95.5362 339.695Z" fill="white"/>
<path d="M61.6775 379.358C61.6634 379.398 61.6429 379.436 61.6167 379.469L60.8571 380.827C59.6282 382.974 58.3453 385.081 57.0083 387.147C55.3878 389.699 53.6963 392.211 51.9441 394.682C50.1919 397.154 48.4599 399.605 46.6368 402.015C44.8137 404.426 42.95 406.806 40.9648 409.105C42.4132 406.431 44.0034 403.859 45.6138 401.317C47.2242 398.774 48.9461 396.252 50.678 393.781C52.41 391.31 54.1622 388.848 55.9853 386.438C57.4438 384.513 58.9327 382.599 60.4925 380.746C60.8504 380.32 61.215 379.895 61.5864 379.469C61.5864 379.469 61.6573 379.419 61.6775 379.358Z" fill="white"/>
<path d="M111.377 383.166C108.339 382.721 105.401 382.154 102.454 381.465C99.5065 380.776 96.5794 380.077 93.6523 379.338C90.7252 378.599 87.8284 377.758 84.9418 376.867C82.592 376.158 80.2422 375.408 77.9329 374.557L76.4542 374.02L76.3428 373.97H76.4643L78.1355 374.243C80.5258 374.638 82.8959 375.135 85.2254 375.651C88.1728 376.299 91.0999 377.029 94.0169 377.788C96.9339 378.548 99.8509 379.358 102.738 380.249C105.624 381.141 108.541 382.073 111.377 383.166Z" fill="white"/>
<path d="M360.14 151.243L352.392 198.406L426.76 210.625L434.509 163.461L360.14 151.243Z" fill="#EBEBEB"/>
<path d="M434.495 163.44C431.021 165.82 427.507 168.069 424.012 170.398C420.518 172.728 416.993 174.926 413.479 177.164C409.805 179.493 406.125 181.796 402.439 184.072C402.331 184.152 402.22 184.226 402.105 184.294C398.853 186.32 395.582 188.346 392.32 190.371L391.834 190.655L391.48 190.24C389.029 187.296 386.584 184.345 384.147 181.387C384.054 181.289 383.97 181.184 383.894 181.074C381.118 177.731 378.374 174.379 375.639 170.945C373.026 167.724 370.423 164.453 367.82 161.191C365.217 157.93 362.654 154.608 360.122 151.245C362.907 154.284 365.622 157.322 368.367 160.361C371.111 163.399 373.826 166.539 376.52 169.669C379.538 173.119 382.54 176.617 385.524 180.162L392.239 188.093C395.197 186.3 398.165 184.487 401.122 182.724C405.082 180.344 409.032 177.974 413.013 175.635C416.568 173.558 420.103 171.482 423.698 169.446C427.294 167.41 430.89 165.374 434.495 163.44Z" fill="white"/>
<path d="M385.463 181.246L385.352 181.317L384.025 182.117C381.898 183.383 379.741 184.578 377.553 185.722C374.889 187.14 372.185 188.477 369.45 189.774C366.716 191.07 364.001 192.326 361.226 193.521C358.451 194.717 355.655 195.881 352.789 196.884C355.372 195.284 358.015 193.845 360.679 192.417C363.343 190.989 366.067 189.662 368.782 188.366C371.496 187.07 374.251 185.793 377.026 184.598C379.234 183.646 381.483 182.714 383.752 181.874L385.332 181.296L385.463 181.246Z" fill="white"/>
<path d="M426.818 209.069C424.427 207.195 422.138 205.2 419.9 203.184C417.661 201.168 415.474 199.082 413.296 196.995C411.118 194.909 409.002 192.742 406.925 190.544C405.234 188.761 403.573 186.948 401.983 185.074L400.97 183.879L400.889 183.778L401 183.859C401.446 184.213 401.881 184.558 402.307 184.922C404.191 186.442 406.004 188.042 407.806 189.652C410.055 191.678 412.243 193.754 414.41 195.851C416.578 197.948 418.694 200.105 420.771 202.303C422.847 204.501 424.883 206.719 426.818 209.069Z" fill="white"/>
<path d="M135.382 436.513L168.067 432.472L156.358 337.832L115.004 342.946L135.382 436.513Z" fill="#26A37E"/>
<path d="M115.015 342.946L122.773 378.639L135.393 436.523L168.078 432.482L156.369 337.832L115.015 342.946Z" fill="#26A37E"/>
<path opacity="0.2" d="M115.015 342.946L122.773 378.639L135.393 436.523L168.078 432.482L156.369 337.832L115.015 342.946Z" fill="white"/>
<path opacity="0.1" d="M115.015 342.946L120.13 366.485L159.934 366.657L156.369 337.832L115.015 342.946Z" fill="black"/>
<path d="M112.7 357.905L164.155 351.541L159.321 312.45L107.865 318.813L112.7 357.905Z" fill="#26A37E"/>
<path opacity="0.2" d="M112.7 357.905L164.155 351.541L159.321 312.45L107.865 318.813L112.7 357.905Z" fill="black"/>
<path d="M71.6443 308.803L112.107 307.851L104.288 244.599L64.8076 253.532L71.6443 308.803Z" fill="#26A37E"/>
<g opacity="0.2">
<path d="M71.6443 308.803L112.107 307.851L104.288 244.599L64.8076 253.532L71.6443 308.803Z" fill="white"/>
</g>
<path d="M123.299 229.528L134.835 322.872L202.898 322.619L365.936 360.692L338.204 136.529L189.367 213.201L123.299 229.528Z" fill="#26A37E"/>
<path opacity="0.2" d="M123.299 229.528L134.835 322.872L202.898 322.619L365.936 360.692L338.204 136.529L189.367 213.201L123.299 229.528Z" fill="white"/>
<path opacity="0.1" d="M365.936 360.712L202.909 322.639L134.846 322.902L131.878 298.928C152.003 300.863 204.803 305.907 205.886 306.271L365.936 360.712Z" fill="black"/>
<path d="M369.637 360.808C389.633 358.335 399.607 305.899 391.913 243.689C384.22 181.479 361.773 133.052 341.776 135.525C321.78 137.998 311.806 190.434 319.5 252.644C327.193 314.854 349.641 363.281 369.637 360.808Z" fill="#26A37E"/>
<path opacity="0.2" d="M327.692 249.714C334.528 304.945 353.337 348.071 369.705 346.046C386.072 344.02 393.81 297.612 386.984 242.381C380.157 187.151 361.328 143.983 344.971 145.999C328.613 148.014 320.865 194.443 327.692 249.714Z" fill="black"/>
<path d="M332.523 249.076C333.435 256.429 334.549 263.56 335.876 270.396C339.486 272.659 343.665 273.852 347.926 273.835C352.187 273.819 356.356 272.594 359.949 270.304C363.541 268.013 366.411 264.75 368.224 260.894C370.037 257.038 370.719 252.747 370.191 248.519L368.885 237.945C368.375 233.727 366.683 229.739 364.003 226.442C361.323 223.145 357.764 220.673 353.739 219.313C349.714 217.953 345.386 217.76 341.255 218.755C337.125 219.751 333.36 221.895 330.396 224.94C330.791 232.708 331.5 240.801 332.523 249.076Z" fill="#26A37E"/>
<path opacity="0.2" d="M332.523 249.076C333.435 256.429 334.549 263.56 335.876 270.396C339.486 272.659 343.665 273.852 347.926 273.835C352.187 273.819 356.356 272.594 359.949 270.304C363.541 268.013 366.411 264.75 368.224 260.894C370.037 257.038 370.719 252.747 370.191 248.519L368.885 237.945C368.375 233.727 366.683 229.739 364.003 226.442C361.323 223.145 357.764 220.673 353.739 219.313C349.714 217.953 345.386 217.76 341.255 218.755C337.125 219.751 333.36 221.895 330.396 224.94C330.791 232.708 331.5 240.801 332.523 249.076Z" fill="white"/>
<path d="M99.3045 332.524L177.557 330.681L162.425 208.36L86.0869 225.649L99.3045 332.524Z" fill="#26A37E"/>
<g opacity="0.1">
<path d="M99.3045 332.524L177.557 330.681L162.425 208.36L86.0869 225.649L99.3045 332.524Z" fill="black"/>
</g>
<path opacity="0.2" d="M330.567 144.378C325.28 152.025 322.596 161.131 320.378 170.094C318.351 179.156 317.047 188.365 316.479 197.634C316.063 202.262 316.063 206.901 315.901 211.54C316.003 216.179 315.962 220.818 316.165 225.446C316.367 230.075 316.57 234.714 316.995 239.332C317.421 243.951 317.775 248.57 318.302 253.178C320.54 271.561 323.812 289.904 329.362 307.639C332.093 316.52 335.605 325.143 339.855 333.405C344.332 341.508 349.497 349.52 356.972 355.09C349.882 349.074 345.061 341.012 341.02 332.808C337.042 324.514 333.795 315.889 331.317 307.031C326.317 289.302 322.847 271.176 320.945 252.854C318.778 234.623 317.603 216.118 318.504 197.745C318.836 188.561 319.886 179.418 321.644 170.398C323.417 161.414 325.797 152.359 330.567 144.378Z" fill="black"/>
<path d="M236.89 141.806C234.712 153.707 219.135 156.269 216.755 153.717C207.092 143.396 196.832 123.331 185.721 100.927C177.031 83.4253 182.622 82.8682 190.178 87.5374C207.75 98.4052 238.065 135.415 236.89 141.806Z" fill="#26A37E"/>
<path opacity="0.1" d="M236.89 141.816C234.713 153.707 219.145 156.269 216.755 153.717C207.092 143.396 196.842 123.331 185.721 100.927C181.518 92.4497 180.485 87.1424 182.136 85.5725L236.667 139.446C236.914 140.21 236.99 141.019 236.89 141.816Z" fill="black"/>
<path d="M210.413 142.403C208.266 134.847 214.576 123.473 229.211 96.0048C231.237 92.1965 261.886 102.365 259.931 106.538C257.47 111.785 244.637 131.485 242.125 134.169C229.86 147.295 211.882 147.518 210.413 142.403Z" fill="#EB9481"/>
<path d="M248.537 116.839C248.537 116.839 259.415 112.666 266.393 109.607C270.283 107.896 276.704 104.371 278.993 101.808C282.416 97.9697 294.277 79.7486 289.912 76.781C285.972 74.0868 277.757 91.0418 277.757 91.0418C277.757 91.0418 287.552 74.6641 282.204 72.3042C276.856 69.9443 270.171 90.3227 270.171 90.3227C270.171 90.3227 279.854 73.2765 273.949 71.7066C269.482 70.5216 262.352 88.6718 262.352 88.6718C262.352 88.6718 270.566 73.9653 266.039 72.5473C261.035 70.9774 253.409 87.2943 253.409 87.2943C241.254 85.6332 231.916 91.3457 228.543 97.2911C227.895 98.4255 248.537 116.839 248.537 116.839Z" fill="#EB9481"/>
<path d="M275.237 96.1365C283.339 84.6204 283.825 76.4873 283.775 76.7C282.448 81.7642 278.812 88.8541 277.759 90.8798C276.705 92.9055 276.209 94.1007 275.166 96.0858C275.085 96.1466 275.156 96.177 275.237 96.1365Z" fill="#263238"/>
<path d="M267.519 93.2701C271.016 88.7592 273.684 83.6631 275.398 78.2192C275.398 78.0065 275.348 78.0369 275.247 78.2192C273.98 80.7716 268.835 90.7278 267.458 93.2194C267.438 93.2802 267.488 93.3004 267.519 93.2701Z" fill="#263238"/>
<path d="M260.743 91.2444C263.383 87.6943 265.338 83.6821 266.506 79.4143C266.566 79.2118 266.404 79.2624 266.313 79.4143C264.48 83.3746 263.062 86.5043 260.621 91.1127C260.58 91.2342 260.692 91.3254 260.743 91.2444Z" fill="#263238"/>
<path d="M253.277 121.285L220.714 105.667C220.714 105.667 205.349 136.903 208.915 143.801C210.515 146.839 216.106 154.892 222.385 155.104C236.818 155.601 253.277 121.285 253.277 121.285Z" fill="#26A37E"/>
<path d="M218.83 113.79C222.436 115.684 226.122 117.386 229.819 119.077C233.516 120.769 237.223 122.47 240.961 124.071C243.077 124.972 245.184 125.894 247.331 126.724C247.392 126.724 247.433 126.653 247.382 126.623C243.786 124.729 240.09 123.007 236.413 121.295C232.736 119.584 229.009 117.902 225.272 116.231C223.165 115.31 221.048 114.418 218.901 113.588C218.82 113.567 218.729 113.73 218.83 113.79Z" fill="#263238"/>
<path d="M221.12 105.617C220.806 105.394 220.35 105.12 220.31 105.201C219.297 107.227 218.416 109.486 217.575 111.592C216.735 113.699 215.965 115.765 215.215 117.872C214.81 119.006 214.425 120.151 214.081 121.295C213.117 122.593 212.406 124.06 211.984 125.62C211.984 125.701 212.096 125.742 212.116 125.62C212.548 124.244 213.165 122.932 213.949 121.721C213.069 124.523 212.619 127.443 212.612 130.381C212.612 125.995 214.527 121.751 215.985 117.7C216.714 115.674 217.494 113.648 218.274 111.623C219.054 109.597 219.925 107.632 220.685 105.617L221.11 105.819C221.211 105.89 221.181 105.667 221.12 105.617Z" fill="#263238"/>
<path d="M185.215 86.5853C191.292 90.2822 202.109 106.518 207.305 125.792C208.615 131.189 209.653 136.649 210.414 142.15C213.453 162.285 217.504 184.862 217.919 192.377C218.436 202.394 200.974 219.784 192.385 217.617C183.797 215.45 169.657 219.167 184.708 162.073C188.658 147.072 193.064 114.185 188.071 96.1364C187.281 92.9064 186.328 89.7186 185.215 86.5853Z" fill="#26A37E"/>
<path d="M274.649 334.469C271.844 333.871 204.702 294.34 203.092 291.21C202.474 290.025 207.67 279.917 214.233 267.915C215.661 265.312 217.15 262.638 218.68 259.924C228.585 242.32 239.514 223.866 239.514 223.866L284.504 250.2L262.434 285.538L257.644 293.266C257.644 293.266 276.584 319.904 277.972 323.52C279.359 327.136 277.465 335.066 274.649 334.469Z" fill="#EB9481"/>
<path d="M274.649 334.469C271.843 333.871 204.702 294.34 203.092 291.21C202.555 290.197 206.525 282.186 212.005 272.047C214.618 276.038 253.602 309.766 266.526 312.986C271.803 314.303 263.619 301.764 263.275 301.227C268.967 309.381 277.06 321.14 277.951 323.459C279.359 327.095 277.465 335.067 274.649 334.469Z" fill="#263238"/>
<path d="M264.034 302.271C264.034 302.271 258.17 297.085 246.907 301.633L264.034 302.271Z" fill="#263238"/>
<path d="M314.262 194.443C310.038 215.409 266.243 285.407 266.243 285.407L218.224 256.368L250.493 206.091C250.493 206.091 184.658 213.991 159.621 203.447C132.841 192.195 136.74 160.118 136.74 160.118L201.917 152.37C201.917 152.37 203.649 158.497 210.972 157.94C236.212 155.975 270.638 156.927 283.897 158.366C300.993 160.229 318.141 175.209 314.262 194.443Z" fill="#37474F"/>
<path d="M265.391 188.528C263.872 190.025 262.448 191.615 261.127 193.289C259.668 194.96 258.19 196.611 256.721 198.282V198.332L257.541 196.833C258.554 195.132 259.314 193.37 260.428 191.769C260.489 191.668 260.347 191.557 260.276 191.658C259.131 193.248 257.835 194.696 256.832 196.438C256.366 197.239 255.911 198.049 255.495 198.869C255.262 199.315 255.019 199.771 254.807 200.227C254.715 200.439 254.594 200.662 254.523 200.885C253.865 201.665 253.216 202.445 252.578 203.245C251.181 205.007 249.915 206.891 248.527 208.643C248.446 208.734 248.598 208.836 248.679 208.745C250.107 207.104 251.717 205.595 253.135 203.974C254.553 202.353 256.012 200.611 257.41 198.91C258.807 197.208 260.094 195.527 261.461 193.846C262.938 192.201 264.312 190.465 265.573 188.65C265.523 188.559 265.452 188.478 265.391 188.528Z" fill="#263238"/>
<path d="M269.332 274.134C268.076 273.182 266.739 272.311 265.432 271.429C264.126 270.548 262.849 269.677 261.543 268.816C258.889 267.054 256.195 265.332 253.501 263.61C248.102 260.146 242.663 256.753 237.214 253.36C234.176 251.456 231.077 249.613 228.008 247.729C227.957 247.729 227.876 247.79 227.937 247.82C233.149 251.406 238.396 254.947 243.676 258.445C248.957 261.942 254.358 265.393 259.882 268.796C261.401 269.728 262.931 270.646 264.47 271.551C266.03 272.463 267.59 273.435 269.2 274.255C269.301 274.296 269.392 274.184 269.332 274.134Z" fill="#263238"/>
<path d="M145.704 162.133C145.053 170.667 147.687 179.128 153.068 185.783C155.779 189.018 159.091 191.698 162.821 193.673C166.583 195.589 170.623 196.898 174.793 197.553C183.141 198.967 191.587 199.716 200.053 199.791C208.528 199.94 216.995 199.686 225.456 199.031C233.907 198.468 242.313 197.369 250.625 195.74C252.65 195.304 254.757 194.828 256.783 194.261C257.796 193.967 258.809 193.663 259.821 193.329C260.826 192.916 261.872 192.61 262.941 192.417C263.521 192.324 264.114 192.351 264.683 192.498C265.003 192.588 265.295 192.76 265.529 192.996C265.763 193.232 265.933 193.525 266.02 193.846C266.099 194.139 266.133 194.443 266.121 194.747C266.104 195.054 266.032 195.356 265.909 195.638C265.706 196.165 265.473 196.651 265.23 197.127C264.217 199.021 263.154 200.854 262.07 202.678C253.238 217.192 243.778 231.29 234.298 245.369C238.923 238.252 243.508 231.112 248.052 223.947C252.6 216.787 257.168 209.616 261.462 202.323C262.526 200.49 263.589 198.657 264.501 196.783C264.734 196.307 264.967 195.841 265.149 195.365C265.237 195.163 265.288 194.947 265.301 194.727C265.315 194.502 265.291 194.276 265.23 194.058C265.038 193.207 263.974 193.045 263.002 193.197C261.984 193.391 260.99 193.69 260.034 194.089C259.021 194.433 258.008 194.747 256.996 195.041C254.97 195.618 252.863 196.054 250.787 196.55C242.427 198.218 233.97 199.351 225.466 199.943C216.992 200.557 208.497 200.78 199.983 200.611C191.47 200.528 182.98 199.732 174.601 198.231C170.448 197.36 166.224 196.327 162.446 194.18C158.675 192.145 155.337 189.393 152.622 186.077C149.987 182.724 148.052 178.877 146.93 174.764C145.744 170.665 145.329 166.383 145.704 162.133Z" fill="#263238"/>
<path d="M212.44 339.169C209.817 338.004 152.379 285.356 151.457 281.963C151.102 280.677 158.273 271.835 167.257 261.463C169.192 259.215 171.207 256.905 173.274 254.576C186.623 239.383 201.157 223.643 201.157 223.643L239.645 258.749L210.718 288.719L204.338 295.292C204.338 295.292 217.312 325.282 217.92 329.111C218.528 332.94 215.043 340.333 212.44 339.169Z" fill="#EB9481"/>
<path d="M212.439 339.169C209.826 338.004 152.388 285.356 151.466 281.963C151.152 280.829 156.692 273.86 164.167 265.069C165.889 269.515 196.993 310.647 208.955 316.461C213.857 318.851 208.459 304.884 208.226 304.306C212.095 313.422 217.564 326.66 217.949 329.111C218.516 332.94 215.042 340.343 212.439 339.169Z" fill="#263238"/>
<path d="M208.733 305.42C208.733 305.42 204.084 299.131 192.112 301.237L208.733 305.42Z" fill="#263238"/>
<path d="M285.001 199.335C280.777 220.301 224.504 277.831 218.001 284.414L216.492 285.933L175.614 249.866L176.161 249.258L207.164 215.125C207.164 215.125 159.418 231.331 138.969 201.776C130.866 190.037 136.71 160.118 136.71 160.118L189.074 154.112C189.074 154.112 189.966 163.075 197.288 162.508C222.539 160.543 242.38 158.68 255.638 160.118C272.766 161.981 288.88 180.101 285.001 199.335Z" fill="#37474F"/>
<path d="M198.746 162.397C214.952 160.847 231.258 159.5 247.606 159.52C249.631 159.52 251.657 159.591 253.744 159.723C255.803 159.819 257.852 160.076 259.871 160.493C260.879 160.752 261.864 161.091 262.819 161.505C263.771 161.9 264.713 162.316 265.634 162.782C267.48 163.697 269.254 164.75 270.942 165.932C274.352 168.27 277.353 171.155 279.824 174.47C282.299 177.799 284.089 181.586 285.091 185.611C285.581 187.624 285.876 189.68 285.972 191.749C285.972 192.266 285.972 192.762 285.972 193.299C285.972 193.835 285.972 194.311 285.972 194.858C285.883 195.881 285.724 196.896 285.496 197.897C284.465 201.885 282.926 205.725 280.918 209.322C276.954 216.482 272.418 223.31 267.356 229.741C262.373 236.213 257.116 242.462 251.718 248.58C246.319 254.697 240.708 260.633 235.046 266.507C240.597 260.531 246.076 254.485 251.384 248.276C256.691 242.067 261.897 235.818 266.799 229.305C271.775 222.863 276.251 216.051 280.189 208.927C282.15 205.389 283.648 201.614 284.645 197.694C284.864 196.72 285.013 195.732 285.091 194.737C285.148 193.725 285.148 192.71 285.091 191.698C284.994 189.69 284.703 187.695 284.22 185.743C283.265 181.828 281.544 178.141 279.156 174.895C276.756 171.644 273.833 168.813 270.506 166.519C268.854 165.355 267.117 164.316 265.31 163.41C264.409 162.954 263.497 162.539 262.555 162.154C261.642 161.741 260.697 161.402 259.729 161.141C257.753 160.729 255.749 160.465 253.733 160.351C251.708 160.209 249.682 160.138 247.656 160.098C239.554 159.966 231.36 160.29 223.216 160.695C215.073 161.1 206.869 161.738 198.746 162.397Z" fill="#263238"/>
<path d="M224.047 194.929C222.529 196.42 221.108 198.007 219.793 199.68C218.324 201.351 216.846 203.002 215.387 204.673V204.724C215.661 204.227 215.924 203.711 216.208 203.225C217.17 201.533 217.97 199.771 219.084 198.16C219.099 198.14 219.105 198.115 219.101 198.09C219.097 198.066 219.084 198.043 219.064 198.029C219.044 198.014 219.018 198.008 218.994 198.011C218.969 198.015 218.947 198.029 218.932 198.049C217.798 199.649 216.491 201.148 215.488 202.84C215.022 203.63 214.577 204.44 214.151 205.26C213.918 205.716 213.686 206.162 213.473 206.618C213.363 206.835 213.265 207.058 213.179 207.286C212.521 208.056 211.873 208.846 211.245 209.636C209.837 211.398 208.571 213.282 207.193 215.034C207.122 215.125 207.274 215.227 207.345 215.136C208.773 213.505 210.384 211.996 211.802 210.365C213.22 208.734 214.688 207.002 216.076 205.301C217.463 203.599 218.77 201.928 220.127 200.237C221.599 198.586 222.969 196.848 224.229 195.031C224.189 194.96 224.108 194.869 224.047 194.929Z" fill="#263238"/>
<path d="M221.749 276.433C220.675 275.278 219.49 274.195 218.355 273.101C217.221 272.007 216.107 270.943 214.962 269.88C212.643 267.692 210.273 265.545 207.873 263.388C203.143 259.073 198.342 254.809 193.541 250.545C190.857 248.154 188.122 245.815 185.438 243.455C185.387 243.455 185.296 243.455 185.347 243.536C189.884 247.945 194.462 252.317 199.081 256.652C203.7 260.987 208.453 265.302 213.342 269.596C214.679 270.771 216.036 271.926 217.393 273.08C218.75 274.235 220.148 275.461 221.597 276.544C221.698 276.585 221.799 276.494 221.749 276.433Z" fill="#263238"/>
<path d="M143.84 163.004C142.897 167.583 142.556 172.265 142.827 176.931C143.058 181.587 144.157 186.16 146.069 190.412C148.028 194.629 151.139 198.207 155.042 200.733C158.999 203.149 163.46 204.619 168.078 205.027C172.721 205.528 177.403 205.568 182.055 205.149C186.701 204.765 191.322 204.133 195.901 203.255C205.071 201.539 214.11 199.187 222.954 196.216L223.288 196.104L223.44 196.398C223.996 197.52 224.34 198.736 224.453 199.983C224.571 201.21 224.496 202.447 224.23 203.65C223.961 204.849 223.536 206.007 222.964 207.094C222.357 208.131 221.68 209.126 220.938 210.071C217.96 213.809 214.76 217.344 211.559 220.868C208.359 224.393 205.077 227.857 201.785 231.28C198.493 234.704 195.171 238.137 191.829 241.53C195.097 238.066 198.341 234.582 201.562 231.078C204.773 227.563 207.984 224.049 211.154 220.504C214.324 216.959 217.464 213.414 220.371 209.636C221.096 208.717 221.755 207.749 222.346 206.739C222.872 205.709 223.266 204.616 223.521 203.488C224.029 201.242 223.78 198.892 222.812 196.803L223.298 196.975C214.383 200.002 205.265 202.395 196.012 204.136C191.396 205.006 186.737 205.628 182.055 206C177.364 206.4 172.645 206.339 167.966 205.817C163.253 205.377 158.71 203.829 154.708 201.3C150.721 198.675 147.56 194.974 145.593 190.625C143.706 186.306 142.674 181.663 142.554 176.951C142.367 172.266 142.8 167.577 143.84 163.004Z" fill="#263238"/>
<path d="M166.285 162.346C165.809 164.807 165.181 167.248 164.492 169.659C163.998 171.853 163.083 173.93 161.798 175.776C160.419 177.396 158.686 178.678 156.734 179.524C155.615 180.052 154.465 180.512 153.29 180.901C152.081 181.24 150.9 181.67 149.756 182.188C149.71 182.212 149.673 182.251 149.651 182.298C149.629 182.345 149.622 182.398 149.633 182.449C149.643 182.5 149.669 182.547 149.708 182.582C149.746 182.617 149.795 182.638 149.847 182.643C151.174 182.624 152.494 182.44 153.777 182.097C155.027 181.817 156.253 181.437 157.443 180.962C159.608 180.083 161.512 178.664 162.973 176.84C164.356 174.847 165.277 172.57 165.667 170.175C166.24 167.606 166.563 164.988 166.63 162.356C166.631 162.311 166.614 162.266 166.583 162.233C166.551 162.2 166.508 162.18 166.462 162.179C166.417 162.178 166.372 162.194 166.339 162.226C166.306 162.257 166.287 162.3 166.285 162.346Z" fill="#263238"/>
<path d="M135.757 162.002L204.742 159.571L199.677 133.743C199.677 133.743 205.39 126.279 203.982 118.449C202.432 109.881 186.146 88.5908 184.738 87.4057C179.319 82.6555 174.437 80.8932 169.9 84.2355C154.13 95.9035 135.757 162.002 135.757 162.002Z" fill="#26A37E"/>
<path d="M190.43 131.14C187.351 131.528 184.304 132.14 181.315 132.974C179.846 133.409 178.398 133.915 176.949 134.452C176.23 134.716 175.501 134.959 174.772 135.192C174.016 135.463 173.231 135.639 172.432 135.718C172.361 135.718 172.361 135.83 172.432 135.83C173.19 135.845 173.949 135.805 174.701 135.708C175.43 135.597 176.151 135.434 176.858 135.222C178.357 134.797 179.846 134.3 181.345 133.855C184.384 132.963 187.422 132.072 190.461 131.394C190.623 131.363 190.572 131.12 190.43 131.14Z" fill="#263238"/>
<path d="M198.148 133.612C195.596 133.431 193.036 133.397 190.48 133.51C189.204 133.571 187.938 133.703 186.672 133.875C186.064 133.956 185.457 134.047 184.859 134.149C184.262 134.25 183.542 134.452 182.833 134.554C182.763 134.554 182.763 134.675 182.833 134.665C183.461 134.584 184.11 134.665 184.748 134.584L186.652 134.463L190.47 134.24C193.023 134.057 195.535 133.905 198.117 133.824C198.259 133.814 198.259 133.622 198.148 133.612Z" fill="#263238"/>
<path d="M161.007 93.503C143.941 114.834 124.464 157.798 130.014 165.415C136.203 173.893 159.944 144.014 159.65 142.464C159.427 141.289 165.93 115.816 170.964 97.2506C175.997 78.6851 165.231 88.2363 161.007 93.503Z" fill="#EB9481"/>
<path d="M159.833 142.464C160.339 139.76 169.323 106.113 171.774 95.5186C173.972 86.0181 171.774 82.4731 164.684 89.0364C151.517 101.109 126.976 136.326 123.715 153.443C120.585 169.942 134.339 169.649 144.579 161.05C152.915 153.99 159.833 142.464 159.833 142.464Z" fill="#26A37E"/>
<path d="M158.688 146.809C161.443 134.088 164.688 121.481 168.422 108.989C165.68 121.717 162.436 134.324 158.688 146.809Z" fill="#263238"/>
<path d="M166.67 116.343C167.014 114.629 167.816 113.04 168.989 111.744C168.758 113.495 167.941 115.116 166.67 116.343Z" fill="#263238"/>
<path d="M266.444 157.667H195.971V161.05H266.444V157.667Z" fill="#455A64"/>
<path d="M228.969 157.667H195.971V161.05H228.969V157.667Z" fill="#A6A6A6"/>
<path d="M227.562 161.05H301.095L311.487 111.106H237.954L227.562 161.05Z" fill="#A6A6A6"/>
<path d="M230.895 161.05H304.427L314.819 111.106H241.286L230.895 161.05Z" fill="#C7C7C7"/>
<path d="M267.953 137.187C267.869 137.807 267.921 138.437 268.104 139.035C268.288 139.632 268.599 140.183 269.016 140.649C269.433 141.115 269.945 141.485 270.519 141.734C271.093 141.982 271.714 142.104 272.339 142.089C273.681 142.062 274.968 141.551 275.964 140.651C276.96 139.75 277.596 138.52 277.757 137.187C277.839 136.568 277.786 135.938 277.602 135.341C277.418 134.744 277.107 134.194 276.69 133.729C276.274 133.263 275.762 132.893 275.189 132.644C274.616 132.395 273.996 132.272 273.372 132.285C272.03 132.314 270.744 132.825 269.748 133.726C268.753 134.626 268.116 135.855 267.953 137.187Z" fill="#EBEBEB"/>
<path d="M130.045 163.865C136.385 168.129 147.932 164.949 177.75 159.662C181.872 158.933 184.546 128.426 180.1 128.983C174.499 129.682 152.915 133.602 151.375 134.047C138.37 138.19 125.74 160.979 130.045 163.865Z" fill="#EB9481"/>
<path d="M175.755 131.029C175.755 131.029 186.136 125.256 192.527 123.939C199.207 122.703 206.086 123.113 212.572 125.134C219.58 127.281 235.047 137.288 232.94 142.282C231.016 146.769 215.722 135.708 215.722 135.708C215.722 135.708 233.173 144.419 229.901 149.392C226.63 154.365 209.584 140.529 209.584 140.529C209.584 140.529 227.319 149.878 223.095 154.476C219.915 157.95 203.79 146.272 203.79 146.272C203.79 146.272 218.983 154.375 215.853 158.123C212.41 162.235 196.852 152.38 196.852 152.38C187.321 160.482 179.472 160.482 173.891 159.763C172.524 159.571 175.755 131.029 175.755 131.029Z" fill="#EB9481"/>
<path d="M209.887 132.275C211.974 133.217 214.091 134.169 216.086 135.313C218.081 136.458 220.046 137.643 221.92 138.96C224.413 140.627 226.707 142.574 228.756 144.763C224.837 141.137 217.757 136.984 215.762 135.85C213.766 134.716 211.832 133.49 209.847 132.366L209.887 132.275Z" fill="#263238"/>
<path d="M205.674 139.405C208.288 140.732 210.931 141.947 213.484 143.386C216.036 144.824 218.315 146.424 220.746 148.014C220.938 148.136 220.806 148.197 220.614 148.085C218.112 146.576 215.692 145.371 213.17 143.892C210.648 142.413 208.196 140.853 205.634 139.456C205.593 139.436 205.634 139.385 205.674 139.405Z" fill="#263238"/>
<path d="M200.954 144.875C205.013 146.811 208.862 149.159 212.44 151.883C212.622 152.015 212.44 152.076 212.257 151.954C208.479 149.544 205.542 147.64 200.903 145.016C200.822 144.976 200.873 144.834 200.954 144.875Z" fill="#263238"/>
<path d="M174.042 126.724L161.797 169.396C161.797 169.396 131.28 169.932 126.348 164.736C122.823 161.019 136.577 139.061 150.838 134.057L174.042 126.724Z" fill="#26A37E"/>
<path d="M136.102 145.928C137.439 143.264 142.615 137.045 150.819 134.027C150.89 134.027 150.95 134.108 150.88 134.149C144.985 136.984 137.713 143.538 136.203 145.989C136.163 146.06 136.062 145.989 136.102 145.928Z" fill="#263238"/>
<path d="M155.722 163.389C156.583 159.186 157.666 155.033 158.76 150.881C159.854 146.728 160.938 142.565 162.133 138.443C162.812 136.113 163.47 133.774 164.229 131.464C164.229 131.404 164.351 131.464 164.341 131.464C163.49 135.668 162.416 139.831 161.302 143.983C160.188 148.136 159.135 152.299 157.98 156.441C157.332 158.781 156.643 161.11 155.884 163.41C155.843 163.551 155.651 163.511 155.722 163.389Z" fill="#263238"/>
<path d="M173.952 126.37C172.311 126.677 170.694 127.097 169.11 127.626C167.51 128.105 165.916 128.608 164.33 129.135C161.17 130.148 154.363 132.011 148.985 134.807C148.924 134.807 149.38 134.969 149.431 134.938C151.922 133.48 172.189 127.636 173.739 126.967C173.729 127.095 173.729 127.224 173.739 127.352C173.739 127.443 173.871 127.504 173.921 127.413C173.972 127.322 174.104 126.957 174.205 126.724C174.226 126.684 174.236 126.639 174.233 126.594C174.23 126.549 174.215 126.505 174.188 126.468C174.162 126.432 174.126 126.403 174.084 126.385C174.042 126.368 173.996 126.363 173.952 126.37Z" fill="#263238"/>
<path d="M163.985 162.164C163.357 164.676 162.679 167.167 161.96 169.649C159.509 169.649 157.058 169.649 154.617 169.568C147.527 169.335 140.285 169.021 133.286 167.542C141.328 168.494 153.543 168.768 161.767 169.152L161.514 169.335C162.304 166.931 163.125 164.544 163.975 162.174L163.985 162.164Z" fill="#263238"/>
<path d="M171.4 88.1248C171.775 89.401 178.368 97.5139 184.273 96.9366C186.188 96.7542 185.631 86.2004 185.631 86.2004L185.762 85.4104L187.656 74.3704L174.439 66.7842L172.534 65.7713C172.534 65.7713 172.22 68.8098 171.856 72.6384C171.856 72.8106 171.856 72.9828 171.805 73.1752C171.755 73.3676 171.805 73.5905 171.734 73.793C171.674 74.3602 171.613 74.9477 171.572 75.525C171.532 76.1023 171.491 76.3961 171.471 76.8518C171.451 77.3076 171.41 77.7735 171.37 78.2394C171.16 81.5316 171.17 84.834 171.4 88.1248Z" fill="#EB9481"/>
<path d="M171.855 72.6485C173.108 75.6575 175.001 78.3577 177.403 80.5615C179.804 82.7653 182.657 84.4199 185.762 85.4104L187.656 74.3704L174.438 66.7842L172.534 65.7713C172.534 65.7713 172.22 68.8402 171.855 72.6485Z" fill="#263238"/>
<path d="M169.395 65.5688C164.918 65.4067 154.435 70.4912 151.782 76.9025C149.128 83.3138 151.144 92.5408 153.21 93.108C155.276 93.6752 163.338 91.4672 168.402 87.3348C173.467 83.2024 171.593 65.6498 169.395 65.5688Z" fill="#263238"/>
<path d="M169.405 65.589C169.546 65.5282 169.516 65.2953 169.405 65.3156C165.627 65.9131 161.829 67.9186 158.436 69.61C155.691 70.9672 152.905 72.4966 150.93 74.8971C149.975 76.0319 149.277 77.36 148.884 78.7901C148.49 80.2202 148.411 81.7185 148.651 83.1821C149.138 86.5245 150.353 90.4442 152.51 93.0878C152.581 93.1587 152.743 93.0878 152.683 92.9966C149.806 87.0512 146.889 79.6777 152.338 74.2691C156.906 69.6708 163.591 68.0097 169.405 65.589Z" fill="#263238"/>
<path d="M153.533 91.3457C149.867 92.5206 141.379 101.474 141.085 108.908C140.792 116.343 148.479 125.853 150.464 126.279C152.449 126.704 159.499 118.338 161.281 112.808C162.477 109.121 160.329 105.465 158.8 101.667C156.531 96.177 154.111 91.1634 153.533 91.3457Z" fill="#263238"/>
<path d="M163.367 111.501C163.154 104.016 157.716 97.5646 154.029 91.4369C154.029 91.3761 153.877 91.4369 153.907 91.4976C156.439 97.5747 161.271 102.527 162.587 109.111C163.357 113.01 162.699 117.102 159.913 120.1C157.503 122.693 154.16 124.283 151.132 126.026C150.929 126.147 151.132 126.431 151.324 126.329C157.402 123.027 163.59 119.229 163.367 111.501Z" fill="#263238"/>
<path d="M152.845 92.1661C153.017 92.0446 152.845 91.7711 152.662 91.8926C147.781 95.3971 142.028 100.269 140.154 106.204C138.128 112.636 142.362 118.206 146.089 122.997C146.089 123.058 146.231 122.997 146.18 122.926C142.483 118.054 138.391 111.917 140.873 105.556C143 100.087 148.267 95.5693 152.845 92.1661Z" fill="#263238"/>
<path d="M150.86 126.005C153.524 127.079 157.646 131.069 158.963 136.083C161.252 144.672 164.371 142.646 174.155 144.054C182.4 145.239 184.972 154.091 181.103 158.953C181.103 158.953 183.058 153.16 177.376 150.952C170.58 148.318 156.4 156.553 148.125 148.095C137.399 137.157 150.86 126.005 150.86 126.005Z" fill="#263238"/>
<path d="M154.708 129.712C154.596 129.601 154.778 129.398 154.9 129.51C156.099 130.501 157.108 131.702 157.878 133.055C158.891 134.817 159.103 136.812 159.964 138.625C162.162 143.254 167.915 142.535 172.118 142.423C177.77 142.292 182.611 145.29 183.523 151.164C183.518 151.177 183.509 151.189 183.497 151.197C183.485 151.205 183.471 151.209 183.457 151.209C183.443 151.209 183.429 151.205 183.417 151.197C183.406 151.189 183.397 151.177 183.391 151.164C183.093 149.353 182.305 147.657 181.112 146.261C179.92 144.865 178.368 143.822 176.625 143.244C173.212 142.231 169.536 143.244 166.092 142.768C163.702 142.423 161.291 141.654 160.015 139.486C159.402 138.241 158.923 136.934 158.587 135.587C157.815 133.33 156.48 131.308 154.708 129.712Z" fill="#263238"/>
<path d="M149.481 127.211C149.481 127.16 149.613 127.211 149.573 127.281C146.686 130.735 143.617 134.209 143.141 138.889C142.635 143.953 145.653 148.632 149.826 151.245C154.495 154.172 159.002 152.126 163.773 150.709C167.216 149.696 170.761 148.936 174.326 149.807C174.438 149.807 174.397 150.01 174.326 150C168.644 149.24 163.722 151.377 158.344 152.785C153.958 153.929 150.302 152.714 147.101 149.523C140.011 142.494 143.05 133.409 149.481 127.211Z" fill="#263238"/>
<path d="M165.374 62.2365C163.905 60.94 161.92 63.2493 163.399 64.5458C164.877 65.8422 166.863 63.5329 165.374 62.2365Z" fill="#26A37E"/>
<path d="M167.004 64.5559C165.535 63.2595 163.55 65.5688 164.978 66.8652C166.406 68.1616 168.472 65.8524 167.004 64.5559Z" fill="#26A37E"/>
<path d="M169.019 66.5816C167.55 65.2852 165.565 67.5945 166.993 68.8909C167.299 69.1595 167.699 69.2955 168.106 69.2689C168.512 69.2423 168.892 69.0553 169.16 68.7491C169.429 68.4429 169.565 68.0425 169.538 67.636C169.512 67.2295 169.325 66.8502 169.019 66.5816Z" fill="#26A37E"/>
<path d="M171.227 68.2731C169.758 66.9766 167.773 69.2859 169.201 70.5823C170.629 71.8788 172.705 69.5796 171.227 68.2731Z" fill="#26A37E"/>
<path d="M173.75 69.5898C172.281 68.2934 170.296 70.6027 171.724 71.9092C173.152 73.2158 175.229 70.8964 173.75 69.5898Z" fill="#26A37E"/>
<path d="M176.363 70.4405C174.894 69.1441 172.909 71.4534 174.388 72.7498C175.867 74.0463 177.842 71.7066 176.363 70.4405Z" fill="#26A37E"/>
<path d="M200.398 54.468C205.138 73.55 194.26 78.5434 190.158 79.5562C186.43 80.4779 173.608 83.1619 166.923 64.6775C160.238 46.1931 167.602 37.9485 176.039 35.386C184.476 32.8235 195.657 35.3962 200.398 54.468Z" fill="#EB9481"/>
<path d="M169.394 66.2879C173.354 65.0826 170.883 55.9366 170.883 55.9366C170.883 55.9366 177.233 52.7259 178.682 47.3578C178.682 47.3578 177.973 51.8447 175.815 54.235C175.451 54.6402 188.678 49.2924 186.957 38.4651C186.957 38.4651 191.96 48.1985 198.797 48.5023C199.121 48.5023 195.424 40.9769 192.152 38.536C190.739 37.3927 189.227 36.3759 187.635 35.4974C182.632 33.6406 177.1 33.8225 172.23 36.0038C164.208 39.6703 161.291 50.0621 161.706 53.8603C162.527 61.325 167.52 66.8652 169.394 66.2879Z" fill="#263238"/>
<path d="M176.311 54.3363C183.654 51.8448 188.181 45.3727 186.591 37.594C186.591 37.4016 186.844 37.3206 186.925 37.4927C190.177 44.9068 183.492 52.9893 176.29 54.4883C176.108 54.5288 176.139 54.3971 176.311 54.3363Z" fill="#263238"/>
<path d="M169.292 65.8625C172.715 62.6214 172.178 58.3877 171.318 54.1844C171.318 54.0629 171.5 53.992 171.54 54.1237C172.776 58.175 173.475 63.2393 169.575 66.1562C169.536 66.1939 169.484 66.2144 169.43 66.2135C169.376 66.2125 169.324 66.1901 169.287 66.1512C169.249 66.1122 169.229 66.0599 169.23 66.0058C169.23 65.9517 169.253 65.9001 169.292 65.8625Z" fill="#263238"/>
<path d="M186.541 36.8749C186.541 36.8749 186.541 36.8141 186.612 36.8749C188.759 40.8655 191.038 48.0162 196.801 47.4895C196.826 47.497 196.848 47.5123 196.864 47.5333C196.88 47.5543 196.888 47.5798 196.888 47.606C196.888 47.6321 196.88 47.6576 196.864 47.6786C196.848 47.6996 196.826 47.715 196.801 47.7224C191.342 48.6948 187.24 41.4529 186.541 36.8749Z" fill="#263238"/>
<path d="M194.736 52.2093C194.27 52.2093 193.844 52.2093 193.388 52.2093C192.912 52.279 192.425 52.1938 192.001 51.9663C191.885 51.8661 191.804 51.7311 191.771 51.5814C191.739 51.4316 191.755 51.2753 191.819 51.1357C191.989 50.8808 192.224 50.676 192.5 50.5424C192.776 50.4089 193.083 50.3515 193.388 50.3761C194.018 50.3281 194.642 50.5158 195.141 50.9028C195.249 50.9983 195.328 51.1232 195.367 51.2624C195.406 51.4016 195.404 51.5492 195.361 51.6873C195.318 51.8254 195.237 51.9481 195.126 52.0408C195.015 52.1334 194.879 52.1919 194.736 52.2093Z" fill="#263238"/>
<path d="M181.659 55.1466C182.08 54.9817 182.493 54.7957 182.895 54.5895C183.351 54.449 183.749 54.1648 184.03 53.7793C184.096 53.6404 184.115 53.4831 184.082 53.3325C184.049 53.1819 183.966 53.0468 183.847 52.9487C183.584 52.7917 183.283 52.7089 182.976 52.7089C182.67 52.7089 182.369 52.7917 182.105 52.9487C181.516 53.1689 181.031 53.6028 180.748 54.1641C180.695 54.2945 180.68 54.4373 180.705 54.5758C180.731 54.7142 180.795 54.8426 180.891 54.9457C180.986 55.0489 181.11 55.1226 181.246 55.1582C181.382 55.1938 181.525 55.1898 181.659 55.1466Z" fill="#263238"/>
<path d="M185.731 59.1474C185.731 59.1474 185.639 59.2385 185.66 59.2892C186.014 60.5653 186.217 62.0947 185.153 62.8139C185.153 62.8139 185.153 62.905 185.153 62.8848C186.561 62.3378 186.278 60.3121 185.731 59.1474Z" fill="#263238"/>
<path d="M184.242 58.0839C182.125 58.4485 182.996 62.6518 184.961 62.3176C186.926 61.9833 186.015 57.7901 184.242 58.0839Z" fill="#263238"/>
<path d="M183.463 58.4789C183.149 58.7929 182.875 59.2891 182.45 59.4208C182.025 59.5525 181.437 59.2182 181.042 58.8637C181.042 58.8637 180.971 58.8637 180.981 58.9346C181.144 59.7348 181.62 60.5046 182.511 60.4438C183.402 60.383 183.736 59.5626 183.767 58.7017C183.767 58.5498 183.595 58.3573 183.463 58.4789Z" fill="#263238"/>
<path d="M192.901 57.3242C192.901 57.3242 193.013 57.3242 193.023 57.4154C193.236 58.7321 193.712 60.2007 194.978 60.3932C194.978 60.3932 195.028 60.4742 194.978 60.4742C193.499 60.5552 192.891 58.6004 192.901 57.3242Z" fill="#263238"/>
<path d="M193.794 55.734C195.82 55.1567 196.833 59.3296 194.949 59.8664C193.065 60.4032 192.062 56.2607 193.794 55.734Z" fill="#263238"/>
<path d="M194.736 55.7948C195.111 55.9366 195.536 56.2607 195.941 56.1898C196.346 56.1189 196.63 55.5821 196.822 55.0757C196.822 55.0757 196.883 55.0757 196.893 55.0757C197.106 55.8759 197.045 56.7672 196.316 57.1014C195.587 57.4356 194.969 56.8482 194.584 56.0886C194.513 55.9873 194.574 55.7442 194.736 55.7948Z" fill="#263238"/>
<path d="M188.202 69.691C188.567 69.9442 188.942 70.319 189.428 70.2886C189.913 70.1952 190.374 70.0058 190.785 69.7315C190.785 69.7315 190.876 69.7315 190.856 69.7923C190.714 70.0862 190.495 70.3358 190.222 70.5142C189.949 70.6927 189.632 70.7933 189.306 70.8052C189.025 70.7768 188.758 70.6654 188.54 70.4851C188.321 70.3047 188.162 70.0636 188.081 69.7923C188.05 69.7012 188.131 69.6505 188.202 69.691Z" fill="#263238"/>
<path d="M192.76 66.4702C192.419 67.3363 191.861 68.1001 191.14 68.6883C190.735 68.9924 190.247 69.1656 189.742 69.1846C188.628 69.1846 188.334 68.2629 188.293 67.402C188.273 66.9434 188.311 66.484 188.405 66.0347C189.774 66.6355 191.299 66.788 192.76 66.4702Z" fill="#263238"/>
<path d="M191.169 68.6883C190.765 68.9924 190.277 69.1655 189.772 69.1846C188.657 69.1846 188.364 68.2629 188.323 67.402C188.873 67.2655 189.453 67.3182 189.969 67.5516C190.486 67.7849 190.908 68.1853 191.169 68.6883Z" fill="#FF9CBD"/>
<path d="M192.609 63.8064C192.609 63.8064 193.297 65.6903 193.5 66.6019C193.5 66.6829 193.308 66.774 192.994 66.8652C192.238 67.1803 191.411 67.2817 190.602 67.1585C189.793 67.0352 189.033 66.692 188.405 66.1663C188.39 66.1494 188.381 66.1279 188.38 66.1053C188.379 66.0828 188.385 66.0603 188.398 66.0417C188.411 66.023 188.429 66.0092 188.451 66.0024C188.472 65.9957 188.496 65.9963 188.517 66.0043C189.858 66.5483 191.34 66.6442 192.74 66.2777C192.74 66.0043 191.444 63.0873 191.586 63.0468C192.312 62.946 193.048 62.946 193.774 63.0468C192.437 59.0865 190.482 55.3694 189.216 51.3991C189.208 51.3696 189.211 51.3384 189.224 51.3108C189.237 51.2832 189.259 51.261 189.287 51.2479C189.314 51.2347 189.345 51.2315 189.375 51.2388C189.404 51.246 189.43 51.2633 189.449 51.2876C191.664 55.2091 193.482 59.3417 194.878 63.6241C195.04 64.1508 193.004 63.8773 192.609 63.8064Z" fill="#263238"/>
<path d="M170.691 65.2547C170.691 65.2547 165.495 59.8664 162.993 61.8212C160.491 63.776 165.019 72.0408 168.472 72.7295C168.904 72.8473 169.355 72.8767 169.799 72.8158C170.242 72.7549 170.669 72.605 171.053 72.3751C171.437 72.1452 171.771 71.8401 172.034 71.4781C172.297 71.1161 172.484 70.7046 172.585 70.2683L170.691 65.2547Z" fill="#EB9481"/>
<path d="M164.36 64.1609C164.31 64.1609 164.31 64.2318 164.36 64.242C166.761 64.799 168.28 66.7133 169.424 68.7592C169.258 68.5537 169.048 68.3868 168.81 68.27C168.573 68.1531 168.313 68.0891 168.048 68.0824C167.783 68.0757 167.52 68.1263 167.277 68.2309C167.034 68.3355 166.816 68.4916 166.639 68.6883C166.578 68.6883 166.639 68.8301 166.72 68.7998C167.097 68.6085 167.524 68.5399 167.942 68.6034C168.36 68.667 168.747 68.8596 169.05 69.1543C169.555 69.6484 170.007 70.195 170.397 70.7849C170.528 70.9672 170.883 70.7849 170.772 70.5824C170.377 67.635 167.5 63.9584 164.36 64.1609Z" fill="#263238"/>
<path d="M102.345 233.103H101.129V232.344H102.334H105.17V233.103H102.345ZM96.0548 232.992C94.6773 232.941 93.3302 232.87 92.0034 232.789V232.03C93.3302 232.111 94.6773 232.182 96.0548 232.232V232.992ZM110.235 232.931V232.172C111.561 232.121 112.909 232.05 114.286 231.959L114.337 232.719C112.949 232.81 111.592 232.881 110.265 232.931H110.235ZM86.9392 232.374C85.5617 232.243 84.2045 232.091 82.8878 231.918L82.9891 231.159C84.2855 231.331 85.6326 231.483 87.0405 231.625L86.9392 232.374ZM119.35 232.374L119.289 231.615C120.616 231.503 121.963 231.371 123.341 231.23L123.422 231.979C122.055 232.101 120.707 232.222 119.37 232.344L119.35 232.374ZM128.466 231.361L128.365 230.602L132.416 230.055L132.527 230.804C131.119 231.017 129.783 231.199 128.456 231.371L128.466 231.361ZM77.8945 231.139C76.5373 230.906 75.1902 230.642 73.9039 230.369L74.0558 229.629C75.3421 229.903 76.6791 230.156 78.016 230.399L77.8945 231.139ZM137.49 230.045L137.369 229.295L141.359 228.596L141.491 229.346L137.49 230.045ZM68.9612 229.174C67.6141 228.809 66.3075 228.414 65.0617 227.999L65.2947 227.28C66.5304 227.695 67.8369 228.08 69.1536 228.444L68.9612 229.174ZM146.474 228.394L146.322 227.644C147.629 227.381 148.956 227.107 150.283 226.814L150.445 227.563C149.097 227.847 147.781 228.13 146.464 228.444L146.474 228.394ZM155.387 226.439L155.215 225.7C156.522 225.396 157.828 225.072 159.145 224.747L159.327 225.487C158 225.811 156.734 226.135 155.377 226.419L155.387 226.439ZM60.2912 226.226C58.9948 225.679 57.749 225.102 56.5943 224.494L56.9387 223.826C58.0832 224.413 59.3088 224.98 60.585 225.517L60.2912 226.226ZM164.24 224.201L164.047 223.461C165.333 223.117 166.64 222.762 167.947 222.388L168.149 223.117C166.863 223.502 165.526 223.856 164.229 224.211L164.24 224.201ZM52.1986 221.871C51.0692 221.105 49.9992 220.256 48.998 219.329L49.5146 218.772C50.4926 219.68 51.5352 220.516 52.6341 221.273L52.1986 221.871ZM173.011 221.709L172.788 220.99C174.074 220.605 175.361 220.2 176.657 219.795L176.89 220.524L173.011 221.709ZM181.711 218.964L181.468 218.245C182.744 217.83 184.02 217.394 185.307 216.949L185.55 217.668C184.263 218.113 182.987 218.549 181.711 218.964ZM190.33 215.986L190.077 215.267L193.875 213.869L194.139 214.589C192.873 215.065 191.596 215.531 190.33 215.986ZM45.7063 215.358C44.9625 214.186 44.4055 212.904 44.0553 211.56L44.7846 211.368C45.1205 212.636 45.6427 213.848 46.3342 214.963L45.7063 215.358ZM198.879 212.776L198.605 212.067L202.363 210.578L202.647 211.287L198.879 212.776ZM207.336 209.352L207.042 208.653L210.77 207.073L211.073 207.772L207.336 209.352ZM44.5415 206.496L43.792 206.395C43.9816 205.038 44.3213 203.706 44.8048 202.424L45.5138 202.688C45.0498 203.917 44.7237 205.194 44.5415 206.496ZM215.712 205.736L215.398 205.037L216.067 204.734C217.08 204.288 218.092 203.822 219.105 203.356L219.429 204.045L216.391 205.432L215.712 205.736ZM223.977 201.847L223.633 201.158C224.848 200.564 226.053 199.956 227.249 199.335L227.603 200.004C226.398 200.632 225.182 201.239 223.977 201.847ZM47.7421 198.211L47.0939 197.826C47.7929 196.655 48.5536 195.523 49.3728 194.433L49.9805 194.889C49.1714 195.957 48.4175 197.066 47.7218 198.211H47.7421ZM232.08 197.623L231.715 196.955C232.9 196.317 234.085 195.659 235.26 195L235.625 195.659C234.46 196.327 233.275 196.985 232.09 197.623H232.08ZM240.021 193.116L239.636 192.468C240.8 191.779 241.955 191.091 243.11 190.382L243.505 191.03C242.36 191.739 241.195 192.428 240.031 193.116H240.021ZM53.1709 190.969L52.6037 190.463C53.4647 189.5 54.4066 188.498 55.3992 187.505L55.9461 188.042C54.9535 189.055 54.0217 190.047 53.1709 190.969ZM247.809 188.326L247.404 187.687L250.807 185.5L251.223 186.128L247.809 188.326ZM59.6025 184.598L59.0961 184.031C60.1089 183.15 61.1218 182.248 62.1346 181.357L62.6208 181.935C61.6079 182.866 60.5748 183.717 59.6025 184.598ZM255.436 183.352L255.011 182.725C256.125 181.975 257.229 181.215 258.333 180.446L258.768 181.063C257.664 181.853 256.55 182.603 255.436 183.352ZM66.5911 178.754L66.1252 178.157C67.1381 177.326 68.2623 176.506 69.3562 175.685L69.812 176.293C68.7114 177.103 67.6377 177.924 66.5911 178.754ZM262.921 178.136L262.475 177.519C263.569 176.728 264.663 175.938 265.747 175.138L266.203 175.746L262.921 178.136ZM73.8937 173.325L73.4582 172.707C74.5656 171.924 75.6797 171.154 76.8006 170.398L77.226 171.026C76.1119 171.786 74.9977 172.545 73.8937 173.325ZM270.254 172.738L269.788 172.14C270.872 171.32 271.935 170.499 272.999 169.669L273.465 170.267C272.401 171.067 271.328 171.887 270.254 172.738ZM81.4496 168.261L81.0444 167.623C82.1788 166.884 83.3233 166.154 84.478 165.445L84.8831 166.083C83.7285 166.772 82.5941 167.491 81.4496 168.231V168.261ZM277.455 167.127L276.979 166.539L280.129 163.997L280.605 164.584L277.455 167.127ZM89.1978 163.44L88.8129 162.792C89.9811 162.117 91.1459 161.441 92.3073 160.766L92.6921 161.424C91.5274 162.022 90.3626 162.711 89.1978 163.41V163.44ZM284.515 161.353L284.029 160.766C285.042 159.895 286.105 159.024 287.118 158.153L287.614 158.73L284.515 161.353ZM97.1385 158.872L96.7638 158.214C97.9589 157.545 99.1541 156.897 100.329 156.259L100.683 156.927C99.4782 157.545 98.2932 158.183 97.098 158.842L97.1385 158.872ZM291.443 155.378L290.936 154.811C291.949 153.919 292.962 153.018 293.975 152.126L294.481 152.694C293.468 153.585 292.456 154.507 291.443 155.378ZM105.079 154.507L104.735 153.838L108.351 151.985L108.695 152.663C107.551 153.271 106.345 153.879 105.079 154.507ZM113.243 150.455L112.919 149.777C114.195 149.169 115.42 148.592 116.605 148.055L116.919 148.744C115.785 149.27 114.549 149.848 113.283 150.455H113.243ZM298.219 149.311L297.702 148.744C298.715 147.832 299.728 146.91 300.69 145.999L301.207 146.556L298.219 149.311ZM121.599 146.708L121.305 145.999C122.47 145.513 123.554 145.077 124.556 144.702L124.82 145.411C123.837 145.786 122.753 146.222 121.599 146.708ZM304.924 143.072L304.397 142.525L307.324 139.719L307.851 140.266L304.924 143.072ZM311.477 136.721L310.94 136.184C311.953 135.222 312.874 134.27 313.816 133.318L314.353 133.855C313.432 134.807 312.469 135.759 311.497 136.721H311.477ZM317.918 130.249L317.372 129.712C318.334 128.699 319.266 127.768 320.187 126.805L320.734 127.332L317.918 130.249ZM324.228 123.655L323.682 123.129L326.447 120.171L327.004 120.688L324.228 123.655ZM330.427 116.94L329.87 116.434C330.802 115.421 331.703 114.408 332.574 113.395L333.142 113.902C332.291 114.904 331.379 115.907 330.447 116.94H330.427ZM336.504 110.114L335.937 109.617C336.859 108.554 337.75 107.531 338.591 106.579L339.168 107.065C338.327 108.027 337.446 109.05 336.514 110.114H336.504ZM342.45 103.166L341.862 102.679C342.804 101.555 343.665 100.512 344.455 99.5497L345.042 100.026C344.263 100.988 343.402 102.041 342.46 103.166H342.45ZM348.233 96.0757L347.635 95.5996C349.276 93.5739 350.137 92.3889 350.137 92.3889L350.745 92.8447C350.745 92.8447 349.894 93.9892 348.243 96.0757H348.233Z" fill="#263238"/>
<path d="M352.558 70.7951L349.651 94.0702L363.142 77.4798L420.713 40.3186L352.558 70.7951Z" fill="#26A37E"/>
<path opacity="0.4" d="M352.558 70.7951L349.651 94.0702L363.142 77.4798L420.713 40.3186L352.558 70.7951Z" fill="white"/>
<path d="M366.394 82.0072L349.651 94.0702L363.142 77.4798L366.394 82.0072Z" fill="#26A37E"/>
<path opacity="0.3" d="M366.394 82.0072L349.651 94.0702L363.142 77.4798L366.394 82.0072Z" fill="white"/>
<path d="M363.143 77.4798L420.713 40.3186L380.726 102.376L363.143 77.4798Z" fill="#26A37E"/>
<path opacity="0.7" d="M363.143 77.4798L420.713 40.3186L380.726 102.376L363.143 77.4798Z" fill="white"/>
<path d="M352.558 70.7951L322.598 59.9272L420.712 40.3186L352.558 70.7951Z" fill="#26A37E"/>
<path opacity="0.7" d="M352.558 70.7951L322.598 59.9272L420.712 40.3186L352.558 70.7951Z" fill="white"/>
<path d="M101.949 30.3927C101.948 35.5363 103.377 40.579 106.075 44.9578C108.774 49.3367 112.636 52.8795 117.231 55.1907C121.826 57.5019 126.973 58.4906 132.098 58.0464C137.222 57.6022 142.122 55.7427 146.251 52.6753L159.854 56.1493L154.192 43.4888C156.182 39.7674 157.298 35.6413 157.454 31.4239C157.611 27.2066 156.804 23.0092 155.094 19.1506C153.385 15.2921 150.818 11.874 147.59 9.15627C144.361 6.43851 140.555 4.49259 136.462 3.46642C132.368 2.44025 128.095 2.36085 123.966 3.23425C119.837 4.10765 115.962 5.91086 112.634 8.50682C109.307 11.1028 106.615 14.4231 104.764 18.2155C102.912 22.0079 101.95 26.1725 101.949 30.3927Z" fill="white"/>
<path d="M101.949 30.3927C102.384 53.5362 127.796 65.7511 146.342 52.3309L159.964 55.7239L159.448 56.3316L153.745 43.6913L153.654 43.4685C162.223 28.0429 153.523 8.01895 136.436 3.75488C119.268 -0.924466 101.898 12.6375 101.999 30.3927H101.949ZM101.949 30.3927C102.02 6.76302 129.579 -6.171 147.83 8.86974C157.908 17.0333 160.997 32.3677 154.627 43.7217V43.2862L160.248 55.967L160.623 56.8178L159.742 56.5849L146.159 53.0298C128.769 66.1968 102.09 53.8198 101.938 30.3927H101.949Z" fill="#263238"/>
<path d="M125.274 47.4186L112.826 34.8188L117.009 30.6966L124.271 38.0498L139.373 14.3796L144.326 17.5397L125.274 47.4186Z" fill="#26A37E"/>
</svg>
