<svg width="592" height="441" viewBox="0 0 592 441" fill="none" xmlns="http://www.w3.org/2000/svg">
<path d="M591.446 386.757H0.9375V387.052H591.446V386.757Z" fill="#E0E0E0"/>
<path d="M143.735 400.327H128.146V400.622H143.735V400.327Z" fill="#E0E0E0"/>
<path d="M119.488 400.469H95.8438V400.764H119.488V400.469Z" fill="#E0E0E0"/>
<path d="M259.569 398.485H198.168V398.78H259.569V398.485Z" fill="#E0E0E0"/>
<path d="M283.2 395.296H250.25V395.591H283.2V395.296Z" fill="#E0E0E0"/>
<path d="M473.853 404.638H396.969V404.933H473.853V404.638Z" fill="#E0E0E0"/>
<path d="M390.414 404.638H371.494V404.933H390.414V404.638Z" fill="#E0E0E0"/>
<path d="M495.394 397.504H461.581V397.8H495.394V397.504Z" fill="#E0E0E0"/>
<path d="M280.839 334.084H52.7963C51.0098 334.08 49.2976 333.369 48.0354 332.104C46.7733 330.84 46.0645 329.126 46.0645 327.34V6.77636C46.08 5.00014 46.7957 3.30178 48.0562 2.05018C49.3166 0.798587 51.02 0.0948396 52.7963 0.0917969H280.839C282.628 0.0917969 284.343 0.802283 285.607 2.06696C286.872 3.33163 287.583 5.04689 287.583 6.83541V327.34C287.583 329.129 286.872 330.844 285.607 332.108C284.343 333.373 282.628 334.084 280.839 334.084ZM52.7963 0.328001C51.0881 0.33113 49.451 1.01189 48.2442 2.22085C47.0375 3.42981 46.3597 5.06819 46.3597 6.77636V327.34C46.3597 329.048 47.0375 330.687 48.2442 331.896C49.451 333.104 51.0881 333.785 52.7963 333.788H280.839C282.548 333.785 284.187 333.105 285.395 331.896C286.604 330.688 287.284 329.049 287.287 327.34V6.77636C287.284 5.06711 286.604 3.42875 285.395 2.22013C284.187 1.0115 282.548 0.331123 280.839 0.328001H52.7963Z" fill="#E0E0E0"/>
<path d="M536.304 334.084H308.249C306.462 334.08 304.748 333.369 303.484 332.105C302.22 330.841 301.509 329.128 301.506 327.34V6.77636C301.525 4.99906 302.243 3.30071 303.505 2.04944C304.767 0.798174 306.472 0.0948065 308.249 0.0917969H536.304C538.078 0.0979435 539.779 0.803064 541.036 2.05433C542.294 3.30559 543.008 5.00218 543.024 6.77636V327.34C543.024 329.124 542.317 330.836 541.057 332.1C539.798 333.364 538.088 334.077 536.304 334.084ZM308.249 0.328001C306.54 0.331123 304.902 1.0115 303.693 2.22013C302.485 3.42875 301.804 5.06711 301.801 6.77636V327.34C301.804 329.049 302.485 330.688 303.693 331.896C304.902 333.105 306.54 333.785 308.249 333.788H536.304C538.013 333.785 539.652 333.105 540.86 331.896C542.069 330.688 542.749 329.049 542.752 327.34V6.77636C542.749 5.06711 542.069 3.42875 540.86 2.22013C539.652 1.0115 538.013 0.331123 536.304 0.328001H308.249Z" fill="#E0E0E0"/>
<path d="M75.1763 386.757H107.654L107.654 262.679H75.1763L75.1763 386.757Z" fill="#E0E0E0"/>
<path d="M81.3524 386.757H75.1875V369.207H87.8244L81.3524 386.757Z" fill="#EBEBEB"/>
<path d="M260.513 386.757H292.991V262.679H260.513V386.757Z" fill="#E0E0E0"/>
<path d="M75.176 375.986H265.887V262.679H75.176V375.986Z" fill="#EBEBEB"/>
<path d="M203.021 268.419V354.043H259.557V268.419H203.021Z" fill="#E0E0E0"/>
<path d="M225.697 273.332H236.881C239.285 273.333 241.664 272.844 243.873 271.896C246.082 270.948 248.075 269.56 249.731 267.817H212.848C214.503 269.56 216.496 270.948 218.705 271.896C220.914 272.844 223.293 273.333 225.697 273.332Z" fill="#EBEBEB"/>
<path d="M142.271 268.419V354.043H198.806V268.419H142.271Z" fill="#E0E0E0"/>
<path d="M164.379 273.332H175.563C177.965 273.331 180.342 272.842 182.549 271.894C184.755 270.945 186.747 269.558 188.401 267.817H151.529C153.185 269.56 155.178 270.948 157.387 271.896C159.596 272.844 161.975 273.333 164.379 273.332Z" fill="#EBEBEB"/>
<path d="M81.5186 268.431V354.055H138.054V268.431H81.5186Z" fill="#E0E0E0"/>
<path d="M103.686 273.332H114.87C117.274 273.333 119.653 272.844 121.862 271.896C124.071 270.948 126.064 269.56 127.72 267.817H90.7773C92.4397 269.567 94.4422 270.959 96.662 271.907C98.8818 272.856 101.272 273.341 103.686 273.332Z" fill="#EBEBEB"/>
<path d="M259.734 386.757H265.899V369.207H253.262L259.734 386.757Z" fill="#EBEBEB"/>
<path d="M336.772 190.106L515.696 190.106V22.5193L336.772 22.5193V190.106Z" fill="#E0E0E0"/>
<path d="M330.347 190.106L512.696 190.106V22.5193L330.347 22.5193V190.106Z" fill="#EBEBEB"/>
<path d="M336.772 202.034L515.696 202.034V190.094L336.772 190.094V202.034Z" fill="#E0E0E0"/>
<path d="M319.647 202.034L501.996 202.034V190.094L319.647 190.094V202.034Z" fill="#EBEBEB"/>
<path d="M503.709 181.106V31.5187L339.347 31.5187V181.106H503.709Z" fill="#F5F5F5"/>
<path d="M486.489 181.106L433.686 31.5187H408.767L461.57 181.106H486.489Z" fill="#FAFAFA"/>
<path d="M499.539 130.358C499.367 130.358 499.202 130.29 499.08 130.168C498.958 130.046 498.89 129.881 498.89 129.709V37.3647C498.893 37.1945 498.963 37.0323 499.084 36.913C499.206 36.7938 499.369 36.7269 499.539 36.727C499.708 36.727 499.871 36.7942 499.99 36.9138C500.11 37.0334 500.177 37.1956 500.177 37.3647V129.709C500.177 129.879 500.11 130.042 499.991 130.164C499.872 130.285 499.709 130.355 499.539 130.358Z" fill="#EBEBEB"/>
<path d="M456.208 181.106L403.404 31.5187H393.696L446.488 181.106H456.208Z" fill="#FAFAFA"/>
<path d="M340.48 181.106V31.5187H339.335V181.106H340.48Z" fill="#E0E0E0"/>
<path d="M328.221 43.0218H507.145L507.972 35.0145H329.047L328.221 43.0218Z" fill="#E0E0E0"/>
<path d="M328.221 48.8915H507.145L507.972 40.8723H329.047L328.221 48.8915Z" fill="#E0E0E0"/>
<path d="M328.221 55.9303H507.145L507.972 47.9112H329.047L328.221 55.9303Z" fill="#E0E0E0"/>
<path d="M328.221 63.7605H507.145L507.972 55.7532H329.047L328.221 63.7605Z" fill="#E0E0E0"/>
<path d="M328.221 73.1496H507.145L507.972 65.1304H329.047L328.221 73.1496Z" fill="#E0E0E0"/>
<path d="M328.221 83.6961H507.145L507.972 75.6888H329.047L328.221 83.6961Z" fill="#E0E0E0"/>
<path d="M326.308 386.757H379.265V275.505H326.308V386.757Z" fill="#E0E0E0"/>
<path d="M331.623 386.757H326.309V371.605H337.209L331.623 386.757Z" fill="#EBEBEB"/>
<path d="M456.574 386.757H509.531V275.505H456.574V386.757Z" fill="#E0E0E0"/>
<path d="M326.308 377.462H461.216V275.505H326.308V377.462Z" fill="#EBEBEB"/>
<path d="M330.43 307.983H457.082V280.017H330.43V307.983Z" fill="#E0E0E0"/>
<path d="M387.78 288.709H399.744C404.94 288.709 409.901 285.26 413.479 279.166H374.033C377.612 285.26 382.584 288.709 387.78 288.709Z" fill="#EBEBEB"/>
<path d="M455.889 386.757H461.215V371.605H450.303L455.889 386.757Z" fill="#EBEBEB"/>
<path d="M330.43 340.461H457.082V312.495H330.43V340.461Z" fill="#E0E0E0"/>
<path d="M387.78 321.187H399.744C404.94 321.187 409.901 317.738 413.479 311.644H374.033C377.612 317.786 382.584 321.187 387.78 321.187Z" fill="#EBEBEB"/>
<path d="M330.43 372.939H457.082V344.973H330.43V372.939Z" fill="#E0E0E0"/>
<path d="M387.78 353.665H399.744C404.94 353.665 409.901 350.216 413.479 344.122H374.033C377.612 350.216 382.584 353.665 387.78 353.665Z" fill="#EBEBEB"/>
<path d="M112.945 183.031H215.765L215.765 45.5137H112.945L112.945 183.031Z" fill="#E0E0E0"/>
<path d="M105.8 183.031H213.863L213.863 45.5137H105.8L105.8 183.031Z" fill="#EBEBEB"/>
<path d="M204.816 173.985V54.5721L114.858 54.5721L114.858 173.985H204.816Z" fill="#FAFAFA"/>
<path d="M161.296 137.09H137.935C137.704 137.09 137.481 136.998 137.317 136.834C137.154 136.67 137.062 136.448 137.062 136.216V112.82C137.08 107.188 139.326 101.791 143.309 97.8087C147.291 93.826 152.688 91.5803 158.32 91.5616H181.669C181.783 91.5616 181.897 91.5842 182.003 91.6282C182.109 91.6721 182.205 91.7365 182.287 91.8176C182.368 91.8988 182.432 91.9951 182.476 92.1011C182.52 92.2072 182.543 92.3208 182.543 92.4356V115.784C182.536 121.423 180.298 126.829 176.316 130.822C172.335 134.814 166.934 137.068 161.296 137.09ZM138.857 135.354H161.296C166.483 135.348 171.456 133.283 175.123 129.614C178.789 125.945 180.851 120.971 180.854 115.784V93.345H158.414C153.228 93.3512 148.256 95.4134 144.588 99.0795C140.919 102.746 138.854 107.716 138.845 112.903L138.857 135.354Z" fill="#EBEBEB"/>
<path d="M253.676 207.561H165.229L152.403 259.798H240.85L253.676 207.561Z" fill="#E0E0E0"/>
<path d="M240.85 259.798L240.495 262.679H152.049L152.403 259.798H240.85Z" fill="#E0E0E0"/>
<path d="M250.947 207.561H162.501L149.687 259.798H238.133L250.947 207.561Z" fill="#F0F0F0"/>
<path d="M236.255 257.412L247.912 209.947H164.378L152.722 257.412H236.255Z" fill="#FAFAFA"/>
<path d="M215.08 259.798L214.726 262.679H117.327L117.693 259.798H215.08Z" fill="#F0F0F0"/>
<path d="M451.992 266.34H450.587C450.587 263.435 450.587 256.066 450.445 239.177C450.185 208.565 449.701 206.699 449.701 206.699L453.055 220.871C455.193 236.484 452.441 252.204 451.992 266.34Z" fill="#E0E0E0"/>
<path d="M458.251 215.604C465.644 208.293 480.064 207.337 494.803 206.711C500.59 206.463 478.647 217.576 467.64 225.902C459.101 232.363 453.881 233.886 451.047 240.866C450.775 231.807 451.885 221.899 458.251 215.604Z" fill="#E0E0E0"/>
<path d="M450.125 199.684C445.118 190.177 432.516 181.213 418.379 177.811C412.829 176.477 431.241 195.385 438.232 207.573C443.677 217.021 450.881 228.17 452.003 236.165C453.692 220.352 455.133 209.226 450.125 199.684Z" fill="#E0E0E0"/>
<path d="M450.775 275.493C453.146 275.494 455.427 274.588 457.151 272.961C458.875 271.334 459.911 269.109 460.046 266.742L460.861 258.345H440.678L441.504 266.742C441.64 269.109 442.676 271.334 444.4 272.961C446.124 274.588 448.405 275.494 450.775 275.493Z" fill="#EBEBEB"/>
<path d="M439.378 261.581H462.172L462.821 252.227H438.717L439.378 261.581Z" fill="#EBEBEB"/>
<path d="M296.193 440.092C422.659 440.092 525.18 434.106 525.18 426.723C525.18 419.339 422.659 413.354 296.193 413.354C169.726 413.354 67.2051 419.339 67.2051 426.723C67.2051 434.106 169.726 440.092 296.193 440.092Z" fill="#F5F5F5"/>
<path d="M171.123 174.115H114.398V426.51H171.123V174.115Z" fill="#26A37E"/>
<path opacity="0.7" d="M171.123 174.115H114.398V426.51H171.123V174.115Z" fill="#FAFAFA"/>
<path d="M257.903 90.6877H201.179V426.498H257.903V90.6877Z" fill="#26A37E"/>
<path opacity="0.1" d="M257.903 90.6877H201.179V426.498H257.903V90.6877Z" fill="black"/>
<path d="M344.696 174.115H287.972V426.51H344.696V174.115Z" fill="#26A37E"/>
<path opacity="0.4" d="M344.696 174.115H287.972V426.51H344.696V174.115Z" fill="black"/>
<path d="M150.998 174.115H94.2734V426.51H150.998V174.115Z" fill="#26A37E"/>
<path opacity="0.8" d="M150.998 174.115H94.2734V426.51H150.998V174.115Z" fill="#FAFAFA"/>
<path d="M237.791 90.6877H181.066V426.498H237.791V90.6877Z" fill="#26A37E"/>
<path opacity="0.2" d="M237.791 90.6877H181.066V426.498H237.791V90.6877Z" fill="#FAFAFA"/>
<path d="M324.572 174.115H267.848V426.51H324.572V174.115Z" fill="#26A37E"/>
<path opacity="0.2" d="M324.572 174.115H267.848V426.51H324.572V174.115Z" fill="black"/>
<path d="M536.741 310.699H535.56C535.531 288.928 529.535 267.581 518.223 248.979L519.239 248.365C530.657 267.154 536.711 288.713 536.741 310.699ZM511.657 239.319C508.324 234.911 504.686 230.744 500.768 226.847L501.606 226.021C505.567 229.966 509.242 234.189 512.601 238.657L511.657 239.319Z" fill="#26A37E"/>
<path opacity="0.3" d="M536.741 310.699H535.56C535.531 288.928 529.535 267.581 518.223 248.979L519.239 248.365C530.657 267.154 536.711 288.713 536.741 310.699ZM511.657 239.319C508.324 234.911 504.686 230.744 500.768 226.847L501.606 226.021C505.567 229.966 509.242 234.189 512.601 238.657L511.657 239.319Z" fill="black"/>
<path d="M498.689 228.879C476.976 207.173 447.535 194.974 416.833 194.96H400.121V196.2C385.632 198.314 371.674 203.155 358.987 210.467C303.975 242.2 284.83 313.593 316.564 368.569C325.304 383.717 337.363 396.688 351.835 406.506C366.307 416.325 382.816 422.736 400.121 425.258V426.439H416.856C439.757 426.45 462.146 419.667 481.19 406.949C500.235 394.231 515.078 376.148 523.842 354.991C532.605 333.834 534.895 310.552 530.422 288.092C525.949 265.633 514.914 245.005 498.713 228.82L498.689 228.879ZM416.833 396.3C399.908 396.302 383.362 391.286 369.288 381.885C355.214 372.484 344.244 359.121 337.764 343.486C331.285 327.85 329.587 310.644 332.886 294.044C336.184 277.444 344.331 262.194 356.297 250.224C368.262 238.254 383.508 230.1 400.107 226.795C416.706 223.489 433.912 225.18 449.551 231.653C465.189 238.126 478.556 249.091 487.963 263.161C497.37 277.231 502.393 293.775 502.397 310.7C502.427 321.946 500.234 333.088 495.945 343.484C491.656 353.881 485.355 363.327 477.404 371.281C469.453 379.236 460.009 385.54 449.615 389.834C439.22 394.127 428.079 396.325 416.833 396.3Z" fill="#26A37E"/>
<path opacity="0.3" d="M498.689 228.879C476.976 207.173 447.535 194.974 416.833 194.96H400.121V196.2C385.632 198.314 371.674 203.155 358.987 210.467C303.975 242.2 284.83 313.593 316.564 368.569C325.304 383.717 337.363 396.688 351.835 406.506C366.307 416.325 382.816 422.736 400.121 425.258V426.439H416.856C439.757 426.45 462.146 419.667 481.19 406.949C500.235 394.231 515.078 376.148 523.842 354.991C532.605 333.834 534.895 310.552 530.422 288.092C525.949 265.633 514.914 245.005 498.713 228.82L498.689 228.879ZM416.833 396.3C399.908 396.302 383.362 391.286 369.288 381.885C355.214 372.484 344.244 359.121 337.764 343.486C331.285 327.85 329.587 310.644 332.886 294.044C336.184 277.444 344.331 262.194 356.297 250.224C368.262 238.254 383.508 230.1 400.107 226.795C416.706 223.489 433.912 225.18 449.551 231.653C465.189 238.126 478.556 249.091 487.963 263.161C497.37 277.231 502.393 293.775 502.397 310.7C502.427 321.946 500.234 333.088 495.945 343.484C491.656 353.881 485.355 363.327 477.404 371.281C469.453 379.236 460.009 385.54 449.615 389.834C439.22 394.127 428.079 396.325 416.833 396.3Z" fill="black"/>
<path d="M485.663 310.699H515.862C515.884 336.196 507.487 360.987 491.973 381.222C476.46 401.456 454.699 416.002 430.07 422.599C405.442 429.196 379.324 427.477 355.773 417.707C332.222 407.937 312.556 390.663 299.83 368.569L326.001 353.464C335.414 369.782 349.948 382.537 367.35 389.751C384.752 396.964 404.049 398.232 422.245 393.359C440.441 388.485 456.521 377.741 467.987 362.796C479.454 347.85 485.667 329.537 485.663 310.699Z" fill="#26A37E"/>
<path opacity="0.2" d="M485.663 310.699H515.862C515.884 336.196 507.487 360.987 491.973 381.222C476.46 401.456 454.699 416.002 430.07 422.599C405.442 429.196 379.324 427.477 355.773 417.707C332.222 407.937 312.556 390.663 299.83 368.569L326.001 353.464C335.414 369.782 349.948 382.537 367.35 389.751C384.752 396.964 404.049 398.232 422.245 393.359C440.441 388.485 456.521 377.741 467.987 362.796C479.454 347.85 485.667 329.537 485.663 310.699Z" fill="#FAFAFA"/>
<path d="M400.122 194.96C430.812 194.979 460.24 207.179 481.942 228.88C503.643 250.581 515.843 280.009 515.862 310.7H485.663C485.651 288.016 476.634 266.266 460.595 250.227C444.556 234.187 422.805 225.171 400.122 225.158V194.96Z" fill="#26A37E"/>
<path d="M400.121 194.96V225.158C385.102 225.154 370.346 229.104 357.337 236.611C344.329 244.119 333.526 254.919 326.016 267.926C318.505 280.933 314.552 295.689 314.554 310.708C314.555 325.728 318.512 340.482 326.024 353.488L299.829 368.569C268.096 313.569 287.228 242.2 342.228 210.443C359.835 200.296 379.8 194.957 400.121 194.96Z" fill="#26A37E"/>
<path opacity="0.8" d="M400.121 194.96V225.158C385.102 225.154 370.346 229.104 357.337 236.611C344.329 244.119 333.526 254.919 326.016 267.926C318.505 280.933 314.552 295.689 314.554 310.708C314.555 325.728 318.512 340.482 326.024 353.488L299.829 368.569C268.096 313.569 287.228 242.2 342.228 210.443C359.835 200.296 379.8 194.957 400.121 194.96Z" fill="#FAFAFA"/>
<path d="M371.742 275.777L362.459 281.209L348.464 260.553L357.747 255.121L371.742 275.777Z" fill="#B5715A"/>
<path d="M357.298 275.34L367.479 268.856C367.652 268.739 367.862 268.691 368.069 268.719C368.276 268.747 368.465 268.851 368.601 269.01L374.895 276.332C375.046 276.522 375.155 276.742 375.215 276.977C375.276 277.212 375.286 277.457 375.246 277.696C375.206 277.935 375.116 278.163 374.983 278.366C374.849 278.568 374.674 278.74 374.47 278.871C370.927 281.068 369.038 281.953 364.562 284.776C361.798 286.524 356.294 290.445 352.48 292.878C348.665 295.311 346.079 291.697 347.449 290.315C353.578 284.256 355.031 280.371 356.141 276.828C356.346 276.214 356.754 275.689 357.298 275.34Z" fill="#263238"/>
<path d="M352.632 279.887H352.361C352.144 279.849 351.94 279.759 351.765 279.626C351.59 279.492 351.45 279.318 351.357 279.119C351.293 279.008 351.259 278.882 351.259 278.753C351.259 278.624 351.293 278.498 351.357 278.387C352.066 277.1 356.813 276.651 357.356 276.604C357.394 276.599 357.432 276.606 357.464 276.626C357.496 276.645 357.521 276.675 357.534 276.71C357.556 276.739 357.568 276.774 357.568 276.81C357.568 276.846 357.556 276.882 357.534 276.911C356.305 278.044 354.144 279.887 352.632 279.887ZM356.86 277.005C355.207 277.194 352.136 277.702 351.676 278.552C351.64 278.611 351.622 278.678 351.622 278.747C351.622 278.816 351.64 278.883 351.676 278.942C351.742 279.092 351.845 279.222 351.975 279.321C352.105 279.42 352.258 279.485 352.42 279.509C353.329 279.662 354.971 278.729 356.86 277.005Z" fill="#26A37E"/>
<path d="M356.767 276.993C355.196 276.993 352.633 276.426 352.22 275.47C352.114 275.222 352.09 274.844 352.61 274.442C352.799 274.287 353.018 274.173 353.254 274.108C353.49 274.043 353.738 274.028 353.98 274.064C355.692 274.289 357.44 276.568 357.523 276.663C357.539 276.689 357.548 276.72 357.548 276.751C357.548 276.783 357.539 276.813 357.523 276.84C357.514 276.868 357.497 276.893 357.474 276.912C357.45 276.931 357.422 276.943 357.393 276.946C357.186 276.98 356.976 276.996 356.767 276.993ZM353.72 274.407C353.396 274.406 353.083 274.519 352.834 274.726C352.421 275.045 352.515 275.257 352.551 275.328C352.869 276.072 355.468 276.722 357.027 276.627C356.25 275.587 355.169 274.815 353.932 274.419L353.72 274.407Z" fill="#26A37E"/>
<path d="M397.299 115.241C397.122 116.174 396.98 116.835 396.803 117.603L396.248 119.788C395.858 121.241 395.445 122.658 395.067 124.075C394.169 126.898 393.177 129.661 392.126 132.342C391.075 135.023 389.917 137.775 388.725 140.432C388.134 141.767 387.544 143.078 386.859 144.389L386.374 145.381L386.103 145.924C385.973 146.195 385.831 146.467 385.678 146.727C385.105 147.701 384.411 148.598 383.611 149.396C382.224 150.748 380.629 151.868 378.887 152.715C377.366 153.46 375.786 154.076 374.163 154.557C371.187 155.421 368.139 156.014 365.057 156.329C359.168 156.941 353.231 156.941 347.342 156.329L347.436 150.778C350.129 150.483 352.94 150.176 355.703 149.715C358.467 149.254 361.124 148.794 363.746 148.18C366.285 147.592 368.773 146.802 371.187 145.818C373.164 145.131 374.958 144 376.43 142.511C376.621 142.288 376.777 142.037 376.891 141.767L377.493 140.22C378.013 138.932 378.497 137.633 378.981 136.334C379.973 133.748 380.871 131.126 381.78 128.527C382.69 125.929 383.516 123.296 384.272 120.674C384.674 119.363 385.052 118.064 385.453 116.765L385.961 114.816L386.398 113.021L397.299 115.241Z" fill="#B5715A"/>
<path d="M389.8 101.435C385.371 102.616 382.265 120.792 382.265 120.792L394.476 129.059C394.476 129.059 406.18 110.67 402.743 105.805C399.224 100.762 396.26 99.7933 389.8 101.435Z" fill="#26A37E"/>
<path opacity="0.6" d="M389.8 101.435C385.371 102.616 382.265 120.792 382.265 120.792L394.476 129.059C394.476 129.059 406.18 110.67 402.743 105.805C399.224 100.762 396.26 99.7933 389.8 101.435Z" fill="#FAFAFA"/>
<path d="M389.397 108.06L398.846 110.257L399.755 119.528C398.147 122.805 396.373 125.998 394.44 129.094L387.13 124.099C387.39 119.8 388.193 110.942 389.397 108.06Z" fill="#26A37E"/>
<path opacity="0.3" d="M389.397 108.06L398.846 110.257L399.755 119.528C398.147 122.805 396.373 125.998 394.44 129.094L387.13 124.099C387.39 119.8 388.193 110.942 389.397 108.06Z" fill="#FAFAFA"/>
<path d="M348.995 150.766L341.378 142.995L340.374 153.884C340.374 153.884 346.09 157.746 350.047 155.667L348.995 150.766Z" fill="#B5715A"/>
<path d="M332.414 141.885L332.06 151.05L340.374 153.931L341.366 143.042L332.414 141.885Z" fill="#B5715A"/>
<path d="M330.076 278.718L322.446 271.147L337.504 251.034L345.134 258.593L330.076 278.718Z" fill="#B5715A"/>
<path d="M326.721 265.821L337.728 270.805C337.92 270.884 338.075 271.032 338.163 271.22C338.25 271.409 338.264 271.623 338.201 271.82L335.52 281.091C335.444 281.322 335.32 281.535 335.156 281.715C334.993 281.895 334.793 282.039 334.57 282.137C334.348 282.235 334.107 282.285 333.863 282.284C333.62 282.283 333.38 282.231 333.158 282.131C329.355 280.324 327.607 279.261 322.765 277.076C319.789 275.73 312.018 272.576 307.908 270.722C303.798 268.868 305.416 264.699 307.294 265.1C315.726 266.931 321.253 266.683 324.82 265.679C325.451 265.505 326.123 265.555 326.721 265.821Z" fill="#263238"/>
<path d="M348.476 260.553L355.692 271.206L364.974 265.774L357.758 255.133L348.476 260.553Z" fill="#9C614C"/>
<path d="M345.133 258.593L337.492 251.034L329.732 261.404L337.374 268.974L345.133 258.593Z" fill="#9C614C"/>
<path d="M438.588 166.32H394.89C384.627 103.242 389.753 101.447 389.753 101.447C389.753 101.447 396.78 100.006 404.137 99.0847C405.401 98.9312 406.665 98.7895 407.917 98.6713C414.518 98.1984 421.145 98.1984 427.746 98.6713C428.998 98.7304 430.25 98.8249 431.478 98.9312C436.448 99.3814 441.388 100.111 446.276 101.116C437.832 137.598 437.914 148.546 438.588 166.32Z" fill="#26A37E"/>
<path opacity="0.6" d="M438.588 166.32H394.89C384.627 103.242 389.753 101.447 389.753 101.447C389.753 101.447 396.78 100.006 404.137 99.0847C405.401 98.9312 406.665 98.7895 407.917 98.6713C414.518 98.1984 421.145 98.1984 427.746 98.6713C428.998 98.7304 430.25 98.8249 431.478 98.9312C436.448 99.3814 441.388 100.111 446.276 101.116C437.832 137.598 437.914 148.546 438.588 166.32Z" fill="#FAFAFA"/>
<path d="M431.525 98.943L431.052 100.053C430.804 100.667 424.722 114.958 412.935 124.5L410.054 126.862L407.845 123.874C401.22 114.899 403.204 103.23 404.184 99.1319C405.448 98.9784 406.711 98.8367 407.963 98.7186C414.565 98.2456 421.191 98.2456 427.793 98.7186C429.044 98.7422 430.296 98.8367 431.525 98.943Z" fill="#26A37E"/>
<path opacity="0.1" d="M431.525 98.943L431.052 100.053C430.804 100.667 424.722 114.958 412.935 124.5L410.054 126.862L407.845 123.874C401.22 114.899 403.204 103.23 404.184 99.1319C405.448 98.9784 406.711 98.8367 407.963 98.7186C414.565 98.2456 421.191 98.2456 427.793 98.7186C429.044 98.7422 430.296 98.8367 431.525 98.943Z" fill="#FAFAFA"/>
<path d="M405.826 44.3091C396.283 40.0456 390.544 56.261 391.193 67.7405C391.843 79.22 393.555 93.2977 388.524 90.9357C383.493 88.5737 387.06 85.0306 387.06 85.0306C387.06 85.0306 379.974 90.6404 388.016 93.7229C396.059 96.8053 410.361 96.5101 418.723 92.5419C423.506 85.3259 421.451 58.3514 421.451 58.3514L405.826 44.3091Z" fill="#263238"/>
<path d="M425.821 76.3619C424.581 82.7394 423.329 94.4315 427.793 98.6832C427.793 98.6832 421.888 112.655 410.704 121.737C403.689 112.229 407.964 98.6832 407.964 98.6832C415.05 96.9825 414.896 91.7033 413.656 86.7549L425.821 76.3619Z" fill="#B5715A"/>
<path d="M420.86 80.6018L413.656 86.7431C413.969 87.9028 414.174 89.0888 414.27 90.2861C416.987 89.8964 420.719 86.9084 421.014 84.0622C421.177 82.9091 421.124 81.7359 420.86 80.6018Z" fill="#9C614C"/>
<path d="M426.576 59.556C427.757 70.1852 428.549 74.614 424.214 80.9325C417.695 90.4515 404.409 89.6484 400.039 79.6334C396.106 70.6222 394.748 54.832 404.267 48.797C406.359 47.4599 408.757 46.6802 411.235 46.5321C413.714 46.3839 416.188 46.8723 418.424 47.9506C420.66 49.0289 422.583 50.6615 424.01 52.6928C425.437 54.7242 426.32 57.0868 426.576 59.556Z" fill="#B5715A"/>
<path d="M405.448 52.2574C409.262 56.7334 420.801 69.76 428.856 68.0712C437.123 66.3351 437.406 50.9464 427.438 44.5807C417.471 38.215 395.208 40.2464 405.448 52.2574Z" fill="#263238"/>
<path d="M429.34 33.5736C421.746 31.0581 421.073 38.4749 421.664 43.0927L430.994 49.9544C433.975 49.4839 436.862 48.539 439.544 47.1554C443.206 45.065 436.934 36.0892 429.34 33.5736Z" fill="#263238"/>
<path d="M431.053 68.6617C430.833 70.7051 429.85 72.5904 428.301 73.9408C426.222 75.7005 424.156 74.1416 423.86 71.5788C423.601 69.2876 424.368 65.6737 426.872 64.8352C429.376 63.9967 431.289 66.1579 431.053 68.6617Z" fill="#B5715A"/>
<path d="M352.302 212.675C351.983 222.265 354.912 233.933 358.124 243.665C358.809 245.743 359.506 247.739 360.191 249.57C363.12 257.554 365.742 263.116 365.742 263.116L352.88 270.439C352.88 270.439 351.132 268.242 348.558 264.38C347.377 262.679 346.125 260.636 344.743 258.321C337.539 246.275 328.114 226.587 327.666 205.636C326.957 172.851 394.913 166.32 394.913 166.32H427.048L418.049 191.889C418.049 191.889 352.88 195.231 352.302 212.675Z" fill="#26A37E"/>
<path opacity="0.6" d="M352.302 212.675C351.983 222.265 354.912 233.933 358.124 243.665C358.809 245.743 359.506 247.739 360.191 249.57C363.12 257.554 365.742 263.116 365.742 263.116L352.88 270.439C352.88 270.439 351.132 268.242 348.558 264.38C347.377 262.679 346.125 260.636 344.743 258.321C337.539 246.275 328.114 226.587 327.666 205.636C326.957 172.851 394.913 166.32 394.913 166.32H427.048L418.049 191.889C418.049 191.889 352.88 195.231 352.302 212.675Z" fill="black"/>
<path d="M360.192 249.629C358.515 252.416 353.979 259.514 348.582 264.38C347.401 262.679 346.149 260.636 344.768 258.321L358.125 243.7C358.786 245.743 359.507 247.775 360.192 249.629Z" fill="#263238"/>
<path d="M371.257 185.512L369.887 199.448C360.439 202.424 353.07 206.534 352.349 212.037C350.743 199.684 359.341 192.432 371.257 185.512Z" fill="#263238"/>
<path d="M406.464 166.308C406.464 166.308 366.238 182.724 360.109 200.865C352.291 224.013 331.032 256.727 331.032 256.727L339.961 268.348C339.961 268.348 364.502 244.562 381.225 217.328C402.177 183.079 452.653 219.253 438.647 166.308H406.464Z" fill="#26A37E"/>
<path opacity="0.6" d="M406.464 166.308C406.464 166.308 366.238 182.724 360.109 200.865C352.291 224.013 331.032 256.727 331.032 256.727L339.961 268.348C339.961 268.348 364.502 244.562 381.225 217.328C402.177 183.079 452.653 219.253 438.647 166.308H406.464Z" fill="black"/>
<path d="M411.2 65.3312C411.353 66.1815 411.023 66.961 410.468 67.0555C409.912 67.15 409.287 66.5477 409.18 65.6855C409.074 64.8234 409.357 64.0675 409.912 63.9612C410.468 63.8549 411.046 64.4809 411.2 65.3312Z" fill="#263238"/>
<path d="M401.55 67.0555C401.704 67.9058 401.373 68.6853 400.818 68.7798C400.263 68.8743 399.637 68.272 399.531 67.4216C399.425 66.5713 399.708 65.7918 400.263 65.6855C400.818 65.5792 401.397 66.2288 401.55 67.0555Z" fill="#263238"/>
<path d="M400.523 65.6973L398.361 65.4729C398.361 65.4729 399.708 66.8784 400.523 65.6973Z" fill="#263238"/>
<path d="M404.361 68.0712C403.949 70.1523 403.254 72.1671 402.294 74.0589C402.788 74.2883 403.326 74.4071 403.871 74.4071C404.415 74.4071 404.953 74.2883 405.447 74.0589L404.361 68.0712Z" fill="#884C3B"/>
<path d="M410.361 76.3029C410.328 76.3012 410.296 76.2904 410.269 76.2716C410.242 76.2528 410.22 76.2268 410.207 76.1966C410.192 76.1559 410.193 76.1107 410.211 76.0709C410.228 76.0311 410.261 75.9999 410.301 75.984C411.917 75.1995 413.181 73.8387 413.845 72.1693C413.851 72.1497 413.862 72.1315 413.875 72.116C413.889 72.1006 413.906 72.088 413.925 72.0792C413.943 72.0704 413.964 72.0654 413.985 72.0647C414.005 72.0639 414.026 72.0674 414.045 72.0748C414.086 72.0908 414.12 72.1214 414.139 72.1607C414.159 72.1999 414.163 72.2451 414.152 72.2874C413.45 74.052 412.103 75.4835 410.384 76.2911L410.361 76.3029Z" fill="#263238"/>
<path d="M412.275 61.5047C412.192 61.5061 412.112 61.4766 412.05 61.4221C411.568 60.9667 410.985 60.6303 410.35 60.4396C409.714 60.2489 409.043 60.2092 408.389 60.3237C408.348 60.3362 408.305 60.3403 408.262 60.3358C408.219 60.3312 408.178 60.318 408.141 60.2971C408.103 60.2761 408.07 60.2478 408.044 60.2138C408.018 60.1798 407.999 60.1409 407.988 60.0993C407.966 60.0163 407.977 59.9281 408.019 59.8531C408.06 59.7782 408.13 59.7225 408.212 59.6978C408.973 59.5368 409.761 59.56 410.511 59.7655C411.26 59.9709 411.95 60.3526 412.523 60.8788C412.583 60.9405 412.616 61.0231 412.616 61.1091C412.616 61.1951 412.583 61.2777 412.523 61.3394C412.498 61.3851 412.462 61.424 412.419 61.4528C412.376 61.4816 412.326 61.4994 412.275 61.5047Z" fill="#263238"/>
<path d="M396.283 63.2172H396.165C396.085 63.1809 396.022 63.1154 395.989 63.0341C395.956 62.9528 395.955 62.8619 395.988 62.7802C396.282 62.0598 396.744 61.4201 397.336 60.9147C397.927 60.4093 398.631 60.0528 399.389 59.8749C399.473 59.8608 399.56 59.8809 399.63 59.9307C399.7 59.9806 399.747 60.0561 399.761 60.1407C399.775 60.2252 399.755 60.3119 399.705 60.3817C399.655 60.4515 399.58 60.4986 399.495 60.5127C398.846 60.6756 398.245 60.9894 397.74 61.4286C397.235 61.8678 396.841 62.4199 396.59 63.0401C396.561 63.0957 396.516 63.1419 396.462 63.1733C396.408 63.2046 396.346 63.2199 396.283 63.2172Z" fill="#263238"/>
<path d="M325.386 266.707C323.993 266.435 321.583 265.797 321.052 264.569C320.965 264.35 320.936 264.112 320.967 263.879C320.998 263.645 321.088 263.423 321.229 263.234C321.295 263.11 321.394 263.006 321.515 262.933C321.635 262.86 321.773 262.822 321.914 262.821C323.249 262.821 325.339 266.057 325.564 266.435C325.583 266.463 325.593 266.496 325.593 266.529C325.593 266.563 325.583 266.596 325.564 266.624C325.543 266.652 325.517 266.674 325.486 266.688C325.455 266.703 325.42 266.709 325.386 266.707ZM321.843 263.164C321.763 263.165 321.685 263.187 321.616 263.228C321.548 263.27 321.492 263.329 321.454 263.4C321.348 263.542 321.28 263.708 321.255 263.884C321.231 264.059 321.25 264.238 321.312 264.404C321.631 265.124 322.977 265.797 324.961 266.234C324.205 265.136 322.705 263.164 321.843 263.164Z" fill="#26A37E"/>
<path d="M325.386 266.707C325.359 266.706 325.332 266.699 325.308 266.687C325.283 266.674 325.262 266.657 325.244 266.636C324.477 265.585 323.792 262.774 324.453 261.841C324.562 261.689 324.721 261.579 324.902 261.532C325.083 261.484 325.276 261.502 325.445 261.581C325.623 261.629 325.788 261.718 325.925 261.841C326.062 261.964 326.169 262.118 326.237 262.29C326.862 263.683 325.611 266.482 325.552 266.6C325.538 266.628 325.519 266.653 325.494 266.671C325.469 266.69 325.44 266.702 325.41 266.707H325.386ZM325.079 261.876C325.012 261.874 324.944 261.888 324.884 261.919C324.824 261.951 324.773 261.997 324.737 262.053C324.241 262.75 324.737 265.041 325.363 266.14C325.658 265.372 326.355 263.435 325.906 262.443C325.856 262.318 325.778 262.206 325.677 262.115C325.577 262.025 325.457 261.96 325.327 261.923C325.248 261.893 325.164 261.877 325.079 261.876Z" fill="#26A37E"/>
<path d="M410.172 63.973L408.011 63.7487C408.011 63.7487 409.357 65.1541 410.172 63.973Z" fill="#263238"/>
<path d="M439.249 163.757L439.592 167.655C439.745 167.962 439.391 168.269 438.883 168.269H394.713C394.323 168.269 393.992 168.08 393.969 167.832L393.579 163.923C393.579 163.651 393.898 163.427 394.323 163.427H438.529C438.667 163.415 438.806 163.439 438.932 163.497C439.059 163.555 439.168 163.645 439.249 163.757Z" fill="#26A37E"/>
<path opacity="0.2" d="M439.249 163.757L439.592 167.655C439.745 167.962 439.391 168.269 438.883 168.269H394.713C394.323 168.269 393.992 168.08 393.969 167.832L393.579 163.923C393.579 163.651 393.898 163.427 394.323 163.427H438.529C438.667 163.415 438.806 163.439 438.932 163.497C439.059 163.555 439.168 163.645 439.249 163.757Z" fill="#FAFAFA"/>
<path d="M433.308 168.694H434.489C434.725 168.694 434.903 168.576 434.891 168.422L434.336 163.344C434.336 163.202 434.111 163.072 433.875 163.072H432.694C432.458 163.072 432.281 163.202 432.293 163.344L432.848 168.422C432.859 168.576 433.072 168.694 433.308 168.694Z" fill="#26A37E"/>
<path opacity="0.6" d="M433.308 168.694H434.489C434.725 168.694 434.903 168.576 434.891 168.422L434.336 163.344C434.336 163.202 434.111 163.072 433.875 163.072H432.694C432.458 163.072 432.281 163.202 432.293 163.344L432.848 168.422C432.859 168.576 433.072 168.694 433.308 168.694Z" fill="black"/>
<path d="M398.043 168.694H399.224C399.46 168.694 399.649 168.576 399.625 168.422L399.07 163.344C399.07 163.202 398.846 163.072 398.609 163.072H397.428C397.192 163.072 397.015 163.202 397.027 163.344L397.582 168.422C397.606 168.576 397.759 168.694 398.043 168.694Z" fill="#26A37E"/>
<path opacity="0.6" d="M398.043 168.694H399.224C399.46 168.694 399.649 168.576 399.625 168.422L399.07 163.344C399.07 163.202 398.846 163.072 398.609 163.072H397.428C397.192 163.072 397.015 163.202 397.027 163.344L397.582 168.422C397.606 168.576 397.759 168.694 398.043 168.694Z" fill="black"/>
<path d="M415.675 168.694H416.856C417.093 168.694 417.27 168.576 417.258 168.422L416.703 163.344C416.703 163.202 416.479 163.072 416.242 163.072H415.061C414.825 163.072 414.648 163.202 414.66 163.344L415.215 168.422C415.238 168.576 415.475 168.694 415.675 168.694Z" fill="#26A37E"/>
<path opacity="0.6" d="M415.675 168.694H416.856C417.093 168.694 417.27 168.576 417.258 168.422L416.703 163.344C416.703 163.202 416.479 163.072 416.242 163.072H415.061C414.825 163.072 414.648 163.202 414.66 163.344L415.215 168.422C415.238 168.576 415.475 168.694 415.675 168.694Z" fill="black"/>
<path d="M436.06 118.052L441.694 122.847C440.513 129.224 439.686 134.539 439.166 139.263C438.115 134.527 435.434 121.737 436.06 118.052Z" fill="#26A37E"/>
<path opacity="0.3" d="M436.06 118.052L441.694 122.847C440.513 129.224 439.686 134.539 439.166 139.263C438.115 134.527 435.434 121.737 436.06 118.052Z" fill="#FAFAFA"/>
<path d="M316.706 136.145H393.33L404.432 181.378H327.819L316.706 136.145Z" fill="#FAFAFA"/>
<path d="M355.526 172.957L402.389 183.882L432.458 175.461L432.151 172.957H355.526Z" fill="#FAFAFA"/>
<path d="M314.355 136.145H390.968L402.07 181.378H325.457L314.355 136.145Z" fill="#26A37E"/>
<path opacity="0.2" d="M314.355 136.145H390.968L402.07 181.378H325.457L314.355 136.145Z" fill="#FAFAFA"/>
<path d="M325.458 181.378L325.765 183.882H402.39L402.071 181.378H325.458Z" fill="#26A37E"/>
<path opacity="0.2" d="M325.458 181.378L325.765 183.882H402.39L402.071 181.378H325.458Z" fill="#FAFAFA"/>
<path d="M450.445 113.127C452.616 119.471 454.453 125.924 455.949 132.46C456.728 135.743 457.378 139.062 457.874 142.511C458.122 144.235 458.323 145.995 458.429 147.837C458.429 148.758 458.5 149.703 458.429 150.695V151.463V151.876L458.37 152.443C458.282 153.177 458.124 153.901 457.897 154.604C457.092 156.915 455.72 158.986 453.906 160.628C452.458 161.969 450.875 163.156 449.182 164.171C446.136 165.979 442.93 167.501 439.603 168.718C436.379 169.899 433.132 170.902 429.884 171.788C426.636 172.674 423.388 173.359 419.999 173.902L418.664 168.505C421.628 167.418 424.687 166.273 427.616 164.962C430.545 163.651 433.521 162.446 436.261 161.017C438.97 159.684 441.565 158.131 444.021 156.376C445.091 155.609 446.081 154.735 446.973 153.766C447.571 153.163 448.016 152.426 448.272 151.616C448.278 150.617 448.211 149.618 448.071 148.628C447.894 147.199 447.634 145.711 447.351 144.2C446.749 141.188 445.969 138.117 445.19 135.035C444.41 131.952 443.477 128.87 442.556 125.799C441.635 122.729 440.69 119.611 439.769 116.611L450.445 113.127Z" fill="#B5715A"/>
<path d="M446.323 101.128C450.705 102.451 457.401 119.623 457.401 119.623L440.43 131.752C440.43 131.752 432.801 117.072 434.631 111.426C436.545 105.533 441.339 99.6044 446.323 101.128Z" fill="#26A37E"/>
<path opacity="0.6" d="M446.323 101.128C450.705 102.451 457.401 119.623 457.401 119.623L440.43 131.752C440.43 131.752 432.801 117.072 434.631 111.426C436.545 105.533 441.339 99.6044 446.323 101.128Z" fill="#FAFAFA"/>
<path d="M420.896 168.895L410.751 166.308L415.605 176.111C415.605 176.111 422.502 176.406 424.781 172.568L420.896 168.895Z" fill="#B5715A"/>
<path d="M402.472 170.04L406.971 178.012L415.557 176.111L410.703 166.32L402.472 170.04Z" fill="#B5715A"/>
</svg>
